<svg xmlns="http://www.w3.org/2000/svg" viewBox="0 0 537.48 424.44"><defs><style>.cls-1{fill:none;stroke:#000;stroke-miterlimit:10;}.cls-2,.cls-20{font-size:12px;font-family:MyriadPro-Cond, Myriad Pro;}.cls-10,.cls-2,.cls-9{fill:#fff;}.cls-3{letter-spacing:-0.01em;}.cls-4{letter-spacing:0em;}.cls-5{font-size:20px;}.cls-5,.cls-9{font-family:MyriadPro-BoldCond, Myriad Pro;}.cls-12,.cls-13,.cls-14,.cls-15,.cls-16,.cls-17,.cls-18,.cls-19,.cls-5,.cls-8,.cls-9{font-weight:700;}.cls-6{letter-spacing:0em;}.cls-7{fill:#04a237;}.cls-8,.cls-9{font-size:24px;}.cls-8{font-family:MyriadPro-Bold, Myriad Pro;}.cls-10{font-size:13px;font-family:MyriadPro-CondIt, Myriad Pro;font-style:italic;}.cls-11{letter-spacing:-0.01em;}.cls-12,.cls-13,.cls-14,.cls-15,.cls-16,.cls-17,.cls-18,.cls-19{font-family:MyriadPro-BoldCondIt, Myriad Pro;}.cls-13{letter-spacing:-0.01em;}.cls-14{letter-spacing:0.01em;}.cls-15{letter-spacing:0em;}.cls-16{letter-spacing:-0.01em;}.cls-17{letter-spacing:0.02em;}.cls-18{letter-spacing:-0.01em;}.cls-19{letter-spacing:0em;}.cls-21{letter-spacing:-0.01em;}.cls-22{letter-spacing:-0.01em;}.cls-23{letter-spacing:0em;}.cls-24{letter-spacing:-0.01em;}.cls-25{letter-spacing:-0.01em;}.cls-26{letter-spacing:0em;}.cls-27{letter-spacing:0.01em;}.cls-28{letter-spacing:-0.01em;}.cls-29{letter-spacing:0em;}.cls-30{letter-spacing:-0.01em;}.cls-31{letter-spacing:-0.01em;}.cls-32{letter-spacing:-0.06em;}.cls-33{letter-spacing:0em;}.cls-34{letter-spacing:-0.01em;}.cls-35{letter-spacing:-0.01em;}.cls-36{letter-spacing:0em;}.cls-37{letter-spacing:-0.01em;}.cls-38{letter-spacing:0.01em;}.cls-39{letter-spacing:0.01em;}.cls-40{letter-spacing:0em;}.cls-41{letter-spacing:0.02em;}</style></defs><title>habit-loop</title><g id="Layer_2" data-name="Layer 2"><g id="Layer_1-2" data-name="Layer 1"><polyline class="cls-1" points="94.96 201.64 87.53 209.07 0 209.07"/><polyline class="cls-1" points="268.98 395.86 244.9 423.94 186.58 423.94"/><polyline class="cls-1" points="271.51 395.92 292.46 421.86 343.05 421.86"/><polyline class="cls-1" points="261.02 393.14 253.58 400.58 149.76 400.58"/><polyline class="cls-1" points="281.06 395.26 288.49 402.69 376.02 402.69"/><polyline class="cls-1" points="447.16 190.6 454.6 183.16 536.13 183.16"/><polyline class="cls-1" points="261.02 23.8 253.58 16.36 152.76 16.36"/><polyline class="cls-1" points="281.06 21.68 288.49 14.25 357.02 14.25"/><circle cx="272.8" cy="207.59" r="167.69"/><text class="cls-2" transform="translate(265.2 193.62)"><tspan class="cls-3">T<tspan class="cls-4" x="4.09" y="0">he </tspan></tspan><tspan class="cls-5"><tspan x="-11.58" y="18">Habit</tspan><tspan class="cls-6" x="-9.24" y="36">L</tspan><tspan x="-1.74" y="36">oop</tspan></tspan></text><circle class="cls-7" cx="272.8" cy="40.06" r="22.47"/><text class="cls-8" transform="translate(265.9 47.57)">1</text><circle class="cls-7" cx="440.49" cy="207.75" r="22.47"/><text class="cls-8" transform="translate(433.59 215.26)">2</text><circle class="cls-7" cx="272.8" cy="375.44" r="22.47"/><text class="cls-8" transform="translate(265.9 382.95)">3</text><circle class="cls-7" cx="105.11" cy="207.75" r="22.47"/><text class="cls-8" transform="translate(98.21 215.26)">4</text><text class="cls-9" transform="translate(257.61 87.66)">Cue</text><text class="cls-10" transform="translate(241.56 103.26)">Ma<tspan class="cls-11" x="12.56" y="0">k</tspan><tspan x="16.85" y="0">e it </tspan><tspan class="cls-12" x="30.51" y="0">o</tspan><tspan class="cls-13" x="35.93" y="0">b</tspan><tspan class="cls-12" x="41.46" y="0">vious</tspan></text><text class="cls-10" transform="translate(248.74 319.19)">Ma<tspan class="cls-11" x="12.56" y="0">k</tspan><tspan x="16.85" y="0">e it </tspan><tspan class="cls-12" x="30.51" y="0">easy</tspan></text><text class="cls-10" transform="translate(332.96 230.22)">Ma<tspan class="cls-11" x="12.56" y="0">k</tspan><tspan x="16.85" y="0">e it </tspan><tspan class="cls-14" x="30.51" y="0">a</tspan><tspan class="cls-15" x="36.22" y="0">tt</tspan><tspan class="cls-16" x="43.57" y="0">r</tspan><tspan class="cls-12" x="47.31" y="0">a</tspan><tspan class="cls-17" x="52.84" y="0">c</tspan><tspan class="cls-12" x="57.12" y="0">ti</tspan><tspan class="cls-18" x="63.63" y="0">v</tspan><tspan class="cls-12" x="68.44" y="0">e</tspan></text><text class="cls-10" transform="translate(137.16 230.22)">Ma<tspan class="cls-11" x="12.56" y="0">k</tspan><tspan x="16.85" y="0">e it </tspan><tspan class="cls-19" x="30.51" y="0">s</tspan><tspan class="cls-14" x="34.59" y="0">a</tspan><tspan class="cls-12" x="40.3" y="0">tisfying</tspan></text><text class="cls-20" transform="translate(152.76 10.38)">Impleme<tspan class="cls-21" x="33.06" y="0">n</tspan><tspan x="37.85" y="0">t</tspan><tspan class="cls-22" x="40.91" y="0">a</tspan><tspan class="cls-23" x="45.17" y="0">tion i</tspan><tspan class="cls-24" x="63.98" y="0">n</tspan><tspan class="cls-25" x="68.77" y="0">t</tspan><tspan x="71.73" y="0">e</tspan><tspan class="cls-24" x="76.09" y="0">n</tspan><tspan class="cls-23" x="80.88" y="0">tion</tspan></text><text class="cls-20" transform="translate(305.34 10.04)">Habit stac<tspan class="cls-26" x="36.38" y="0">k</tspan><tspan x="40.58" y="0">ing</tspan></text><text class="cls-9" transform="translate(344.65 214.48)"><tspan class="cls-27">C</tspan><tspan x="9.62" y="0">r</tspan><tspan class="cls-28" x="16.68" y="0">a</tspan><tspan x="26.47" y="0">ving</tspan></text><text class="cls-9" transform="translate(135.36 214.48)"><tspan class="cls-29">R</tspan><tspan class="cls-30" x="11.21" y="0">e</tspan><tspan class="cls-31" x="21.1" y="0">w</tspan><tspan x="35.64" y="0">a</tspan><tspan class="cls-26" x="45.77" y="0">r</tspan><tspan x="52.73" y="0">d</tspan></text><text class="cls-9" transform="translate(233.1 342.08)"><tspan class="cls-29">R</tspan><tspan x="11.21" y="0">esponse</tspan></text><text class="cls-20" transform="translate(459.86 178.96)"><tspan class="cls-32">T</tspan><tspan x="3.52" y="0">empt</tspan><tspan class="cls-22" x="23.16" y="0">a</tspan><tspan class="cls-23" x="27.42" y="0">tion </tspan><tspan class="cls-33" x="44.03" y="0">B</tspan><tspan x="49.06" y="0">undling</tspan></text><polyline class="cls-1" points="89.73 190.6 82.29 183.16 0.76 183.16"/><polyline class="cls-1" points="89.73 226.12 82.29 233.55 0.76 233.55"/><text class="cls-20" transform="translate(0.76 178.96)"><tspan class="cls-22">U</tspan><tspan x="5.38" y="0">se </tspan><tspan class="cls-28" x="15.08" y="0">r</tspan><tspan x="17.89" y="0">ein</tspan><tspan class="cls-29" x="29.32" y="0">f</tspan><tspan class="cls-23" x="32.02" y="0">o</tspan><tspan class="cls-34" x="36.61" y="0">r</tspan><tspan class="cls-21" x="39.42" y="0">c</tspan><tspan x="42.97" y="0">eme</tspan><tspan class="cls-24" x="59.12" y="0">n</tspan><tspan class="cls-23" x="63.91" y="0">t</tspan></text><text class="cls-20" transform="translate(0 205.64)">Habit t<tspan class="cls-24" x="24.92" y="0">r</tspan><tspan x="27.83" y="0">ac</tspan><tspan class="cls-35" x="35.82" y="0">k</tspan><tspan class="cls-23" x="39.89" y="0">er</tspan></text><text class="cls-20" transform="translate(0.42 229.22)"><tspan class="cls-36">N</tspan><tspan x="5.53" y="0">e</tspan><tspan class="cls-37" x="9.89" y="0">v</tspan><tspan x="13.9" y="0">er miss </tspan><tspan class="cls-38" x="41.58" y="0">t</tspan><tspan x="44.76" y="0">wi</tspan><tspan class="cls-21" x="53.76" y="0">c</tspan><tspan x="57.31" y="0">e</tspan></text><text class="cls-20" transform="translate(149.31 395.26)"><tspan class="cls-21">P</tspan><tspan class="cls-4" x="4.72" y="0">rime the e</tspan><tspan class="cls-22" x="42.1" y="0">n</tspan><tspan x="46.85" y="0">vi</tspan><tspan class="cls-34" x="53.22" y="0">r</tspan><tspan x="56.03" y="0">onme</tspan><tspan class="cls-24" x="77.28" y="0">n</tspan><tspan x="82.07" y="0">t</tspan></text><text class="cls-20" transform="translate(299.48 396.86)"><tspan class="cls-37">T</tspan><tspan x="4.09" y="0">he </tspan><tspan class="cls-38" x="15.19" y="0">t</tspan><tspan class="cls-37" x="18.37" y="0">w</tspan><tspan class="cls-39" x="25.01" y="0">o</tspan><tspan class="cls-4" x="29.77" y="0">-minu</tspan><tspan class="cls-25" x="52.4" y="0">t</tspan><tspan x="55.37" y="0">e </tspan><tspan class="cls-40" x="61.61" y="0">r</tspan><tspan x="64.55" y="0">ule</tspan></text><text class="cls-20" transform="translate(299.08 416.68)"><tspan class="cls-24">A</tspan><tspan x="5.15" y="0">u</tspan><tspan class="cls-25" x="9.92" y="0">t</tspan><tspan class="cls-4" x="12.89" y="0">om</tspan><tspan class="cls-22" x="24.92" y="0">a</tspan><tspan class="cls-23" x="29.18" y="0">tion</tspan></text><text class="cls-20" transform="translate(186.55 419.68)">Habit <tspan class="cls-24" x="21.86" y="0">c</tspan><tspan class="cls-23" x="25.42" y="0">o</tspan><tspan class="cls-24" x="30.01" y="0">n</tspan><tspan x="34.8" y="0">t</tspan><tspan class="cls-24" x="37.86" y="0">r</tspan><tspan class="cls-23" x="40.76" y="0">a</tspan><tspan class="cls-41" x="45.13" y="0">c</tspan><tspan class="cls-23" x="48.94" y="0">t</tspan></text></g></g></svg>