<?xml version="1.0" encoding="UTF-8" standalone="no"?>
<svg
   version="1.1"
   viewBox="0 0 514.40167 332.56714"
   fill="none"
   stroke="none"
   stroke-linecap="square"
   stroke-miterlimit="10"
   id="svg217"
   sodipodi:docname="habit-draw2.svg"
   inkscape:version="1.1.2 (b8e25be8, 2022-02-05)"
   width="514.40167"
   height="332.56714"
   xmlns:inkscape="http://www.inkscape.org/namespaces/inkscape"
   xmlns:sodipodi="http://sodipodi.sourceforge.net/DTD/sodipodi-0.dtd"
   xmlns="http://www.w3.org/2000/svg"
   xmlns:svg="http://www.w3.org/2000/svg">
  <defs
     id="defs221" />
  <sodipodi:namedview
     id="namedview219"
     pagecolor="#ffffff"
     bordercolor="#666666"
     borderopacity="1.0"
     inkscape:pageshadow="2"
     inkscape:pageopacity="0.0"
     inkscape:pagecheckerboard="0"
     showgrid="false"
     inkscape:zoom="0.77395833"
     inkscape:cx="270.68641"
     inkscape:cy="40.699866"
     inkscape:window-width="1312"
     inkscape:window-height="969"
     inkscape:window-x="1943"
     inkscape:window-y="132"
     inkscape:window-maximized="0"
     inkscape:current-layer="g215"
     fit-margin-top="0"
     fit-margin-left="0"
     fit-margin-right="0"
     fit-margin-bottom="0" />
  <clipPath
     id="p.0">
    <path
       d="M 0,0 H 1280 V 960 H 0 Z"
       clip-rule="nonzero"
       id="path132" />
  </clipPath>
  <g
     clip-path="url(#p.0)"
     id="g215"
     transform="translate(-141.74413,-209.82002)">
    <path
       fill="#000000"
       fill-opacity="0"
       d="M 0,0 H 1280 V 960 H 0 Z"
       fill-rule="evenodd"
       id="path135" />
    <g
       id="g1227">
      <path
         fill="#ffffff"
         d="m 487.89764,245.95801 v 0 c 0,-19.68222 24.75476,-35.6378 55.29132,-35.6378 v 0 c 30.53656,0 55.29132,15.95558 55.29132,35.6378 v 0 c 0,19.68222 -24.75476,35.63779 -55.29132,35.63779 v 0 c -30.53656,0 -55.29132,-15.95557 -55.29132,-35.63779 z"
         fill-rule="evenodd"
         id="path137" />
      <path
         stroke="#000000"
         stroke-width="1"
         stroke-linejoin="round"
         stroke-linecap="butt"
         stroke-dasharray="1, 3"
         d="m 487.89764,245.95801 v 0 c 0,-19.68222 24.75476,-35.6378 55.29132,-35.6378 v 0 c 30.53656,0 55.29132,15.95558 55.29132,35.6378 v 0 c 0,19.68222 -24.75476,35.63779 -55.29132,35.63779 v 0 c -30.53656,0 -55.29132,-15.95557 -55.29132,-35.63779 z"
         fill-rule="evenodd"
         id="path139" />
      <path
         fill="#000000"
         d="m 516.93585,254.84175 q -0.89063,0 -0.89063,-1.82813 0,-1.15625 -1,-8.25 -1,-7.09375 -1.25,-7.73437 0.3125,-0.57813 0.82813,-0.57813 0.5625,0 1.03125,2.5 0.46875,2.64063 0.78125,6.04688 l 0.15625,1.9375 q 0.14062,1.64062 0.17187,1.65625 l 0.23438,-2.01563 0.15625,-1.25 q 0.3125,-2.73437 0.40625,-3.85937 0.10937,-1.48438 0.10937,-2.04688 v -0.45312 q 0,-0.26563 0.1875,-0.5 0.20313,-0.23438 0.4375,-0.23438 0.875,0 0.875,0.71875 v 0.35938 q 0,1.35937 0.26563,2.9375 0.28125,1.5625 0.8125,3.75 0.32812,1.28125 0.67187,3.09375 0.0625,-0.78125 0.45313,-3.82813 0.375,-2.79687 0.5625,-4.75 0.1875,-1.95312 0.1875,-3.65625 0,-0.54687 0.17187,-0.76562 0.1875,-0.23438 0.6875,-0.23438 0.28125,0 0.5,0.1875 0.23438,0.17188 0.23438,0.45313 0,0.26562 -0.23438,0.54687 0,1.73438 -0.26562,4.04688 -0.26563,2.3125 -0.64063,4.40625 -0.39062,2.04687 -0.65625,4.39062 -0.26562,2.32813 -0.26562,4.10938 0,0.375 -0.1875,0.60937 -0.17188,0.23438 -0.53125,0.23438 -0.26563,0 -0.625,-0.98438 -0.45313,-1.375 -1.125,-5.45312 l -0.4375,-2.8125 -0.20313,-1.5625 q -0.3125,2.1875 -0.46875,3.53125 -0.15625,1.32812 -0.29687,3.14062 -0.17188,1.75 -0.17188,3.45313 0,0.25 -0.20312,0.46875 -0.20313,0.21875 -0.46875,0.21875 z m 13.66846,0.0625 q -0.51563,0 -0.95313,-1.15625 -0.5,-1.23438 -0.75,-2.5625 l -0.15625,-0.8125 q -0.70312,-3.4375 -0.89062,-3.92188 h -0.29688 q 0,0.70313 -0.0156,1.28125 v 1.3125 q 0,3.21875 0.45312,5.01563 l -0.26562,0.65625 h -0.67188 l -0.3125,-0.35938 0.0312,-1.60937 q 0,-2.15625 -0.21875,-6.54688 -0.1875,-4.6875 -0.1875,-6.5625 0,-1.15625 0.78125,-1.15625 1.29688,0 2.125,0.6875 0.82813,0.67188 0.82813,1.85938 v 1.6875 q 0,0.35937 -0.125,0.82812 -0.10938,0.46875 -0.25,0.75 l -0.46875,0.85938 -0.375,0.73437 0.125,0.5625 0.32812,1.70313 q 0.34375,1.85937 0.65625,3.01562 0.3125,1.14063 0.76563,2.07813 l 0.14062,0.29687 q 0.23438,0.46875 0.23438,0.76563 0,0.23437 -0.14063,0.40625 -0.14062,0.1875 -0.39062,0.1875 z m -2.9375,-9.625 q 0.51562,-0.26563 0.89062,-1.45313 0.375,-1.1875 0.375,-2.1875 0,-0.76562 -0.1875,-1.4375 -0.125,-0.39062 -0.40625,-0.59375 -0.26562,-0.20312 -0.67187,-0.20312 l -0.0625,0.125 -0.0469,0.20312 0.0469,2.84375 q 0.0625,1.23438 0.0625,2.70313 z m 7.01751,9.1875 q -2.07812,0 -2.07812,-0.71875 0,-0.5625 0.73437,-0.5625 h 0.26563 l 0.25,0.0156 q 0.1875,0 0.25,-0.10937 0.0781,-0.125 0.0781,-0.4375 0,-0.40625 -0.0469,-1.28125 -0.0625,-0.57813 -0.17188,-2.0625 -0.20312,-3.67188 -0.20312,-5.54688 0,-0.67187 0.0156,-1.21875 l 0.0312,-1.21875 q 0,-0.79687 -0.0781,-1.32812 -0.39063,0.0937 -0.54688,0.0937 -0.57812,0 -0.57812,-0.5625 0,-0.29688 0.35937,-0.51563 0.35938,-0.21875 0.90625,-0.3125 0.96875,-0.1875 1.70313,-0.1875 0.29687,0 0.5,0.20313 0.20312,0.20312 0.20312,0.46875 0,0.26562 -0.15625,0.46875 -0.15625,0.1875 -0.39062,0.1875 -0.15625,0 -0.25,-0.0312 h -0.1875 q -0.23438,0 -0.34375,0.10937 -0.10938,0.10938 -0.10938,0.39063 0,2.32812 0.28125,7.01562 0.0469,0.85938 0.1875,2.54688 0.125,1.09375 0.125,2.25 v 0.90625 q 0.14063,-0.0156 0.48438,-0.0156 1,0 1,0.84375 v 0.14063 l -0.59375,0.40625 q -0.0312,0 -0.15625,0.0156 -0.125,0 -0.5,0 -0.76563,0.0469 -0.98438,0.0469 z m 5.5802,-0.35938 -0.0312,-0.92187 q -0.0156,-0.42188 -0.0156,-0.92188 l 0.0156,-0.8125 q -0.0625,-0.26562 -0.35937,-5.25 -0.28125,-5 -0.32813,-6.42187 -1.39062,-0.0469 -1.78125,-0.28125 -0.26562,-0.1875 -0.26562,-0.4375 0,-0.1875 0.25,-0.34375 0.25,-0.15625 0.51562,-0.15625 0.67188,0 1.64063,0.0937 0.90625,0.125 1.625,0.125 h 0.1875 0.20312 q 0.73438,0 0.73438,0.57812 0,0.28125 -0.23438,0.46875 -0.23437,0.17188 -0.54687,0.17188 -0.21875,0 -0.625,-0.0625 l -0.48438,-0.0937 -0.0312,0.10937 -0.0156,0.125 q 0,2.14063 0.40625,6.8125 0.39062,4.39063 0.39062,6.8125 0,0.29688 -0.26562,0.51563 -0.25,0.20312 -0.5625,0.20312 z m 5.98774,0.35938 q -2.07813,0 -2.07813,-0.71875 0,-0.5625 0.73438,-0.5625 h 0.26562 l 0.25,0.0156 q 0.1875,0 0.25,-0.10937 0.0781,-0.125 0.0781,-0.4375 0,-0.40625 -0.0469,-1.28125 -0.0625,-0.57813 -0.17187,-2.0625 -0.20313,-3.67188 -0.20313,-5.54688 0,-0.67187 0.0156,-1.21875 l 0.0312,-1.21875 q 0,-0.79687 -0.0781,-1.32812 -0.39062,0.0937 -0.54687,0.0937 -0.57813,0 -0.57813,-0.5625 0,-0.29688 0.35938,-0.51563 0.35937,-0.21875 0.90625,-0.3125 0.96875,-0.1875 1.70312,-0.1875 0.29688,0 0.5,0.20313 0.20313,0.20312 0.20313,0.46875 0,0.26562 -0.15625,0.46875 -0.15625,0.1875 -0.39063,0.1875 -0.15625,0 -0.25,-0.0312 h -0.1875 q -0.23437,0 -0.34375,0.10937 -0.10937,0.10938 -0.10937,0.39063 0,2.32812 0.28125,7.01562 0.0469,0.85938 0.1875,2.54688 0.125,1.09375 0.125,2.25 v 0.90625 q 0.14062,-0.0156 0.48437,-0.0156 1,0 1,0.84375 v 0.14063 l -0.59375,0.40625 q -0.0312,0 -0.15625,0.0156 -0.125,0 -0.5,0 -0.76562,0.0469 -0.98437,0.0469 z m 10.78338,0.10937 q -0.28125,0 -0.4375,-0.15625 -0.14062,-0.15625 -0.20312,-0.54687 l -0.15625,-0.45313 v -0.0469 -0.0781 q 0,-0.78125 -1.64063,-5.39062 -1.64062,-4.60938 -2.57812,-6.82813 v 12.07813 l 0.0937,0.17187 q 0.0312,0.0469 0.0937,0.17188 0.0781,0.10937 0.0781,0.23437 0,0.3125 -0.21875,0.53125 -0.21875,0.20313 -0.53125,0.20313 -0.76562,0 -0.76562,-1.45313 l -0.0156,-4.10937 q -0.0312,-1.84375 -0.0312,-4.125 0,-0.76563 0.0781,-2.23438 0.0625,-1.51562 0.0625,-2.23437 0,-1.125 0.875,-1.76563 v 0.14063 q 0.14062,-0.0469 0.1875,-0.0469 0.54687,0 1.39062,1.92188 0.67188,1.53125 1.20313,3.23437 0.54687,1.70313 1.4375,4.84375 l 0.23437,0.875 q 0.5625,1.9375 0.84375,2.78125 0.48438,-5.17187 0.48438,-12.20312 v -0.3125 q -0.0312,-0.14063 -0.0312,-0.3125 0,-0.71875 0.57812,-0.71875 0.34375,0 0.51563,0.26562 0.1875,0.26563 0.1875,0.67188 v 1.79687 q -0.0469,3.70313 -0.29688,8.03125 -0.23437,4.3125 -0.57812,4.85938 -0.6875,0.20312 -0.85938,0.20312 z m 8.05847,0.10938 q -0.67187,0 -1.21875,-0.25 -0.54687,-0.25 -0.9375,-0.65625 -0.3125,-0.34375 -0.57812,-0.98438 -0.26563,-0.65625 -0.375,-1.25 -0.125,-0.45312 -0.20313,-1.3125 -0.0625,-0.875 -0.0937,-1.5 v -1.39062 -0.95313 q 0,-1.39062 0.0469,-2.28125 0.0469,-1.07812 0.3125,-2.28125 0.21875,-1.07812 0.75,-1.89062 0.5,-0.82813 1.42187,-1.14063 0.42188,-0.15625 1,-0.15625 1.03125,0 1.03125,0.59375 0,0.29688 -0.23437,0.48438 -0.21875,0.17187 -0.53125,0.17187 -0.14063,0 -0.26563,-0.0312 -0.0937,-0.0156 -0.23437,-0.0156 -0.40625,0 -0.71875,0.4375 -0.3125,0.42187 -0.53125,1.1875 -0.39063,1.48437 -0.53125,3.23437 -0.0937,1.64063 -0.0937,2.42188 0,0.82812 0.0625,2.23437 0.10937,1.32813 0.42187,2.3125 0.15625,0.57813 0.39063,0.92188 0.23437,0.34375 0.59375,0.59375 0.40625,0.25 0.82812,0.25 1.15625,0 1.15625,-3.82813 V 248.498 q -0.17187,-0.0781 -0.54687,-0.0781 h -0.21875 -0.26563 q -0.84375,0 -0.84375,-0.54687 0,-0.32813 0.21875,-0.5 0.23438,-0.1875 0.59375,-0.1875 v 0.0156 h 0.34375 q 2.15625,0 2.15625,0.75 0,0.20313 -0.10937,0.85938 -0.15625,0.57812 -0.15625,0.85937 0,0.40625 0.0781,1.28125 l 0.0469,1.26563 q 0,1.15625 -0.8125,1.8125 -0.79688,0.65625 -1.95313,0.65625 z"
         fill-rule="nonzero"
         id="path141" />
      <path
         fill="#ffffff"
         d="m 447.063,332.61942 v 0 c 0,-19.68219 43.03708,-35.63779 96.12598,-35.63779 v 0 c 53.08893,0 96.12598,15.9556 96.12598,35.63779 v 0 c 0,19.68222 -43.03705,35.63782 -96.12598,35.63782 v 0 c -53.0889,0 -96.12598,-15.9556 -96.12598,-35.63782 z"
         fill-rule="evenodd"
         id="path143" />
      <path
         stroke="#000000"
         stroke-width="1"
         stroke-linejoin="round"
         stroke-linecap="butt"
         stroke-dasharray="1, 3"
         d="m 447.063,332.61942 v 0 c 0,-19.68219 43.03708,-35.63779 96.12598,-35.63779 v 0 c 53.08893,0 96.12598,15.9556 96.12598,35.63779 v 0 c 0,19.68222 -43.03705,35.63782 -96.12598,35.63782 v 0 c -53.0889,0 -96.12598,-15.9556 -96.12598,-35.63782 z"
         fill-rule="evenodd"
         id="path145" />
      <path
         fill="#000000"
         d="m 486.9364,341.19067 q -0.70313,0 -0.70313,-1.54688 0,-2.78125 -0.25,-8.89062 -0.25,-6.125 -0.46875,-6.46875 0,-0.67188 0.53125,-1.03125 0.1875,-0.125 0.53125,-0.20313 0.35938,-0.0781 0.64063,-0.0781 0.14062,-0.0312 0.59375,-0.0312 0.5625,0 0.79687,0.1875 0.23438,0.17187 0.23438,0.625 0,0.26562 -0.1875,0.40625 -0.1875,0.125 -0.48438,0.125 l -0.23437,-0.0156 h -0.32813 q -0.67187,0 -0.67187,0.26563 0,1.23437 0.15625,3.25 0.15625,1.6875 0.20312,3.20312 0.15625,-0.0469 0.625,-0.15625 0.46875,-0.10937 0.71875,-0.10937 0.26563,0 0.45313,0.23437 0.1875,0.21875 0.1875,0.5 0,0.34375 -0.3125,0.48438 -0.0469,0.0312 -0.23438,0.10937 -0.17187,0.0781 -0.45312,0.10938 -0.21875,0.0312 -0.71875,0.0781 h -0.26563 q 0,1.4375 0.23438,3.90625 0.21875,2.59375 0.21875,3.90625 l -0.0312,0.0937 -0.0156,0.0625 q 0.0156,0.0937 0.0156,0.3125 0,0.29688 -0.21875,0.48438 -0.20313,0.1875 -0.5625,0.1875 z m 7.90686,0.42187 q -0.625,0 -1.15625,-0.40625 -0.51562,-0.39062 -0.85937,-1.0625 -0.6875,-1.45312 -0.85938,-3.1875 -0.21875,-1.625 -0.21875,-3.14062 0,-0.28125 0.0312,-0.48438 v -0.42187 q 0,-0.125 -0.0312,-0.125 v -0.4375 l 0.0312,-1.67188 q 0.0156,-0.76562 0.1875,-2.45312 0.125,-1.15625 0.54688,-2.23438 0.17187,-0.46875 0.4375,-0.71875 0.26562,-0.26562 0.59375,-0.26562 0.96875,0 1.73437,0.35937 0.76563,0.34375 1.29688,0.96875 0.48437,0.59375 0.8125,1.46875 0.34375,0.875 0.48437,1.85938 0.14063,1.01562 0.14063,2.14062 v 0.1875 q 0,0.75 0.0312,1.34375 l 0.0156,1.375 q 0,6.90625 -3.21875,6.90625 z m -0.0937,-1 q 0.4375,0 0.79688,-0.34375 0.35937,-0.35937 0.54687,-0.95312 0.45313,-1.23438 0.5625,-2.64063 0.10938,-1.23437 0.10938,-2.10937 0,-1.09375 -0.15625,-2.84375 -0.15625,-1.84375 -0.15625,-2.75 v -0.4375 q -0.0469,-0.90625 -0.60938,-1.57813 -0.5625,-0.67187 -1.375,-0.67187 -0.8125,0 -1.07812,0.9375 -0.25,0.73437 -0.25,1.90625 0,0.46875 0.0312,0.78125 v 0.64062 l -0.0469,1.10938 q -0.0469,0.5 -0.0469,1.09375 0,1.29687 0.0625,2.57812 0.0937,1.79688 0.48437,3.5 0.39063,1.78125 1.125,1.78125 z m 9.15558,0.89063 q -0.53125,0 -1.125,-0.15625 -0.59375,-0.15625 -0.90625,-0.35938 -1.59375,-1.03125 -1.59375,-5.64062 v -0.64063 -0.75 -0.57812 q 0,-0.95313 0.0156,-1.70313 0.0312,-0.76562 0.0937,-1.65625 0.0781,-0.9375 0.21875,-1.51562 0.14063,-0.59375 0.48438,-1.32813 0.28125,-0.70312 0.70312,-1.07812 0.42188,-0.39063 1.09375,-0.65625 0.59375,-0.26563 1.48438,-0.26563 0.35937,0 0.54687,0.17188 0.20313,0.17187 0.20313,0.42187 0,0.25 -0.15625,0.4375 -0.15625,0.1875 -0.375,0.21875 h -1.125 q -0.48438,0 -0.84375,0.60938 -0.35938,0.59375 -0.5,1.54687 -0.3125,1.78125 -0.3125,2.875 v 0.125 l -0.0469,2.3125 q -0.0469,1.03125 -0.0469,2.32813 0,0.90625 0.0625,1.48437 0.125,0.85938 0.40625,1.4375 0.29687,0.64063 0.98437,0.9375 0.35938,0.14063 0.79688,0.14063 0.26562,0 0.53125,-0.1875 0.3125,0 0.51562,0.14062 0.20313,0.125 0.20313,0.39063 0,0.9375 -1.3125,0.9375 z m 6.03973,0.0156 q -0.57812,0 -1.03125,-0.25 -0.45312,-0.25 -0.75,-0.73437 -0.5625,-1 -0.73437,-2.28125 -0.17188,-1.10938 -0.17188,-2.64063 -0.0781,-2.59375 -0.0781,-6.32812 l -0.0156,-1.85938 q -0.0312,-0.14062 -0.0312,-0.46875 -0.0469,-0.92187 -0.0469,-1.10937 0.21875,-0.5 0.51562,-0.5 0.28125,0 0.5,0.4375 0.23438,0.42187 0.23438,0.92187 v 6.53125 q 0,0.96875 0.17187,2.54688 0.17188,1.96875 0.17188,2.54687 0,1.76563 1.5,1.76563 1.73437,0 1.73437,-12.90625 v -1.34375 -0.21875 q -0.0312,-0.0625 -0.0312,-0.1875 0,-0.29688 0.125,-0.42188 0.14063,-0.125 0.53125,-0.125 0.3125,0 0.48438,0.1875 0.1875,0.17188 0.23437,0.40625 0.0312,0.14063 0.0312,0.54688 0,0.39062 -0.0781,1.23437 -0.0937,0.6875 -0.0937,1.1875 0,0.5625 -0.0469,0.98438 l -0.0469,1.01562 v 0.1875 q 0.0156,0.0937 0.0156,0.21875 0,10.65625 -3.09375,10.65625 z m 6.52338,-0.0156 q -0.42188,-0.0781 -0.73438,-0.32813 -0.29687,-0.23437 -0.34375,-0.60937 l 0.26563,-0.42188 q 0.14062,0 0.45312,0.10938 0.35938,0.0625 0.5625,0.0625 0.42188,0 0.76563,-0.375 0.35937,-0.39063 0.53125,-1.01563 0.3125,-1.15625 0.3125,-2.0625 0,-1.57812 -1.01563,-3.32812 l -0.26562,-0.46875 q -0.45313,-0.78125 -0.76563,-1.40625 -0.3125,-0.625 -0.53125,-1.34375 -0.28125,-0.9375 -0.28125,-1.875 0,-1.0625 0.46875,-2.20313 0.25,-0.5625 0.6875,-0.90625 0.45313,-0.34375 1,-0.34375 0.4375,0 0.79688,0.28125 0.375,0.26563 0.375,0.65625 0,0.20313 -0.17188,0.32813 -0.15625,0.125 -0.40625,0.125 -0.25,0 -0.5,-0.14063 -0.53125,0.0156 -0.84375,0.9375 -0.26562,0.82813 -0.26562,1.39063 0,0.6875 0.21875,1.40625 0.21875,0.70312 0.5625,1.28125 l 0.51562,0.95312 0.84375,1.57813 q 0.34375,0.67187 0.54688,1.5625 0.20312,0.89062 0.20312,1.79687 0,1.46875 -0.67187,2.79688 -0.34375,0.67187 -0.95313,1.07812 -0.60937,0.40625 -1.35937,0.40625 z m 6.6936,-0.375 q -2.07812,0 -2.07812,-0.71875 0,-0.5625 0.73437,-0.5625 h 0.26563 l 0.25,0.0156 q 0.1875,0 0.25,-0.10937 0.0781,-0.125 0.0781,-0.4375 0,-0.40625 -0.0469,-1.28125 -0.0625,-0.57813 -0.17188,-2.0625 -0.20312,-3.67188 -0.20312,-5.54688 0,-0.67187 0.0156,-1.21875 l 0.0312,-1.21875 q 0,-0.79687 -0.0781,-1.32812 -0.39063,0.0937 -0.54688,0.0937 -0.57812,0 -0.57812,-0.5625 0,-0.29688 0.35937,-0.51563 0.35938,-0.21875 0.90625,-0.3125 0.96875,-0.1875 1.70313,-0.1875 0.29687,0 0.5,0.20313 0.20312,0.20312 0.20312,0.46875 0,0.26562 -0.15625,0.46875 -0.15625,0.1875 -0.39062,0.1875 -0.15625,0 -0.25,-0.0312 h -0.1875 q -0.23438,0 -0.34375,0.10937 -0.10938,0.10938 -0.10938,0.39063 0,2.32812 0.28125,7.01562 0.0469,0.85938 0.1875,2.54688 0.125,1.09375 0.125,2.25 v 0.90625 q 0.14063,-0.0156 0.48438,-0.0156 1,0 1,0.84375 v 0.14063 l -0.59375,0.40625 q -0.0312,0 -0.15625,0.0156 -0.125,0 -0.5,0 -0.76563,0.0469 -0.98438,0.0469 z m 10.78333,0.10937 q -0.28125,0 -0.4375,-0.15625 -0.14063,-0.15625 -0.20313,-0.54687 l -0.15625,-0.45313 v -0.0469 -0.0781 q 0,-0.78125 -1.64062,-5.39062 -1.64063,-4.60938 -2.57813,-6.82813 v 12.07813 l 0.0937,0.17187 q 0.0312,0.0469 0.0937,0.17188 0.0781,0.10937 0.0781,0.23437 0,0.3125 -0.21875,0.53125 -0.21875,0.20313 -0.53125,0.20313 -0.76563,0 -0.76563,-1.45313 l -0.0156,-4.10937 q -0.0312,-1.84375 -0.0312,-4.125 0,-0.76563 0.0781,-2.23438 0.0625,-1.51562 0.0625,-2.23437 0,-1.125 0.875,-1.76563 v 0.14063 q 0.14063,-0.0469 0.1875,-0.0469 0.54688,0 1.39063,1.92188 0.67187,1.53125 1.20312,3.23437 0.54688,1.70313 1.4375,4.84375 l 0.23438,0.875 q 0.5625,1.9375 0.84375,2.78125 0.48437,-5.17187 0.48437,-12.20312 v -0.3125 q -0.0312,-0.14063 -0.0312,-0.3125 0,-0.71875 0.57813,-0.71875 0.34375,0 0.51562,0.26562 0.1875,0.26563 0.1875,0.67188 v 1.79687 q -0.0469,3.70313 -0.29687,8.03125 -0.23438,4.3125 -0.57813,4.85938 -0.6875,0.20312 -0.85937,0.20312 z m 8.05847,0.10938 q -0.67187,0 -1.21875,-0.25 -0.54687,-0.25 -0.9375,-0.65625 -0.3125,-0.34375 -0.57812,-0.98438 -0.26563,-0.65625 -0.375,-1.25 -0.125,-0.45312 -0.20313,-1.3125 -0.0625,-0.875 -0.0937,-1.5 v -1.39062 -0.95313 q 0,-1.39062 0.0469,-2.28125 0.0469,-1.07812 0.3125,-2.28125 0.21875,-1.07812 0.75,-1.89062 0.5,-0.82813 1.42187,-1.14063 0.42188,-0.15625 1,-0.15625 1.03125,0 1.03125,0.59375 0,0.29688 -0.23437,0.48438 -0.21875,0.17187 -0.53125,0.17187 -0.14063,0 -0.26563,-0.0312 -0.0937,-0.0156 -0.23437,-0.0156 -0.40625,0 -0.71875,0.4375 -0.3125,0.42187 -0.53125,1.1875 -0.39063,1.48437 -0.53125,3.23437 -0.0937,1.64063 -0.0937,2.42188 0,0.82812 0.0625,2.23437 0.10937,1.32813 0.42187,2.3125 0.15625,0.57813 0.39063,0.92188 0.23437,0.34375 0.59375,0.59375 0.40625,0.25 0.82812,0.25 1.15625,0 1.15625,-3.82813 v -1.10937 q -0.17187,-0.0781 -0.54687,-0.0781 h -0.21875 -0.26563 q -0.84375,0 -0.84375,-0.54687 0,-0.32813 0.21875,-0.5 0.23438,-0.1875 0.59375,-0.1875 v 0.0156 h 0.34375 q 2.15625,0 2.15625,0.75 0,0.20313 -0.10937,0.85938 -0.15625,0.57812 -0.15625,0.85937 0,0.40625 0.0781,1.28125 l 0.0469,1.26563 q 0,1.15625 -0.8125,1.8125 -0.79688,0.65625 -1.95313,0.65625 z m 18.69733,0.0312 q -0.54688,0 -0.8125,-0.17188 -0.26563,-0.17187 -0.26563,-0.625 0,-0.71875 -0.23437,-2.45312 l -0.0937,-0.5 -2.375,-0.35938 q -0.15625,0.54688 -0.42188,2.23438 -0.14062,1.17187 -0.45312,1.5625 -0.15625,0.21875 -0.46875,0.21875 -0.29688,0 -0.54688,-0.17188 -0.23437,-0.1875 -0.23437,-0.45312 l 0.0625,-0.125 0.0156,-0.0937 q 1.57813,-6.17188 2.40625,-12.17188 0,-0.0937 0.0156,-0.3125 0.0312,-0.23437 0.0469,-0.67187 0.0781,-0.89063 0.15625,-1.40625 0.0937,-0.53125 0.28125,-0.79688 h 0.8125 q 0.34375,0 0.57813,0.15625 0.23437,0.15625 0.23437,0.4375 0,1.82813 0.51563,5.42188 0.46875,3.70312 0.46875,5.1875 0,0.14062 0.125,0.75 0.125,0.54687 0.125,0.71875 0,0.17187 0.23437,1.4375 0.21875,1.15625 0.21875,1.48437 v 0.0312 q 0,0.53125 -0.39062,0.67188 z m -1.57813,-4.60938 q -0.0781,-0.35937 -0.0781,-0.89062 0,-2.15625 -0.375,-5.51563 l -0.25,-2.5 q -1.03125,5.64063 -1.40625,8.51563 0.35937,0.25 2.10937,0.39062 z m 7.72284,4.78125 q -0.85937,-0.29687 -2.125,-0.29687 -0.39062,0.25 -0.82812,0.25 -0.28125,0 -0.48438,-0.26563 -0.20312,-0.25 -0.20312,-0.53125 0,-2.01562 0.17187,-5.375 0.14063,-3.57812 0.14063,-5.35937 v -0.17188 q -0.14063,-1.5 -0.14063,-2.25 0,-2.28125 0.82813,-2.28125 0.25,0 0.42187,0.1875 0.1875,0.17188 0.1875,0.42188 0,0.28125 -0.0781,0.90625 -0.0781,0.59375 -0.0781,0.90625 0,1.60937 0.0312,2.90625 0.0312,1.28125 0.0312,2.875 -0.125,0.375 -0.125,1.01562 v 0.28125 l -0.0469,1.90625 q -0.0469,0.84375 -0.0469,1.92188 0,1.65625 0.78125,1.65625 0.0469,0 0.15625,-0.0156 0.10938,-0.0156 0.3125,-0.0156 0.20313,-0.0156 0.54688,-0.0156 1.29687,0 1.29687,0.71875 0,0.23438 -0.21875,0.40625 -0.21875,0.17188 -0.53125,0.21875 z m 5.54138,0.0625 q -0.625,0 -1.15625,-0.40625 -0.51562,-0.39062 -0.85937,-1.0625 -0.6875,-1.45312 -0.85938,-3.1875 -0.21875,-1.625 -0.21875,-3.14062 0,-0.28125 0.0312,-0.48438 v -0.42187 q 0,-0.125 -0.0312,-0.125 v -0.4375 l 0.0312,-1.67188 q 0.0156,-0.76562 0.1875,-2.45312 0.125,-1.15625 0.54688,-2.23438 0.17187,-0.46875 0.4375,-0.71875 0.26562,-0.26562 0.59375,-0.26562 0.96875,0 1.73437,0.35937 0.76563,0.34375 1.29688,0.96875 0.48437,0.59375 0.8125,1.46875 0.34375,0.875 0.48437,1.85938 0.14063,1.01562 0.14063,2.14062 v 0.1875 q 0,0.75 0.0312,1.34375 l 0.0156,1.375 q 0,6.90625 -3.21875,6.90625 z m -0.0937,-1 q 0.4375,0 0.79688,-0.34375 0.35937,-0.35937 0.54687,-0.95312 0.45313,-1.23438 0.5625,-2.64063 0.10938,-1.23437 0.10938,-2.10937 0,-1.09375 -0.15625,-2.84375 -0.15625,-1.84375 -0.15625,-2.75 v -0.4375 q -0.0469,-0.90625 -0.60938,-1.57813 -0.5625,-0.67187 -1.375,-0.67187 -0.8125,0 -1.07812,0.9375 -0.25,0.73437 -0.25,1.90625 0,0.46875 0.0312,0.78125 v 0.64062 l -0.0469,1.10938 q -0.0469,0.5 -0.0469,1.09375 0,1.29687 0.0625,2.57812 0.0937,1.79688 0.48437,3.5 0.39063,1.78125 1.125,1.78125 z m 12.48371,0.625 q -0.28125,0 -0.4375,-0.15625 -0.14063,-0.15625 -0.20313,-0.54687 l -0.15625,-0.45313 v -0.0469 -0.0781 q 0,-0.78125 -1.64062,-5.39062 -1.64063,-4.60938 -2.57813,-6.82813 v 12.07813 l 0.0937,0.17187 q 0.0312,0.0469 0.0937,0.17188 0.0781,0.10937 0.0781,0.23437 0,0.3125 -0.21875,0.53125 -0.21875,0.20313 -0.53125,0.20313 -0.76563,0 -0.76563,-1.45313 l -0.0156,-4.10937 q -0.0312,-1.84375 -0.0312,-4.125 0,-0.76563 0.0781,-2.23438 0.0625,-1.51562 0.0625,-2.23437 0,-1.125 0.875,-1.76563 v 0.14063 q 0.14063,-0.0469 0.1875,-0.0469 0.54688,0 1.39063,1.92188 0.67187,1.53125 1.20312,3.23437 0.54688,1.70313 1.4375,4.84375 l 0.23438,0.875 q 0.5625,1.9375 0.84375,2.78125 0.48437,-5.17187 0.48437,-12.20312 v -0.3125 q -0.0312,-0.14063 -0.0312,-0.3125 0,-0.71875 0.57813,-0.71875 0.34375,0 0.51562,0.26562 0.1875,0.26563 0.1875,0.67188 v 1.79687 q -0.0469,3.70313 -0.29687,8.03125 -0.23438,4.3125 -0.57813,4.85938 -0.6875,0.20312 -0.85937,0.20312 z m 6.04284,0.23438 q -0.3125,0 -0.5625,-0.21875 -0.25,-0.21875 -0.26562,-0.53125 v -0.625 -0.46875 q -0.0312,-0.21875 -0.0312,-0.51563 0,-0.5 -0.0781,-1.53125 l -0.0469,-1.53125 q 0,-1.17187 0.0781,-3.5 0.0937,-2.09375 0.0937,-3.51562 0,-0.32813 -0.0625,-1 -0.0781,-0.70313 -0.0781,-1.01563 0,-1.70312 1,-1.70312 0.79687,0 1.84375,0.3125 1.04687,0.3125 1.04687,0.75 0,0.23437 -0.20312,0.4375 -0.20313,0.20312 -0.5,0.32812 -1,-0.35937 -1.82813,-0.48437 0.0312,0.35937 0.0312,1.03125 0,0.96875 -0.0312,1.73437 -0.0625,1.15625 -0.0625,1.71875 l 0.0625,0.39063 0.39063,-0.0156 q 0.1875,-0.0312 0.48437,-0.0312 1.14063,0 1.14063,0.67188 0,0.26562 -0.21875,0.45312 -0.20313,0.17188 -0.54688,0.17188 -0.42187,0 -0.67187,-0.0469 h -0.59375 q 0.0469,0.625 0.0469,1.82813 0,1.1875 -0.0312,2.15625 -0.0625,1.46875 -0.0625,2.1875 0,1.34375 0.0469,1.34375 l 0.79687,-0.0312 q 0.40625,-0.0156 0.98438,-0.0156 0.90625,0 0.90625,0.5625 0,0.34375 -0.29688,0.51563 -0.29687,0.1875 -0.73437,0.1875 z"
         fill-rule="nonzero"
         id="path147" />
      <path
         fill="#ffffff"
         d="m 430.73227,506.24933 v 0 c 0,-19.68219 50.3486,-35.63779 112.4567,-35.63779 v 0 c 62.10815,0 112.45672,15.9556 112.45672,35.63779 v 0 c 0,19.68225 -50.34857,35.63782 -112.45672,35.63782 v 0 c -62.1081,0 -112.4567,-15.95557 -112.4567,-35.63782 z"
         fill-rule="evenodd"
         id="path149" />
      <path
         stroke="#000000"
         stroke-width="1"
         stroke-linejoin="round"
         stroke-linecap="butt"
         stroke-dasharray="1, 3"
         d="m 430.73227,506.24933 v 0 c 0,-19.68219 50.3486,-35.63779 112.4567,-35.63779 v 0 c 62.10815,0 112.45672,15.9556 112.45672,35.63779 v 0 c 0,19.68225 -50.34857,35.63782 -112.45672,35.63782 v 0 c -62.1081,0 -112.4567,-15.95557 -112.4567,-35.63782 z"
         fill-rule="evenodd"
         id="path151" />
      <path
         fill="#000000"
         d="m 477.42007,515.18 q -0.67188,0 -1.23438,-0.3125 -0.5625,-0.3125 -0.96875,-0.84375 -0.35937,-0.5 -0.65625,-1.28125 -0.28125,-0.78128 -0.42187,-1.62503 -0.29688,-1.42188 -0.39063,-3.71875 -0.0156,-0.54688 -0.0156,-1.89063 v -1.51562 q 0.0156,-0.65625 0.0156,-1.34375 0,-1.42188 0.17188,-2.23438 -0.0781,-0.35937 -0.0781,-0.75 0,-1.4375 1.07813,-2.32812 1.09375,-0.89063 2.73437,-0.89063 0.625,0 1.15625,0.34375 0.53125,0.34375 0.53125,0.84375 0,0.23438 -0.20312,0.39063 -0.1875,0.14062 -0.46875,0.14062 -0.23438,0 -0.51563,-0.0781 -0.28125,-0.0781 -0.34375,-0.21875 h -0.3125 v -0.0469 q -0.89062,0 -1.48437,0.39063 -0.4375,0.3125 -0.6875,1.03125 -0.0937,0.26562 -0.14063,0.67187 -0.0469,0.40625 -0.0469,0.73438 -0.0156,0.20312 -0.0156,0.76562 l 0.0469,0.84375 0.0156,0.8125 q 0,0.35938 -0.0937,0.84375 -0.125,0.60938 -0.125,0.84375 v 0.57813 q 0,0.9375 0.0781,2.5625 0.0312,1.375 0.3125,2.73437 0.21875,1.28125 0.8125,2.17191 0.57812,0.90625 1.5625,0.90625 0.40625,0 1.01562,-0.4375 0.64063,-0.42188 0.90625,-0.42188 0.32813,0 0.70313,0.35938 0,0.875 -0.67188,1.35937 -0.625,0.4375 -1.5,0.5625 -0.46875,0.0469 -0.76562,0.0469 z m 9.02548,-0.39063 q -0.8125,0 -0.8125,-3.95315 l 0.0156,-1.375 0.0312,-1.10938 v -0.0625 -0.25 q 0.0156,-0.1875 0.0156,-0.45312 0,-0.0469 -0.0625,-0.10938 -0.0781,-0.0781 -0.0781,-0.125 v -0.0312 q -0.10938,0.0469 -0.42188,0.0469 -0.3125,0 -0.78125,-0.0937 -0.14062,-0.0156 -0.76562,-0.10938 v 2.75 q 0,0.625 0.0781,1.96875 0.0625,1.32816 0.0625,1.96878 0,0.35938 -0.1875,0.625 -0.1875,0.26563 -0.5,0.26563 -0.45312,0 -0.65625,-0.89063 -0.1875,-0.90625 -0.1875,-2.37503 l 0.0469,-1.9375 q 0.0312,-0.82812 0.0312,-1.73437 v -0.40625 -0.34375 q 0,-0.375 -0.0312,-0.5 v -0.125 l 0.0781,-1.39063 q 0,-0.90625 -0.0781,-2.70312 -0.0625,-1.79688 -0.0625,-2.71875 0,-0.28125 0.1875,-0.5 0.1875,-0.21875 0.48437,-0.21875 0.76563,0 0.76563,1.4375 l -0.0469,2.98437 q -0.0469,1.34375 -0.0469,3 0.35937,0.10938 1.29687,0.10938 h 0.875 q 0.0469,-0.14063 0.0469,-0.28125 0,-1.15625 -0.14063,-3.40625 -0.15625,-2.10938 -0.15625,-3.4375 0,-0.26563 0.20313,-0.4375 0.20312,-0.1875 0.48437,-0.1875 0.17188,0 0.48438,0.125 l 0.21875,0.0937 q 0,3.40625 0.23437,9.09375 l 0.21875,6.07815 q 0,0.32813 -0.25,0.53125 -0.25,0.1875 -0.59375,0.1875 z m 8.44397,0.21875 q -0.54687,0 -0.8125,-0.17187 -0.26562,-0.17188 -0.26562,-0.625 0,-0.71875 -0.23438,-2.45316 l -0.0937,-0.5 -2.375,-0.35937 q -0.15625,0.54687 -0.42187,2.2344 -0.14063,1.17188 -0.45313,1.5625 -0.15625,0.21875 -0.46875,0.21875 -0.29687,0 -0.54687,-0.17187 -0.23438,-0.1875 -0.23438,-0.45313 l 0.0625,-0.125 0.0156,-0.0937 q 1.57812,-6.1719 2.40625,-12.1719 0,-0.0937 0.0156,-0.3125 0.0312,-0.23438 0.0469,-0.67188 0.0781,-0.89062 0.15625,-1.40625 0.0937,-0.53125 0.28125,-0.79687 h 0.8125 q 0.34375,0 0.57812,0.15625 0.23438,0.15625 0.23438,0.4375 0,1.82812 0.51562,5.42187 0.46875,3.70313 0.46875,5.1875 0,0.14063 0.125,0.75 0.125,0.54688 0.125,0.71875 0,0.17188 0.23438,1.43753 0.21875,1.15625 0.21875,1.48438 v 0.0312 q 0,0.53125 -0.39063,0.67187 z m -1.57812,-4.6094 q -0.0781,-0.35938 -0.0781,-0.89063 0,-2.15625 -0.375,-5.51562 l -0.25,-2.5 q -1.03125,5.64062 -1.40625,8.51562 0.35938,0.25 2.10938,0.39063 z m 7.72287,4.78128 q -0.85938,-0.29688 -2.125,-0.29688 -0.39063,0.25 -0.82813,0.25 -0.28125,0 -0.48437,-0.26562 -0.20313,-0.25 -0.20313,-0.53125 0,-2.01563 0.17188,-5.37503 0.14062,-3.57813 0.14062,-5.35938 v -0.17187 q -0.14062,-1.5 -0.14062,-2.25 0,-2.28125 0.82812,-2.28125 0.25,0 0.42188,0.1875 0.1875,0.17187 0.1875,0.42187 0,0.28125 -0.0781,0.90625 -0.0781,0.59375 -0.0781,0.90625 0,1.60938 0.0312,2.90625 0.0312,1.28125 0.0312,2.875 -0.125,0.375 -0.125,1.01563 v 0.28125 l -0.0469,1.90625 q -0.0469,0.84375 -0.0469,1.9219 0,1.65625 0.78125,1.65625 0.0469,0 0.15625,-0.0156 0.10937,-0.0156 0.3125,-0.0156 0.20312,-0.0156 0.54687,-0.0156 1.29688,0 1.29688,0.71875 0,0.23437 -0.21875,0.40625 -0.21875,0.17187 -0.53125,0.21875 z m 6.43197,0 q -0.85937,-0.29688 -2.125,-0.29688 -0.39062,0.25 -0.82812,0.25 -0.28125,0 -0.48438,-0.26562 -0.20312,-0.25 -0.20312,-0.53125 0,-2.01563 0.17187,-5.37503 0.14063,-3.57813 0.14063,-5.35938 v -0.17187 q -0.14063,-1.5 -0.14063,-2.25 0,-2.28125 0.82813,-2.28125 0.25,0 0.42187,0.1875 0.1875,0.17187 0.1875,0.42187 0,0.28125 -0.0781,0.90625 -0.0781,0.59375 -0.0781,0.90625 0,1.60938 0.0312,2.90625 0.0312,1.28125 0.0312,2.875 -0.125,0.375 -0.125,1.01563 v 0.28125 l -0.0469,1.90625 q -0.0469,0.84375 -0.0469,1.9219 0,1.65625 0.78125,1.65625 0.0469,0 0.15625,-0.0156 0.10938,-0.0156 0.3125,-0.0156 0.20313,-0.0156 0.54688,-0.0156 1.29687,0 1.29687,0.71875 0,0.23437 -0.21875,0.40625 -0.21875,0.17187 -0.53125,0.21875 z m 3.83823,-0.0781 q -0.3125,0 -0.5625,-0.21875 -0.25,-0.21875 -0.26563,-0.53125 v -0.625 -0.46875 q -0.0312,-0.21875 -0.0312,-0.51562 0,-0.5 -0.0781,-1.53128 l -0.0469,-1.53125 q 0,-1.17188 0.0781,-3.5 0.0937,-2.09375 0.0937,-3.51563 0,-0.32812 -0.0625,-1 -0.0781,-0.70312 -0.0781,-1.01562 0,-1.70313 1,-1.70313 0.79685,0 1.84372,0.3125 1.04688,0.3125 1.04688,0.75 0,0.23438 -0.20313,0.4375 -0.20312,0.20313 -0.5,0.32813 -1,-0.35938 -1.82809,-0.48438 0.0312,0.35938 0.0312,1.03125 0,0.96875 -0.0312,1.73438 -0.0625,1.15625 -0.0625,1.71875 l 0.0625,0.39062 0.39059,-0.0156 q 0.1875,-0.0312 0.48438,-0.0312 1.14062,0 1.14062,0.67187 0,0.26563 -0.21875,0.45313 -0.20312,0.17187 -0.54687,0.17187 -0.42188,0 -0.67188,-0.0469 h -0.59372 q 0.0469,0.625 0.0469,1.82812 0,1.1875 -0.0312,2.15625 -0.0625,1.46875 -0.0625,2.18753 0,1.34375 0.0469,1.34375 l 0.79685,-0.0312 q 0.40625,-0.0156 0.98437,-0.0156 0.90625,0 0.90625,0.5625 0,0.34375 -0.29687,0.51562 -0.29688,0.1875 -0.73438,0.1875 z m 12.26907,-0.23437 q -0.28125,0 -0.4375,-0.15625 -0.14062,-0.15625 -0.20312,-0.54688 l -0.15625,-0.45312 v -0.0469 -0.0781 q 0,-0.78125 -1.64063,-5.39066 -1.64062,-4.60937 -2.57812,-6.82812 v 12.07815 l 0.0937,0.17188 q 0.0312,0.0469 0.0937,0.17187 0.0781,0.10938 0.0781,0.23438 0,0.3125 -0.21875,0.53125 -0.21875,0.20312 -0.53125,0.20312 -0.76562,0 -0.76562,-1.45312 l -0.0156,-4.10941 q -0.0312,-1.84375 -0.0312,-4.125 0,-0.76562 0.0781,-2.23437 0.0625,-1.51563 0.0625,-2.23438 0,-1.125 0.875,-1.76562 v 0.14062 q 0.14062,-0.0469 0.1875,-0.0469 0.54687,0 1.39062,1.92187 0.67188,1.53125 1.20313,3.23438 0.54687,1.70312 1.4375,4.84375 l 0.23437,0.875 q 0.5625,1.9375 0.84375,2.78128 0.48438,-5.17191 0.48438,-12.20316 v -0.3125 q -0.0312,-0.14062 -0.0312,-0.3125 0,-0.71875 0.57812,-0.71875 0.34375,0 0.51563,0.26563 0.1875,0.26562 0.1875,0.67187 v 1.79688 q -0.0469,3.70312 -0.29688,8.03125 -0.23437,4.31253 -0.57812,4.8594 -0.6875,0.20313 -0.85938,0.20313 z m 8.05848,0.10937 q -0.67188,0 -1.21875,-0.25 -0.54688,-0.25 -0.9375,-0.65625 -0.3125,-0.34375 -0.57813,-0.98437 -0.26562,-0.65625 -0.375,-1.25003 -0.125,-0.45313 -0.20312,-1.3125 -0.0625,-0.875 -0.0937,-1.5 V 507.63312 506.68 q 0,-1.39063 0.0469,-2.28125 0.0469,-1.07813 0.3125,-2.28125 0.21875,-1.07813 0.75,-1.89063 0.5,-0.82812 1.42188,-1.14062 0.42187,-0.15625 1,-0.15625 1.03125,0 1.03125,0.59375 0,0.29687 -0.23438,0.48437 -0.21875,0.17188 -0.53125,0.17188 -0.14062,0 -0.26562,-0.0312 -0.0937,-0.0156 -0.23438,-0.0156 -0.40625,0 -0.71875,0.4375 -0.3125,0.42188 -0.53125,1.1875 -0.39062,1.48438 -0.53125,3.23438 -0.0937,1.64062 -0.0937,2.42187 0,0.82813 0.0625,2.23438 0.10938,1.32812 0.42188,2.3125 0.15625,0.57815 0.39062,0.9219 0.23438,0.34375 0.59375,0.59375 0.40625,0.25 0.82813,0.25 1.15625,0 1.15625,-3.82815 v -1.10938 q -0.17188,-0.0781 -0.54688,-0.0781 h -0.21875 -0.26562 q -0.84375,0 -0.84375,-0.54688 0,-0.32812 0.21875,-0.5 0.23437,-0.1875 0.59375,-0.1875 v 0.0156 h 0.34375 q 2.15625,0 2.15625,0.75 0,0.20312 -0.10938,0.85937 -0.15625,0.57813 -0.15625,0.85938 0,0.40625 0.0781,1.28125 l 0.0469,1.26565 q 0,1.15625 -0.8125,1.8125 -0.79687,0.65625 -1.95312,0.65625 z m 6.38214,-0.21875 q -2.07813,0 -2.07813,-0.71875 0,-0.5625 0.73438,-0.5625 h 0.26562 l 0.25,0.0156 q 0.1875,0 0.25,-0.10938 0.0781,-0.125 0.0781,-0.4375 0,-0.40625 -0.0469,-1.28128 -0.0625,-0.57812 -0.17187,-2.0625 -0.20313,-3.67187 -0.20313,-5.54687 0,-0.67188 0.0156,-1.21875 l 0.0312,-1.21875 q 0,-0.79688 -0.0781,-1.32813 -0.39062,0.0937 -0.54687,0.0937 -0.57813,0 -0.57813,-0.5625 0,-0.29687 0.35938,-0.51562 0.35937,-0.21875 0.90625,-0.3125 0.96875,-0.1875 1.70312,-0.1875 0.29688,0 0.5,0.20312 0.20313,0.20313 0.20313,0.46875 0,0.26563 -0.15625,0.46875 -0.15625,0.1875 -0.39063,0.1875 -0.15625,0 -0.25,-0.0312 h -0.1875 q -0.23437,0 -0.34375,0.10938 -0.10937,0.10937 -0.10937,0.39062 0,2.32813 0.28125,7.01563 0.0469,0.85937 0.1875,2.54687 0.125,1.09375 0.125,2.25003 v 0.90625 q 0.14062,-0.0156 0.48437,-0.0156 1,0 1,0.84375 v 0.14062 l -0.59375,0.40625 q -0.0312,0 -0.15625,0.0156 -0.125,0 -0.5,0 -0.76562,0.0469 -0.98437,0.0469 z m 10.78332,0.10938 q -0.28125,0 -0.4375,-0.15625 -0.14062,-0.15625 -0.20312,-0.54688 l -0.15625,-0.45312 v -0.0469 -0.0781 q 0,-0.78125 -1.64063,-5.39066 -1.64062,-4.60937 -2.57812,-6.82812 v 12.07815 l 0.0937,0.17188 q 0.0312,0.0469 0.0937,0.17187 0.0781,0.10938 0.0781,0.23438 0,0.3125 -0.21875,0.53125 -0.21875,0.20312 -0.53125,0.20312 -0.76562,0 -0.76562,-1.45312 l -0.0156,-4.10941 q -0.0312,-1.84375 -0.0312,-4.125 0,-0.76562 0.0781,-2.23437 0.0625,-1.51563 0.0625,-2.23438 0,-1.125 0.875,-1.76562 v 0.14062 q 0.14062,-0.0469 0.1875,-0.0469 0.54687,0 1.39062,1.92187 0.67188,1.53125 1.20313,3.23438 0.54687,1.70312 1.4375,4.84375 l 0.23437,0.875 q 0.5625,1.9375 0.84375,2.78128 0.48438,-5.17191 0.48438,-12.20316 v -0.3125 q -0.0312,-0.14062 -0.0312,-0.3125 0,-0.71875 0.57812,-0.71875 0.34375,0 0.51563,0.26563 0.1875,0.26562 0.1875,0.67187 v 1.79688 q -0.0469,3.70312 -0.29688,8.03125 -0.23437,4.31253 -0.57812,4.8594 -0.6875,0.20313 -0.85938,0.20313 z m 8.05847,0.10937 q -0.67187,0 -1.21875,-0.25 -0.54687,-0.25 -0.9375,-0.65625 -0.3125,-0.34375 -0.57812,-0.98437 -0.26563,-0.65625 -0.375,-1.25003 -0.125,-0.45313 -0.20313,-1.3125 -0.0625,-0.875 -0.0937,-1.5 V 507.63312 506.68 q 0,-1.39063 0.0469,-2.28125 0.0469,-1.07813 0.3125,-2.28125 0.21875,-1.07813 0.75,-1.89063 0.5,-0.82812 1.42187,-1.14062 0.42188,-0.15625 1,-0.15625 1.03125,0 1.03125,0.59375 0,0.29687 -0.23437,0.48437 -0.21875,0.17188 -0.53125,0.17188 -0.14063,0 -0.26563,-0.0312 -0.0937,-0.0156 -0.23437,-0.0156 -0.40625,0 -0.71875,0.4375 -0.3125,0.42188 -0.53125,1.1875 -0.39063,1.48438 -0.53125,3.23438 -0.0937,1.64062 -0.0937,2.42187 0,0.82813 0.0625,2.23438 0.10937,1.32812 0.42187,2.3125 0.15625,0.57815 0.39063,0.9219 0.23437,0.34375 0.59375,0.59375 0.40625,0.25 0.82812,0.25 1.15625,0 1.15625,-3.82815 v -1.10938 q -0.17187,-0.0781 -0.54687,-0.0781 h -0.21875 -0.26563 q -0.84375,0 -0.84375,-0.54688 0,-0.32812 0.21875,-0.5 0.23438,-0.1875 0.59375,-0.1875 v 0.0156 h 0.34375 q 2.15625,0 2.15625,0.75 0,0.20312 -0.10937,0.85937 -0.15625,0.57813 -0.15625,0.85938 0,0.40625 0.0781,1.28125 l 0.0469,1.26565 q 0,1.15625 -0.8125,1.8125 -0.79688,0.65625 -1.95313,0.65625 z m 12.38349,0.26563 q -0.625,0 -1.15625,-0.40625 -0.51563,-0.39063 -0.85938,-1.0625 -0.6875,-1.45313 -0.85937,-3.18753 -0.21875,-1.625 -0.21875,-3.14063 0,-0.28125 0.0312,-0.48437 v -0.42188 q 0,-0.125 -0.0312,-0.125 v -0.4375 l 0.0312,-1.67187 q 0.0156,-0.76563 0.1875,-2.45313 0.125,-1.15625 0.54687,-2.23437 0.17188,-0.46875 0.4375,-0.71875 0.26563,-0.26563 0.59375,-0.26563 0.96875,0 1.73438,0.35938 0.76562,0.34375 1.29687,0.96875 0.48438,0.59375 0.8125,1.46875 0.34375,0.875 0.48438,1.85937 0.14062,1.01563 0.14062,2.14063 v 0.1875 q 0,0.75 0.0312,1.34375 l 0.0156,1.375 q 0,6.90628 -3.21875,6.90628 z m -0.0937,-1 q 0.4375,0 0.79687,-0.34375 0.35938,-0.35938 0.54688,-0.95313 0.45312,-1.2344 0.5625,-2.64065 0.10937,-1.23438 0.10937,-2.10938 0,-1.09375 -0.15625,-2.84375 -0.15625,-1.84375 -0.15625,-2.75 v -0.4375 q -0.0469,-0.90625 -0.60937,-1.57812 -0.5625,-0.67188 -1.375,-0.67188 -0.8125,0 -1.07813,0.9375 -0.25,0.73438 -0.25,1.90625 0,0.46875 0.0312,0.78125 V 504.18 l -0.0469,1.10937 q -0.0469,0.5 -0.0469,1.09375 0,1.29688 0.0625,2.57813 0.0937,1.79687 0.48438,3.50003 0.39062,1.78125 1.125,1.78125 z m 7.28058,0.15625 -0.0312,-0.92188 q -0.0156,-0.42187 -0.0156,-0.92187 l 0.0156,-0.81253 q -0.0625,-0.26563 -0.35938,-5.25 -0.28125,-5 -0.32812,-6.42188 -1.39063,-0.0469 -1.78125,-0.28125 -0.26563,-0.1875 -0.26563,-0.4375 0,-0.1875 0.25,-0.34375 0.25,-0.15625 0.51563,-0.15625 0.67187,0 1.64062,0.0937 0.90625,0.125 1.625,0.125 h 0.1875 0.20313 q 0.73437,0 0.73437,0.57813 0,0.28125 -0.23437,0.46875 -0.23438,0.17187 -0.54688,0.17187 -0.21875,0 -0.625,-0.0625 l -0.48437,-0.0937 -0.0312,0.10938 -0.0156,0.125 q 0,2.14062 0.40625,6.8125 0.39063,4.39062 0.39063,6.81253 0,0.29687 -0.26563,0.51562 -0.25,0.20313 -0.5625,0.20313 z m 9.01898,0.39062 q -0.8125,0 -0.8125,-3.95315 l 0.0156,-1.375 0.0312,-1.10938 v -0.0625 -0.25 q 0.0156,-0.1875 0.0156,-0.45312 0,-0.0469 -0.0625,-0.10938 -0.0781,-0.0781 -0.0781,-0.125 v -0.0312 q -0.10937,0.0469 -0.42187,0.0469 -0.3125,0 -0.78125,-0.0937 -0.14063,-0.0156 -0.76563,-0.10938 v 2.75 q 0,0.625 0.0781,1.96875 0.0625,1.32816 0.0625,1.96878 0,0.35938 -0.1875,0.625 -0.1875,0.26563 -0.5,0.26563 -0.45313,0 -0.65625,-0.89063 -0.1875,-0.90625 -0.1875,-2.37503 l 0.0469,-1.9375 q 0.0312,-0.82812 0.0312,-1.73437 v -0.40625 -0.34375 q 0,-0.375 -0.0312,-0.5 v -0.125 l 0.0781,-1.39063 q 0,-0.90625 -0.0781,-2.70312 -0.0625,-1.79688 -0.0625,-2.71875 0,-0.28125 0.1875,-0.5 0.1875,-0.21875 0.48438,-0.21875 0.76562,0 0.76562,1.4375 l -0.0469,2.98437 q -0.0469,1.34375 -0.0469,3 0.35938,0.10938 1.29688,0.10938 h 0.875 q 0.0469,-0.14063 0.0469,-0.28125 0,-1.15625 -0.14062,-3.40625 -0.15625,-2.10938 -0.15625,-3.4375 0,-0.26563 0.20312,-0.4375 0.20313,-0.1875 0.48438,-0.1875 0.17187,0 0.48437,0.125 l 0.21875,0.0937 q 0,3.40625 0.23438,9.09375 l 0.21875,6.07815 q 0,0.32813 -0.25,0.53125 -0.25,0.1875 -0.59375,0.1875 z m 4.81897,0.3125 q -0.3125,0 -0.5625,-0.21875 -0.25,-0.21875 -0.26563,-0.53125 v -0.625 -0.46875 q -0.0312,-0.21875 -0.0312,-0.51562 0,-0.5 -0.0781,-1.53128 l -0.0469,-1.53125 q 0,-1.17188 0.0781,-3.5 0.0937,-2.09375 0.0937,-3.51563 0,-0.32812 -0.0625,-1 -0.0781,-0.70312 -0.0781,-1.01562 0,-1.70313 1,-1.70313 0.79688,0 1.84375,0.3125 1.04688,0.3125 1.04688,0.75 0,0.23438 -0.20313,0.4375 -0.20312,0.20313 -0.5,0.32813 -1,-0.35938 -1.82812,-0.48438 0.0312,0.35938 0.0312,1.03125 0,0.96875 -0.0312,1.73438 -0.0625,1.15625 -0.0625,1.71875 l 0.0625,0.39062 0.39062,-0.0156 q 0.1875,-0.0312 0.48438,-0.0312 1.14062,0 1.14062,0.67187 0,0.26563 -0.21875,0.45313 -0.20312,0.17187 -0.54687,0.17187 -0.42188,0 -0.67188,-0.0469 h -0.59375 q 0.0469,0.625 0.0469,1.82812 0,1.1875 -0.0312,2.15625 -0.0625,1.46875 -0.0625,2.18753 0,1.34375 0.0469,1.34375 l 0.79688,-0.0312 q 0.40625,-0.0156 0.98437,-0.0156 0.90625,0 0.90625,0.5625 0,0.34375 -0.29687,0.51562 -0.29688,0.1875 -0.73438,0.1875 z m 9.90973,0.0937 q -0.51563,0 -0.95313,-1.15625 -0.5,-1.23437 -0.75,-2.56253 l -0.15625,-0.8125 q -0.70312,-3.4375 -0.89062,-3.92187 h -0.29688 q 0,0.70312 -0.0156,1.28125 v 1.3125 q 0,3.21878 0.45312,5.01565 l -0.26562,0.65625 h -0.67188 l -0.3125,-0.35937 0.0312,-1.60938 q 0,-2.15628 -0.21875,-6.5469 -0.1875,-4.6875 -0.1875,-6.5625 0,-1.15625 0.78125,-1.15625 1.29688,0 2.125,0.6875 0.82813,0.67187 0.82813,1.85937 v 1.6875 q 0,0.35938 -0.125,0.82813 -0.10938,0.46875 -0.25,0.75 l -0.46875,0.85937 -0.375,0.73438 0.125,0.5625 0.32812,1.70312 q 0.34375,1.85938 0.65625,3.01563 0.3125,1.14065 0.76563,2.07815 l 0.14062,0.29688 q 0.23438,0.46875 0.23438,0.76562 0,0.23438 -0.14063,0.40625 -0.14062,0.1875 -0.39062,0.1875 z m -2.9375,-9.62503 q 0.51562,-0.26562 0.89062,-1.45312 0.375,-1.1875 0.375,-2.1875 0,-0.76563 -0.1875,-1.4375 -0.125,-0.39063 -0.40625,-0.59375 -0.26562,-0.20313 -0.67187,-0.20313 l -0.0625,0.125 -0.0469,0.20313 0.0469,2.84375 q 0.0625,1.23437 0.0625,2.70312 z m 6.25183,9.56253 q -0.42188,-0.0781 -0.73438,-0.32812 -0.29687,-0.23438 -0.34375,-0.60938 l 0.26563,-0.42187 q 0.14062,0 0.45312,0.10937 0.35938,0.0625 0.5625,0.0625 0.42188,0 0.76563,-0.375 0.35937,-0.39062 0.53125,-1.01562 0.3125,-1.15628 0.3125,-2.06253 0,-1.57813 -1.01563,-3.32813 l -0.26562,-0.46875 q -0.45313,-0.78125 -0.76563,-1.40625 -0.3125,-0.625 -0.53125,-1.34375 -0.28125,-0.9375 -0.28125,-1.875 0,-1.0625 0.46875,-2.20312 0.25,-0.5625 0.6875,-0.90625 0.45313,-0.34375 1,-0.34375 0.4375,0 0.79688,0.28125 0.375,0.26562 0.375,0.65625 0,0.20312 -0.17188,0.32812 -0.15625,0.125 -0.40625,0.125 -0.25,0 -0.5,-0.14062 -0.53125,0.0156 -0.84375,0.9375 -0.26562,0.82812 -0.26562,1.39062 0,0.6875 0.21875,1.40625 0.21875,0.70313 0.5625,1.28125 l 0.51562,0.95313 0.84375,1.57812 q 0.34375,0.67188 0.54688,1.5625 0.20312,0.89063 0.20312,1.79688 0,1.46878 -0.67187,2.7969 -0.34375,0.67188 -0.95313,1.07813 -0.60937,0.40625 -1.35937,0.40625 z"
         fill-rule="nonzero"
         id="path153" />
      <path
         fill="#ffffff"
         d="m 459.64566,419.28085 v 0 c 0,-19.68222 37.40362,-35.63782 83.5433,-35.63782 v 0 c 46.13971,0 83.54334,15.9556 83.54334,35.63782 v 0 c 0,19.68219 -37.40363,35.63779 -83.54334,35.63779 v 0 c -46.13968,0 -83.5433,-15.9556 -83.5433,-35.63779 z"
         fill-rule="evenodd"
         id="path155" />
      <path
         stroke="#000000"
         stroke-width="1"
         stroke-linejoin="round"
         stroke-linecap="butt"
         stroke-dasharray="1, 3"
         d="m 459.64566,419.28085 v 0 c 0,-19.68222 37.40362,-35.63782 83.5433,-35.63782 v 0 c 46.13971,0 83.54334,15.9556 83.54334,35.63782 v 0 c 0,19.68219 -37.40363,35.63779 -83.54334,35.63779 v 0 c -46.13968,0 -83.5433,-15.9556 -83.5433,-35.63779 z"
         fill-rule="evenodd"
         id="path157" />
      <path
         fill="#000000"
         d="m 495.67743,428.00833 q -1.09375,0 -1.09375,-0.59375 l 0.0469,-2.95313 0.0469,-2.95312 q 0,-1.60938 -0.0781,-4.875 -0.0625,-3.23438 -0.0625,-4.875 v -0.14063 q 0,-0.625 0.10937,-1.15625 0.15625,-0.64062 0.76563,-0.64062 1.6875,0 2.67187,1.07812 0.98438,1.07813 0.98438,2.85938 0,1.07812 -0.57813,2.26562 -0.57812,1.17188 -1.35937,1.73438 1.39062,0.9375 2.04687,2.42187 0.65625,1.46875 0.65625,3.25 0,0.84375 -0.57812,2.09375 -0.6875,1.48438 -1.89063,2.125 -0.71875,0.35938 -1.59375,0.35938 z m 0.25,-10.60938 q 0.625,-0.14062 1.04688,-1.03125 0.35937,-0.67187 0.67187,-1.625 0.0781,-0.26562 0.25,-0.67187 v -0.84375 q 0,-0.71875 -0.53125,-1.39063 -0.53125,-0.67187 -1.20312,-0.67187 -0.32813,0 -0.32813,0.75 0,1.57812 0.0469,2.82812 z m 0.0937,9.35938 q 1.17188,-0.15625 1.85938,-1.0625 0.70312,-0.92188 0.70312,-2.1875 0,-1.10938 -0.1875,-2.03125 -0.17187,-0.92188 -0.45312,-1.40625 -0.26563,-0.45313 -0.53125,-0.76563 -0.26563,-0.3125 -0.45313,-0.40625 l -0.20312,-0.0781 h -0.85938 q 0.125,2.76562 0.125,7.9375 z m 7.19223,1.375 q -0.3125,0 -0.5625,-0.21875 -0.25,-0.21875 -0.26563,-0.53125 v -0.625 -0.46875 q -0.0312,-0.21875 -0.0312,-0.51563 0,-0.5 -0.0781,-1.53125 l -0.0469,-1.53125 q 0,-1.17187 0.0781,-3.5 0.0937,-2.09375 0.0937,-3.51562 0,-0.32813 -0.0625,-1 -0.0781,-0.70313 -0.0781,-1.01563 0,-1.70312 1,-1.70312 0.79688,0 1.84375,0.3125 1.04688,0.3125 1.04688,0.75 0,0.23437 -0.20313,0.4375 -0.20312,0.20312 -0.5,0.32812 -1,-0.35937 -1.82812,-0.48437 0.0312,0.35937 0.0312,1.03125 0,0.96875 -0.0312,1.73437 -0.0625,1.15625 -0.0625,1.71875 l 0.0625,0.39063 0.39062,-0.0156 q 0.1875,-0.0312 0.48438,-0.0312 1.14062,0 1.14062,0.67188 0,0.26562 -0.21875,0.45312 -0.20312,0.17188 -0.54687,0.17188 -0.42188,0 -0.67188,-0.0469 h -0.59375 q 0.0469,0.625 0.0469,1.82813 0,1.1875 -0.0312,2.15625 -0.0625,1.46875 -0.0625,2.1875 0,1.34375 0.0469,1.34375 l 0.79688,-0.0312 q 0.40625,-0.0156 0.98437,-0.0156 0.90625,0 0.90625,0.5625 0,0.34375 -0.29687,0.51563 -0.29688,0.1875 -0.73438,0.1875 z m 6.90973,-0.34375 q -2.07813,0 -2.07813,-0.71875 0,-0.5625 0.73438,-0.5625 h 0.26562 l 0.25,0.0156 q 0.1875,0 0.25,-0.10937 0.0781,-0.125 0.0781,-0.4375 0,-0.40625 -0.0469,-1.28125 -0.0625,-0.57813 -0.17187,-2.0625 -0.20313,-3.67188 -0.20313,-5.54688 0,-0.67187 0.0156,-1.21875 l 0.0312,-1.21875 q 0,-0.79687 -0.0781,-1.32812 -0.39062,0.0937 -0.54687,0.0937 -0.57813,0 -0.57813,-0.5625 0,-0.29688 0.35938,-0.51563 0.35937,-0.21875 0.90625,-0.3125 0.96875,-0.1875 1.70312,-0.1875 0.29688,0 0.5,0.20313 0.20313,0.20312 0.20313,0.46875 0,0.26562 -0.15625,0.46875 -0.15625,0.1875 -0.39063,0.1875 -0.15625,0 -0.25,-0.0312 h -0.1875 q -0.23437,0 -0.34375,0.10937 -0.10937,0.10938 -0.10937,0.39063 0,2.32812 0.28125,7.01562 0.0469,0.85938 0.1875,2.54688 0.125,1.09375 0.125,2.25 v 0.90625 q 0.14062,-0.0156 0.48437,-0.0156 1.00003,0 1.00003,0.84375 v 0.14063 l -0.59378,0.40625 q -0.0312,0 -0.15625,0.0156 -0.125,0 -0.5,0 -0.76562,0.0469 -0.98437,0.0469 z m 10.78336,0.10937 q -0.28125,0 -0.4375,-0.15625 -0.14063,-0.15625 -0.20313,-0.54687 l -0.15625,-0.45313 v -0.0469 -0.0781 q 0,-0.78125 -1.64062,-5.39062 -1.64063,-4.60938 -2.57813,-6.82813 v 12.07813 l 0.0937,0.17187 q 0.0312,0.0469 0.0937,0.17188 0.0781,0.10937 0.0781,0.23437 0,0.3125 -0.21875,0.53125 -0.21875,0.20313 -0.53125,0.20313 -0.76563,0 -0.76563,-1.45313 l -0.0156,-4.10937 q -0.0312,-1.84375 -0.0312,-4.125 0,-0.76563 0.0781,-2.23438 0.0625,-1.51562 0.0625,-2.23437 0,-1.125 0.875,-1.76563 v 0.14063 q 0.14063,-0.0469 0.1875,-0.0469 0.54688,0 1.39063,1.92188 0.67187,1.53125 1.20312,3.23437 0.54688,1.70313 1.4375,4.84375 l 0.23438,0.875 q 0.5625,1.9375 0.84375,2.78125 0.48437,-5.17187 0.48437,-12.20312 v -0.3125 q -0.0312,-0.14063 -0.0312,-0.3125 0,-0.71875 0.57813,-0.71875 0.34375,0 0.51562,0.26562 0.1875,0.26563 0.1875,0.67188 v 1.79687 q -0.0469,3.70313 -0.29687,8.03125 -0.23438,4.3125 -0.57813,4.85938 -0.6875,0.20312 -0.85937,0.20312 z m 8.05847,0.10938 q -0.67188,0 -1.21875,-0.25 -0.54688,-0.25 -0.9375,-0.65625 -0.3125,-0.34375 -0.57813,-0.98438 -0.26562,-0.65625 -0.375,-1.25 -0.125,-0.45312 -0.20312,-1.3125 -0.0625,-0.875 -0.0937,-1.5 v -1.39062 -0.95313 q 0,-1.39062 0.0469,-2.28125 0.0469,-1.07812 0.3125,-2.28125 0.21875,-1.07812 0.75,-1.89062 0.5,-0.82813 1.42188,-1.14063 0.42187,-0.15625 1,-0.15625 1.03125,0 1.03125,0.59375 0,0.29688 -0.23438,0.48438 -0.21875,0.17187 -0.53125,0.17187 -0.14062,0 -0.26562,-0.0312 -0.0937,-0.0156 -0.23438,-0.0156 -0.40625,0 -0.71875,0.4375 -0.3125,0.42187 -0.53125,1.1875 -0.39062,1.48437 -0.53125,3.23437 -0.0937,1.64063 -0.0937,2.42188 0,0.82812 0.0625,2.23437 0.10938,1.32813 0.42188,2.3125 0.15625,0.57813 0.39062,0.92188 0.23438,0.34375 0.59375,0.59375 0.40625,0.25 0.82813,0.25 1.15625,0 1.15625,-3.82813 v -1.10937 q -0.17188,-0.0781 -0.54688,-0.0781 h -0.21875 -0.26562 q -0.84375,0 -0.84375,-0.54687 0,-0.32813 0.21875,-0.5 0.23437,-0.1875 0.59375,-0.1875 v 0.0156 h 0.34375 q 2.15625,0 2.15625,0.75 0,0.20313 -0.10938,0.85938 -0.15625,0.57812 -0.15625,0.85937 0,0.40625 0.0781,1.28125 l 0.0469,1.26563 q 0,1.15625 -0.8125,1.8125 -0.79687,0.65625 -1.95312,0.65625 z m 12.80536,0.15625 q -0.53125,0 -1.125,-0.15625 -0.59375,-0.15625 -0.90625,-0.35938 -1.59375,-1.03125 -1.59375,-5.64062 v -0.64063 -0.75 -0.57812 q 0,-0.95313 0.0156,-1.70313 0.0312,-0.76562 0.0937,-1.65625 0.0781,-0.9375 0.21875,-1.51562 0.14063,-0.59375 0.48438,-1.32813 0.28125,-0.70312 0.70312,-1.07812 0.42188,-0.39063 1.09375,-0.65625 0.59375,-0.26563 1.48438,-0.26563 0.35937,0 0.54687,0.17188 0.20313,0.17187 0.20313,0.42187 0,0.25 -0.15625,0.4375 -0.15625,0.1875 -0.375,0.21875 h -1.125 q -0.48438,0 -0.84375,0.60938 -0.35938,0.59375 -0.5,1.54687 -0.3125,1.78125 -0.3125,2.875 v 0.125 l -0.0469,2.3125 q -0.0469,1.03125 -0.0469,2.32813 0,0.90625 0.0625,1.48437 0.125,0.85938 0.40625,1.4375 0.29687,0.64063 0.98437,0.9375 0.35938,0.14063 0.79688,0.14063 0.26562,0 0.53125,-0.1875 0.3125,0 0.51562,0.14062 0.20313,0.125 0.20313,0.39063 0,0.9375 -1.3125,0.9375 z m 7.66473,0.0625 q -0.51562,0 -0.95312,-1.15625 -0.5,-1.23438 -0.75,-2.5625 l -0.15625,-0.8125 q -0.70313,-3.4375 -0.89063,-3.92188 h -0.29687 q 0,0.70313 -0.0156,1.28125 v 1.3125 q 0,3.21875 0.45313,5.01563 l -0.26563,0.65625 h -0.67187 l -0.3125,-0.35938 0.0312,-1.60937 q 0,-2.15625 -0.21875,-6.54688 -0.1875,-4.6875 -0.1875,-6.5625 0,-1.15625 0.78125,-1.15625 1.29687,0 2.125,0.6875 0.82812,0.67188 0.82812,1.85938 v 1.6875 q 0,0.35937 -0.125,0.82812 -0.10937,0.46875 -0.25,0.75 l -0.46875,0.85938 -0.375,0.73437 0.125,0.5625 0.32813,1.70313 q 0.34375,1.85937 0.65625,3.01562 0.3125,1.14063 0.76562,2.07813 l 0.14063,0.29687 q 0.23437,0.46875 0.23437,0.76563 0,0.23437 -0.14062,0.40625 -0.14063,0.1875 -0.39063,0.1875 z m -2.9375,-9.625 q 0.51563,-0.26563 0.89063,-1.45313 0.375,-1.1875 0.375,-2.1875 0,-0.76562 -0.1875,-1.4375 -0.125,-0.39062 -0.40625,-0.59375 -0.26563,-0.20312 -0.67188,-0.20312 l -0.0625,0.125 -0.0469,0.20312 0.0469,2.84375 q 0.0625,1.23438 0.0625,2.70313 z m 6.92371,9.53125 q -0.3125,0 -0.5625,-0.21875 -0.25,-0.21875 -0.26563,-0.53125 v -0.625 -0.46875 q -0.0312,-0.21875 -0.0312,-0.51563 0,-0.5 -0.0781,-1.53125 l -0.0469,-1.53125 q 0,-1.17187 0.0781,-3.5 0.0937,-2.09375 0.0937,-3.51562 0,-0.32813 -0.0625,-1 -0.0781,-0.70313 -0.0781,-1.01563 0,-1.70312 1,-1.70312 0.79688,0 1.84375,0.3125 1.04688,0.3125 1.04688,0.75 0,0.23437 -0.20313,0.4375 -0.20312,0.20312 -0.5,0.32812 -1,-0.35937 -1.82812,-0.48437 0.0312,0.35937 0.0312,1.03125 0,0.96875 -0.0312,1.73437 -0.0625,1.15625 -0.0625,1.71875 l 0.0625,0.39063 0.39062,-0.0156 q 0.1875,-0.0312 0.48438,-0.0312 1.14062,0 1.14062,0.67188 0,0.26562 -0.21875,0.45312 -0.20312,0.17188 -0.54687,0.17188 -0.42188,0 -0.67188,-0.0469 h -0.59375 q 0.0469,0.625 0.0469,1.82813 0,1.1875 -0.0312,2.15625 -0.0625,1.46875 -0.0625,2.1875 0,1.34375 0.0469,1.34375 l 0.79688,-0.0312 q 0.40625,-0.0156 0.98437,-0.0156 0.90625,0 0.90625,0.5625 0,0.34375 -0.29687,0.51563 -0.29688,0.1875 -0.73438,0.1875 z m 10.44098,-0.0937 q -0.54688,0 -0.8125,-0.17188 -0.26563,-0.17187 -0.26563,-0.625 0,-0.71875 -0.23437,-2.45312 l -0.0937,-0.5 -2.375,-0.35938 q -0.15625,0.54688 -0.42188,2.23438 -0.14062,1.17187 -0.45312,1.5625 -0.15625,0.21875 -0.46875,0.21875 -0.29688,0 -0.54688,-0.17188 -0.23437,-0.1875 -0.23437,-0.45312 l 0.0625,-0.125 0.0156,-0.0937 q 1.57813,-6.17188 2.40625,-12.17188 0,-0.0937 0.0156,-0.3125 0.0312,-0.23437 0.0469,-0.67187 0.0781,-0.89063 0.15625,-1.40625 0.0937,-0.53125 0.28125,-0.79688 h 0.8125 q 0.34375,0 0.57813,0.15625 0.23437,0.15625 0.23437,0.4375 0,1.82813 0.51563,5.42188 0.46875,3.70312 0.46875,5.1875 0,0.14062 0.125,0.75 0.125,0.54687 0.125,0.71875 0,0.17187 0.23437,1.4375 0.21875,1.15625 0.21875,1.48437 v 0.0312 q 0,0.53125 -0.39062,0.67188 z m -1.57813,-4.60938 q -0.0781,-0.35937 -0.0781,-0.89062 0,-2.15625 -0.375,-5.51563 l -0.25,-2.5 q -1.03125,5.64063 -1.40625,8.51563 0.35937,0.25 2.10937,0.39062 z m 5.37909,4 -0.0312,-0.92187 q -0.0156,-0.42188 -0.0156,-0.92188 l 0.0156,-0.8125 q -0.0625,-0.26562 -0.35938,-5.25 -0.28125,-5 -0.32812,-6.42187 -1.39063,-0.0469 -1.78125,-0.28125 -0.26563,-0.1875 -0.26563,-0.4375 0,-0.1875 0.25,-0.34375 0.25,-0.15625 0.51563,-0.15625 0.67187,0 1.64062,0.0937 0.90625,0.125 1.625,0.125 h 0.1875 0.20313 q 0.73437,0 0.73437,0.57812 0,0.28125 -0.23437,0.46875 -0.23438,0.17188 -0.54688,0.17188 -0.21875,0 -0.625,-0.0625 l -0.48437,-0.0937 -0.0312,0.10937 -0.0156,0.125 q 0,2.14063 0.40625,6.8125 0.39063,4.39063 0.39063,6.8125 0,0.29688 -0.26563,0.51563 -0.25,0.20312 -0.5625,0.20312 z m 5.98773,0.35938 q -2.07812,0 -2.07812,-0.71875 0,-0.5625 0.73437,-0.5625 h 0.26563 l 0.25,0.0156 q 0.1875,0 0.25,-0.10937 0.0781,-0.125 0.0781,-0.4375 0,-0.40625 -0.0469,-1.28125 -0.0625,-0.57813 -0.17188,-2.0625 -0.20312,-3.67188 -0.20312,-5.54688 0,-0.67187 0.0156,-1.21875 l 0.0312,-1.21875 q 0,-0.79687 -0.0781,-1.32812 -0.39063,0.0937 -0.54688,0.0937 -0.57812,0 -0.57812,-0.5625 0,-0.29688 0.35937,-0.51563 0.35938,-0.21875 0.90625,-0.3125 0.96875,-0.1875 1.70313,-0.1875 0.29687,0 0.5,0.20313 0.20312,0.20312 0.20312,0.46875 0,0.26562 -0.15625,0.46875 -0.15625,0.1875 -0.39062,0.1875 -0.15625,0 -0.25,-0.0312 h -0.1875 q -0.23438,0 -0.34375,0.10937 -0.10938,0.10938 -0.10938,0.39063 0,2.32812 0.28125,7.01562 0.0469,0.85938 0.1875,2.54688 0.125,1.09375 0.125,2.25 v 0.90625 q 0.14063,-0.0156 0.48438,-0.0156 1,0 1,0.84375 v 0.14063 l -0.59375,0.40625 q -0.0312,0 -0.15625,0.0156 -0.125,0 -0.5,0 -0.76563,0.0469 -0.98438,0.0469 z m 6.08026,-0.0469 q 0,-2.75 -0.51562,-5.70312 -0.51563,-2.95313 -1.625,-7.23438 -0.0469,-0.23437 -0.21875,-0.73437 -0.42188,-1.34375 -0.42188,-1.70313 0,-0.21875 0.17188,-0.39062 0.1875,-0.17188 0.40625,-0.17188 0.35937,0 0.67187,0.60938 0.3125,0.57812 0.5625,1.54687 0.26563,0.96875 0.57813,2.40625 0.29687,1.375 0.70312,4.20313 l 0.14063,0.9375 0.29687,2.14062 q 0.0937,0.89063 0.15625,1.26563 0.51563,-2.64063 1.29688,-7.625 0.65625,-4.28125 0.92187,-5.84375 h 0.51563 q 0.21875,0 0.39062,0.15625 0.17188,0.15625 0.17188,0.375 0,0.875 -0.20313,1.875 -0.20312,0.98437 -0.60937,2.375 -0.34375,1.20312 -0.45313,1.8125 -0.10937,0.59375 -0.20312,1.89062 -0.1875,2.90625 -0.59375,5.20313 -0.26563,1.39062 -0.70313,2.1875 -0.4375,0.78125 -0.98437,0.78125 z m 7.698,0.39063 q -0.3125,0 -0.5625,-0.21875 -0.25,-0.21875 -0.26562,-0.53125 v -0.625 -0.46875 q -0.0312,-0.21875 -0.0312,-0.51563 0,-0.5 -0.0781,-1.53125 l -0.0469,-1.53125 q 0,-1.17187 0.0781,-3.5 0.0937,-2.09375 0.0937,-3.51562 0,-0.32813 -0.0625,-1 -0.0781,-0.70313 -0.0781,-1.01563 0,-1.70312 1,-1.70312 0.79687,0 1.84375,0.3125 1.04687,0.3125 1.04687,0.75 0,0.23437 -0.20312,0.4375 -0.20313,0.20312 -0.5,0.32812 -1,-0.35937 -1.82813,-0.48437 0.0312,0.35937 0.0312,1.03125 0,0.96875 -0.0312,1.73437 -0.0625,1.15625 -0.0625,1.71875 l 0.0625,0.39063 0.39063,-0.0156 q 0.1875,-0.0312 0.48437,-0.0312 1.14063,0 1.14063,0.67188 0,0.26562 -0.21875,0.45312 -0.20313,0.17188 -0.54688,0.17188 -0.42187,0 -0.67187,-0.0469 h -0.59375 q 0.0469,0.625 0.0469,1.82813 0,1.1875 -0.0312,2.15625 -0.0625,1.46875 -0.0625,2.1875 0,1.34375 0.0469,1.34375 l 0.79687,-0.0312 q 0.40625,-0.0156 0.98438,-0.0156 0.90625,0 0.90625,0.5625 0,0.34375 -0.29688,0.51563 -0.29687,0.1875 -0.73437,0.1875 z"
         fill-rule="nonzero"
         id="path159" />
      <path
         fill="#000000"
         d="m 142.2441,246.57217 v 0 c 0,-19.68221 26.04504,-35.63779 58.17323,-35.63779 v 0 c 32.12819,0 58.17322,15.95558 58.17322,35.63779 v 0 c 0,19.68222 -26.04503,35.63779 -58.17322,35.63779 v 0 c -32.12819,0 -58.17323,-15.95557 -58.17323,-35.63779 z"
         fill-rule="evenodd"
         id="path161" />
      <path
         stroke="#ffffff"
         stroke-width="1"
         stroke-linejoin="round"
         stroke-linecap="butt"
         stroke-dasharray="1, 3"
         d="m 142.2441,246.57217 v 0 c 0,-19.68221 26.04504,-35.63779 58.17323,-35.63779 v 0 c 32.12819,0 58.17322,15.95558 58.17322,35.63779 v 0 c 0,19.68222 -26.04503,35.63779 -58.17322,35.63779 v 0 c -32.12819,0 -58.17323,-15.95557 -58.17323,-35.63779 z"
         fill-rule="evenodd"
         id="path163" />
      <path
         fill="#ffffff"
         d="m 186.22374,255.2528 q -0.625,0 -0.625,-3.14063 l 0.0469,-3.79687 q 0.0312,-1.67188 0.0312,-3.76563 0,-0.76562 -0.15625,-2.375 -0.10937,-1.75 -0.10937,-2.14062 0,-0.3125 0.25,-0.54688 0.26562,-0.23437 0.57812,-0.23437 0.84375,0 1.625,0.375 0.78125,0.35937 1.375,1.03125 1.28125,1.46875 1.6875,3.21875 0.21875,0.89062 0.21875,1.75 0,0.3125 -0.0312,0.57812 l -0.0156,0.65625 v 1.3125 q 0,1.53125 -0.0937,2.42188 -0.15625,1.20312 -0.5625,2.14062 -0.48438,1 -1.39063,1.79688 -0.4375,0.35937 -1.10937,0.71875 z m 1.04687,-1.21875 q 0.48438,0 0.89063,-0.25 0.40625,-0.25 0.70312,-0.6875 0.23438,-0.39063 0.4375,-0.96875 0.20313,-0.59375 0.29688,-1.14063 0.21875,-1.07812 0.26562,-2.21875 0.0312,-0.28125 0.0312,-0.82812 0,-7.25 -2.8125,-7.5625 -0.17187,1.07812 -0.17187,2.5 0,1.5 0.20312,5.28125 0.15625,3.32812 0.15625,5.29687 z m 10.67897,1.48437 q -0.51562,0 -0.95312,-1.15625 -0.5,-1.23437 -0.75,-2.5625 l -0.15625,-0.8125 q -0.70313,-3.4375 -0.89063,-3.92187 h -0.29687 q 0,0.70312 -0.0156,1.28125 v 1.3125 q 0,3.21875 0.45313,5.01562 l -0.26563,0.65625 h -0.67187 l -0.3125,-0.35937 0.0312,-1.60938 q 0,-2.15625 -0.21875,-6.54687 -0.1875,-4.6875 -0.1875,-6.5625 0,-1.15625 0.78125,-1.15625 1.29687,0 2.125,0.6875 0.82812,0.67187 0.82812,1.85937 v 1.6875 q 0,0.35938 -0.125,0.82813 -0.10937,0.46875 -0.25,0.75 l -0.46875,0.85937 -0.375,0.73438 0.125,0.5625 0.32813,1.70312 q 0.34375,1.85938 0.65625,3.01563 0.3125,1.14062 0.76562,2.07812 l 0.14063,0.29688 q 0.23437,0.46875 0.23437,0.76562 0,0.23438 -0.14062,0.40625 -0.14063,0.1875 -0.39063,0.1875 z m -2.9375,-9.625 q 0.51563,-0.26562 0.89063,-1.45312 0.375,-1.1875 0.375,-2.1875 0,-0.76563 -0.1875,-1.4375 -0.125,-0.39063 -0.40625,-0.59375 -0.26563,-0.20313 -0.67188,-0.20313 l -0.0625,0.125 -0.0469,0.20313 0.0469,2.84375 q 0.0625,1.23437 0.0625,2.70312 z m 10.54874,9.4375 q -0.54687,0 -0.8125,-0.17187 -0.26562,-0.17188 -0.26562,-0.625 0,-0.71875 -0.23438,-2.45313 l -0.0937,-0.5 -2.375,-0.35937 q -0.15625,0.54687 -0.42187,2.23437 -0.14063,1.17188 -0.45313,1.5625 -0.15625,0.21875 -0.46875,0.21875 -0.29687,0 -0.54687,-0.17187 -0.23438,-0.1875 -0.23438,-0.45313 l 0.0625,-0.125 0.0156,-0.0937 q 1.57812,-6.17187 2.40625,-12.17187 0,-0.0937 0.0156,-0.3125 0.0312,-0.23438 0.0469,-0.67188 0.0781,-0.89062 0.15625,-1.40625 0.0937,-0.53125 0.28125,-0.79687 h 0.8125 q 0.34375,0 0.57812,0.15625 0.23438,0.15625 0.23438,0.4375 0,1.82812 0.51562,5.42187 0.46875,3.70313 0.46875,5.1875 0,0.14063 0.125,0.75 0.125,0.54688 0.125,0.71875 0,0.17188 0.23438,1.4375 0.21875,1.15625 0.21875,1.48438 v 0.0312 q 0,0.53125 -0.39063,0.67187 z m -1.57812,-4.60937 q -0.0781,-0.35938 -0.0781,-0.89063 0,-2.15625 -0.375,-5.51562 l -0.25,-2.5 q -1.03125,5.64062 -1.40625,8.51562 0.35938,0.25 2.10938,0.39063 z m 5.78535,4.89062 q -0.48437,0 -0.84375,-1.4375 -0.3125,-1.26562 -0.51562,-3.14062 -0.20313,-1.89063 -0.42188,-4.78125 -0.125,-1.875 -0.32812,-4 -0.17188,-1.78125 -0.40625,-2.28125 0.20312,-0.4375 0.6875,-0.4375 0.76562,0 0.76562,1.59375 0,1.85937 0.5,5.46875 0.51563,3.57812 0.57813,5.20312 l 0.125,-0.8125 q 0.23437,-1.60937 0.40625,-3.03125 0.1875,-1.4375 0.3125,-3.09375 0.17187,-1.84375 0.17187,-3.64062 l 0.64063,-0.29688 q 0.3125,0 0.51562,0.15625 0.20313,0.15625 0.20313,0.45313 v 0.1875 q 0.39062,1.34375 0.64062,2.9375 0.25,1.59375 0.45313,3.75 0.14062,1.65625 0.32812,3.10937 0.45313,-3.21875 0.45313,-7.92187 0,-0.75 0.20312,-1.82813 0.15625,-1.10937 0.15625,-1.79687 -0.0625,-0.21875 -0.0625,-0.40625 0,-0.57813 0.71875,-0.57813 0.28125,0 0.45313,0.14063 0.17187,0.14062 0.17187,0.40625 v 0.35937 q 0,0.35938 -0.0781,0.625 v 0.125 q -0.3125,0.95313 -0.3125,2.20313 v 1.75 q 0,1.51562 -0.35938,4.51562 -0.39062,2.92188 -0.39062,4.375 v 0.42188 q 0,0.5625 -0.10938,0.9375 -0.14062,0.48437 -0.70312,0.48437 -0.375,0 -0.57813,-0.25 -0.20312,-0.25 -0.20312,-0.64062 0,-1.9375 -0.42188,-5.04688 -0.20312,-1.39062 -0.45312,-2.79687 l -0.375,-2.53125 q -0.0937,0.70312 -0.0937,1.375 0,1.34375 -0.20313,3.5625 -0.1875,2.20312 -0.59375,4.28125 -0.45312,2.32812 -1.03125,2.32812 z"
         fill-rule="nonzero"
         id="path165" />
      <path
         fill="#000000"
         fill-opacity="0"
         d="m 306.76904,226.75984 h 89.70078 v 42.01576 h -89.70078 z"
         fill-rule="evenodd"
         id="path167" />
      <path
         fill="#000000"
         d="m 325.5497,253.67984 q -0.42188,0 -0.5,-0.1875 -0.0937,0 -0.14063,0.0156 h -0.15625 q -0.40625,0 -0.51562,-0.1875 0,-0.125 0.14062,-0.21875 l 0.0937,-0.0937 h 0.54688 l 0.0781,-0.0781 0.0312,-0.17187 0.0156,-0.21875 q 0,-1.14063 -0.0469,-2.03125 l -0.0469,-0.6875 -0.0312,-1.35938 q 0,-0.73437 0.0469,-2.1875 l 0.0469,-2.17187 q 0,-1.40625 -0.0937,-2.15625 -0.17188,-0.0625 -0.5625,-0.0625 l -0.20313,0.0312 q -0.10937,0.0156 -0.25,0.0156 -0.34375,0 -0.34375,-0.32812 0,-0.0625 0.15625,-0.14063 0.17188,-0.0781 0.28125,-0.0781 0.71875,0 1.42188,0.0781 0.4375,0.0156 0.85937,0.17188 0.32813,0.10937 0.32813,0.3125 0,0.0312 -0.0469,0.15625 l -0.4375,0.0312 q -0.125,-0.10938 -0.53125,-0.10938 l -0.0937,0.0469 q 0.0469,0.17187 0.0469,1 0,1.21875 -0.0156,2.21875 l -0.0312,2.21875 q 0,0.84375 0.0781,2.03125 0.0469,1.35937 0.0469,2.04687 v 0.25 q -0.0156,0.125 -0.0156,0.32813 0,0.4375 0.0625,0.53125 l -0.0312,0.0312 q 0,0.1875 0.42187,0.1875 0.15625,0 0.28125,-0.0156 h 0.26563 q 0.54687,0 0.54687,0.26563 0,0.15625 -0.10937,0.26562 -0.10938,0.0937 -0.29688,0.0937 -0.17187,0 -0.29687,-0.0312 -0.15625,-0.0156 -0.32813,-0.0156 -0.10937,0 -0.32812,0.0937 -0.21875,0.10937 -0.34375,0.10937 z m 3.74966,0.25 q -0.25,0 -0.3125,-0.4375 0.0469,-0.10937 0.0469,-0.60937 0,-1.71875 0.0469,-5.09375 0.0625,-3.35938 0.0625,-4.85938 l 0.0312,-0.67187 0.0625,-0.5625 q 0,-0.125 0.125,-0.125 0.0937,0 0.26563,0.0625 l 0.0469,0.0156 q 0,0.40625 -0.0156,0.75 v 0.71875 2.03125 q 0.0156,0.90625 0.0156,2.03125 -0.0156,0.0937 -0.0156,0.42188 l -0.0156,0.39062 q -0.0156,0.375 -0.0156,0.76563 0,0.42187 0.0156,0.78125 l 0.0156,0.79687 -0.0469,0.15625 0.0156,-0.0156 q 0,0.0469 -0.0156,0.0625 v 0.0781 q 0,0.15625 0.0469,0.26563 l -0.0469,1.79687 v 0.10938 q 0,0.3125 0.0156,0.375 0,0.0937 0.0937,0.0937 l 0.96875,0.0312 q 0.42187,0 0.57812,0.0156 0.17188,0 0.20313,0 h 0.0625 q 0.0937,0 0.17187,0.10938 0.0937,0.0937 0.0937,0.20312 0,0.23438 -0.29687,0.25 -0.3125,-0.0156 -1.54688,-0.0156 l 0.0469,0.0156 q -0.1875,0 -0.35938,0.0156 -0.15625,0.0469 -0.34375,0.0469 z m 4.64542,0 q -0.25,0 -0.3125,-0.4375 0.0469,-0.10937 0.0469,-0.60937 0,-1.71875 0.0469,-5.09375 0.0625,-3.35938 0.0625,-4.85938 l 0.0312,-0.67187 0.0625,-0.5625 q 0,-0.125 0.125,-0.125 0.0937,0 0.26563,0.0625 l 0.0469,0.0156 q 0,0.40625 -0.0156,0.75 v 0.71875 2.03125 q 0.0156,0.90625 0.0156,2.03125 -0.0156,0.0937 -0.0156,0.42188 l -0.0156,0.39062 q -0.0156,0.375 -0.0156,0.76563 0,0.42187 0.0156,0.78125 l 0.0156,0.79687 -0.0469,0.15625 0.0156,-0.0156 q 0,0.0469 -0.0156,0.0625 v 0.0781 q 0,0.15625 0.0469,0.26563 l -0.0469,1.79687 v 0.10938 q 0,0.3125 0.0156,0.375 0,0.0937 0.0937,0.0937 l 0.96875,0.0312 q 0.42187,0 0.57812,0.0156 0.17188,0 0.20313,0 h 0.0625 q 0.0937,0 0.17187,0.10938 0.0937,0.0937 0.0937,0.20312 0,0.23438 -0.29687,0.25 -0.3125,-0.0156 -1.54688,-0.0156 l 0.0469,0.0156 q -0.1875,0 -0.35938,0.0156 -0.15625,0.0469 -0.34375,0.0469 z m 6.27039,0.0312 q -0.29688,0 -0.64063,-0.20312 -0.34375,-0.1875 -0.5625,-0.45313 -0.26562,-0.32812 -0.42187,-1.875 -0.14063,-1.5625 -0.17188,-3.54687 0,-0.45313 -0.0312,-0.67188 -0.0312,-4.6875 -0.14062,-5.54687 l 0.10937,-0.26563 q 0.42188,0.0625 0.42188,1.03125 l 0.0625,4.9375 q 0,0.53125 0.0937,1.98438 0.10937,1.3125 0.10937,1.98437 0,2.125 1.40625,2.125 0.85938,0 1.09375,-3.92187 l 0.0156,-0.375 q 0.14062,-5.125 0.14062,-7.59375 l -0.0312,-0.17188 q -0.0156,-0.0625 -0.0156,-0.15625 0,-0.21875 0.32812,-0.21875 0.21875,0 0.26563,0.125 0.0469,0.1875 0.0469,0.64063 0,1.42187 -0.10937,1.90625 l 0.0156,0.10937 q 0,0.25 -0.0625,0.75 l -0.0312,0.75 v 0.1875 q 0.0156,0.0781 0.0156,0.1875 -0.0312,0.4375 -0.0312,0.85938 -0.0156,0.125 -0.0156,0.40625 -0.0469,1.76562 -0.0781,3.07812 -0.0625,1.625 -0.45313,2.73438 -0.40625,1.20312 -1.32812,1.20312 z m 5.07818,-0.0625 q -0.20312,-0.0312 -0.39062,-0.15625 -0.1875,-0.125 -0.20313,-0.28125 l 0.0937,-0.15625 q 0.0781,0 0.32813,0.0625 0.20312,0.0625 0.34375,0.0625 0.40625,0 0.71875,-0.3125 0.32812,-0.32812 0.48437,-0.85937 0.26563,-0.96875 0.26563,-1.82813 0,-1.28125 -0.78125,-2.75 -0.48438,-0.85937 -0.75,-1.35937 -0.25,-0.51563 -0.46875,-1.17188 -0.23438,-0.76562 -0.23438,-1.46875 0,-0.67187 0.32813,-1.57812 0.17187,-0.4375 0.48437,-0.70313 0.3125,-0.28125 0.65625,-0.28125 0.25,0 0.48438,0.17188 0.23437,0.17187 0.23437,0.35937 0,0.14063 -0.25,0.14063 -0.0781,0 -0.1875,-0.0469 -0.10937,-0.0625 -0.20312,-0.0625 -0.28125,0 -0.51563,0.23438 -0.21875,0.21875 -0.32812,0.57812 -0.21875,0.6875 -0.21875,1.26563 0,0.34375 0.0937,0.71875 0.0156,0.125 0.0312,0.20312 0.0156,0.0625 0.0156,0.0937 l 0.125,0.375 0.0937,0.34375 0.14063,0.32813 q 0.0625,0.14062 0.125,0.25 0.0625,0.0937 0.125,0.1875 l 0.21875,0.39062 q 0.0781,0.10938 0.3125,0.53125 0.25,0.42188 0.45312,0.89063 0.1875,0.39062 0.28125,0.73437 0.0937,0.34375 0.17188,0.82813 0.0469,0.46875 0.0469,1.03125 0,0.89062 -0.23437,1.67187 -0.34375,0.9375 -0.96875,1.3125 -0.35938,0.21875 -0.82813,0.21875 z m 1.5,-12.15625 q 0,-0.0156 -0.0312,-0.0156 v 0.0156 z m 4.1207,11.67188 -0.0156,-0.6875 q -0.0312,-0.29688 -0.0312,-0.67188 0,-0.1875 0.0312,-0.3125 l 0.0156,-0.34375 q 0,-0.1875 -0.0781,-0.4375 0,-1.25 -0.1875,-4.65625 -0.1875,-3.28125 -0.20312,-4.45312 -1.15625,0 -1.54688,-0.0625 -0.375,-0.0937 -0.375,-0.29688 0.0937,-0.20312 0.35938,-0.20312 0.54687,0 1.625,0.0781 0.96875,0.0937 1.60937,0.0937 h 0.39063 l 0.40625,-0.0156 q 0.32812,0 0.32812,0.23437 0,0.10938 -0.125,0.1875 -0.10937,0.0625 -0.28125,0.0625 -0.375,0 -0.78125,-0.0469 l -0.8125,-0.0312 q -0.0781,0 -0.0781,0.0625 -0.0156,0.0469 -0.0156,0.34375 0,1.8125 0.23438,5.48437 0.20312,3.8125 0.20312,5.46875 0,0.14063 -0.17187,0.25 -0.15625,0.10938 -0.29688,0.10938 z m 7.16589,0.48437 q -0.23437,-0.23437 -0.5,-1.28125 -0.25,-1.04687 -0.46875,-2.35937 -0.15625,-1.0625 -0.4375,-2.09375 -0.21875,-0.9375 -0.42187,-0.9375 h -0.0625 q -0.40625,0 -0.40625,0.26562 0,1.34375 0.14062,4.07813 0.0781,1.6875 0.17188,1.95312 l -0.14063,0.32813 h -0.26562 l -0.15625,-0.15625 q -0.29688,-8.60938 -0.29688,-11.75 0,-0.20313 0.0312,-0.32813 0.0312,-0.14062 0.125,-0.25 0.0625,-0.125 0.25,-0.125 0.95313,0 1.53125,0.46875 0.57813,0.45313 0.57813,1.32813 v 1.375 q 0,0.34375 -0.23438,0.95312 -0.21875,0.59375 -0.5,1.09375 l -0.25,0.46875 q 0.20313,0.95313 0.8125,3.42188 0.60938,2.46875 0.65625,2.625 0.0312,0.0156 0.0469,0.0937 0.0312,0.0625 0.125,0.21875 0.14062,0.26562 0.14062,0.45312 0,0.25 -0.21875,0.25 z m -2.20312,-7.14062 q 0.34375,0 0.625,-0.34375 0.28125,-0.35938 0.45312,-0.92188 0.29688,-1.14062 0.29688,-1.8125 0,-0.42187 -0.0469,-0.70312 -0.0469,-0.28125 -0.15625,-0.60938 -0.21875,-0.64062 -1.0625,-0.64062 -0.0937,0 -0.15625,0.15625 -0.0469,0.15625 -0.0469,0.32812 0,1.25 0.0312,2.25 0.0156,1.01563 0.0156,2.26563 z m 8.42593,7.09375 q -0.28125,0 -0.35937,-0.0781 -0.0625,-0.0625 -0.10938,-0.34375 -0.15625,-1.35937 -0.20312,-1.6875 l -0.0937,-0.75 q -0.40625,-0.0937 -0.92188,-0.0937 l -0.67187,-0.0312 q -0.45313,-0.0625 -0.65625,-0.0625 -0.10938,0 -0.14063,0.0937 0,0.0625 -0.0156,0.0625 l -0.0312,0.375 q -0.0156,0.32813 -0.20313,1.34375 -0.0937,0.5 -0.23437,0.78125 -0.14063,0.3125 -0.28125,0.3125 -0.10938,0 -0.23438,-0.0937 -0.125,-0.10937 -0.125,-0.21875 l 0.0156,-0.0625 0.0156,-0.0469 q 0.32813,-1.32813 0.5625,-2.64063 l 0.21875,-1.15625 0.21875,-1.42187 q 0,0 0.21875,-1.21875 0.0937,-0.51563 0.32813,-1.625 0.26562,-1.26563 0.3125,-1.73438 0.0312,-0.0625 0.0781,-0.70312 0.0781,-0.70313 0.125,-1.03125 0.0625,-0.48438 0.125,-0.5625 h 0.125 q 0.0625,0.0156 0.125,0.0156 0.23438,0 0.34375,-0.10937 0.125,0 0.21875,0.0937 0.10938,0.0781 0.10938,0.1875 0,0.89062 0.14062,2.04687 0.0625,0.59375 0.10938,0.98438 0.20312,2.40625 1.04687,9.03125 v 0.0625 q 0,0.1875 -0.15625,0.28125 z m -0.85937,-3.35938 q -0.1875,-2.6875 -0.70313,-7.9375 l -1.01562,4.98438 q -0.42188,2.14062 -0.42188,2.70312 0,0.0937 0.70313,0.17188 0.71875,0.0781 1.25,0.0781 z m 4.26129,2.92188 -0.0156,-0.6875 q -0.0312,-0.29688 -0.0312,-0.67188 0,-0.1875 0.0312,-0.3125 l 0.0156,-0.34375 q 0,-0.1875 -0.0781,-0.4375 0,-1.25 -0.1875,-4.65625 -0.1875,-3.28125 -0.20312,-4.45312 -1.15625,0 -1.54688,-0.0625 -0.375,-0.0937 -0.375,-0.29688 0.0937,-0.20312 0.35938,-0.20312 0.54687,0 1.625,0.0781 0.96875,0.0937 1.60937,0.0937 h 0.39063 l 0.40625,-0.0156 q 0.32812,0 0.32812,0.23437 0,0.10938 -0.125,0.1875 -0.10937,0.0625 -0.28125,0.0625 -0.375,0 -0.78125,-0.0469 l -0.8125,-0.0312 q -0.0781,0 -0.0781,0.0625 -0.0156,0.0469 -0.0156,0.34375 0,1.8125 0.23438,5.48437 0.20312,3.8125 0.20312,5.46875 0,0.14063 -0.17187,0.25 -0.15625,0.10938 -0.29688,0.10938 z m 4.66589,0.51562 q -0.34375,0 -0.375,-0.40625 v -0.23437 q 0.0156,-0.0937 0.0156,-0.21875 l -0.0781,-0.0781 q 0.15625,-0.39062 0.15625,-0.76562 0,-0.4375 -0.0625,-1.23438 l -0.0312,-1.23437 q 0,-0.92188 0.0469,-2.79688 0.0781,-1.65625 0.0781,-2.8125 l -0.0312,-1.125 q -0.0469,-0.5 -0.0469,-1.10937 0,-0.28125 0.125,-0.40625 0.14062,-0.125 0.42187,-0.125 0.1875,0 0.29688,0.10937 0.0312,0.0312 0.54687,0.0781 0.46875,0.0625 0.79688,0.17187 0.35937,0.10938 0.35937,0.28125 0,0.1875 -0.35937,0.375 -1.0625,-0.35937 -1.51563,-0.35937 l -0.0937,0.10937 q 0.0312,0.17188 0.0312,0.79688 0,0.8125 -0.0469,1.4375 -0.0156,0.65625 -0.0156,1.46875 0,0.51562 0.26563,0.51562 l 0.29687,-0.0156 q 0.14063,-0.0156 0.3125,-0.0156 0.73438,0 0.73438,0.32813 0,0.20312 -0.0937,0.34375 -0.0937,0.14062 -0.28125,0.14062 -0.28125,0 -0.4375,-0.14062 l -0.59375,-0.0937 h -0.0937 l -0.0937,0.0937 v 0.0469 q 0.0469,0.3125 0.0469,1.46875 0,0.73438 -0.0312,1.32813 l -0.0156,1.32812 q 0,0.73438 0.0625,1.5 0.0156,0.42188 0.17187,0.5625 0.17188,0.14063 0.625,0.14063 l 0.34375,-0.0156 q 0.15625,-0.0156 0.35938,-0.0156 0.54687,0 0.54687,0.23437 0,0.34375 -0.8125,0.34375 z m 4.61975,-0.0312 q -0.20312,-0.0312 -0.39062,-0.15625 -0.1875,-0.125 -0.20313,-0.28125 l 0.0937,-0.15625 q 0.0781,0 0.32813,0.0625 0.20312,0.0625 0.34375,0.0625 0.40625,0 0.71875,-0.3125 0.32812,-0.32812 0.48437,-0.85937 0.26563,-0.96875 0.26563,-1.82813 0,-1.28125 -0.78125,-2.75 -0.48438,-0.85937 -0.75,-1.35937 -0.25,-0.51563 -0.46875,-1.17188 -0.23438,-0.76562 -0.23438,-1.46875 0,-0.67187 0.32813,-1.57812 0.17187,-0.4375 0.48437,-0.70313 0.3125,-0.28125 0.65625,-0.28125 0.25,0 0.48438,0.17188 0.23437,0.17187 0.23437,0.35937 0,0.14063 -0.25,0.14063 -0.0781,0 -0.1875,-0.0469 -0.10937,-0.0625 -0.20312,-0.0625 -0.28125,0 -0.51563,0.23438 -0.21875,0.21875 -0.32812,0.57812 -0.21875,0.6875 -0.21875,1.26563 0,0.34375 0.0937,0.71875 0.0156,0.125 0.0312,0.20312 0.0156,0.0625 0.0156,0.0937 l 0.125,0.375 0.0937,0.34375 0.14063,0.32813 q 0.0625,0.14062 0.125,0.25 0.0625,0.0937 0.125,0.1875 l 0.21875,0.39062 q 0.0781,0.10938 0.3125,0.53125 0.25,0.42188 0.45312,0.89063 0.1875,0.39062 0.28125,0.73437 0.0937,0.34375 0.17188,0.82813 0.0469,0.46875 0.0469,1.03125 0,0.89062 -0.23437,1.67187 -0.34375,0.9375 -0.96875,1.3125 -0.35938,0.21875 -0.82813,0.21875 z m 1.5,-12.15625 q 0,-0.0156 -0.0312,-0.0156 v 0.0156 z"
         fill-rule="nonzero"
         id="path169" />
      <path
         fill="#000000"
         fill-opacity="0"
         d="m 308.9344,312.82416 h 80.97638 v 42.01575 H 308.9344 Z"
         fill-rule="evenodd"
         id="path171" />
      <path
         fill="#000000"
         d="m 332.31094,339.9629 q -0.23437,-0.23438 -0.5,-1.28125 -0.25,-1.04688 -0.46875,-2.35938 -0.15625,-1.0625 -0.4375,-2.09375 -0.21875,-0.9375 -0.42187,-0.9375 h -0.0625 q -0.40625,0 -0.40625,0.26563 0,1.34375 0.14062,4.07812 0.0781,1.6875 0.17188,1.95313 l -0.14063,0.32812 h -0.26562 l -0.15625,-0.15625 q -0.29688,-8.60937 -0.29688,-11.75 0,-0.20312 0.0312,-0.32812 0.0312,-0.14063 0.125,-0.25 0.0625,-0.125 0.25,-0.125 0.95313,0 1.53125,0.46875 0.57813,0.45312 0.57813,1.32812 v 1.375 q 0,0.34375 -0.23438,0.95313 -0.21875,0.59375 -0.5,1.09375 l -0.25,0.46875 q 0.20313,0.95312 0.8125,3.42187 0.60938,2.46875 0.65625,2.625 0.0312,0.0156 0.0469,0.0937 0.0312,0.0625 0.125,0.21875 0.14062,0.26563 0.14062,0.45313 0,0.25 -0.21875,0.25 z m -2.20312,-7.14063 q 0.34375,0 0.625,-0.34375 0.28125,-0.35937 0.45312,-0.92187 0.29688,-1.14063 0.29688,-1.8125 0,-0.42188 -0.0469,-0.70313 -0.0469,-0.28125 -0.15625,-0.60937 -0.21875,-0.64063 -1.0625,-0.64063 -0.0937,0 -0.15625,0.15625 -0.0469,0.15625 -0.0469,0.32813 0,1.25 0.0312,2.25 0.0156,1.01562 0.0156,2.26562 z m 5.11343,7.17188 q -0.34375,0 -0.375,-0.40625 v -0.23438 q 0.0156,-0.0937 0.0156,-0.21875 l -0.0781,-0.0781 q 0.15625,-0.39063 0.15625,-0.76563 0,-0.4375 -0.0625,-1.23437 l -0.0312,-1.23438 q 0,-0.92187 0.0469,-2.79687 0.0781,-1.65625 0.0781,-2.8125 l -0.0312,-1.125 q -0.0469,-0.5 -0.0469,-1.10938 0,-0.28125 0.125,-0.40625 0.14063,-0.125 0.42188,-0.125 0.1875,0 0.29687,0.10938 0.0312,0.0312 0.54688,0.0781 0.46875,0.0625 0.79687,0.17188 0.35938,0.10937 0.35938,0.28125 0,0.1875 -0.35938,0.375 -1.0625,-0.35938 -1.51562,-0.35938 l -0.0937,0.10938 q 0.0312,0.17187 0.0312,0.79687 0,0.8125 -0.0469,1.4375 -0.0156,0.65625 -0.0156,1.46875 0,0.51563 0.26562,0.51563 l 0.29688,-0.0156 q 0.14062,-0.0156 0.3125,-0.0156 0.73437,0 0.73437,0.32812 0,0.20313 -0.0937,0.34375 -0.0937,0.14063 -0.28125,0.14063 -0.28125,0 -0.4375,-0.14063 l -0.59375,-0.0937 h -0.0937 l -0.0937,0.0937 v 0.0469 q 0.0469,0.3125 0.0469,1.46875 0,0.73437 -0.0312,1.32812 l -0.0156,1.32813 q 0,0.73437 0.0625,1.5 0.0156,0.42187 0.17188,0.5625 0.17187,0.14062 0.625,0.14062 l 0.34375,-0.0156 q 0.15625,-0.0156 0.35937,-0.0156 0.54688,0 0.54688,0.23438 0,0.34375 -0.8125,0.34375 z m 8.05725,3.70312 q -0.35938,0 -0.75,-0.0781 -0.375,-0.0625 -0.48438,-0.21875 0,-0.78125 -0.15625,-1.48438 0,0.0156 -0.125,-0.82812 l -0.14062,-0.73438 q -0.53125,-0.10937 -0.84375,-0.25 -0.29688,-0.14062 -0.5625,-0.4375 -0.5,-0.5625 -0.60938,-2 -0.21875,-2.1875 -0.21875,-4.35937 v -0.0937 q 0,-5.8125 1.85938,-5.9375 0.14062,0.0625 0.40625,0.125 l 0.39062,0.125 q 0.84375,0.42187 1.1875,1.25 0.39063,0.90625 0.48438,1.76562 0.0781,0.92188 0.0781,1.76563 v 0.875 q 0,1.3125 -0.28125,3.67187 -0.14062,1.23438 -0.42187,2.14063 -0.26563,0.90625 -0.59375,1.10937 -0.0312,0.0156 -0.14063,0.0469 -0.21875,0.10937 -0.21875,0.23437 0,0.64063 0.15625,1.3125 0.0156,0.17188 0.14063,0.73438 0.0781,0.29687 0.125,0.64062 0.14062,0.125 0.57812,0.125 0.375,0 0.375,0.26563 0,0.23437 -0.23437,0.23437 z m -1.89063,-3.82812 q 0.0937,0 0.26563,-0.0469 0.20312,-0.0625 0.28125,-0.0625 0.35937,0 0.67187,-0.96875 0.32813,-0.98437 0.48438,-2.20312 0.14062,-1.14063 0.14062,-1.53125 V 331.791 q 0,-4.03125 -2.04687,-4.03125 -0.29688,0 -0.53125,0.34375 -0.21875,0.32813 -0.34375,0.90625 -0.29688,1.21875 -0.375,2.48438 -0.0781,1.21875 -0.0781,1.84375 l 0.0469,0.1875 0.0312,0.17187 v 0.79688 q 0,5.375 1.45312,5.375 z m 6.62088,0.15625 q -0.29687,0 -0.64062,-0.20313 -0.34375,-0.1875 -0.5625,-0.45312 -0.26563,-0.32813 -0.42188,-1.875 -0.14062,-1.5625 -0.17187,-3.54688 0,-0.45312 -0.0312,-0.67187 -0.0312,-4.6875 -0.14063,-5.54688 l 0.10938,-0.26562 q 0.42187,0.0625 0.42187,1.03125 l 0.0625,4.9375 q 0,0.53125 0.0937,1.98437 0.10938,1.3125 0.10938,1.98438 0,2.125 1.40625,2.125 0.85937,0 1.09375,-3.92188 l 0.0156,-0.375 q 0.14063,-5.125 0.14063,-7.59375 l -0.0312,-0.17187 q -0.0156,-0.0625 -0.0156,-0.15625 0,-0.21875 0.32813,-0.21875 0.21875,0 0.26562,0.125 0.0469,0.1875 0.0469,0.64062 0,1.42188 -0.10938,1.90625 l 0.0156,0.10938 q 0,0.25 -0.0625,0.75 l -0.0312,0.75 v 0.1875 q 0.0156,0.0781 0.0156,0.1875 -0.0312,0.4375 -0.0312,0.85937 -0.0156,0.125 -0.0156,0.40625 -0.0469,1.76563 -0.0781,3.07813 -0.0625,1.625 -0.45312,2.73437 -0.40625,1.20313 -1.32813,1.20313 z m 5.87507,-0.28125 q -0.42188,0 -0.5,-0.1875 -0.0937,0 -0.14063,0.0156 h -0.15625 q -0.40625,0 -0.51562,-0.1875 0,-0.125 0.14062,-0.21875 l 0.0937,-0.0937 h 0.54688 l 0.0781,-0.0781 0.0312,-0.17188 0.0156,-0.21875 q 0,-1.14062 -0.0469,-2.03125 l -0.0469,-0.6875 -0.0312,-1.35937 q 0,-0.73438 0.0469,-2.1875 l 0.0469,-2.17188 q 0,-1.40625 -0.0937,-2.15625 -0.17188,-0.0625 -0.5625,-0.0625 l -0.20313,0.0312 q -0.10937,0.0156 -0.25,0.0156 -0.34375,0 -0.34375,-0.32813 0,-0.0625 0.15625,-0.14062 0.17188,-0.0781 0.28125,-0.0781 0.71875,0 1.42188,0.0781 0.4375,0.0156 0.85937,0.17187 0.32813,0.10938 0.32813,0.3125 0,0.0312 -0.0469,0.15625 l -0.4375,0.0312 q -0.125,-0.10937 -0.53125,-0.10937 l -0.0937,0.0469 q 0.0469,0.17188 0.0469,1 0,1.21875 -0.0156,2.21875 l -0.0312,2.21875 q 0,0.84375 0.0781,2.03125 0.0469,1.35938 0.0469,2.04688 v 0.25 q -0.0156,0.125 -0.0156,0.32812 0,0.4375 0.0625,0.53125 l -0.0312,0.0312 q 0,0.1875 0.42187,0.1875 0.15625,0 0.28125,-0.0156 h 0.26563 q 0.54687,0 0.54687,0.26562 0,0.15625 -0.10937,0.26563 -0.10938,0.0937 -0.29688,0.0937 -0.17187,0 -0.29687,-0.0312 -0.15625,-0.0156 -0.32813,-0.0156 -0.10937,0 -0.32812,0.0937 -0.21875,0.10938 -0.34375,0.10938 z m 6.28091,0.21875 q -0.23437,-0.23438 -0.5,-1.28125 -0.25,-1.04688 -0.46875,-2.35938 -0.15625,-1.0625 -0.4375,-2.09375 -0.21875,-0.9375 -0.42187,-0.9375 h -0.0625 q -0.40625,0 -0.40625,0.26563 0,1.34375 0.14062,4.07812 0.0781,1.6875 0.17188,1.95313 l -0.14063,0.32812 h -0.26562 l -0.15625,-0.15625 q -0.29688,-8.60937 -0.29688,-11.75 0,-0.20312 0.0312,-0.32812 0.0312,-0.14063 0.125,-0.25 0.0625,-0.125 0.25,-0.125 0.95313,0 1.53125,0.46875 0.57813,0.45312 0.57813,1.32812 v 1.375 q 0,0.34375 -0.23438,0.95313 -0.21875,0.59375 -0.5,1.09375 l -0.25,0.46875 q 0.20313,0.95312 0.8125,3.42187 0.60938,2.46875 0.65625,2.625 0.0312,0.0156 0.0469,0.0937 0.0312,0.0625 0.125,0.21875 0.14062,0.26563 0.14062,0.45313 0,0.25 -0.21875,0.25 z m -2.20312,-7.14063 q 0.34375,0 0.625,-0.34375 0.28125,-0.35937 0.45312,-0.92187 0.29688,-1.14063 0.29688,-1.8125 0,-0.42188 -0.0469,-0.70313 -0.0469,-0.28125 -0.15625,-0.60937 -0.21875,-0.64063 -1.0625,-0.64063 -0.0937,0 -0.15625,0.15625 -0.0469,0.15625 -0.0469,0.32813 0,1.25 0.0312,2.25 0.0156,1.01562 0.0156,2.26562 z m 5.11343,7.17188 q -0.34375,0 -0.375,-0.40625 v -0.23438 q 0.0156,-0.0937 0.0156,-0.21875 l -0.0781,-0.0781 q 0.15625,-0.39063 0.15625,-0.76563 0,-0.4375 -0.0625,-1.23437 l -0.0312,-1.23438 q 0,-0.92187 0.0469,-2.79687 0.0781,-1.65625 0.0781,-2.8125 l -0.0312,-1.125 q -0.0469,-0.5 -0.0469,-1.10938 0,-0.28125 0.125,-0.40625 0.14063,-0.125 0.42188,-0.125 0.1875,0 0.29687,0.10938 0.0312,0.0312 0.54688,0.0781 0.46875,0.0625 0.79687,0.17188 0.35938,0.10937 0.35938,0.28125 0,0.1875 -0.35938,0.375 -1.0625,-0.35938 -1.51562,-0.35938 l -0.0937,0.10938 q 0.0312,0.17187 0.0312,0.79687 0,0.8125 -0.0469,1.4375 -0.0156,0.65625 -0.0156,1.46875 0,0.51563 0.26562,0.51563 l 0.29688,-0.0156 q 0.14062,-0.0156 0.3125,-0.0156 0.73437,0 0.73437,0.32812 0,0.20313 -0.0937,0.34375 -0.0937,0.14063 -0.28125,0.14063 -0.28125,0 -0.4375,-0.14063 l -0.59375,-0.0937 h -0.0937 l -0.0937,0.0937 v 0.0469 q 0.0469,0.3125 0.0469,1.46875 0,0.73437 -0.0312,1.32812 l -0.0156,1.32813 q 0,0.73437 0.0625,1.5 0.0156,0.42187 0.17188,0.5625 0.17187,0.14062 0.625,0.14062 l 0.34375,-0.0156 q 0.15625,-0.0156 0.35937,-0.0156 0.54688,0 0.54688,0.23438 0,0.34375 -0.8125,0.34375 z m 4.61975,-0.0312 q -0.20312,-0.0312 -0.39062,-0.15625 -0.1875,-0.125 -0.20313,-0.28125 l 0.0937,-0.15625 q 0.0781,0 0.32813,0.0625 0.20312,0.0625 0.34375,0.0625 0.40625,0 0.71875,-0.3125 0.32812,-0.32813 0.48437,-0.85938 0.26563,-0.96875 0.26563,-1.82812 0,-1.28125 -0.78125,-2.75 -0.48438,-0.85938 -0.75,-1.35938 -0.25,-0.51562 -0.46875,-1.17187 -0.23438,-0.76563 -0.23438,-1.46875 0,-0.67188 0.32813,-1.57813 0.17187,-0.4375 0.48437,-0.70312 0.3125,-0.28125 0.65625,-0.28125 0.25,0 0.48438,0.17187 0.23437,0.17188 0.23437,0.35938 0,0.14062 -0.25,0.14062 -0.0781,0 -0.1875,-0.0469 -0.10937,-0.0625 -0.20312,-0.0625 -0.28125,0 -0.51563,0.23437 -0.21875,0.21875 -0.32812,0.57813 -0.21875,0.6875 -0.21875,1.26562 0,0.34375 0.0937,0.71875 0.0156,0.125 0.0312,0.20313 0.0156,0.0625 0.0156,0.0937 l 0.125,0.375 0.0937,0.34375 0.14063,0.32812 q 0.0625,0.14063 0.125,0.25 0.0625,0.0937 0.125,0.1875 l 0.21875,0.39063 q 0.0781,0.10937 0.3125,0.53125 0.25,0.42187 0.45312,0.89062 0.1875,0.39063 0.28125,0.73438 0.0937,0.34375 0.17188,0.82812 0.0469,0.46875 0.0469,1.03125 0,0.89063 -0.23437,1.67188 -0.34375,0.9375 -0.96875,1.3125 -0.35938,0.21875 -0.82813,0.21875 z m 1.5,-12.15625 q 0,-0.0156 -0.0312,-0.0156 v 0.0156 z"
         fill-rule="nonzero"
         id="path173" />
      <path
         fill="#000000"
         fill-opacity="0"
         d="m 311.13123,398.88715 h 80.97638 v 42.01575 h -80.97638 z"
         fill-rule="evenodd"
         id="path175" />
      <path
         fill="#000000"
         d="m 333.1148,425.80713 q -0.42188,0 -0.5,-0.1875 -0.0937,0 -0.14063,0.0156 h -0.15625 q -0.40625,0 -0.51562,-0.1875 0,-0.125 0.14062,-0.21875 l 0.0937,-0.0937 h 0.54688 l 0.0781,-0.0781 0.0312,-0.17188 0.0156,-0.21875 q 0,-1.14062 -0.0469,-2.03125 l -0.0469,-0.6875 -0.0312,-1.35937 q 0,-0.73438 0.0469,-2.1875 l 0.0469,-2.17188 q 0,-1.40625 -0.0937,-2.15625 -0.17188,-0.0625 -0.5625,-0.0625 l -0.20313,0.0312 q -0.10937,0.0156 -0.25,0.0156 -0.34375,0 -0.34375,-0.32813 0,-0.0625 0.15625,-0.14062 0.17188,-0.0781 0.28125,-0.0781 0.71875,0 1.42188,0.0781 0.4375,0.0156 0.85937,0.17187 0.32813,0.10938 0.32813,0.3125 0,0.0312 -0.0469,0.15625 l -0.4375,0.0312 q -0.125,-0.10937 -0.53125,-0.10937 l -0.0937,0.0469 q 0.0469,0.17188 0.0469,1 0,1.21875 -0.0156,2.21875 l -0.0312,2.21875 q 0,0.84375 0.0781,2.03125 0.0469,1.35938 0.0469,2.04688 v 0.25 q -0.0156,0.125 -0.0156,0.32812 0,0.4375 0.0625,0.53125 l -0.0312,0.0312 q 0,0.1875 0.42187,0.1875 0.15625,0 0.28125,-0.0156 h 0.26563 q 0.54687,0 0.54687,0.26562 0,0.15625 -0.10937,0.26563 -0.10938,0.0937 -0.29688,0.0937 -0.17187,0 -0.29687,-0.0312 -0.15625,-0.0156 -0.32813,-0.0156 -0.10937,0 -0.32812,0.0937 -0.21875,0.10938 -0.34375,0.10938 z m 8.17154,0.0781 q -0.14063,0 -0.20313,-0.10937 -0.0625,-0.125 -0.125,-0.34375 -0.0156,-0.14063 -0.0781,-0.26563 l 0.0156,-0.0469 q -0.14062,-0.875 -0.625,-2.14063 l -0.34375,-0.98437 q -0.0312,-0.0312 -0.34375,-0.9375 l -0.15625,-0.45313 q -1.67187,-5.1875 -2.10937,-5.625 -0.14063,0.51563 -0.14063,1.3125 0,0.4375 0.0156,0.75 l 0.0156,0.71875 -0.0156,0.45313 q -0.0156,0.20312 -0.0156,0.45312 0,0.40625 0.0312,0.70313 0.0312,0.59375 0.0312,0.59375 h -0.0469 q 0,3.125 0.125,3.4375 v 1.67187 q 0.0781,0.15625 0.0781,0.40625 0,0.14063 -0.10937,0.25 -0.0937,0.10938 -0.25,0.10938 -0.39063,0 -0.39063,-1 l 0.0469,-0.59375 q 0.0312,-0.28125 0.0312,-0.625 0,-0.89063 -0.0625,-2.6875 -0.0469,-1.78125 -0.0469,-2.6875 0,-0.53125 0.0469,-1.65625 0.0625,-1.09375 0.0625,-1.64063 v -0.23437 q 0,-0.92188 0.32812,-1.20313 l 0.0625,0.0625 0.1875,-0.0469 q 0.0781,0.0312 0.17188,0.125 0.0625,0.0625 0.0625,0.15625 l 0.0469,0.10937 q 0,0.0469 0,0.0781 0.0156,0.0156 0.0156,0.0156 0.29687,1.32813 1.34375,3.71875 1.0625,2.51563 1.32812,3.34375 0.1875,0.65625 0.29688,1.15625 0.35937,1.57813 0.84375,2.4375 l 0.0312,-0.0469 q 0.42187,-4.14063 0.42187,-10.17188 l -0.0156,-0.21875 q -0.0156,-0.0937 -0.0156,-0.25 0,-0.39062 0.26563,-0.39062 0.17187,0 0.28125,0.17187 0.125,0.15625 0.125,0.375 v 1.25 l -0.0937,0.14063 q 0,1.78125 -0.20313,5.82812 -0.20312,4.04688 -0.39062,4.39063 l -0.3125,0.0781 v 0.0156 l -0.0312,-0.0156 z m 4.035,0.14063 q -0.20312,-0.0312 -0.39062,-0.15625 -0.1875,-0.125 -0.20313,-0.28125 l 0.0937,-0.15625 q 0.0781,0 0.32813,0.0625 0.20312,0.0625 0.34375,0.0625 0.40625,0 0.71875,-0.3125 0.32812,-0.32813 0.48437,-0.85938 0.26563,-0.96875 0.26563,-1.82812 0,-1.28125 -0.78125,-2.75 -0.48438,-0.85938 -0.75,-1.35938 -0.25,-0.51562 -0.46875,-1.17187 -0.23438,-0.76563 -0.23438,-1.46875 0,-0.67188 0.32813,-1.57813 0.17187,-0.4375 0.48437,-0.70312 0.3125,-0.28125 0.65625,-0.28125 0.25,0 0.48438,0.17187 0.23437,0.17188 0.23437,0.35938 0,0.14062 -0.25,0.14062 -0.0781,0 -0.1875,-0.0469 -0.10937,-0.0625 -0.20312,-0.0625 -0.28125,0 -0.51563,0.23437 -0.21875,0.21875 -0.32812,0.57813 -0.21875,0.6875 -0.21875,1.26562 0,0.34375 0.0937,0.71875 0.0156,0.125 0.0312,0.20313 0.0156,0.0625 0.0156,0.0937 l 0.125,0.375 0.0937,0.34375 0.14063,0.32812 q 0.0625,0.14063 0.125,0.25 0.0625,0.0937 0.125,0.1875 l 0.21875,0.39063 q 0.0781,0.10937 0.3125,0.53125 0.25,0.42187 0.45312,0.89062 0.1875,0.39063 0.28125,0.73438 0.0937,0.34375 0.17188,0.82812 0.0469,0.46875 0.0469,1.03125 0,0.89063 -0.23437,1.67188 -0.34375,0.9375 -0.96875,1.3125 -0.35938,0.21875 -0.82813,0.21875 z m 1.5,-12.15625 q 0,-0.0156 -0.0312,-0.0156 v 0.0156 z m 3.15195,12.15625 q -0.20313,-1.17188 -0.20313,-2.6875 0,-0.59375 0.0469,-1.73438 l 0.0469,-1.73437 q -0.14062,-0.25 -0.14062,-0.42188 0.1875,-0.29687 0.1875,-1.71875 0,-3.39062 -0.0937,-3.625 0.17187,-0.45312 0.26562,-0.45312 h 0.8125 q 0.21875,0 0.59375,0.20312 0.375,0.1875 0.64063,0.40625 0.46875,0.42188 0.46875,2.20313 0,0.95312 -0.0625,1.45312 -0.0312,0.35938 -0.125,0.5625 -0.0781,0.20313 -0.23438,0.46875 -0.28125,0.42188 -0.95312,0.73438 -0.28125,0.15625 -0.78125,0.29687 v 2.23438 q 0,0.45312 0.0937,1.82812 l 0.0312,0.59375 0.0312,1.20313 q 0,0.34375 -0.34375,0.34375 z m 0.59375,-6.67188 q 0.54687,0 0.90625,-0.5 0.14062,-0.1875 0.25,-0.5 0.10937,-0.32812 0.14062,-0.625 0.125,-0.54687 0.125,-1.25 v -0.5 q 0,-0.26562 -0.0312,-0.5 -0.0156,-0.25 -0.0625,-0.46875 -0.0781,-0.25 -0.20312,-0.40625 -0.125,-0.15625 -0.32813,-0.26562 -0.21875,-0.10938 -0.53125,-0.10938 -0.23437,0 -0.32812,0.10938 -0.0937,0.10937 -0.0937,0.39062 0,0.4375 0.0625,1.34375 l 0.0312,1.34375 q 0,0.48438 -0.0312,0.875 l -0.0312,0.875 z m 5.04721,6.45313 q -0.42187,0 -0.5,-0.1875 -0.0937,0 -0.14062,0.0156 h -0.15625 q -0.40625,0 -0.51563,-0.1875 0,-0.125 0.14063,-0.21875 l 0.0937,-0.0937 h 0.54687 l 0.0781,-0.0781 0.0312,-0.17188 0.0156,-0.21875 q 0,-1.14062 -0.0469,-2.03125 l -0.0469,-0.6875 -0.0312,-1.35937 q 0,-0.73438 0.0469,-2.1875 l 0.0469,-2.17188 q 0,-1.40625 -0.0937,-2.15625 -0.17187,-0.0625 -0.5625,-0.0625 l -0.20312,0.0312 q -0.10938,0.0156 -0.25,0.0156 -0.34375,0 -0.34375,-0.32813 0,-0.0625 0.15625,-0.14062 0.17187,-0.0781 0.28125,-0.0781 0.71875,0 1.42187,0.0781 0.4375,0.0156 0.85938,0.17187 0.32812,0.10938 0.32812,0.3125 0,0.0312 -0.0469,0.15625 l -0.4375,0.0312 q -0.125,-0.10937 -0.53125,-0.10937 l -0.0937,0.0469 q 0.0469,0.17188 0.0469,1 0,1.21875 -0.0156,2.21875 l -0.0312,2.21875 q 0,0.84375 0.0781,2.03125 0.0469,1.35938 0.0469,2.04688 v 0.25 q -0.0156,0.125 -0.0156,0.32812 0,0.4375 0.0625,0.53125 l -0.0312,0.0312 q 0,0.1875 0.42188,0.1875 0.15625,0 0.28125,-0.0156 h 0.26562 q 0.54688,0 0.54688,0.26562 0,0.15625 -0.10938,0.26563 -0.10937,0.0937 -0.29687,0.0937 -0.17188,0 -0.29688,-0.0312 -0.15625,-0.0156 -0.32812,-0.0156 -0.10938,0 -0.32813,0.0937 -0.21875,0.10938 -0.34375,0.10938 z m 6.28091,0.21875 q -0.23437,-0.23438 -0.5,-1.28125 -0.25,-1.04688 -0.46875,-2.35938 -0.15625,-1.0625 -0.4375,-2.09375 -0.21875,-0.9375 -0.42187,-0.9375 h -0.0625 q -0.40625,0 -0.40625,0.26563 0,1.34375 0.14062,4.07812 0.0781,1.6875 0.17188,1.95313 l -0.14063,0.32812 h -0.26562 l -0.15625,-0.15625 q -0.29688,-8.60937 -0.29688,-11.75 0,-0.20312 0.0312,-0.32812 0.0312,-0.14063 0.125,-0.25 0.0625,-0.125 0.25,-0.125 0.95313,0 1.53125,0.46875 0.57813,0.45312 0.57813,1.32812 v 1.375 q 0,0.34375 -0.23438,0.95313 -0.21875,0.59375 -0.5,1.09375 l -0.25,0.46875 q 0.20313,0.95312 0.8125,3.42187 0.60938,2.46875 0.65625,2.625 0.0312,0.0156 0.0469,0.0937 0.0312,0.0625 0.125,0.21875 0.14062,0.26563 0.14062,0.45313 0,0.25 -0.21875,0.25 z m -2.20312,-7.14063 q 0.34375,0 0.625,-0.34375 0.28125,-0.35937 0.45312,-0.92187 0.29688,-1.14063 0.29688,-1.8125 0,-0.42188 -0.0469,-0.70313 -0.0469,-0.28125 -0.15625,-0.60937 -0.21875,-0.64063 -1.0625,-0.64063 -0.0937,0 -0.15625,0.15625 -0.0469,0.15625 -0.0469,0.32813 0,1.25 0.0312,2.25 0.0156,1.01562 0.0156,2.26562 z m 5.11343,7.17188 q -0.34375,0 -0.375,-0.40625 v -0.23438 q 0.0156,-0.0937 0.0156,-0.21875 l -0.0781,-0.0781 q 0.15625,-0.39063 0.15625,-0.76563 0,-0.4375 -0.0625,-1.23437 l -0.0312,-1.23438 q 0,-0.92187 0.0469,-2.79687 0.0781,-1.65625 0.0781,-2.8125 l -0.0312,-1.125 q -0.0469,-0.5 -0.0469,-1.10938 0,-0.28125 0.125,-0.40625 0.14062,-0.125 0.42187,-0.125 0.1875,0 0.29688,0.10938 0.0312,0.0312 0.54687,0.0781 0.46875,0.0625 0.79688,0.17188 0.35937,0.10937 0.35937,0.28125 0,0.1875 -0.35937,0.375 -1.0625,-0.35938 -1.51563,-0.35938 l -0.0937,0.10938 q 0.0312,0.17187 0.0312,0.79687 0,0.8125 -0.0469,1.4375 -0.0156,0.65625 -0.0156,1.46875 0,0.51563 0.26563,0.51563 l 0.29687,-0.0156 q 0.14063,-0.0156 0.3125,-0.0156 0.73438,0 0.73438,0.32812 0,0.20313 -0.0937,0.34375 -0.0937,0.14063 -0.28125,0.14063 -0.28125,0 -0.4375,-0.14063 l -0.59375,-0.0937 h -0.0937 l -0.0937,0.0937 v 0.0469 q 0.0469,0.3125 0.0469,1.46875 0,0.73437 -0.0312,1.32812 l -0.0156,1.32813 q 0,0.73437 0.0625,1.5 0.0156,0.42187 0.17187,0.5625 0.17188,0.14062 0.625,0.14062 l 0.34375,-0.0156 q 0.15625,-0.0156 0.35938,-0.0156 0.54687,0 0.54687,0.23438 0,0.34375 -0.8125,0.34375 z m 4.61975,-0.0312 q -0.20312,-0.0312 -0.39062,-0.15625 -0.1875,-0.125 -0.20313,-0.28125 l 0.0937,-0.15625 q 0.0781,0 0.32813,0.0625 0.20312,0.0625 0.34375,0.0625 0.40625,0 0.71875,-0.3125 0.32812,-0.32813 0.48437,-0.85938 0.26563,-0.96875 0.26563,-1.82812 0,-1.28125 -0.78125,-2.75 -0.48438,-0.85938 -0.75,-1.35938 -0.25,-0.51562 -0.46875,-1.17187 -0.23438,-0.76563 -0.23438,-1.46875 0,-0.67188 0.32813,-1.57813 0.17187,-0.4375 0.48437,-0.70312 0.3125,-0.28125 0.65625,-0.28125 0.25,0 0.48438,0.17187 0.23437,0.17188 0.23437,0.35938 0,0.14062 -0.25,0.14062 -0.0781,0 -0.1875,-0.0469 -0.10937,-0.0625 -0.20312,-0.0625 -0.28125,0 -0.51563,0.23437 -0.21875,0.21875 -0.32812,0.57813 -0.21875,0.6875 -0.21875,1.26562 0,0.34375 0.0937,0.71875 0.0156,0.125 0.0312,0.20313 0.0156,0.0625 0.0156,0.0937 l 0.125,0.375 0.0937,0.34375 0.14063,0.32812 q 0.0625,0.14063 0.125,0.25 0.0625,0.0937 0.125,0.1875 l 0.21875,0.39063 q 0.0781,0.10937 0.3125,0.53125 0.25,0.42187 0.45312,0.89062 0.1875,0.39063 0.28125,0.73438 0.0937,0.34375 0.17188,0.82812 0.0469,0.46875 0.0469,1.03125 0,0.89063 -0.23437,1.67188 -0.34375,0.9375 -0.96875,1.3125 -0.35938,0.21875 -0.82813,0.21875 z m 1.5,-12.15625 q 0,-0.0156 -0.0312,-0.0156 v 0.0156 z"
         fill-rule="nonzero"
         id="path177" />
      <path
         fill="#000000"
         fill-opacity="0"
         d="m 315.65878,486.76904 h 67.52756 v 42.01575 h -67.52756 z"
         fill-rule="evenodd"
         id="path179" />
      <path
         fill="#000000"
         d="m 337.2723,513.814 q -0.34375,-0.10938 -0.60938,-0.3125 -0.25,-0.20313 -0.46875,-0.60938 -0.39062,-0.75 -0.46875,-2.15625 -0.0312,-0.625 -0.0312,-1.10937 v -2.125 q 0,-1.21875 0.0781,-2.35938 0.0469,-0.84375 0.15625,-1.42187 0.125,-0.57813 0.35937,-1.15625 0.26563,-0.59375 0.57813,-0.82813 0.125,-0.125 0.5,-0.26562 0.25,-0.0937 0.46875,-0.20313 h 0.75 0.0469 q 0.0312,0.0156 0.0625,0.0156 l 0.0937,0.0156 0.0781,0.0625 q 0.0469,0.0469 0.0469,0.0781 0.0312,0.0312 0.0312,0.10937 l -0.25,0.28125 h -0.78125 q -0.35937,0 -0.65625,0.34375 -0.28125,0.34375 -0.42187,0.85938 -0.15625,0.46875 -0.25,1.10937 -0.0937,0.625 -0.10938,1.09375 -0.0312,0.59375 -0.0312,0.82813 l -0.0469,0.0937 q 0,1.03125 -0.0312,1.875 l -0.0469,1.89062 q 0,0.8125 0.125,1.51563 0.0937,0.73437 0.53125,1.32812 0.4375,0.60938 1.32813,0.60938 0.28125,0 0.46875,-0.17188 0.28125,0 0.28125,0.20313 0,0.125 -0.23438,0.29687 -0.23437,0.1875 -0.48437,0.28125 h -0.60938 z m 5.87952,0.23437 q -2.1875,0 -2.1875,-6.875 v -0.64062 q 0,-5.21875 1.34375,-5.21875 0.0937,0 0.26562,0.0625 0.59375,0.20312 1.17188,0.26562 0.35937,0.0625 0.71875,0.71875 0.39062,0.67188 0.57812,1.78125 0.20313,1.09375 0.20313,2.25 l -0.0469,0.0937 q 0,0.625 0.0312,1.10938 l 0.0156,1.10937 q 0,0.95313 -0.0781,1.71875 -0.10937,1.15625 -0.375,2 -0.17187,0.5 -0.39062,0.84375 -0.20313,0.32813 -0.51563,0.54688 -0.29687,0.23437 -0.73437,0.23437 z m -0.0781,-0.54687 q 0.73438,0 1.09375,-1.03125 0.34375,-1.03125 0.42188,-2.125 0.0781,-1.10938 0.0781,-1.78125 0,-0.75 -0.10937,-2.20313 -0.0937,-1.625 -0.0937,-2.20312 l -0.0781,-0.15625 0.0312,-0.0937 q 0,-0.8125 -0.45312,-1.40625 -0.45313,-0.60938 -1.10938,-0.60938 -0.85937,0 -1.03125,0.82813 -0.0312,0.28125 -0.0625,0.79687 0,1.39063 -0.125,1.89063 0,0.28125 -0.0469,0.875 l -0.0469,0.875 q 0,0.40625 0.0312,0.73437 l 0.0156,0.73438 q 0,0.89062 0.14062,2.01562 0.125,0.84375 0.26563,1.42188 0.15625,0.57812 0.4375,0.98437 0.26562,0.45313 0.64062,0.45313 z m 6.54883,0.46875 q -0.29688,0 -0.64063,-0.20313 -0.34375,-0.1875 -0.5625,-0.45312 -0.26562,-0.32813 -0.42187,-1.875 -0.14063,-1.5625 -0.17188,-3.54688 0,-0.45312 -0.0312,-0.67187 -0.0312,-4.6875 -0.14062,-5.54688 l 0.10937,-0.26562 q 0.42188,0.0625 0.42188,1.03125 l 0.0625,4.9375 q 0,0.53125 0.0937,1.98437 0.10937,1.3125 0.10937,1.98438 0,2.125 1.40625,2.125 0.85938,0 1.09375,-3.92188 l 0.0156,-0.375 q 0.14062,-5.125 0.14062,-7.59375 l -0.0312,-0.17187 q -0.0156,-0.0625 -0.0156,-0.15625 0,-0.21875 0.32812,-0.21875 0.21875,0 0.26563,0.125 0.0469,0.1875 0.0469,0.64062 0,1.42188 -0.10937,1.90625 l 0.0156,0.10938 q 0,0.25 -0.0625,0.75 l -0.0312,0.75 v 0.1875 q 0.0156,0.0781 0.0156,0.1875 -0.0312,0.4375 -0.0312,0.85937 -0.0156,0.125 -0.0156,0.40625 -0.0469,1.76563 -0.0781,3.07813 -0.0625,1.625 -0.45313,2.73437 -0.40625,1.20313 -1.32812,1.20313 z m 5.20319,-0.0312 q -0.25,0 -0.3125,-0.4375 0.0469,-0.10938 0.0469,-0.60938 0,-1.71875 0.0469,-5.09375 0.0625,-3.35937 0.0625,-4.85937 l 0.0312,-0.67188 0.0625,-0.5625 q 0,-0.125 0.125,-0.125 0.0937,0 0.26562,0.0625 l 0.0469,0.0156 q 0,0.40625 -0.0156,0.75 v 0.71875 2.03125 q 0.0156,0.90625 0.0156,2.03125 -0.0156,0.0937 -0.0156,0.42187 l -0.0156,0.39063 q -0.0156,0.375 -0.0156,0.76562 0,0.42188 0.0156,0.78125 l 0.0156,0.79688 -0.0469,0.15625 0.0156,-0.0156 q 0,0.0469 -0.0156,0.0625 v 0.0781 q 0,0.15625 0.0469,0.26562 l -0.0469,1.79688 v 0.10937 q 0,0.3125 0.0156,0.375 0,0.0937 0.0937,0.0937 l 0.96875,0.0312 q 0.42188,0 0.57813,0.0156 0.17187,0 0.20312,0 h 0.0625 q 0.0937,0 0.17188,0.10937 0.0937,0.0937 0.0937,0.20313 0,0.23437 -0.29688,0.25 -0.3125,-0.0156 -1.54687,-0.0156 l 0.0469,0.0156 q -0.1875,0 -0.35937,0.0156 -0.15625,0.0469 -0.34375,0.0469 z m 4.67663,-0.15625 q -0.15625,0 -0.15625,-0.5 -0.0781,-1.29688 -0.0781,-3.25 0,-1.23438 0.0312,-2.20313 l 0.0156,-2.20312 q 0,-1.42188 -0.0781,-3.5 -0.17188,-0.15625 -0.17188,-0.375 0,-0.14063 0.15625,-0.26563 0.15625,-0.14062 0.29688,-0.14062 0.14062,0 0.28125,0.14062 l 0.20312,0.17188 q 0.10938,0.0469 0.42188,0.10937 0.32812,0.0625 0.45312,0.10938 0.28125,0.15625 0.75,0.57812 0.4375,0.45313 0.60938,0.5625 l -0.0156,0.0312 q 0.0156,0.125 0.28125,0.48438 0.20313,0.28125 0.32813,0.53125 0.29687,0.85937 0.29687,2.21875 0,0.25 -0.0156,0.42187 v 0.45313 0.15625 l -0.0156,0.1875 q 0,0.34375 0.10938,0.54687 -0.10938,0.60938 -0.28125,2.26563 -0.0469,0.48437 -0.1875,1.03125 -0.125,0.53125 -0.3125,0.89062 -0.48438,0.90625 -1.625,1.54688 z m 1.21875,-0.54688 q 0.14063,-0.14062 0.25,-0.23437 0,0 0.125,-0.0937 l 0.15625,-0.14063 q 1.29688,-1.17187 1.29688,-4.46875 V 507.939 q -0.0156,-0.14063 -0.0156,-0.3125 l -0.0625,-1.89063 q -0.0625,-1.07812 -0.65625,-2.23437 -0.28125,-0.57813 -0.76562,-0.9375 -0.46875,-0.375 -1,-0.375 -0.21875,0 -0.21875,3.45312 0,4 0.21875,6.96875 l -0.0156,0.34375 0.0781,0.0469 0.0312,0.23437 z"
         fill-rule="nonzero"
         id="path181" />
      <path
         fill="#000000"
         fill-opacity="0"
         d="m 258.59055,246.57217 c 12.04459,0 18.06558,0.29921 24.0892,0.59843 6.02362,0.29921 12.0499,0.59842 24.09979,0.59842"
         fill-rule="evenodd"
         id="path183" />
      <path
         stroke="#000000"
         stroke-width="1"
         stroke-linejoin="round"
         stroke-linecap="butt"
         d="m 258.59055,246.57217 c 12.04459,0 18.06558,0.29921 24.0892,0.59843 6.02362,0.29921 12.0499,0.59842 24.09979,0.59842"
         fill-rule="evenodd"
         id="path185" />
      <path
         fill="#000000"
         fill-opacity="0"
         d="m 396.46982,247.76772 91.43308,-1.79527"
         fill-rule="evenodd"
         id="path187" />
      <path
         stroke="#000000"
         stroke-width="1"
         stroke-linejoin="round"
         stroke-linecap="butt"
         d="m 396.46982,247.76772 91.43308,-1.79527"
         fill-rule="evenodd"
         id="path189" />
      <path
         fill="#000000"
         fill-opacity="0"
         d="m 258.59055,246.57217 c 12.58597,0 18.88055,21.81891 25.17191,43.63779 6.29132,21.81891 12.5794,43.63781 25.15881,43.63781"
         fill-rule="evenodd"
         id="path191" />
      <path
         stroke="#000000"
         stroke-width="1"
         stroke-linejoin="round"
         stroke-linecap="butt"
         d="m 258.59055,246.57217 c 12.58597,0 18.88055,21.81891 25.17191,43.63779 6.29132,21.81891 12.5794,43.63781 25.15881,43.63781"
         fill-rule="evenodd"
         id="path193" />
      <path
         fill="#000000"
         fill-opacity="0"
         d="m 258.59055,246.57217 c 13.13516,0 19.70343,43.33072 26.27035,86.66141 6.56693,43.33072 13.13254,86.66144 26.26508,86.66144"
         fill-rule="evenodd"
         id="path195" />
      <path
         stroke="#000000"
         stroke-width="1"
         stroke-linejoin="round"
         stroke-linecap="butt"
         d="m 258.59055,246.57217 c 13.13516,0 19.70343,43.33072 26.27035,86.66141 6.56693,43.33072 13.13254,86.66144 26.26508,86.66144"
         fill-rule="evenodd"
         id="path197" />
      <path
         fill="#000000"
         fill-opacity="0"
         d="m 258.59055,246.57217 c 14.26715,0 21.40045,65.29922 28.5343,130.59842 7.13385,65.29923 14.26828,130.59845 28.53656,130.59845"
         fill-rule="evenodd"
         id="path199" />
      <path
         stroke="#000000"
         stroke-width="1"
         stroke-linejoin="round"
         stroke-linecap="butt"
         d="m 258.59055,246.57217 c 14.26715,0 21.40045,65.29922 28.5343,130.59842 7.13385,65.29923 14.26828,130.59845 28.53656,130.59845"
         fill-rule="evenodd"
         id="path201" />
      <path
         fill="#000000"
         fill-opacity="0"
         d="m 389.91077,333.83203 57.16534,-1.19687"
         fill-rule="evenodd"
         id="path203" />
      <path
         stroke="#000000"
         stroke-width="1"
         stroke-linejoin="round"
         stroke-linecap="butt"
         d="m 389.91077,333.83203 57.16534,-1.19687"
         fill-rule="evenodd"
         id="path205" />
      <path
         fill="#000000"
         fill-opacity="0"
         d="m 392.1076,419.89502 67.52756,-0.59842"
         fill-rule="evenodd"
         id="path207" />
      <path
         stroke="#000000"
         stroke-width="1"
         stroke-linejoin="round"
         stroke-linecap="butt"
         d="m 392.1076,419.89502 67.52756,-0.59842"
         fill-rule="evenodd"
         id="path209" />
      <path
         fill="#000000"
         fill-opacity="0"
         d="m 430.73227,506.24933 -47.55905,1.54333"
         fill-rule="evenodd"
         id="path211" />
      <path
         stroke="#000000"
         stroke-width="1"
         stroke-linejoin="round"
         stroke-linecap="butt"
         d="m 430.73227,506.24933 -47.55905,1.54333"
         fill-rule="evenodd"
         id="path213" />
    </g>
  </g>
</svg>
