<svg xmlns="http://www.w3.org/2000/svg" viewBox="0 0 728.55 421.15"><defs><style>.cls-1{fill:#f2f2f2;}.cls-2{fill:#e6e6e6;}.cls-3{fill:#ccc;}.cls-4{fill:#b3b3b3;}.cls-18,.cls-5{fill:#ffcd03;}.cls-19,.cls-6{fill:#006cb7;}.cls-17,.cls-7{fill:#dd1a21;}.cls-8{fill:#e2ba13;}.cls-9{fill:#ceab17;}.cls-10{fill:#b29a36;}.cls-11{fill:#046ba5;}.cls-12{fill:#0d5e8c;}.cls-13{fill:#175a7f;}.cls-14{fill:#cc1725;}.cls-15{fill:#a82b26;}.cls-16{fill:#991f28;}.cls-17,.cls-18,.cls-19{fill-rule:evenodd;}.cls-20{fill:#fff;}</style></defs><title>lego-original-habit-tracker</title><g id="Layer_2" data-name="Layer 2"><g id="Layer_1-2" data-name="Layer 1"><path d="M158.73,231.34,90.64,270.65c-14.34,8.28-36.25,9.19-48.67,2L19,259.42c-12.42-7.17-10.85-19.82,3.5-28.1L90.62,192c14.34-8.28,36.25-9.19,48.67-2l22.94,13.24C174.65,210.41,173.08,223.05,158.73,231.34Z"/><path d="M271.88,301.77l-68.09,39.31c-14.35,8.29-36.25,9.19-48.68,2l-22.93-13.24c-12.43-7.17-10.86-19.82,3.49-28.1l68.09-39.32c14.35-8.28,36.25-9.19,48.68-2l22.93,13.24C287.8,280.84,286.23,293.49,271.88,301.77Z"/><path d="M387.79,371.09,319.7,410.4c-14.35,8.29-36.25,9.19-48.67,2l-22.94-13.24c-12.43-7.17-10.85-19.82,3.49-28.1l68.09-39.32c14.35-8.28,36.25-9.19,48.68-2L391.29,343C403.71,350.16,402.14,362.81,387.79,371.09Z"/><path d="M374,417.44,6.43,204.72c-9.53-5.5-8.32-15.19,2.68-21.55L317.27,5.26c11-6.35,27.79-7,37.32-1.55L722.12,216.43c9.53,5.5,8.32,15.19-2.68,21.55L411.28,415.89C400.28,422.24,383.49,422.94,374,417.44Z"/><polygon class="cls-1" points="327.91 117.46 400.4 75.61 472.9 117.46 400.4 159.32 327.91 117.46"/><polygon class="cls-2" points="327.91 117.46 327.91 145.37 400.4 187.22 400.4 159.32 327.91 117.46"/><polygon class="cls-3" points="400.4 159.32 472.9 117.46 472.9 145.37 400.4 187.22 400.4 159.32"/><path class="cls-4" d="M392.3,113.68s-1.61,9,8.05,9,8-9,8-9Z"/><path class="cls-2" d="M408.4,113.68c0,3.45-3.6,6.25-8,6.25s-8.05-2.8-8.05-6.25,3.61-6.24,8.05-6.24S408.4,110.23,408.4,113.68Z"/><path class="cls-4" d="M368.24,102.14s-1.61,9,8.05,9,8-9,8-9Z"/><path class="cls-2" d="M384.34,102.14c0,3.45-3.6,6.25-8,6.25s-8.05-2.8-8.05-6.25,3.61-6.25,8.05-6.25S384.34,98.69,384.34,102.14Z"/><path class="cls-4" d="M368.24,127.35s-1.61,9,8.05,9,8-9,8-9Z"/><path class="cls-2" d="M384.34,127.35c0,3.45-3.6,6.24-8,6.24s-8.05-2.79-8.05-6.24,3.61-6.25,8.05-6.25S384.34,123.9,384.34,127.35Z"/><path class="cls-4" d="M344.07,115.67s-1.61,9,8.05,9,8.06-9,8.06-9Z"/><path class="cls-2" d="M360.18,115.67c0,3.45-3.61,6.25-8.06,6.25s-8.05-2.8-8.05-6.25,3.61-6.25,8.05-6.25S360.18,112.22,360.18,115.67Z"/><path class="cls-4" d="M392.25,142.63s-1.61,9,8.05,9,8.05-9,8.05-9Z"/><path class="cls-2" d="M408.35,142.63c0,3.45-3.6,6.25-8.05,6.25s-8.05-2.8-8.05-6.25,3.61-6.24,8.05-6.24S408.35,139.18,408.35,142.63Z"/><path class="cls-4" d="M416.42,128.77s-1.61,9,8.05,9,8-9,8-9Z"/><path class="cls-2" d="M432.52,128.77c0,3.45-3.6,6.25-8,6.25s-8.05-2.8-8.05-6.25,3.6-6.24,8.05-6.24S432.52,125.32,432.52,128.77Z"/><path class="cls-4" d="M440.58,114.63s-1.61,9,8.05,9,8.05-9,8.05-9Z"/><path class="cls-2" d="M456.68,114.63c0,3.45-3.6,6.24-8.05,6.24s-8.05-2.79-8.05-6.24,3.61-6.25,8.05-6.25S456.68,111.18,456.68,114.63Z"/><path class="cls-4" d="M392.45,87.55s-1.61,9,8.05,9,8.06-9,8.06-9Z"/><path class="cls-2" d="M408.56,87.55c0,3.45-3.61,6.24-8.06,6.24s-8.05-2.79-8.05-6.24,3.61-6.25,8.05-6.25S408.56,84.1,408.56,87.55Z"/><path class="cls-4" d="M416.62,101.5s-1.61,9,8.05,9,8.05-9,8.05-9Z"/><path class="cls-2" d="M432.72,101.5c0,3.45-3.6,6.25-8.05,6.25s-8.05-2.8-8.05-6.25,3.61-6.24,8.05-6.24S432.72,98.05,432.72,101.5Z"/><polygon class="cls-1" points="400.41 159.18 472.9 117.32 545.39 159.18 472.9 201.03 400.41 159.18"/><polygon class="cls-2" points="400.41 159.18 400.41 187.08 472.89 228.93 472.89 201.03 400.41 159.18"/><polygon class="cls-3" points="472.89 201.03 545.39 159.18 545.39 187.08 472.89 228.93 472.89 201.03"/><path class="cls-4" d="M464.8,155.39s-1.61,9,8.05,9,8-9,8-9Z"/><path class="cls-2" d="M480.9,155.39c0,3.45-3.61,6.25-8,6.25s-8.05-2.8-8.05-6.25,3.6-6.24,8.05-6.24S480.9,151.94,480.9,155.39Z"/><path class="cls-4" d="M440.73,143.85s-1.61,9,8,9,8.05-9,8.05-9Z"/><path class="cls-2" d="M456.83,143.85c0,3.45-3.6,6.25-8.05,6.25s-8-2.8-8-6.25,3.61-6.24,8-6.24S456.83,140.4,456.83,143.85Z"/><path class="cls-4" d="M440.73,169.06s-1.61,9,8,9,8.05-9,8.05-9Z"/><path class="cls-2" d="M456.83,169.06c0,3.45-3.6,6.24-8.05,6.24s-8-2.79-8-6.24,3.61-6.25,8-6.25S456.83,165.61,456.83,169.06Z"/><path class="cls-4" d="M416.57,157.38s-1.61,9,8.05,9,8.05-9,8.05-9Z"/><path class="cls-2" d="M432.67,157.38c0,3.45-3.6,6.25-8.05,6.25s-8.05-2.8-8.05-6.25,3.61-6.24,8.05-6.24S432.67,153.93,432.67,157.38Z"/><path class="cls-4" d="M464.75,184.34s-1.61,9,8,9,8.06-9,8.06-9Z"/><path class="cls-2" d="M480.85,184.34c0,3.46-3.61,6.25-8.05,6.25s-8.05-2.79-8.05-6.25,3.6-6.24,8.05-6.24S480.85,180.89,480.85,184.34Z"/><path class="cls-4" d="M488.91,170.48s-1.61,9,8.06,9,8-9,8-9Z"/><path class="cls-2" d="M505,170.48c0,3.46-3.6,6.25-8,6.25s-8.06-2.79-8.06-6.25,3.61-6.24,8.06-6.24S505,167,505,170.48Z"/><path class="cls-4" d="M513.08,156.34s-1.62,9,8,9,8.06-9,8.06-9Z"/><path class="cls-2" d="M529.18,156.34c0,3.45-3.61,6.25-8,6.25s-8-2.8-8-6.25,3.6-6.25,8-6.25S529.18,152.89,529.18,156.34Z"/><path class="cls-4" d="M465,129.26s-1.61,9,8.05,9,8.05-9,8.05-9Z"/><path class="cls-2" d="M481.05,129.26c0,3.45-3.6,6.25-8.05,6.25s-8.05-2.8-8.05-6.25S468.56,123,473,123,481.05,125.81,481.05,129.26Z"/><path class="cls-4" d="M489.11,143.21s-1.61,9,8.05,9,8.06-9,8.06-9Z"/><path class="cls-2" d="M505.22,143.21c0,3.46-3.61,6.25-8.06,6.25s-8.05-2.79-8.05-6.25,3.61-6.24,8.05-6.24S505.22,139.76,505.22,143.21Z"/><polygon class="cls-1" points="255.42 159.27 327.92 117.41 400.41 159.27 327.92 201.12 255.42 159.27"/><polygon class="cls-2" points="255.42 159.27 255.42 187.17 327.91 229.02 327.91 201.12 255.42 159.27"/><polygon class="cls-3" points="327.91 201.12 400.41 159.27 400.41 187.17 327.91 229.02 327.91 201.12"/><path class="cls-4" d="M319.81,155.48s-1.61,9,8.05,9,8.05-9,8.05-9Z"/><path class="cls-2" d="M335.91,155.48c0,3.45-3.6,6.25-8.05,6.25s-8.05-2.8-8.05-6.25,3.61-6.24,8.05-6.24S335.91,152,335.91,155.48Z"/><path d="M295.75,143.94s-1.61,9,8.05,9,8.05-9,8.05-9Z"/><path class="cls-5" d="M311.85,143.94c0,3.45-3.6,6.25-8.05,6.25s-8.05-2.8-8.05-6.25,3.61-6.24,8.05-6.24S311.85,140.49,311.85,143.94Z"/><path class="cls-4" d="M295.75,169.15s-1.61,9,8.05,9,8.05-9,8.05-9Z"/><path class="cls-2" d="M311.85,169.15c0,3.45-3.6,6.24-8.05,6.24s-8.05-2.79-8.05-6.24,3.61-6.25,8.05-6.25S311.85,165.7,311.85,169.15Z"/><path class="cls-4" d="M271.59,157.47s-1.61,9,8,9,8.06-9,8.06-9Z"/><path class="cls-2" d="M287.69,157.47c0,3.45-3.61,6.25-8.06,6.25s-8-2.8-8-6.25,3.6-6.24,8-6.24S287.69,154,287.69,157.47Z"/><path class="cls-4" d="M319.77,184.44s-1.62,9,8,9,8.06-9,8.06-9Z"/><path class="cls-2" d="M335.87,184.44c0,3.45-3.61,6.24-8.06,6.24s-8-2.79-8-6.24,3.6-6.25,8-6.25S335.87,181,335.87,184.44Z"/><path class="cls-4" d="M343.93,170.57s-1.61,9,8.05,9,8-9,8-9Z"/><path class="cls-2" d="M360,170.57c0,3.46-3.6,6.25-8,6.25s-8.05-2.79-8.05-6.25,3.61-6.24,8.05-6.24S360,167.12,360,170.57Z"/><path class="cls-4" d="M368.1,156.43s-1.62,9,8,9,8.06-9,8.06-9Z"/><path class="cls-2" d="M384.2,156.43c0,3.45-3.61,6.25-8.05,6.25s-8-2.8-8-6.25,3.6-6.24,8-6.24S384.2,153,384.2,156.43Z"/><path d="M320,129.35s-1.61,9,8,9,8.05-9,8.05-9Z"/><path class="cls-6" d="M336.07,129.35c0,3.45-3.61,6.25-8.05,6.25s-8-2.8-8-6.25,3.61-6.24,8-6.24S336.07,125.9,336.07,129.35Z"/><path class="cls-4" d="M344.13,143.3s-1.61,9,8.05,9,8.05-9,8.05-9Z"/><path class="cls-2" d="M360.23,143.3c0,3.46-3.6,6.25-8.05,6.25s-8.05-2.79-8.05-6.25,3.61-6.24,8.05-6.24S360.23,139.85,360.23,143.3Z"/><polygon class="cls-1" points="182.93 201.12 255.42 159.27 327.92 201.12 255.42 242.98 182.93 201.12"/><polygon class="cls-2" points="182.93 201.12 182.93 229.03 255.42 270.88 255.42 242.98 182.93 201.12"/><polygon class="cls-3" points="255.42 242.98 327.92 201.12 327.92 229.02 255.42 270.88 255.42 242.98"/><path class="cls-4" d="M247.32,197.34s-1.61,9,8.05,9,8.05-9,8.05-9Z"/><path class="cls-2" d="M263.42,197.34c0,3.45-3.6,6.24-8.05,6.24s-8.05-2.79-8.05-6.24,3.61-6.25,8.05-6.25S263.42,193.89,263.42,197.34Z"/><path d="M223.26,185.8s-1.61,9,8.05,9,8.05-9,8.05-9Z"/><path class="cls-7" d="M239.36,185.8c0,3.45-3.61,6.24-8.05,6.24s-8.05-2.79-8.05-6.24,3.61-6.25,8.05-6.25S239.36,182.35,239.36,185.8Z"/><path class="cls-4" d="M223.26,211s-1.61,9,8.05,9,8.05-9,8.05-9Z"/><path class="cls-2" d="M239.36,211c0,3.45-3.61,6.25-8.05,6.25s-8.05-2.8-8.05-6.25,3.61-6.24,8.05-6.24S239.36,207.55,239.36,211Z"/><path class="cls-4" d="M199.09,199.33s-1.61,9,8,9,8.05-9,8.05-9Z"/><path class="cls-2" d="M215.19,199.33c0,3.45-3.6,6.24-8.05,6.24s-8-2.79-8-6.24,3.61-6.25,8-6.25S215.19,195.88,215.19,199.33Z"/><path class="cls-4" d="M247.27,226.29s-1.61,9,8,9,8.05-9,8.05-9Z"/><path class="cls-2" d="M263.37,226.29c0,3.45-3.6,6.25-8.05,6.25s-8-2.8-8-6.25,3.61-6.25,8-6.25S263.37,222.84,263.37,226.29Z"/><path class="cls-4" d="M271.44,212.43s-1.61,9,8.05,9,8.05-9,8.05-9Z"/><path class="cls-2" d="M287.54,212.43c0,3.45-3.6,6.25-8.05,6.25s-8.05-2.8-8.05-6.25,3.6-6.25,8.05-6.25S287.54,209,287.54,212.43Z"/><path class="cls-4" d="M295.6,198.29s-1.61,9,8,9,8.05-9,8.05-9Z"/><path class="cls-2" d="M311.7,198.29c0,3.45-3.6,6.24-8.05,6.24s-8-2.79-8-6.24,3.61-6.25,8-6.25S311.7,194.84,311.7,198.29Z"/><path class="cls-4" d="M247.47,171.21s-1.61,9,8.05,9,8.06-9,8.06-9Z"/><path class="cls-2" d="M263.58,171.21c0,3.45-3.61,6.24-8.06,6.24s-8.05-2.79-8.05-6.24,3.61-6.25,8.05-6.25S263.58,167.76,263.58,171.21Z"/><path class="cls-4" d="M271.64,185.16s-1.61,9,8.05,9,8.05-9,8.05-9Z"/><path class="cls-2" d="M287.74,185.16c0,3.45-3.6,6.25-8.05,6.25s-8.05-2.8-8.05-6.25,3.61-6.25,8.05-6.25S287.74,181.71,287.74,185.16Z"/><polygon class="cls-1" points="327.92 200.98 400.41 159.12 472.9 200.98 400.41 242.83 327.92 200.98"/><polygon class="cls-2" points="327.92 200.98 327.92 228.88 400.41 270.73 400.41 242.83 327.92 200.98"/><polygon class="cls-3" points="400.41 242.83 472.9 200.98 472.9 228.88 400.41 270.73 400.41 242.83"/><path class="cls-4" d="M392.31,197.2s-1.61,9,8.05,9,8.05-9,8.05-9Z"/><path class="cls-2" d="M408.41,197.2c0,3.45-3.6,6.24-8.05,6.24s-8.05-2.79-8.05-6.24,3.61-6.25,8.05-6.25S408.41,193.75,408.41,197.2Z"/><path class="cls-4" d="M368.25,185.65s-1.61,9,8,9,8.06-9,8.06-9Z"/><path class="cls-2" d="M384.35,185.65c0,3.45-3.61,6.25-8.06,6.25s-8-2.8-8-6.25,3.6-6.24,8-6.24S384.35,182.2,384.35,185.65Z"/><path class="cls-4" d="M368.25,210.86s-1.61,9,8,9,8.06-9,8.06-9Z"/><path class="cls-2" d="M384.35,210.86c0,3.45-3.61,6.24-8.06,6.24s-8-2.79-8-6.24,3.6-6.25,8-6.25S384.35,207.41,384.35,210.86Z"/><path class="cls-4" d="M344.08,199.18s-1.61,9,8.05,9,8.05-9,8.05-9Z"/><path class="cls-2" d="M360.18,199.18c0,3.45-3.6,6.25-8.05,6.25s-8.05-2.8-8.05-6.25,3.61-6.24,8.05-6.24S360.18,195.73,360.18,199.18Z"/><path d="M392.26,226.15s-1.61,9,8.05,9,8.05-9,8.05-9Z"/><path class="cls-5" d="M408.36,226.15c0,3.45-3.6,6.24-8.05,6.24s-8.05-2.79-8.05-6.24,3.61-6.25,8.05-6.25S408.36,222.7,408.36,226.15Z"/><path d="M416.43,212.29s-1.62,9,8.05,9,8-9,8-9Z"/><path class="cls-5" d="M432.53,212.29c0,3.45-3.61,6.24-8,6.24s-8.05-2.79-8.05-6.24S420,206,424.48,206,432.53,208.84,432.53,212.29Z"/><path class="cls-4" d="M440.59,198.14s-1.61,9,8.05,9,8.05-9,8.05-9Z"/><path class="cls-2" d="M456.69,198.14c0,3.45-3.6,6.25-8.05,6.25s-8.05-2.8-8.05-6.25,3.6-6.24,8.05-6.24S456.69,194.69,456.69,198.14Z"/><path class="cls-4" d="M392.46,171.06s-1.61,9,8.05,9,8.05-9,8.05-9Z"/><path class="cls-2" d="M408.56,171.06c0,3.45-3.6,6.25-8.05,6.25s-8.05-2.8-8.05-6.25,3.61-6.24,8.05-6.24S408.56,167.61,408.56,171.06Z"/><path class="cls-4" d="M416.63,185s-1.61,9,8.05,9,8.05-9,8.05-9Z"/><path class="cls-2" d="M432.73,185c0,3.45-3.61,6.24-8.05,6.24s-8.05-2.79-8.05-6.24,3.6-6.25,8.05-6.25S432.73,181.57,432.73,185Z"/><polygon class="cls-1" points="255.43 242.83 327.92 200.98 400.41 242.83 327.92 284.69 255.43 242.83"/><polygon class="cls-2" points="255.43 242.83 255.43 270.74 327.91 312.59 327.91 284.69 255.43 242.83"/><polygon class="cls-3" points="327.91 284.69 400.41 242.83 400.41 270.73 327.91 312.59 327.91 284.69"/><path class="cls-4" d="M319.82,239.05s-1.62,9,8.05,9,8.05-9,8.05-9Z"/><path class="cls-2" d="M335.92,239.05c0,3.45-3.61,6.25-8.05,6.25s-8.05-2.8-8.05-6.25,3.6-6.25,8.05-6.25S335.92,235.6,335.92,239.05Z"/><path class="cls-4" d="M295.75,227.51s-1.61,9,8.05,9,8.05-9,8.05-9Z"/><path class="cls-2" d="M311.85,227.51c0,3.45-3.6,6.24-8.05,6.24s-8.05-2.79-8.05-6.24,3.61-6.25,8.05-6.25S311.85,224.06,311.85,227.51Z"/><path class="cls-4" d="M295.75,252.71s-1.61,9,8.05,9,8.05-9,8.05-9Z"/><path class="cls-2" d="M311.85,252.71c0,3.45-3.6,6.25-8.05,6.25s-8.05-2.8-8.05-6.25,3.61-6.24,8.05-6.24S311.85,249.26,311.85,252.71Z"/><path class="cls-4" d="M271.59,241s-1.61,9,8.05,9,8.05-9,8.05-9Z"/><path class="cls-2" d="M287.69,241c0,3.45-3.61,6.24-8.05,6.24s-8.05-2.79-8.05-6.24,3.61-6.25,8.05-6.25S287.69,237.59,287.69,241Z"/><path class="cls-4" d="M319.77,268s-1.62,9,8,9,8.06-9,8.06-9Z"/><path class="cls-2" d="M335.87,268c0,3.45-3.61,6.25-8.05,6.25s-8.05-2.8-8.05-6.25,3.6-6.24,8.05-6.24S335.87,264.55,335.87,268Z"/><path d="M343.93,254.14s-1.61,9,8.05,9,8-9,8-9Z"/><path class="cls-7" d="M360,254.14c0,3.45-3.6,6.25-8,6.25s-8.05-2.8-8.05-6.25,3.61-6.24,8.05-6.24S360,250.69,360,254.14Z"/><path d="M368.1,240s-1.62,9,8,9,8.06-9,8.06-9Z"/><path class="cls-7" d="M384.2,240c0,3.45-3.61,6.24-8.05,6.24s-8-2.79-8-6.24,3.6-6.25,8-6.25S384.2,236.55,384.2,240Z"/><path class="cls-4" d="M320,212.92s-1.61,9,8,9,8.05-9,8.05-9Z"/><path class="cls-2" d="M336.07,212.92c0,3.45-3.6,6.24-8.05,6.24s-8-2.79-8-6.24,3.61-6.25,8-6.25S336.07,209.47,336.07,212.92Z"/><path class="cls-4" d="M344.13,226.87s-1.61,9,8.05,9,8.06-9,8.06-9Z"/><path class="cls-2" d="M360.24,226.87c0,3.45-3.61,6.25-8.06,6.25s-8.05-2.8-8.05-6.25,3.61-6.24,8.05-6.24S360.24,223.42,360.24,226.87Z"/><polygon class="cls-1" points="473 200.98 545.49 159.13 617.98 200.98 545.49 242.84 473 200.98"/><polygon class="cls-2" points="473 200.98 473 228.88 545.49 270.74 545.49 242.84 473 200.98"/><polygon class="cls-3" points="545.49 242.84 617.98 200.98 617.98 228.88 545.49 270.74 545.49 242.84"/><path class="cls-4" d="M537.39,197.2s-1.61,9,8.05,9,8-9,8-9Z"/><path class="cls-2" d="M553.49,197.2c0,3.45-3.6,6.24-8,6.24s-8.05-2.79-8.05-6.24S541,191,545.44,191,553.49,193.75,553.49,197.2Z"/><path class="cls-4" d="M513.32,185.66s-1.61,9,8,9,8.06-9,8.06-9Z"/><path class="cls-2" d="M529.43,185.66c0,3.45-3.61,6.24-8.06,6.24s-8-2.79-8-6.24,3.61-6.25,8-6.25S529.43,182.21,529.43,185.66Z"/><path d="M513.32,210.86s-1.61,9,8,9,8.06-9,8.06-9Z"/><path class="cls-6" d="M529.43,210.86c0,3.45-3.61,6.25-8.06,6.25s-8-2.8-8-6.25,3.61-6.24,8-6.24S529.43,207.41,529.43,210.86Z"/><path class="cls-4" d="M489.16,199.19s-1.61,9,8,9,8.05-9,8.05-9Z"/><path class="cls-2" d="M505.26,199.19c0,3.45-3.6,6.24-8.05,6.24s-8-2.79-8-6.24,3.61-6.25,8-6.25S505.26,195.74,505.26,199.19Z"/><path d="M537.34,226.15s-1.61,9,8,9,8.05-9,8.05-9Z"/><path class="cls-6" d="M553.44,226.15c0,3.45-3.6,6.25-8.05,6.25s-8-2.8-8-6.25,3.6-6.25,8-6.25S553.44,222.7,553.44,226.15Z"/><path class="cls-4" d="M561.51,212.29s-1.62,9,8,9,8.05-9,8.05-9Z"/><path class="cls-2" d="M577.61,212.29c0,3.45-3.61,6.24-8.05,6.24s-8-2.79-8-6.24,3.6-6.25,8-6.25S577.61,208.84,577.61,212.29Z"/><path class="cls-4" d="M585.67,198.15s-1.61,9,8.05,9,8-9,8-9Z"/><path class="cls-2" d="M601.77,198.15c0,3.45-3.6,6.24-8,6.24s-8.05-2.79-8.05-6.24,3.6-6.25,8.05-6.25S601.77,194.7,601.77,198.15Z"/><path class="cls-4" d="M537.54,171.07s-1.61,9,8.05,9,8-9,8-9Z"/><path class="cls-2" d="M553.64,171.07c0,3.45-3.6,6.24-8,6.24s-8.05-2.79-8.05-6.24,3.61-6.25,8.05-6.25S553.64,167.62,553.64,171.07Z"/><path class="cls-4" d="M561.71,185s-1.61,9,8,9,8.06-9,8.06-9Z"/><path class="cls-2" d="M577.81,185c0,3.45-3.61,6.25-8.06,6.25s-8-2.8-8-6.25,3.6-6.25,8-6.25S577.81,181.57,577.81,185Z"/><polygon class="cls-1" points="400.51 242.78 473 200.93 545.5 242.78 473 284.64 400.51 242.78"/><polygon class="cls-2" points="400.51 242.78 400.51 270.69 473 312.54 473 284.64 400.51 242.78"/><polygon class="cls-3" points="473 284.64 545.5 242.78 545.5 270.68 473 312.54 473 284.64"/><path d="M464.9,239s-1.61,9,8.05,9,8.05-9,8.05-9Z"/><path class="cls-5" d="M481,239c0,3.45-3.6,6.25-8.05,6.25s-8.05-2.8-8.05-6.25,3.61-6.25,8.05-6.25S481,235.55,481,239Z"/><path d="M440.84,227.46s-1.61,9,8.05,9,8.05-9,8.05-9Z"/><path class="cls-5" d="M456.94,227.46c0,3.45-3.61,6.24-8.05,6.24s-8.05-2.79-8.05-6.24,3.61-6.25,8.05-6.25S456.94,224,456.94,227.46Z"/><path d="M440.84,252.66s-1.61,9,8.05,9,8.05-9,8.05-9Z"/><path class="cls-5" d="M456.94,252.66c0,3.45-3.61,6.25-8.05,6.25s-8.05-2.8-8.05-6.25,3.61-6.24,8.05-6.24S456.94,249.21,456.94,252.66Z"/><path d="M416.67,241s-1.61,9,8.05,9,8-9,8-9Z"/><path class="cls-5" d="M432.77,241c0,3.45-3.6,6.24-8,6.24s-8.05-2.79-8.05-6.24,3.61-6.25,8.05-6.25S432.77,237.54,432.77,241Z"/><path d="M464.85,268s-1.61,9,8,9,8.05-9,8.05-9Z"/><path class="cls-5" d="M481,268c0,3.45-3.6,6.25-8.05,6.25s-8-2.8-8-6.25,3.61-6.24,8-6.24S481,264.5,481,268Z"/><path d="M489,254.09s-1.61,9,8.05,9,8.05-9,8.05-9Z"/><path class="cls-5" d="M505.12,254.09c0,3.45-3.6,6.25-8.05,6.25s-8.05-2.8-8.05-6.25,3.6-6.24,8.05-6.24S505.12,250.64,505.12,254.09Z"/><path d="M513.18,240s-1.61,9,8.05,9,8-9,8-9Z"/><path class="cls-6" d="M529.28,240c0,3.45-3.6,6.24-8,6.24s-8.05-2.79-8.05-6.24,3.61-6.25,8.05-6.25S529.28,236.5,529.28,240Z"/><path class="cls-4" d="M465.05,212.87s-1.61,9,8.05,9,8-9,8-9Z"/><path class="cls-2" d="M481.15,212.87c0,3.45-3.6,6.24-8,6.24s-8.05-2.79-8.05-6.24,3.61-6.25,8.05-6.25S481.15,209.42,481.15,212.87Z"/><path d="M489.22,226.82s-1.61,9,8,9,8.05-9,8.05-9Z"/><path class="cls-6" d="M505.32,226.82c0,3.45-3.61,6.25-8.05,6.25s-8-2.8-8-6.25,3.61-6.24,8-6.24S505.32,223.37,505.32,226.82Z"/><polygon class="cls-1" points="327.91 284.64 400.41 242.78 472.9 284.64 400.41 326.49 327.91 284.64"/><polygon class="cls-2" points="327.91 284.64 327.91 312.54 400.4 354.39 400.4 326.49 327.91 284.64"/><polygon class="cls-3" points="400.4 326.49 472.9 284.64 472.9 312.54 400.4 354.39 400.4 326.49"/><path d="M392.3,280.86s-1.61,9,8.05,9,8-9,8-9Z"/><path class="cls-7" d="M408.4,280.86c0,3.45-3.6,6.24-8,6.24s-8.05-2.79-8.05-6.24,3.61-6.25,8.05-6.25S408.4,277.4,408.4,280.86Z"/><path d="M368.24,269.31s-1.61,9,8.05,9,8-9,8-9Z"/><path class="cls-7" d="M384.34,269.31c0,3.45-3.6,6.25-8,6.25s-8.05-2.8-8.05-6.25,3.61-6.24,8.05-6.24S384.34,265.86,384.34,269.31Z"/><path class="cls-4" d="M368.24,294.52s-1.61,9,8.05,9,8-9,8-9Z"/><path class="cls-2" d="M384.34,294.52c0,3.45-3.6,6.24-8,6.24s-8.05-2.79-8.05-6.24,3.61-6.25,8.05-6.25S384.34,291.07,384.34,294.52Z"/><path class="cls-4" d="M344.08,282.84s-1.61,9,8.05,9,8.05-9,8.05-9Z"/><path class="cls-2" d="M360.18,282.84c0,3.45-3.61,6.25-8.05,6.25s-8.05-2.8-8.05-6.25,3.6-6.24,8.05-6.24S360.18,279.39,360.18,282.84Z"/><path class="cls-4" d="M392.26,309.81s-1.62,9,8,9,8.06-9,8.06-9Z"/><path class="cls-2" d="M408.36,309.81c0,3.45-3.61,6.24-8.06,6.24s-8-2.79-8-6.24,3.6-6.25,8-6.25S408.36,306.36,408.36,309.81Z"/><path d="M416.42,295.94s-1.61,9,8.05,9,8-9,8-9Z"/><path class="cls-7" d="M432.52,295.94c0,3.46-3.6,6.25-8,6.25s-8.05-2.79-8.05-6.25,3.61-6.24,8.05-6.24S432.52,292.49,432.52,295.94Z"/><path d="M440.59,281.8s-1.62,9,8,9,8.06-9,8.06-9Z"/><path class="cls-7" d="M456.69,281.8c0,3.45-3.61,6.25-8.05,6.25s-8.05-2.8-8.05-6.25,3.6-6.24,8.05-6.24S456.69,278.35,456.69,281.8Z"/><path d="M392.46,254.72s-1.61,9,8.05,9,8.05-9,8.05-9Z"/><path class="cls-7" d="M408.56,254.72c0,3.45-3.61,6.25-8.05,6.25s-8.05-2.8-8.05-6.25,3.61-6.24,8.05-6.24S408.56,251.27,408.56,254.72Z"/><path d="M416.62,268.68s-1.61,9,8.05,9,8.05-9,8.05-9Z"/><path class="cls-7" d="M432.72,268.68c0,3.45-3.6,6.24-8.05,6.24s-8.05-2.79-8.05-6.24,3.61-6.25,8.05-6.25S432.72,265.23,432.72,268.68Z"/><polygon class="cls-5" points="376.29 146.59 327.96 174.5 376.29 202.4 424.62 174.49 376.29 146.59"/><polygon class="cls-8" points="327.96 174.5 327.96 202.64 376.29 230.54 376.29 202.4 327.96 174.5"/><polygon class="cls-9" points="376.29 202.4 424.62 174.49 424.63 202.81 376.3 230.71 376.29 202.4"/><path class="cls-10" d="M368.24,159.18s-1.61,9,8.05,9,8-9,8-9Z"/><path class="cls-5" d="M384.34,159.18c0,3.45-3.6,6.24-8,6.24s-8.05-2.79-8.05-6.24,3.61-6.25,8.05-6.25S384.34,155.73,384.34,159.18Z"/><path class="cls-10" d="M392.41,173.13s-1.62,9,8,9,8.05-9,8.05-9Z"/><path class="cls-5" d="M408.5,173.13c0,3.45-3.6,6.25-8.05,6.25s-8-2.8-8-6.25,3.6-6.24,8-6.24S408.5,169.68,408.5,173.13Z"/><path class="cls-10" d="M368.24,185.61s-1.61,9,8,9,8.06-9,8.06-9Z"/><path class="cls-5" d="M384.34,185.61c0,3.45-3.6,6.25-8,6.25s-8.05-2.8-8.05-6.25,3.6-6.24,8.05-6.24S384.34,182.16,384.34,185.61Z"/><path class="cls-10" d="M344.08,173.13s-1.62,9,8.05,9,8.05-9,8.05-9Z"/><path class="cls-5" d="M360.18,173.13c0,3.45-3.61,6.25-8.05,6.25s-8.05-2.8-8.05-6.25,3.6-6.24,8.05-6.24S360.18,169.68,360.18,173.13Z"/><polygon class="cls-5" points="376.12 118.13 327.79 146.04 376.12 173.94 424.45 146.03 376.12 118.13"/><polygon class="cls-8" points="327.79 146.04 327.79 174.18 376.12 202.08 376.12 173.94 327.79 146.04"/><polygon class="cls-9" points="376.12 173.94 424.45 146.03 424.46 174.35 376.13 202.25 376.12 173.94"/><path class="cls-10" d="M368.07,130.72s-1.62,9,8.05,9,8.05-9,8.05-9Z"/><path class="cls-5" d="M384.17,130.72c0,3.45-3.61,6.24-8.05,6.24s-8.05-2.79-8.05-6.24,3.6-6.25,8.05-6.25S384.17,127.27,384.17,130.72Z"/><path class="cls-10" d="M392.23,144.67s-1.61,9,8,9,8.05-9,8.05-9Z"/><path class="cls-5" d="M408.33,144.67c0,3.45-3.6,6.25-8.05,6.25s-8-2.8-8-6.25,3.61-6.24,8-6.24S408.33,141.22,408.33,144.67Z"/><path class="cls-10" d="M368.06,157.15s-1.61,9,8.05,9,8.06-9,8.06-9Z"/><path class="cls-5" d="M384.17,157.15c0,3.45-3.61,6.25-8.06,6.25s-8.05-2.8-8.05-6.25,3.61-6.24,8.05-6.24S384.17,153.7,384.17,157.15Z"/><path class="cls-10" d="M343.9,144.67s-1.61,9,8.05,9,8.05-9,8.05-9Z"/><path class="cls-5" d="M360,144.67c0,3.45-3.6,6.25-8.05,6.25s-8.05-2.8-8.05-6.25,3.61-6.24,8.05-6.24S360,141.22,360,144.67Z"/><polygon class="cls-5" points="376.12 89.78 327.79 117.68 376.12 145.59 424.45 117.68 376.12 89.78"/><polygon class="cls-8" points="327.79 117.68 327.79 145.82 376.12 173.73 376.12 145.59 327.79 117.68"/><polygon class="cls-9" points="376.12 145.59 424.45 117.68 424.46 145.99 376.13 173.9 376.12 145.59"/><path class="cls-10" d="M368.07,102.36s-1.62,9,8.05,9,8.05-9,8.05-9Z"/><path class="cls-5" d="M384.17,102.36c0,3.45-3.61,6.25-8.05,6.25s-8.05-2.8-8.05-6.25,3.6-6.24,8.05-6.24S384.17,98.91,384.17,102.36Z"/><path class="cls-10" d="M392.23,116.32s-1.61,9,8,9,8.05-9,8.05-9Z"/><path class="cls-5" d="M408.33,116.32c0,3.45-3.6,6.24-8.05,6.24s-8-2.79-8-6.24,3.61-6.25,8-6.25S408.33,112.86,408.33,116.32Z"/><path class="cls-10" d="M368.06,128.8s-1.61,9,8.05,9,8.06-9,8.06-9Z"/><path class="cls-5" d="M384.17,128.8c0,3.45-3.61,6.24-8.06,6.24s-8.05-2.79-8.05-6.24,3.61-6.25,8.05-6.25S384.17,125.34,384.17,128.8Z"/><path class="cls-10" d="M343.9,116.32s-1.61,9,8.05,9,8.05-9,8.05-9Z"/><path class="cls-5" d="M360,116.32c0,3.45-3.6,6.24-8.05,6.24s-8.05-2.79-8.05-6.24,3.61-6.25,8.05-6.25S360,112.86,360,116.32Z"/><polygon class="cls-6" points="473.1 146.59 424.77 174.5 473.1 202.4 521.43 174.49 473.1 146.59"/><polygon class="cls-11" points="424.77 174.5 424.77 202.64 473.1 230.54 473.1 202.4 424.77 174.5"/><polygon class="cls-12" points="473.1 202.4 521.43 174.49 521.44 202.81 473.11 230.71 473.1 202.4"/><path class="cls-13" d="M465.05,159.18s-1.61,9,8.05,9,8-9,8-9Z"/><path class="cls-6" d="M481.15,159.18c0,3.45-3.6,6.24-8,6.24s-8.05-2.79-8.05-6.24,3.6-6.25,8.05-6.25S481.15,155.73,481.15,159.18Z"/><path class="cls-13" d="M489.21,173.13s-1.61,9,8.05,9,8.05-9,8.05-9Z"/><path class="cls-6" d="M505.31,173.13c0,3.45-3.6,6.25-8.05,6.25s-8.05-2.8-8.05-6.25,3.61-6.24,8.05-6.24S505.31,169.68,505.31,173.13Z"/><path class="cls-13" d="M465.05,185.61s-1.62,9,8,9,8.06-9,8.06-9Z"/><path class="cls-6" d="M481.15,185.61c0,3.45-3.61,6.25-8,6.25s-8.05-2.8-8.05-6.25,3.6-6.24,8.05-6.24S481.15,182.16,481.15,185.61Z"/><path class="cls-13" d="M440.89,173.13s-1.62,9,8,9,8.05-9,8.05-9Z"/><path class="cls-6" d="M457,173.13c0,3.45-3.6,6.25-8.05,6.25s-8-2.8-8-6.25,3.6-6.24,8-6.24S457,169.68,457,173.13Z"/><polygon class="cls-6" points="473.1 117.83 424.77 145.73 473.1 173.63 521.43 145.73 473.1 117.83"/><polygon class="cls-11" points="424.77 145.73 424.77 173.87 473.1 201.77 473.1 173.63 424.77 145.73"/><polygon class="cls-12" points="473.1 173.63 521.43 145.73 521.44 174.04 473.11 201.95 473.1 173.63"/><path class="cls-13" d="M465.05,130.41s-1.61,9,8.05,9,8-9,8-9Z"/><path class="cls-6" d="M481.15,130.41c0,3.45-3.6,6.24-8,6.24s-8.05-2.79-8.05-6.24,3.6-6.25,8.05-6.25S481.15,127,481.15,130.41Z"/><path class="cls-13" d="M489.21,144.36s-1.61,9,8.05,9,8.05-9,8.05-9Z"/><path class="cls-6" d="M505.31,144.36c0,3.45-3.6,6.25-8.05,6.25s-8.05-2.8-8.05-6.25,3.61-6.24,8.05-6.24S505.31,140.91,505.31,144.36Z"/><path class="cls-13" d="M465.05,156.84s-1.62,9,8,9,8.06-9,8.06-9Z"/><path class="cls-6" d="M481.15,156.84c0,3.45-3.61,6.25-8,6.25s-8.05-2.8-8.05-6.25,3.6-6.24,8.05-6.24S481.15,153.39,481.15,156.84Z"/><path class="cls-13" d="M440.89,144.36s-1.62,9,8,9,8.05-9,8.05-9Z"/><path class="cls-6" d="M457,144.36c0,3.45-3.6,6.25-8.05,6.25s-8-2.8-8-6.25,3.6-6.24,8-6.24S457,140.91,457,144.36Z"/><polygon class="cls-7" points="279.54 146.16 231.21 174.06 279.54 201.97 327.87 174.06 279.54 146.16"/><polygon class="cls-14" points="231.21 174.06 231.21 202.21 279.54 230.11 279.54 201.97 231.21 174.06"/><polygon class="cls-15" points="279.54 201.97 327.87 174.06 327.88 202.38 279.55 230.28 279.54 201.97"/><path class="cls-16" d="M271.49,158.74s-1.61,9,8.05,9,8-9,8-9Z"/><path class="cls-7" d="M287.59,158.74c0,3.45-3.6,6.25-8,6.25s-8.05-2.8-8.05-6.25,3.6-6.24,8.05-6.24S287.59,155.29,287.59,158.74Z"/><path class="cls-16" d="M295.65,172.7s-1.61,9,8.05,9,8.05-9,8.05-9Z"/><path class="cls-7" d="M311.75,172.7c0,3.45-3.6,6.24-8.05,6.24s-8.05-2.79-8.05-6.24,3.61-6.25,8.05-6.25S311.75,169.25,311.75,172.7Z"/><path class="cls-16" d="M271.49,185.18s-1.62,9,8,9,8.06-9,8.06-9Z"/><path class="cls-7" d="M287.59,185.18c0,3.45-3.61,6.24-8,6.24s-8.05-2.79-8.05-6.24,3.6-6.25,8.05-6.25S287.59,181.73,287.59,185.18Z"/><path class="cls-16" d="M247.32,172.7s-1.61,9,8.05,9,8.05-9,8.05-9Z"/><path class="cls-7" d="M263.42,172.7c0,3.45-3.6,6.24-8.05,6.24s-8.05-2.79-8.05-6.24,3.61-6.25,8.05-6.25S263.42,169.25,263.42,172.7Z"/><polygon class="cls-7" points="327.81 174.06 279.48 201.96 327.81 229.87 376.14 201.96 327.81 174.06"/><polygon class="cls-14" points="279.48 201.96 279.48 230.1 327.81 258.01 327.81 229.87 279.48 201.96"/><polygon class="cls-15" points="327.81 229.87 376.14 201.96 376.15 230.28 327.82 258.18 327.81 229.87"/><path class="cls-16" d="M319.76,186.64s-1.61,9,8.05,9,8.05-9,8.05-9Z"/><path class="cls-7" d="M335.86,186.64c0,3.45-3.6,6.25-8.05,6.25s-8.05-2.8-8.05-6.25,3.61-6.24,8.05-6.24S335.86,183.19,335.86,186.64Z"/><path class="cls-16" d="M343.92,200.6s-1.61,9,8.05,9,8-9,8-9Z"/><path class="cls-7" d="M360,200.6c0,3.45-3.6,6.24-8,6.24s-8.05-2.79-8.05-6.24,3.61-6.25,8.05-6.25S360,197.15,360,200.6Z"/><path class="cls-16" d="M319.76,213.08s-1.61,9,8,9,8.06-9,8.06-9Z"/><path class="cls-7" d="M335.86,213.08c0,3.45-3.6,6.24-8.05,6.24s-8.05-2.79-8.05-6.24,3.6-6.25,8.05-6.25S335.86,209.63,335.86,213.08Z"/><path class="cls-16" d="M295.6,200.6s-1.62,9,8,9,8-9,8-9Z"/><path class="cls-7" d="M311.69,200.6c0,3.45-3.6,6.24-8,6.24s-8-2.79-8-6.24,3.6-6.25,8-6.25S311.69,197.15,311.69,200.6Z"/><polygon class="cls-7" points="327.81 146.16 279.47 174.06 327.81 201.97 376.13 174.06 327.81 146.16"/><polygon class="cls-14" points="279.47 174.06 279.47 202.21 327.8 230.11 327.8 201.97 279.47 174.06"/><polygon class="cls-15" points="327.8 201.97 376.13 174.06 376.14 202.38 327.81 230.28 327.8 201.97"/><path class="cls-16" d="M319.75,158.74s-1.61,9,8.05,9,8.05-9,8.05-9Z"/><path class="cls-7" d="M335.85,158.74c0,3.45-3.6,6.25-8.05,6.25s-8.05-2.8-8.05-6.25,3.61-6.24,8.05-6.24S335.85,155.29,335.85,158.74Z"/><path class="cls-16" d="M343.92,172.7s-1.62,9,8.05,9,8-9,8-9Z"/><path class="cls-7" d="M360,172.7c0,3.45-3.61,6.24-8,6.24s-8.05-2.79-8.05-6.24,3.6-6.25,8.05-6.25S360,169.25,360,172.7Z"/><path class="cls-16" d="M319.75,185.18s-1.61,9,8.05,9,8.05-9,8.05-9Z"/><path class="cls-7" d="M335.85,185.18c0,3.45-3.6,6.24-8.05,6.24s-8.05-2.79-8.05-6.24,3.61-6.25,8.05-6.25S335.85,181.73,335.85,185.18Z"/><path class="cls-16" d="M295.59,172.7s-1.61,9,8.05,9,8.05-9,8.05-9Z"/><path class="cls-7" d="M311.69,172.7c0,3.45-3.6,6.24-8.05,6.24s-8.05-2.79-8.05-6.24,3.6-6.25,8.05-6.25S311.69,169.25,311.69,172.7Z"/><polygon class="cls-7" points="351.97 132.85 327.8 146.8 351.96 160.75 376.13 146.8 351.97 132.85"/><polygon class="cls-14" points="327.8 146.8 327.8 174.7 351.97 188.65 351.97 160.75 327.8 146.8"/><polygon class="cls-15" points="351.97 160.75 376.13 146.8 376.13 174.71 351.97 188.65 351.97 160.75"/><path class="cls-16" d="M343.91,145.43s-1.61,9,8,9,8.06-9,8.06-9Z"/><path class="cls-7" d="M360,145.43c0,3.45-3.61,6.24-8.06,6.24s-8-2.79-8-6.24,3.61-6.25,8-6.25S360,142,360,145.43Z"/><polygon class="cls-7" points="327.8 146.8 303.64 160.75 327.8 174.7 351.96 160.75 327.8 146.8"/><polygon class="cls-14" points="303.64 160.75 303.64 188.65 327.8 202.61 327.8 174.7 303.64 160.75"/><polygon class="cls-15" points="327.8 174.7 351.96 160.75 351.96 188.66 327.8 202.61 327.8 174.7"/><path class="cls-16" d="M319.75,159.38s-1.61,9,8.05,9,8.05-9,8.05-9Z"/><path class="cls-7" d="M335.85,159.38c0,3.45-3.6,6.24-8.05,6.24s-8.05-2.79-8.05-6.24,3.61-6.25,8.05-6.25S335.85,155.93,335.85,159.38Z"/><polygon class="cls-6" points="497.17 104.3 473 118.25 497.16 132.21 521.33 118.25 497.17 104.3"/><polygon class="cls-11" points="473 118.25 473 146.16 497.17 160.11 497.17 132.21 473 118.25"/><polygon class="cls-12" points="497.17 132.21 521.33 118.25 521.33 146.16 497.17 160.11 497.17 132.21"/><path class="cls-13" d="M489.11,116.88s-1.61,9,8.05,9,8.06-9,8.06-9Z"/><path class="cls-6" d="M505.22,116.88c0,3.45-3.61,6.25-8.06,6.25s-8.05-2.8-8.05-6.25,3.61-6.24,8.05-6.24S505.22,113.43,505.22,116.88Z"/><polygon class="cls-6" points="473 118.25 448.84 132.21 473 146.16 497.17 132.21 473 118.25"/><polygon class="cls-11" points="448.84 132.21 448.84 160.11 473 174.06 473 146.16 448.84 132.21"/><polygon class="cls-12" points="473 146.16 497.17 132.21 497.17 160.12 473 174.06 473 146.16"/><path class="cls-13" d="M465,130.84s-1.61,9,8.05,9,8.05-9,8.05-9Z"/><path class="cls-6" d="M481.05,130.84c0,3.45-3.6,6.24-8.05,6.24s-8.05-2.79-8.05-6.24,3.61-6.25,8.05-6.25S481.05,127.39,481.05,130.84Z"/><polygon class="cls-6" points="497.27 76.4 473.1 90.35 497.26 104.3 521.43 90.35 497.27 76.4"/><polygon class="cls-11" points="473.1 90.35 473.1 118.25 497.27 132.21 497.27 104.3 473.1 90.35"/><polygon class="cls-12" points="497.27 104.3 521.43 90.35 521.43 118.26 497.27 132.21 497.27 104.3"/><path class="cls-13" d="M489.22,89s-1.61,9,8,9,8.06-9,8.06-9Z"/><path class="cls-6" d="M505.32,89c0,3.45-3.61,6.24-8.06,6.24s-8-2.79-8-6.24,3.6-6.25,8-6.25S505.32,85.53,505.32,89Z"/><polygon class="cls-6" points="497.27 48.49 473.1 62.45 497.26 76.4 521.43 62.44 497.27 48.49"/><polygon class="cls-11" points="473.1 62.45 473.1 90.35 497.27 104.3 497.27 76.4 473.1 62.45"/><polygon class="cls-12" points="497.27 76.4 521.43 62.44 521.43 90.35 497.27 104.3 497.27 76.4"/><path class="cls-13" d="M489.22,61.07s-1.61,9,8,9,8.06-9,8.06-9Z"/><path class="cls-6" d="M505.32,61.07c0,3.45-3.61,6.25-8.06,6.25s-8-2.8-8-6.25,3.6-6.24,8-6.24S505.32,57.62,505.32,61.07Z"/><path id="dp_path001" data-name="dp path001" class="cls-17" d="M221.92,171.46,220.4,171l-20.68-11h0l-3.78-2.18,1.21-.7-.09-.06-.18-.11-.19-.1-.18-.11-.2-.1-.19-.1-.21-.1-.21-.1-.21-.1-.21-.1-.22-.1-.46-.19-.47-.2-.5-.21-1-.4-1-.4-1-.39-1-.4-1-.4-1-.39-1.95-.78,1.08.39,1.06.38,1.06.37,1,.37,1,.36,1,.36,1,.35,1,.33.15.05.16,0,.14,0,.14,0,.14,0,.15,0,.13,0H196l.13,0,.13,0,.12,0,.06,0,0,0h0l.22.08.2.07.19.07.18.06.36.11.38.12.39.12.39.13.4.11.4.13V157l0,.11,0,.11,0,.11,0,.11,0,.11.05.11,0,.11.05.11.06.11.06.11.07.1.07.11.08.1.08.1.09.1.1.1.09.1.11.1.11.09.11.1.11.09.13.09.13.09.13.09.13.08.15.09.15.08.11.06.11,0,.12.06.12.05.12.06.12,0,.12.05.13.05.12,0,.13,0,.12,0,.13,0,.14,0,.13,0,.13,0,.13,0,.13,0,.14,0,.14,0,.13,0,.13,0,.15,0,.14,0,.13,0,.15,0h.14l.13,0h.15l.14,0h2.16l.15,0H208l.14,0,.14,0,.14,0,.14,0,.15,0,.14,0,.14,0,.13,0,.15,0,.13,0,.13,0,.14,0,.14,0,.13,0,.13,0,.13,0,.14,0,.12,0h0l-3.69-1.26h-.72l-.18,0-.18,0-.17,0-.17,0-.18,0-.17,0-.16-.05-.17-.06-.15-.06-.16-.06-.15-.07-.08,0-.06,0-.08,0-.08,0-.06,0-.07,0-.07,0-.07,0-.06,0-.06,0-.06,0-.05-.05-.05,0,0-.05-.05-.05,0,0-.05-.05,0,0,0-.06,0-.05,0,0,0-.06,0-.05,0-.06,0,0,0-.06,0-.05v-.06l0-.05v-.68l0-.05v-.06l0-.06,0,0,0-.06,0-.05,0-.06,0,0,0-.06,0-.05,0,0,0-.06.05-.05,0-.05.05,0,0-.05.05-.06.06,0,0-.06.06,0,.06-.05.06,0,.07,0,.07,0,.07-.05.07,0,.08,0,.08,0,.07,0,.08,0,.08,0,.08,0,.08,0,.09,0,.08,0,.09,0,.08,0,.09,0,.09,0,.09,0,.09,0,.09,0,.09,0,.09,0,.1,0,.09,0h.1l.09,0h.2l.09,0h1.65l.1,0H208l.1,0h.09l.1,0,.09,0,.09,0,.09,0,.09,0,.1,0,.08,0,.09,0,.09,0,.08,0,.09,0,.08,0,.09,0,.08,0,.08,0,.08,0,.07,0,.08,0,.08.05.07,0,.07.05.08,0,.06.05.06,0,.07.05.06,0,.05.05,0,.05.06,0,.05.05,0,.06,0,0,0,.06,3.56,1.12v-.57l0-.11,0-.12,0-.11,0-.12,0-.11,0-.11-.05-.11-.05-.12-.06-.1-.06-.11-.07-.11-.07-.11-.08-.1-.08-.11-.09-.1-.09-.11-.1-.1-.1-.1-.11-.09-.12-.1-.12-.1-.12-.09-.13-.09-.14-.09-.14-.09-.15-.08-.15-.09-.11-.06-.11-.05-.11-.06-.11,0-.12-.05-.11,0-.12-.05-.12,0-.12-.05-.13,0-.11,0-.13,0-.13,0-.12,0-.13,0-.13,0-.13,0-.13,0-.13,0-.13,0-.13,0-.13,0-.14,0-.13,0-.14,0-.14,0-.13,0h-.28l-.13,0h-1.95l-.14,0h-.28l-.13,0h-.14l-.14,0-.13,0-.14,0-.13,0-.14,0-.14,0-.13,0-.13,0-.14,0-.13,0-.13,0-.13,0-.13,0-.13,0-.13,0-.32-.13-.33-.13-.65-.26-.32-.13-.33-.12-.33-.12-.16-.06-.16,0,0-.06,0-.05,0-.06,0,0v-.06l0-.05v-.33l0,0,0-.06,0-.05,0-.06,0,0,0-.05,0-.06-.05,0-.06-.06-.06-.05-.06-.06-.07,0-.08-.06-.09-.06-.09-.05-.09,0-.11-.06-.11-.06-.12-.05-.12-.06-.37-.16-.38-.16-.37-.15-.38-.15-.38-.14-.38-.15-.39-.14-.38-.14-.78-.28-.79-.28-.39-.14-.39-.14-.39-.15-.39-.15-.26-.1-.27-.1-.27-.09-.26-.09-.28-.09-.27-.08-.28-.08-.28-.08-.29-.08-.28-.07-.29-.07-.29-.07-.3-.07-.3-.06-.29-.06-.31-.07-.3-.06-.3-.06-.31-.06-.31-.05-.62-.11-.63-.1-.64-.1-.65-.1-.65-.1-.65-.1-1.11-.16-1.07-.16-1-.15-1-.14-1-.14-1-.13-1-.12-1-.13h-1.17l-.19,0h-.18l-.19,0-.18,0-.18,0-.18,0-.17,0-.18.05-.17,0-.16.06-.17.06-.17.06-.16.07-.16.07-.16.08-.15.07-.15.08-.15.08-.14.09-.15.09-.14.09-.13.09-.14.09-.12.1-.13.09-.12.1-.13,0-.14-.05-.13-.06-.14,0-.12-.05-.12,0-.13,0-.12,0-.11,0h-.74l-.1,0h-.09l-.09,0-.09,0-.09,0-.09,0-.08,0-.09,0-.08,0-.09,0-.08,0-.16.08-.16.09-.15.09-3.22,1.85,0,0,0,0,0,0,0,0,0-.05,0,0,0,0-.05,0,0,0-.06,0-.11-.08-.13-.07-.13-.07-.13-.07-.14-.07-.27-.14-.14-.08-.12-.07-.12-.07-.11-.08.12-.13.13-.13.11-.13.11-.13.1-.14.09-.13.09-.13.07-.13.08-.14.06-.13.06-.13,0-.14,0-.13,0-.14,0-.13,0-.14v-.54l0-.14,0-.13,0-.14,0-.13,0-.14-.07-.14-.07-.13-.07-.14-.09-.14-.09-.14-.11-.14-.1-.14-9.58-5.53-.14-.06-.14-.07-.14-.06-.13-.06-.14,0-.13-.06-.14-.05-.14,0-.14-.05-.13,0-.14,0-.15,0-.13,0-.14,0-.14,0-.15,0-.13,0-.15,0-.14,0-.14,0-.14,0-.14,0H148l-.14,0-.15,0-.15,0-.15,0-.14,0-.16,0-.14,0-.15,0-.15,0-.15,0-.15,0-.15,0-.15.05-.15,0-.15,0-.15.05-.15,0-.16.05-.14.06-.16.05-.15.05-.15.06-.15.06-.16.06-.15.07-.15.06-.15.07-.31.14-3.29-1.89,0,0h-.57l-.14,0-.15,0-.15,0-.16,0-.14,0-.14.05-.13,0-.06,0-.06,0-.06,0,0,0-.05,0,0,0-6.89,4-.1.06-.09.06-.08.05-.08.06-.07.06-.06,0-.06.06,0,.06,0,0,0,0,0,0,0,0V141l0,0v0l0,0,3.18,1.84-.24.2-.23.19-.22.2-.21.2-.2.19-.09.1-.1.09-.17.2-.08.09-.08.09-.08.1-.07.09-.07.1-.07.09-.06.09L132,145l-.06.09,0,.09-.05.09,0,.09,0,.09-.05.09,0,.08,0,.09,0,.09,0,.08,0,.09,0,.08v.58l0,.08,0,.07,0,.09,0,.07,0,.08,0,.07,0,.08,0,.08,0,.07.06.07.06.08.06.07.08.07.07.07.09.07.08.07.09.07.09.07.11.06.1.07.12.06.11.07.12.06L143.1,154l.16.05.17,0,.17.05.17,0,.18,0,.18,0,.18,0,.18,0,.19,0,.19,0,.2,0,.19,0,.2,0h1.29l.23,0h.22l.24,0,.24,0,.24,0,.25,0,.25,0,.25-.05.26-.05.27-.06.26-.06.28-.06L150,154l.14.1.14.09.14.09.13.08.14.08.13.07.13.07.13.07.13.06.14.06.13,0,.13.05.13,0,.13,0,.14,0h.07l.06,0-2.87,1.65-.15.09-.15.09-.15.1-.06,0-.07.05,0,.05-.07,0-.05.05,0,0-.05.05-.05.05,0,.06,0,0,0,.05,0,.06v.24l0,.07,0,.06,0,.06,0,.08.06.07,0,.07.08.07.08.08.09.07.1.08.09.08-.17.07-.17.07-.17.08-.16.07-.16.08L148,159l-.15.08-.14.09-.14.08-.14.09-.14.09-.13.09-.12.09-.12.09-.11.1-.1.1-.1.09-.09.1-.09.1-.08.1-.06.11-.06.1-.06.11,0,.1,0,.06v0l0,.05v.56l0,.06v0l0,.06.21.58.22.57.23.58.24.58.24.59.26.6.27.62.28.64.34.75.18.38.17.36.18.37.09.18.1.18.09.18.1.17.1.18.11.17.11.18.1.17.12.17.11.17.12.17.12.17.14.16.13.17.13.16.14.16.15.16.15.16.15.15.16.16.17.15.17.15.27.22.25.23.25.23.24.22.49.46.49.45.24.22.25.22.24.22.25.22.26.22.26.22.27.21.29.22.09.07.1.07.1.06.09.06.1,0,.09.06.1.05.1,0,.09,0,.09,0,.1,0,.1,0,.09,0,.1,0,.09,0,.09,0,.1,0h.09l.1,0h1l.09,0h.09l.1.09.1.09.1.1.11.1.21.18.22.19.46.38.22.18.22.19-.07.07-.06.08-.07.07-.06.08,0,.07-.07.08,0,.08,0,.07-.05.08-.05.08,0,.08,0,.08,0,.08,0,.08,0,.07,0,.08,0,.08,0,.08,0,.08,0,.08,0,.08V180l0,.08v.16l0,.08,0,.08,0,.08,0,.07,0,.08,0,.08,0,.08,0,.08,0,.07,0,.08.05.08,0,.07.05.08.05.07.06.08.06.07.06.08.06.07.07.07.07.07.07.07.07.07.09.07.07.07.09.07.08.07.09.06.09.07.1.06.09.07.11.06.14.09.14.08.16.09.15.07.16.08.16.07.17.07.17.07.16.06.17.06.18.06.18.05.18,0,.18.05.18,0,.19.05.19,0,.19,0,.18,0,.2,0,.19,0,.2,0,.19,0,.2,0h1.59l-2-2.05-.09,0-.09,0-.1,0-.08,0-.1,0-.09,0-.08,0-.09,0-.08,0-.09,0-.08,0-.08,0-.08,0-.08,0-.08,0-.07-.05-.07-.05-.07,0-.07,0-.06,0-.06,0-.06-.05-.06,0-.05-.05,0-.05-.05,0,0-.05,0-.06,0,0,0-.05,0-.05,0-.06,0,0,0-.05,0-.06,0,0,0-.06,0-.05,0-.06V180l0,0v-.62l0-.11,0-.06,0-.05,0-.06,0-.05,0-.06,0-.06,0-.05,0-.05,0,0,0-.05.05-.06,0,0,.05-.05,0-.05.05,0,.05-.05.06,0,.06-.05,0-.05.07,0,.07,0,.06,0,.07,0,.07,0,.08,0,.08,0,.07,0,.08,0,.08,0,.09,0,.08,0,.08,0,.09,0,.08,0,.09,0,.09,0,.09,0,.09,0,.09,0,.09,0,.1,0,.09,0,.09,0h.1l.09,0,.1,0h.19l.2,0,.19,0h1l.19,0,.19,0H168l.1,0h.1l.09,0,.1,0,.09,0,.09,0,.09,0,.09,0,.09,0,.09,0,.09,0,.08,0,.09,0,.08,0,.08,0,.09,0,.08,0,.07,0,.08,0,.08,0,.08,0,.07,0,.07,0,.07,0,.06.05.12.09.06,0,.05,0,.11.09.1.1.08.1.08.09.07.1.07.1.05.1,0,.1.05.11,0,.1,0,.11v.21l2.19,2.13h0l.07-.07.08-.08.07-.07.07-.08.06-.08.06-.07.07-.09.05-.07.06-.08.05-.08,0-.08,0-.08.05-.08,0-.08,0-.09,0-.08,0-.08,0-.08,0-.08,0-.09,0-.08,0-.08v-.08l0-.09V179l0-.08,0-.08,0-.09,0-.08,0-.08,0-.08,0-.08,0-.08,0-.08-.05-.08,0-.08,0-.08-.05-.08-.05-.08-.06-.08-.06-.07-.06-.08-.07-.07-.06-.08-.07-.07-.08-.07-.07-.08-.08-.07-.09-.07-.08-.07-.09-.07-.09-.07-.09-.07-.1-.07-.1-.06-.1-.07-.14-.08-.15-.09-.15-.08-.15-.07-.16-.08-.15-.07-.16-.07-.16-.06L171,176l-.17-.06-.17-.06-.17-.06-.17,0-.19,0-.18,0-.18,0-.18,0-.18,0-.19,0-.18,0-.19,0-.19,0-.19,0-.19,0h-1.55l-.43-.47-.21-.22-.21-.23-.2-.22-.21-.2-.1-.11-.11-.11-.12-.11-.15-.13,0,0-.05,0,0-.07,0-.07,0-.08,0-.07,0-.08v-.22l0-.08,0-.08,0-.08-.05-.09-.06-.08-.06-.08-.07-.09-.09-.09-.58-.57-.6-.57-.61-.59-.62-.6-.65-.6-.65-.61-.66-.61-.67-.63,1.36,1.13.68.56.68.56.69.56.68.56.69.55.69.56.37.29.36.29.18.13.18.14.17.13.18.12.17.13.19.12.17.12.18.12.19.11.18.11.2.11.2.11,1.21-.71,3.79,2.19h0l19,11.93.82.88,5.84,3.38,13.33-7.7-16.07-9.28,2.44-1.41,16.07,9.28,13.34-7.7Z"/><path d="M158,159.66l2.1,1.22,2.42-1.4-2.1-1.21.65-.38,5,2.91-.65.37-2.35-1.36-2.42,1.4,2.36,1.36-.66.37-5-2.9Z"/><path d="M168.84,158.21a10.08,10.08,0,0,0,.92.47l-.58.34-.51-.24,0,0c.08.28-.05.64-.56.94a2.23,2.23,0,0,1-2.14,0c-.87-.5-.58-1.22.82-2l-.08,0a1.57,1.57,0,0,0-1.64,0,1.47,1.47,0,0,0-.67.7l-.59-.17a2,2,0,0,1,.87-.86,2.72,2.72,0,0,1,2.83.06Zm-1.6-.2c-.73.4-1.41.94-.71,1.35a1.25,1.25,0,0,0,1.23,0c.48-.28.48-.63.28-.86a.59.59,0,0,0-.18-.14Z"/><path d="M165.46,155l.65-.37,2.27,1.31h0c-.17-.36,0-.75.57-1.08a3.5,3.5,0,0,1,3.35.18c1.29.74,1.12,1.59.32,2.05a2.82,2.82,0,0,1-1.88.31h0l.56.36-.56.32-.9-.56Zm4.5,1.85a1.11,1.11,0,0,0,.27.12,2.18,2.18,0,0,0,1.74-.12c.69-.39.53-.95-.3-1.43a2.53,2.53,0,0,0-2.41-.15.6.6,0,0,0-.18,1,1,1,0,0,0,.24.18Z"/><path d="M171.08,152.58c.22.13.24.32,0,.47a.82.82,0,0,1-.79,0c-.22-.13-.25-.33,0-.48A.89.89,0,0,1,171.08,152.58Zm3.89,3.09-3.61-2.09.66-.37,3.61,2.08Z"/><path d="M173,151.63l.86.5.94-.54.5.29-.94.54,2,1.12a1.14,1.14,0,0,0,1.19.13,1.35,1.35,0,0,0,.33-.25l.53.27a1.73,1.73,0,0,1-.49.39,1.9,1.9,0,0,1-1,.24,2.54,2.54,0,0,1-1.2-.4l-2-1.13-.56.32-.5-.29.56-.32-.67-.39Z"/><path d="M179,165.22l1.8,1.83-2.24,1.3-6.76-7.28,2.86-1.65,12.68,3.86L185,164.64l-3.22-1Zm.8-2.35-2.65-.84c-.75-.24-1.64-.55-2.36-.8l0,0c.43.41,1,.92,1.42,1.33l1.49,1.52Z"/><path id="dp_path001-2" data-name="dp path001" class="cls-18" d="M284.71,135.2l-1.52-.47-20.68-11h0l-3.78-2.18,1.21-.7-.09-.06-.18-.11-.19-.11-.18-.1-.2-.1-.19-.1-.21-.1-.2-.1-.21-.1-.22-.1-.22-.1-.45-.19-.48-.2-.5-.21-1-.4-1-.4-1-.4-1-.39-1-.4-1-.39-2-.79,1.08.39,1.06.38,1.06.38,1,.37,1,.36,1,.36,1,.34,1,.34.16,0,.15,0,.14,0,.15,0,.13,0,.15,0,.13,0h.79l.13,0,.13,0,.12,0,.06,0,0,0h0l.22.08.2.07.19.07.18.05.36.12.38.12.4.12.38.12.4.12.4.13v.67l0,.11,0,.11,0,.11,0,.11,0,.11,0,.11.05.11.06.11.06.1.08.11.06.1.08.11.09.1.08.1.1.1.1.1.1.09.11.1.11.09.11.1.13.09.13.09.13.08.14.09.14.08.15.09.12.06.1.05.12.06.12.05.12,0,.12.06.13,0,.12,0,.12.05.13,0,.12,0,.13,0,.14,0,.13,0,.13,0,.13,0,.13,0,.14,0,.14,0,.13,0,.14,0,.14,0,.14,0,.14,0,.14,0h.14l.14,0h2.44l.15,0h.14l.14,0,.14,0,.14,0,.15,0,.14,0,.14,0,.14,0,.14,0,.14,0,.13,0,.14,0,.14,0,.13,0,.13,0,.14,0,.13,0,.13,0,.12,0h0l-3.69-1.27h-.54l-.18,0-.18,0-.18,0-.17,0-.17,0-.18,0-.16,0-.17-.05-.17-.06-.15-.06-.16-.06-.15-.08-.07,0-.07,0-.08,0-.07,0-.07,0-.07,0-.07,0-.06,0-.07,0-.06-.05,0,0-.06,0-.05-.05-.05,0-.05,0-.05,0,0-.06,0,0,0,0,0-.05,0-.06,0,0,0-.06,0,0,0,0,0-.06,0,0,0-.06,0,0V120l0-.06v-.06l0,0v-.06l0,0,0-.05,0-.06,0,0,0-.06,0,0,0-.06,0,0,0,0,0-.06,0,0,.05,0,.05,0,.06-.05.06,0,.05,0,.06-.05.06,0,.07,0,.08,0,.06,0,.08,0,.07-.05.08,0,.08,0,.07,0,.08,0,.08,0,.09,0,.08,0,.08,0,.09,0,.09,0,.08,0,.09,0,.09,0,.09,0,.09,0,.09,0,.09,0,.1,0,.09,0,.1,0h.09l.1,0h1.94l.1,0h.09l.1,0,.09,0,.09,0,.09,0,.1,0,.08,0,.1,0,.09,0,.08,0,.09,0,.08,0,.09,0,.08,0,.09,0,.08,0,.08,0,.08,0,.08,0,.07,0,.08,0,.08,0,.06,0,.08,0,.06,0,.07,0,.06.05.06,0,.05,0,.06.06.05,0,.05.05,0,.06.05.05,0,0,3.56,1.13v-.57l0-.12,0-.11,0-.12,0-.11,0-.11,0-.11,0-.12-.05-.11-.06-.11-.06-.1-.06-.11-.08-.11-.08-.1-.08-.11-.09-.11-.09-.1-.1-.1-.1-.1-.11-.1-.12-.09-.11-.1-.13-.09-.13-.09-.14-.09-.14-.09-.14-.09-.16-.08-.11-.06-.11,0-.11-.06-.11,0-.12-.05-.11,0-.12,0-.12,0-.12-.05-.12,0-.12,0-.13,0-.13,0-.12,0-.13,0-.13,0-.13,0-.13,0-.13,0-.13,0-.13,0-.13,0-.14,0-.13,0-.14,0-.13,0-.14,0h-.13l-.14,0h-2.36l-.14,0h-.14l-.14,0-.14,0-.13,0-.14,0-.13,0-.14,0-.14,0-.13,0-.13,0-.14,0-.13,0-.13,0-.13,0-.13,0-.13,0-.12,0-.33-.13-.32-.13-.65-.26-.33-.13-.32-.13-.34-.11-.16-.06-.16-.06,0-.05,0,0,0-.06,0-.06v0l0,0v-.39l0,0,0,0,0-.06,0,0,0-.06-.05,0,0-.06-.06,0-.07-.06-.06,0-.07-.06-.08,0-.09-.06-.09-.05L263,114l-.11-.05-.11-.06-.11-.06-.13,0-.37-.16-.37-.16-.38-.15-.38-.15-.38-.15-.38-.14-.38-.14-.39-.14-.78-.28-.78-.28-.39-.14-.4-.15-.39-.14-.39-.16-.26-.1-.26-.09-.27-.1-.27-.08L255,111l-.27-.08-.28-.08-.28-.08-.28-.08-.29-.07-.29-.08-.29-.06-.3-.07-.29-.07-.3-.06-.3-.06-.31-.06-.3-.06-.31-.06-.3,0-.63-.11-.63-.1-.64-.11-.65-.09-.65-.1-.65-.1-1.11-.16-1.07-.16-1-.15-1-.14-1-.14-1-.13-1-.13-1-.12h-1.36l-.18,0-.19,0-.18,0-.18,0-.18,0-.17,0-.18.06-.17.05-.16,0-.17.06-.17.07-.16.06-.15.08-.17.07-.15.08-.15.08-.15.08-.14.09-.15.09-.13.09-.14.09-.14.09-.12.1-.13.09-.12.1-.13,0-.13-.06-.14,0-.13,0-.13,0-.12,0-.12,0-.13,0-.11,0h-.84l-.08,0-.1,0-.09,0-.09,0-.09,0-.08,0-.09,0-.08,0-.09,0-.07,0-.16.08-.16.08-.16.09-3.22,1.86,0,0,0,0,0,0,0,0-.05,0,0,0-.05,0-.05,0,0,0-.06,0-.11-.08-.13-.07-.13-.07-.13-.08-.13-.07-.28-.14-.14-.07-.12-.07-.12-.08-.11-.07.12-.13.13-.13.11-.13.11-.14.1-.13.09-.13.09-.13.08-.14.07-.13.06-.13.06-.14,0-.13,0-.14,0-.13,0-.13,0-.14v-.54l0-.14,0-.13,0-.14,0-.14-.05-.13-.07-.14-.06-.14-.08-.14-.09-.14-.09-.13-.1-.14-.11-.14-9.58-5.53-.14-.07-.14-.06-.13-.06-.14-.06-.14,0-.13-.06-.14,0-.14,0-.14,0-.13,0-.14,0-.14,0-.14,0-.14,0-.14,0-.15,0-.13,0-.14,0-.15,0-.14,0-.14,0-.14,0h-1.88l-.14,0h-.15l-.15,0-.15,0-.14,0-.15,0-.15,0-.15,0-.15,0-.15,0-.15,0-.14,0-.16,0-.15,0-.15,0-.15,0-.15,0-.15,0-.15,0-.16.06-.15,0-.15.06-.15.06-.15.06L207,101l-.15.06-.15.07-.31.14-3.28-1.9h0l0,0h-.54l-.15,0-.15,0-.15,0-.15,0-.15,0-.14.06-.13,0-.06,0-.06,0-.06,0-.05,0,0,0,0,0-6.9,4-.1.06-.08.05L194,104,194,104l-.07,0-.06.06,0,.05-.05.06,0,0,0,0,0,0v0l0,0v.28l0,0v0l0,0,3.18,1.83-.24.2-.23.2-.22.2-.21.2-.2.19-.09.1-.1.09-.17.19-.08.1-.08.09-.08.1-.07.09-.07.09-.06.1-.07.09-.06.09-.05.09-.06.09-.05.09,0,.08,0,.1-.05.08,0,.09,0,.09,0,.08,0,.09,0,.09,0,.08v.57l0,.09,0,.07,0,.08,0,.08,0,.08,0,.07.05.08,0,.07,0,.08.06.07.06.08.07.07.07.07.07.07.09.07.09.07.08.06.1.07.1.07.11.07.11.06.11.07.12.06,9.95,5.74.16,0,.17,0,.17.05.18,0,.17,0,.18,0,.18,0,.18,0,.19,0,.19,0,.2,0,.19,0h.2l.21,0h1.31l.22,0,.24,0,.24,0,.24,0,.25,0,.25,0,.26,0,.25,0,.27-.06.26-.06.28-.07.28-.07.13.1.14.09.14.08.13.08.14.08.13.08.13.07.14.07.12.06.14,0,.13.06.13,0,.13,0,.13,0,.14,0h.07l.07,0-2.88,1.65-.15.09-.15.09-.14.09-.07,0-.06,0-.06,0-.07,0,0,0-.05.06-.05,0,0,0,0,0,0,.06,0,0,0,.06v.3l0,.07,0,.06,0,.07.06.07.06.08.07.07.08.08.09.07.1.08.09.07-.17.07-.17.08-.17.07-.16.08-.15.08-.16.08-.16.08-.14.08-.14.09-.14.09-.13.08-.14.1-.12.09-.11.09-.12.1-.1.09-.1.1-.09.1-.09.1-.08.1-.06.1-.06.11,0,.1-.05.11,0,.05v.06l0,.05v.06l0,0v.45l0,0v.06l0,.06.22.58.21.57.23.58.24.58.24.59.26.6.27.62.28.64.34.75.18.37.17.37.18.37.1.17.09.19.09.17.11.18.1.18.1.17.11.18.11.17.11.17.12.17.11.17.13.16.13.17.13.16.13.17.15.16.14.16.15.15.15.16.16.15.17.16.17.15.27.22.25.23.25.23.25.22.48.46.49.44.24.23.25.22.24.22.26.22.25.22.27.21.27.22.28.22.09.07.1.06.1.07.1.06.09,0,.09.06.1.05.1,0,.09,0,.09,0,.1,0,.1,0,.09,0,.1,0,.09,0,.09,0h.1l.09,0h1.23l.1,0,.09.1.1.09.1.1.11.09.21.19.22.19.46.37.22.19.22.19-.06.07-.07.07-.06.08-.07.08-.05.07-.06.08,0,.08-.05.07-.05.08,0,.08,0,.08,0,.07,0,.08,0,.08,0,.08,0,.08,0,.08,0,.08,0,.08,0,.08V143l0,.08v.8l0,.08,0,.08,0,.08,0,.08,0,.08,0,.08,0,.08,0,.08,0,.07,0,.08,0,.08,0,.07,0,.08.06.08,0,.07.06.08.06.07.06.07.07.08.06.07.07.07.07.07.07.07.09.07.08.07.08.07.08.06.09.07.09.07.1.06.09.06.11.07.14.09.15.08.15.08.15.08.16.08.17.07.16.07.17.06.16.07.18.06.17.05.18.06.18,0,.18.05.18,0,.19,0,.19,0,.19,0,.19,0,.19,0,.2,0,.19,0,.2,0h.19l.2,0H230l-2-2.06-.09,0-.09,0-.09,0-.09,0-.09,0-.1,0-.08,0-.09,0-.08,0-.08,0-.09,0-.08,0-.08,0-.08,0-.07,0-.08,0-.07-.05-.07,0-.06,0-.07-.05-.06-.05-.06,0,0,0-.06-.05-.05-.05,0,0,0-.05,0-.06,0,0,0-.05,0-.06,0-.05,0,0,0-.06,0-.05,0-.06,0,0,0-.06,0-.05v-.06l0-.06V143l0-.12,0,0,0-.06,0-.05,0-.06,0-.05,0-.06,0-.05,0-.06,0-.05,0,0,0-.05,0,0,0-.05.05-.05,0-.06.05,0,.06,0,.06-.05.06-.05.06,0,.07,0,.07-.05.06,0,.08,0,.07,0,.08,0,.07,0,.08,0,.09,0,.08,0,.08,0,.08,0,.09,0,.08,0,.1,0,.08,0,.09,0,.09,0,.1,0,.08,0,.1,0,.09,0,.1,0,.09,0h.09l.1,0h.19l.2,0h1l.2,0h.19l.19,0,.1,0h.09l.1,0,.09,0,.1,0,.09,0,.09,0,.09,0,.09,0,.09,0,.09,0,.09,0,.09,0,.08,0,.08,0,.08,0,.09,0,.08,0,.07,0,.08,0,.08,0,.08,0,.07.05.07,0,.07,0,.06.05.12.08.06.05,0,0,.11.09.1.1.09.09.08.1.06.1.07.1,0,.1.05.1,0,.11,0,.1,0,.1,0,.11v.1l2.19,2.13h0l.08-.07.07-.08.07-.08.07-.07.06-.08.06-.08.07-.08.06-.08,0-.07.05-.08,0-.08,0-.08,0-.09,0-.08,0-.08,0-.08,0-.08,0-.08,0-.09,0-.08,0-.08,0-.09,0-.08v-.75l0-.08v-.08l0-.09,0-.08,0-.08,0-.08,0-.08,0-.09,0-.07,0-.09,0-.08,0-.07,0-.08-.05-.08,0-.08-.06-.08-.06-.07-.06-.08-.06-.07-.07-.08-.07-.08-.07-.07L236,141l-.08-.07-.08-.07-.09-.08-.09-.07-.09-.06-.09-.07-.1-.07-.1-.06-.1-.07-.14-.09-.15-.08-.15-.08-.15-.08-.15-.07-.16-.07-.16-.07-.16-.06-.17-.07-.17-.06-.17,0-.17-.06-.17-.05-.18,0-.18-.05-.18,0-.19,0-.18,0-.19,0-.18,0-.19,0-.19,0-.19,0-.19,0h-.19l-.2,0h-1.16l-.42-.46-.22-.22-.21-.23-.2-.22-.2-.21-.11-.1-.11-.11-.12-.12-.14-.12-.05,0,0,0,0-.07,0-.08,0-.07,0-.07,0-.08v-.15l0-.08,0-.08,0-.08,0-.08-.05-.08-.06-.08-.06-.08-.07-.09-.09-.09-.58-.57-.6-.58-.61-.59-.62-.59-.64-.6-.66-.61-.66-.62-.67-.62,1.36,1.13.68.56.68.56.69.55.68.56.7.56.69.55.36.3.37.28.17.14.18.13.17.13.18.13.18.13.18.12.17.12.18.11.2.12.18.11.19.11.2.1L232,137l3.79,2.19h0l19,11.94.82.88,5.84,3.37,13.33-7.7L258.7,138.4l2.44-1.4,16.07,9.27,13.34-7.7Z"/><path d="M220.79,123.41l2.1,1.22,2.42-1.4-2.1-1.21.65-.38,5,2.9-.66.38-2.35-1.36L223.46,125l2.36,1.36-.65.38-5-2.9Z"/><path d="M231.64,122a8.84,8.84,0,0,0,.91.47l-.58.33-.51-.23h0c.08.28-.05.65-.56.95a2.25,2.25,0,0,1-2.14,0c-.87-.5-.57-1.22.82-2l-.08,0a1.55,1.55,0,0,0-1.64,0,1.47,1.47,0,0,0-.67.7l-.59-.17a2,2,0,0,1,.87-.86,2.7,2.7,0,0,1,2.84.06Zm-1.61-.2c-.73.4-1.41.94-.71,1.34a1.24,1.24,0,0,0,1.24,0c.47-.27.48-.62.27-.85a.55.55,0,0,0-.17-.14Z"/><path d="M228.26,118.79l.64-.37,2.27,1.31h0c-.17-.37,0-.75.57-1.08a3.5,3.5,0,0,1,3.35.18c1.29.74,1.12,1.58.32,2.05a2.88,2.88,0,0,1-1.88.31h0l.55.37-.56.32-.9-.56Zm4.49,1.85a1.11,1.11,0,0,0,.27.12,2.22,2.22,0,0,0,1.74-.12c.69-.4.53-1-.29-1.43a2.52,2.52,0,0,0-2.42-.15.6.6,0,0,0-.18,1,1,1,0,0,0,.24.18Z"/><path d="M233.87,116.33c.22.13.25.32,0,.47a.84.84,0,0,1-.8,0c-.22-.13-.25-.33,0-.47A.83.83,0,0,1,233.87,116.33Zm3.9,3.09-3.61-2.09.65-.37,3.61,2.08Z"/><path d="M235.81,115.38l.87.5.93-.54.5.29-.93.54,1.94,1.12a1.12,1.12,0,0,0,1.19.12,1.15,1.15,0,0,0,.33-.24l.53.27a1.64,1.64,0,0,1-.48.38,1.86,1.86,0,0,1-1,.25,2.51,2.51,0,0,1-1.2-.4l-2-1.14-.56.33-.5-.29.56-.32-.67-.39Z"/><path d="M232.86,126a21.39,21.39,0,0,1,2.61-1.74,9.39,9.39,0,0,1,3.4-1.34,4.61,4.61,0,0,1,3.06.45,1.28,1.28,0,0,1,.47,2.1l0,0a5.39,5.39,0,0,1,4.28.26c.89.51,1.18,1.14,1.07,1.77s-1,1.59-2.91,2.69a24.17,24.17,0,0,1-2.5,1.28Zm5.86.89.72-.41c1.15-.67,1.28-1.29.56-1.7a2.63,2.63,0,0,0-2.66.24,6.72,6.72,0,0,0-.87.57Zm4.3,2.48a7.33,7.33,0,0,0,.87-.47c1-.56,1.47-1.29.45-1.88a3.37,3.37,0,0,0-3.31.35l-.74.43Z"/><path id="dp_path001-3" data-name="dp path001" class="cls-19" d="M347.5,99,346,98.48l-20.68-11h0l-3.79-2.19,1.21-.7-.09,0-.18-.11-.18-.11-.19-.1-.2-.1-.19-.1-.21-.11-.2-.09-.21-.1-.22-.1-.22-.1-.45-.2-.48-.2-.49-.21-1-.4-1-.39-1-.4-1-.4-1-.39-1-.39-2-.79,1.08.39,1.06.38,1.06.38,1,.37,1,.36,1,.35,1,.35,1,.33.15,0,.15,0,.14,0,.15,0,.13,0,.15,0h.8l.13,0h.12l.13,0,.13,0,.05,0H322l.22.09.2.07.19.06.19.06.35.12.38.12.4.12.38.12.4.12.4.12v.68l0,.11,0,.11,0,.11,0,.11,0,.11.05.11.05.11.06.1,0,.11.08.1.07.11.08.1.08.11.08.1.1.1.1.09.1.1.11.1.11.09.11.09.13.09.13.09.13.09.14.09.14.08.16.08.11.06.11.06.11.06.13.05.11,0,.12,0,.13,0,.12,0,.13,0,.12,0,.13,0,.12,0,.14,0,.13,0,.13,0,.13,0,.14,0,.13,0,.14,0,.14,0,.13,0,.14,0,.14,0,.14,0,.14,0,.14,0h.14l.14,0h1.87l.15,0h.57l.14,0,.15,0,.14,0,.14,0,.14,0,.14,0,.14,0,.14,0,.14,0,.13,0,.14,0,.14,0,.13,0,.13,0,.14,0,.13,0,.13,0,.13,0h0l-3.7-1.26H332l-.18,0h-.18l-.18,0-.18,0-.17,0-.17,0-.18,0-.16,0-.17,0-.16,0-.16-.06-.16-.07-.15-.07-.07,0-.07,0-.08,0-.07,0-.07,0-.07,0-.07,0-.06,0-.07,0-.06-.05-.05,0-.06,0,0,0-.05,0-.05-.06-.05,0,0,0,0,0,0,0,0-.05,0-.06,0,0,0-.06,0,0,0-.06,0,0,0-.06,0,0,0-.06V83.7l0,0v-.06l0,0,0-.06,0,0,0-.06,0-.05,0-.06,0-.05,0,0,0-.06,0,0,0,0,0-.06,0,0,.05,0,.06,0,.05-.05.06,0,.06,0,0,0,.07,0,.06,0,.08,0,.07,0,.07,0,.08-.05.07,0,.08,0,.07,0,.08,0,.09,0,.08,0,.08,0,.08,0,.09,0,.09,0,.09,0,.08,0,.1,0,.08,0,.1,0,.08,0,.1,0h.09l.1,0,.09,0h.1l.09,0h1.75l.1,0h.19l.09,0,.1,0,.09,0,.09,0,.09,0,.1,0,.09,0,.09,0,.09,0,.08,0,.09,0,.09,0,.08,0,.09,0,.08,0,.08,0,.08,0,.08,0,.08,0,.08,0,.07,0,.08,0,.07,0,.07,0,.06,0,.07,0,.06,0,.06,0,.05,0,.06.05,0,.06.05.05,0,0,.05.06,0,0,3.56,1.13,0-.12v-.46l0-.11,0-.11,0-.12,0-.11,0-.11,0-.12-.05-.11-.05-.11-.06-.11-.06-.11-.06-.11-.08-.11-.07-.1-.09-.11L339,82l-.09-.1-.1-.1-.1-.1-.11-.1-.11-.1-.12-.09-.13-.1-.13-.09-.13-.09-.15-.09-.14-.08-.15-.08-.12-.06-.1-.06-.12,0-.11,0-.12-.06-.11,0-.12,0-.12,0-.12,0-.12,0-.12,0-.13,0-.12,0-.13,0-.13,0-.12,0-.14,0-.12,0-.14,0-.13,0L335,80l-.13,0-.14,0-.13,0-.14,0h-.13l-.14,0-.13,0h-2.64l-.14,0-.14,0-.14,0-.13,0-.13,0-.14,0-.14,0-.13,0-.14,0-.13,0-.14,0-.12,0-.14,0-.13,0-.13,0-.13,0-.12,0-.32-.13-.33-.12-.65-.27-.33-.12-.32-.13-.33-.12-.17-.06-.16,0,0-.05,0-.06,0-.05,0-.06v0l0-.06v-.38l0,0,0-.06,0,0,0-.06,0,0,0,0-.05-.06-.06-.06-.07,0-.06,0-.07-.06-.08,0-.08-.06-.1-.06-.09,0-.11-.06-.11,0-.11-.06-.12,0-.38-.17-.37-.15-.37-.16-.38-.14-.39-.15-.38-.14-.38-.15-.39-.13-.78-.28-.78-.28-.39-.15-.4-.14-.39-.15-.39-.15-.26-.1-.26-.09-.27-.1-.27-.09-.27-.08-.28-.09-.28-.08-.28-.08-.28-.07-.29-.08-.29-.07-.29-.07-.29-.06-.3-.07-.3-.06-.3-.06-.3-.06-.31-.06-.3-.06-.31,0-.63-.11-.63-.11-.64-.1-.64-.1-.65-.1-.66-.09-1.11-.17-1.06-.15-1.05-.15-1-.14-1-.14-1-.13-1-.13-1-.12-.1,0H300l-.19,0-.18,0-.18,0-.18,0-.18,0-.18,0-.18,0-.17.06-.16,0-.17.06-.17.07-.16.06-.15.07-.16.08-.15.08-.15.08-.16.08L297,73l-.15.09-.13.09-.14.09-.13.1-.13.09-.13.1-.12.1-.13,0-.13-.06-.13,0-.14,0-.12,0-.13,0-.12,0-.12,0-.12,0-.11,0h-.73l-.08,0-.1,0-.09,0-.09,0-.08,0-.09,0-.08,0-.09,0-.08,0-.08,0-.16.08-.16.09-.16.09-3.22,1.86,0-.05,0,0,0,0,0,0-.05,0,0,0,0,0,0,0-.06,0-.06,0L289,75.2l-.13-.08-.13-.07-.13-.07-.13-.07-.28-.14L288,74.7l-.13-.07-.12-.08-.11-.08.13-.13.12-.12.11-.14.11-.13.1-.13.09-.14.09-.13.08-.13.07-.13.06-.13.06-.14.05-.13,0-.14,0-.13,0-.14,0-.13v-.54l0-.14,0-.14,0-.13,0-.14-.05-.14-.06-.14-.07-.13-.08-.14-.09-.14-.09-.14-.1-.14-.11-.13-9.58-5.53-.14-.07-.13-.06-.14-.06-.14-.06-.14-.06-.13,0-.14-.06-.14,0-.14,0-.13,0L277,64l-.14,0-.14,0-.14,0-.14,0-.14,0-.14,0-.14,0-.14,0-.14,0-.15,0h-.14l-.14,0H273.7l-.14,0h-.15l-.15,0-.15,0-.14,0-.15,0-.15,0-.15,0-.15,0-.14,0-.16,0-.15,0-.14,0-.15,0-.15,0-.16,0-.15,0-.15,0-.15,0-.15,0-.15.06-.16,0-.15.06-.15.06-.15.06-.15.06-.15.07-.16.06-.31.14-3.28-1.89,0,0h-.57l-.14,0-.16,0-.15,0-.15.05-.15,0-.14.06-.13,0-.06,0-.06,0-.06,0,0,0-.05,0,0,0-6.9,4-.1,0-.08.06-.09.06-.08.05-.07.06-.06.06-.05.05-.05.06,0,0,0,0v0l0,0,0,0v.28l0,0v0l0,0,3.18,1.83-.24.2-.23.2L259,71l-.21.19-.2.2-.09.1-.09.09-.18.19-.08.1L258,72,258,72l-.07.1-.07.09-.06.09-.07.1-.05.08-.06.09-.06.09-.05.09,0,.09,0,.09,0,.09,0,.09,0,.08,0,.09,0,.09,0,.08,0,.09V74l0,.08v.16l0,.08,0,.08,0,.08,0,.08,0,.07,0,.07,0,.08.05.07.06.08.07.07.06.07.07.07.08.08.08.07.09.06.09.07.09.07.1.07.11.06.11.07.11.06.13.07,9.94,5.74.16,0,.18,0,.16,0,.18,0,.17,0,.18,0,.18,0,.19,0,.19,0,.19,0,.19,0,.2,0h1.71l.23,0,.24,0,.23,0,.24,0,.25,0,.25,0,.26,0,.26-.06.26,0,.27-.06.27-.07.28-.07.13.09.14.09.14.09.13.08.14.08.13.08.14.07.13.06.12.06.14.06.13,0,.13,0,.13,0,.13,0,.14,0,.07,0h.07l-2.87,1.65-.16.09-.15.1-.14.09-.07,0-.06,0-.06.05-.06,0-.05,0-.05,0-.05,0,0,.06,0,0,0,.05,0,.06,0,.06v.3l0,.06,0,.07.05.07.05.07.06.07.07.07.08.08.09.08.1.08.09.07-.17.07-.17.07-.17.08-.16.08-.15.07-.16.09-.15.08-.15.08-.14.09-.14.08-.13.09-.13.09-.13.09-.11.1-.12.09-.1.1-.1.1-.09.09-.09.11-.07.1-.07.1-.06.11,0,.1-.05.11v.05l0,0v.11l0,.06v.44l0,.06V89l0,.06.22.57.22.58.22.57.24.58.25.59.25.61.27.61.29.64.34.76.17.37.18.37.17.36.1.18.09.18.1.18.1.18.1.17.11.18.1.17.11.17.11.18.12.17.12.16.12.17.13.17.13.16.14.16.14.17.15.15.14.16.15.16.17.15.16.15.17.15.27.23.25.23.25.22.25.23.48.45.49.45.24.22.25.23.24.22.26.22.25.22.27.21.27.22.28.21.09.07.1.07.1.06.1.07.09.05.09,0,.1,0,.1,0,.1,0,.08,0,.1,0,.1,0,.09,0,.1,0,.09,0,.1,0,.09,0,.1,0h1.22l.1,0,.09.09.1.1.1.09.11.1.21.19.22.18.46.38.22.19.23.19-.07.07-.07.07-.06.08-.07.07-.05.08-.06.08-.05.07,0,.08-.05.08,0,.07,0,.08,0,.08,0,.08,0,.08,0,.08,0,.08,0,.08,0,.08,0,.08,0,.07v.09l0,.08v.8l0,.08,0,.08,0,.08,0,.08,0,.08,0,.08,0,.08,0,.07,0,.08,0,.08,0,.07.05.08,0,.08.06.07.05.08.05.07.06.08.06.07.07.07.07.08.06.07.07.07.08.07.08.07.08.07.08.07.08.06.09.07.1.06.09.07.1.06.1.07.14.08.15.09.15.08.16.08.15.07.17.08.16.06.17.07.17.06.17.06.17.06.18,0,.18,0,.19.06.18,0,.19,0,.18,0,.19,0,.19,0,.19,0,.2,0,.19,0h.2l.19,0h.2l.2,0h1.19l-1.95-2.06-.1,0-.09,0-.09,0-.09,0-.09,0-.1,0-.08,0-.09,0-.08,0-.08,0-.09,0-.08,0-.08,0-.08,0-.07,0-.08,0-.07,0-.06,0-.07,0-.07,0-.06,0-.05,0-.06-.05-.06,0-.05,0,0,0-.05,0-.05-.05,0,0,0-.06,0,0,0,0,0-.06,0,0,0-.06,0,0,0-.06,0,0,0-.06v0l0-.06v-.62l0-.11,0,0,0-.06,0-.06,0,0,0-.06,0,0,0,0,0-.06,0,0,0,0,0-.05,0-.06.05-.05.05,0,0,0,.05,0,.06,0,.06,0,.06,0,.06,0,.07,0,.07,0,.07,0,.07,0,.08,0,.07,0,.08,0,.07,0,.09,0,.08,0,.08,0,.09,0,.08,0,.09,0,.09,0,.09,0,.08,0,.1,0,.09,0,.09,0,.09,0,.1,0,.09,0,.1,0,.08,0h.2l.1,0,.19,0h1.17l.2,0,.19,0h.09l.1,0,.09,0h.1l.09,0,.09,0,.09,0,.09,0,.09,0,.09,0,.09,0,.09,0,.09,0,.08,0,.08,0,.09,0,.08,0,.08,0,.08,0,.07,0,.08,0,.08,0,.07,0,.07,0,.07,0,.06,0,.12.09.06,0,.05,0,.11.09.1.09.09.1.08.1.07.1.06.1.05.09.05.11,0,.1,0,.11,0,.1,0,.11v.1l2.19,2.13h0l.08-.08.07-.07.07-.08.07-.08.06-.07.07-.08.06-.08.06-.08.05-.08.05-.08,0-.08.05-.08,0-.08,0-.08,0-.08,0-.08,0-.09,0-.08,0-.08,0-.08,0-.08,0-.09,0-.08v-.75l0-.08v-.09l0-.08,0-.08,0-.09,0-.07,0-.09,0-.08,0-.08,0-.08,0-.08-.05-.08-.05-.08-.05-.07-.05-.08-.06-.08,0-.08-.07-.07-.06-.08L299,105l-.07-.07-.07-.07-.08-.07-.08-.08-.08-.07-.09-.07-.09-.07-.09-.07-.09-.07-.1-.06-.1-.07-.1-.06-.14-.09-.15-.08-.14-.08-.16-.08-.15-.07-.16-.08-.16-.06-.16-.07-.17-.06-.17-.06-.16,0-.18-.06-.17,0-.18,0-.18,0-.18,0-.19,0-.18,0-.18,0-.19,0-.19,0-.19,0-.19,0-.19,0-.19,0h-1.36l-.42-.46-.21-.23-.21-.22-.21-.22-.2-.21-.1-.1-.12-.11-.12-.12-.14-.13-.05,0-.05,0,.05-.08,0-.07,0-.07v-.08l0-.07v-.15l0-.08,0-.08,0-.08,0-.08,0-.08-.06-.09-.07-.08-.07-.09-.08-.08-.58-.57-.61-.58-.61-.59-.62-.59-.64-.61-.65-.61-.67-.61-.67-.62,1.36,1.12.68.56.69.56.68.56.69.56.69.56.69.55.36.3.37.28.17.14.18.13.18.13.18.13.17.12.18.13.18.11.18.12.19.12.18.11.19.11.2.1,1.21-.7,3.79,2.18h0l19,11.94.81.88,5.84,3.37,13.34-7.7-16.08-9.28,2.44-1.41L340,110l13.33-7.7Z"/><path d="M284.61,86.57l2.1,1.21,2.42-1.39L287,85.17l.65-.38,5,2.91-.66.37-2.35-1.36-2.42,1.4,2.36,1.36-.66.37-5-2.9Z"/><path d="M295.45,85.11a10.08,10.08,0,0,0,.92.47l-.58.34-.51-.23h0c.08.28-.05.65-.56.94a2.26,2.26,0,0,1-2.14,0c-.87-.51-.58-1.23.82-2l-.08,0a1.56,1.56,0,0,0-1.64,0,1.42,1.42,0,0,0-.67.69l-.59-.16a2,2,0,0,1,.87-.87,2.72,2.72,0,0,1,2.83.06Zm-1.6-.2c-.73.4-1.41.94-.71,1.35a1.23,1.23,0,0,0,1.23,0c.48-.28.49-.62.28-.86a.79.79,0,0,0-.18-.14Z"/><path d="M292.07,82l.65-.38L295,82.88h0c-.17-.36,0-.75.57-1.08a3.5,3.5,0,0,1,3.35.18c1.29.75,1.12,1.59.32,2a2.82,2.82,0,0,1-1.88.31h0l.56.36-.56.32c-.23-.15-.58-.37-.9-.55Zm4.5,1.85a1.69,1.69,0,0,0,.27.12,2.26,2.26,0,0,0,1.74-.12c.69-.4.53-1-.29-1.43a2.53,2.53,0,0,0-2.42-.16.6.6,0,0,0-.18,1,.81.81,0,0,0,.24.19Z"/><path d="M297.69,79.48c.22.13.24.32,0,.47a.82.82,0,0,1-.79,0c-.22-.13-.25-.33,0-.47A.86.86,0,0,1,297.69,79.48Zm3.89,3.09L298,80.49l.65-.38,3.61,2.08Z"/><path d="M299.63,78.53l.86.5.94-.54.5.29-.94.54,1.95,1.12a1.12,1.12,0,0,0,1.19.13,1.14,1.14,0,0,0,.33-.25l.53.27a1.73,1.73,0,0,1-.49.39,1.91,1.91,0,0,1-1,.25,2.73,2.73,0,0,1-1.2-.41l-2-1.13-.56.32-.5-.29.56-.32-.67-.39Z"/><path d="M313.1,90.38a6.43,6.43,0,0,1-2,1.66,10,10,0,0,1-9.9.11c-3.31-1.91-2.79-4.32.12-6a9.43,9.43,0,0,1,2.8-1.12l1.27,1.26a7.87,7.87,0,0,0-2.19.85c-1.71,1-2,2.37.15,3.61a6.21,6.21,0,0,0,6.24,0,5.16,5.16,0,0,0,1.51-1.23Z"/><polygon class="cls-7" points="69.47 199.5 45.3 213.45 69.46 227.4 93.63 213.45 69.47 199.5"/><polygon class="cls-14" points="45.3 213.45 45.3 241.35 69.47 255.31 69.47 227.4 45.3 213.45"/><polygon class="cls-15" points="69.47 227.4 93.63 213.45 93.63 241.36 69.47 255.31 69.47 227.4"/><path class="cls-16" d="M61.41,212.08s-1.61,9,8,9,8.06-9,8.06-9Z"/><path class="cls-7" d="M77.52,212.08c0,3.45-3.61,6.25-8.06,6.25s-8-2.8-8-6.25,3.61-6.24,8-6.24S77.52,208.63,77.52,212.08Z"/><polygon class="cls-5" points="206.86 255.5 182.69 269.45 206.85 283.4 231.02 269.45 206.86 255.5"/><polygon class="cls-8" points="182.69 269.45 182.69 297.35 206.86 311.31 206.86 283.4 182.69 269.45"/><polygon class="cls-9" points="206.86 283.4 231.02 269.45 231.02 297.36 206.86 311.31 206.86 283.4"/><path class="cls-10" d="M198.8,268.08s-1.61,9,8,9,8.06-9,8.06-9Z"/><path class="cls-5" d="M214.91,268.08c0,3.45-3.61,6.24-8.06,6.24s-8-2.79-8-6.24,3.61-6.24,8-6.24S214.91,264.63,214.91,268.08Z"/><polygon class="cls-5" points="182.69 269.45 158.53 283.4 182.69 297.35 206.86 283.4 182.69 269.45"/><polygon class="cls-8" points="158.53 283.4 158.53 311.3 182.69 325.26 182.69 297.35 158.53 283.4"/><polygon class="cls-9" points="182.69 297.35 206.86 283.4 206.86 311.31 182.69 325.26 182.69 297.35"/><path class="cls-10" d="M174.64,282s-1.61,9,8.05,9,8.05-9,8.05-9Z"/><path class="cls-5" d="M190.74,282c0,3.45-3.6,6.25-8.05,6.25s-8.05-2.8-8.05-6.25,3.61-6.24,8.05-6.24S190.74,278.58,190.74,282Z"/><polygon class="cls-6" points="312.06 318.31 263.73 346.21 312.06 374.12 360.39 346.21 312.06 318.31"/><polygon class="cls-11" points="263.73 346.21 263.73 374.35 312.06 402.25 312.06 374.12 263.73 346.21"/><polygon class="cls-12" points="312.06 374.12 360.39 346.21 360.4 374.52 312.07 402.43 312.06 374.12"/><path class="cls-13" d="M304,330.89s-1.61,9,8.05,9,8.05-9,8.05-9Z"/><path class="cls-6" d="M320.11,330.89c0,3.45-3.6,6.25-8.05,6.25s-8.05-2.8-8.05-6.25,3.6-6.25,8.05-6.25S320.11,327.44,320.11,330.89Z"/><path class="cls-13" d="M328.17,344.84s-1.61,9,8.05,9,8-9,8-9Z"/><path class="cls-6" d="M344.27,344.84c0,3.45-3.6,6.25-8,6.25s-8.05-2.8-8.05-6.25,3.61-6.24,8.05-6.24S344.27,341.39,344.27,344.84Z"/><path class="cls-13" d="M304,357.32s-1.62,9,8,9,8.06-9,8.06-9Z"/><path class="cls-6" d="M320.11,357.32c0,3.46-3.61,6.25-8.05,6.25s-8.05-2.79-8.05-6.25,3.6-6.24,8.05-6.24S320.11,353.87,320.11,357.32Z"/><path class="cls-13" d="M279.85,344.84s-1.62,9,8,9,8.05-9,8.05-9Z"/><path class="cls-6" d="M295.94,344.84c0,3.45-3.6,6.25-8.05,6.25s-8-2.8-8-6.25,3.6-6.24,8-6.24S295.94,341.39,295.94,344.84Z"/><path class="cls-20" d="M73.32,234.48v3.22l1.43-.83v-3.21l1.36-.79v8l-1.36.79v-3.36l-1.43.82v3.36L72,243.3v-8Z"/><path class="cls-20" d="M80.62,237a10.09,10.09,0,0,0,.07,1.3l-1.22.7-.07-.53,0,0a2.88,2.88,0,0,1-1.12,1.31c-.77.45-1.34,0-1.34-1a4.37,4.37,0,0,1,2.33-3.51v-.13c0-.47-.23-.67-.72-.39a3.74,3.74,0,0,0-1,.95l-.25-.92a6.59,6.59,0,0,1,1.59-1.36c1.55-.89,1.8.21,1.8,1.4Zm-1.34-.72a2,2,0,0,0-1.08,1.62c0,.57.28.63.48.51a1.36,1.36,0,0,0,.57-.83,1.29,1.29,0,0,0,0-.29Z"/><path class="cls-20" d="M81.56,229.51l1.36-.79v3h0a2.59,2.59,0,0,1,1.06-1.3c1-.57,1.43.46,1.43,2,0,2.05-.71,3.58-1.65,4.12-.43.25-.73.22-1-.21l0,0-.07.74-1.17.67c0-.53,0-1.21,0-1.76Zm1.36,5.37a.9.9,0,0,0,.06.34c.11.35.3.36.46.27.46-.27.65-1,.65-2.15s-.2-1.54-.66-1.28a1.33,1.33,0,0,0-.45.8,1.76,1.76,0,0,0-.06.39Z"/><path class="cls-20" d="M87.58,226.91a1.49,1.49,0,0,1-.72,1.26c-.37.22-.68.05-.67-.45a1.51,1.51,0,0,1,.69-1.26C87.28,226.23,87.58,226.39,87.58,226.91Zm-1.36,8.16v-5.83l1.36-.79v5.83Z"/><path class="cls-20" d="M90.14,225.46V227l1-.58v1.11l-1,.57v2.66c0,.68.25.7.51.55a3.75,3.75,0,0,0,.36-.24v1.21a5.69,5.69,0,0,1-.83.59,1.19,1.19,0,0,1-1,.2c-.27-.16-.42-.51-.42-1.43v-2.75l-.61.35v-1.11l.61-.35v-1Z"/><path class="cls-20" d="M197.27,297.81V301l1.42-.82V297l1.36-.78v8l-1.36.79v-3.36l-1.42.82v3.36l-1.36.78v-8Z"/><path class="cls-20" d="M204.56,300.29a10.19,10.19,0,0,0,.07,1.3l-1.21.7-.07-.53,0,0a2.88,2.88,0,0,1-1.12,1.31c-.77.44-1.34,0-1.34-1a4.39,4.39,0,0,1,2.33-3.51v-.13c0-.47-.23-.67-.72-.39a3.72,3.72,0,0,0-1,.95l-.25-.92a6.77,6.77,0,0,1,1.59-1.36c1.55-.89,1.8.2,1.8,1.4Zm-1.34-.73a2,2,0,0,0-1.08,1.63c0,.57.28.62.49.5a1.26,1.26,0,0,0,.56-.82,1.43,1.43,0,0,0,0-.29Z"/><path class="cls-20" d="M205.51,292.83l1.36-.78v3h0a2.6,2.6,0,0,1,1.06-1.3c1-.57,1.43.46,1.43,2,0,2.05-.7,3.58-1.65,4.12a.63.63,0,0,1-1-.21l0,0-.07.73-1.16.67c0-.52,0-1.2,0-1.75Zm1.36,5.38a1,1,0,0,0,0,.34c.12.35.3.36.47.27.46-.27.64-1,.64-2.15s-.2-1.55-.65-1.28a1.29,1.29,0,0,0-.46.8,1.74,1.74,0,0,0,0,.39Z"/><path class="cls-20" d="M211.52,290.24a1.51,1.51,0,0,1-.71,1.26c-.38.22-.69.05-.68-.46a1.49,1.49,0,0,1,.7-1.25C211.22,289.56,211.52,289.72,211.52,290.24Zm-1.36,8.15v-5.83l1.36-.78v5.83Z"/><path class="cls-20" d="M214.08,288.79v1.51l1-.57v1.11l-1,.57v2.66c0,.68.25.7.51.55s.24-.15.36-.24v1.21a4.8,4.8,0,0,1-.83.58,1.1,1.1,0,0,1-1,.2c-.27-.15-.43-.5-.43-1.42V292.2l-.6.35v-1.11l.6-.35v-1Z"/><path class="cls-20" d="M215.67,293.81a1.58,1.58,0,0,0,.92-.22,1,1,0,0,0,.55-.84c0-.3-.15-.41-.6-.45a1,1,0,0,1-1-1.08,3.43,3.43,0,0,1,1.67-2.82,2.09,2.09,0,0,1,1-.32l-.24,1.28a1.29,1.29,0,0,0-.71.17,1,1,0,0,0-.51.8c0,.25.12.34.59.38a1,1,0,0,1,1,1.17,3.43,3.43,0,0,1-1.79,2.88,2,2,0,0,1-1.16.33Z"/><path class="cls-20" d="M328.35,375.57v3.22l1.42-.83v-3.21l1.36-.79v8l-1.36.79v-3.36l-1.42.82v3.36l-1.36.79v-8Z"/><path class="cls-20" d="M335.64,378.06a9.91,9.91,0,0,0,.08,1.29l-1.22.7-.07-.53,0,0a2.94,2.94,0,0,1-1.12,1.31c-.77.45-1.34,0-1.34-1a4.38,4.38,0,0,1,2.32-3.51v-.13c0-.47-.23-.67-.71-.39a3.74,3.74,0,0,0-1,.95l-.25-.92a6.59,6.59,0,0,1,1.59-1.36c1.55-.89,1.79.21,1.79,1.4Zm-1.34-.73a2,2,0,0,0-1.08,1.62c0,.57.28.63.49.51a1.31,1.31,0,0,0,.56-.83,1.29,1.29,0,0,0,0-.29Z"/><path class="cls-20" d="M336.59,370.6l1.36-.79v3h0a2.64,2.64,0,0,1,1.06-1.3c1-.57,1.44.46,1.44,2,0,2.05-.71,3.58-1.66,4.12-.42.25-.72.22-1-.21l0,0-.08.74-1.16.67c0-.53,0-1.21,0-1.76ZM338,376a.94.94,0,0,0,.05.34c.12.35.31.36.47.27.46-.27.65-1,.65-2.15s-.2-1.54-.66-1.28a1.34,1.34,0,0,0-.46.8,1.74,1.74,0,0,0-.05.39Z"/><path class="cls-20" d="M342.61,368a1.49,1.49,0,0,1-.72,1.26c-.37.22-.68.05-.67-.45a1.51,1.51,0,0,1,.69-1.26C342.31,367.32,342.61,367.48,342.61,368Zm-1.36,8.16v-5.83l1.36-.79v5.83Z"/><path class="cls-20" d="M345.16,366.55v1.52l1-.58v1.11l-1,.57v2.66c0,.68.25.7.51.55a2.92,2.92,0,0,0,.37-.24v1.21a5.69,5.69,0,0,1-.83.59,1.19,1.19,0,0,1-1,.2c-.27-.16-.43-.51-.43-1.43V370l-.6.35V369.2l.6-.35v-1Z"/><path class="cls-20" d="M346.76,371.57a1.55,1.55,0,0,0,.91-.22,1,1,0,0,0,.55-.84c0-.3-.15-.41-.59-.45a1,1,0,0,1-1-1.08,3.43,3.43,0,0,1,1.67-2.82,2.23,2.23,0,0,1,1-.32l-.24,1.29a1.14,1.14,0,0,0-.71.17.94.94,0,0,0-.5.79c0,.25.11.34.59.39a1,1,0,0,1,1,1.17,3.42,3.42,0,0,1-1.8,2.87,1.9,1.9,0,0,1-1.15.33Z"/><path class="cls-20" d="M55.42,228.55l0,0-2.09,0-.42-2.5,2.84,0,2.19,1.26v14.22l-2.48-1.43Z"/><path class="cls-20" d="M166.48,309.3v-1.93l1.22-1.11c1.6-1.41,2.91-2.6,2.91-4.63a3.24,3.24,0,0,0-1.58-2.86,2.65,2.65,0,0,0-1.85-.35l-.46-2.47a4.48,4.48,0,0,1,2.77.7,7,7,0,0,1,3.58,6.18c0,2.66-1.45,4-2.88,5.05l-.74.57v.05l3.79,2.19v2.51Z"/><path class="cls-20" d="M287,381.61v-3.39l-4.25-2.46v-2l4.06-6.52,2.4,1.39v8.53l1.22.7v2.3l-1.22-.71v3.39Zm0-5.69V373c0-.76.07-1.55.13-2.26l-.07,0c-.27.63-.54,1.11-.86,1.71l-1.32,2.24v0Z"/></g></g></svg>