<svg xmlns="http://www.w3.org/2000/svg" xmlns:xlink="http://www.w3.org/1999/xlink" viewBox="0 0 593.29 443.51"><defs><style>.cls-1{fill:#333;}.cls-2{fill:#fff;}.cls-3{fill:#00355b;}.cls-4{fill:#ec6a70;}.cls-5{fill:#12b8d2;}.cls-6{fill:#019a96;}.cls-7{fill:#04a237;}.cls-8{fill:#a2c510;}.cls-9{fill:#e2c990;}</style><symbol id="tile0" data-name="tile0" viewBox="0 0 44.95 44.95"><circle class="cls-2" cx="22.47" cy="22.47" r="22.47"/><path d="M33.34,23.28a2.15,2.15,0,0,0-.85-.79l-.24-.11h0A.54.54,0,0,1,32,22.3a1.88,1.88,0,0,0-.47-.05,2.14,2.14,0,0,0-1.37.48.48.48,0,0,1-.69-.08A.49.49,0,0,1,29.5,22a3.2,3.2,0,0,1,2-.7,3.08,3.08,0,0,1,.68.07A2,2,0,0,0,32.93,20a2.26,2.26,0,0,0,0-.26,2,2,0,0,0-1.78-2H31l-.13.15a3.73,3.73,0,0,1-.74.54,5.39,5.39,0,0,1-.76.36,7,7,0,0,1-.86.28h-.12a.5.5,0,0,1-.48-.37.51.51,0,0,1,.06-.38.48.48,0,0,1,.3-.22h0l.09.23-.06-.24.08,0,.33-.1a5.72,5.72,0,0,0,.92-.41,2.06,2.06,0,0,0,.52-.38,1.21,1.21,0,0,0,.21-.24l0,0a2.37,2.37,0,0,0,.49-1.42,2,2,0,0,0-.53-1.39,2.16,2.16,0,0,0-1.63-.73,2.22,2.22,0,0,0-1.45.55.48.48,0,0,1-.32.13.47.47,0,0,1-.37-.17.49.49,0,0,1,0-.7,3,3,0,0,1,.7-.47,2.19,2.19,0,0,0-2.16-1.89,2.19,2.19,0,0,0-1.54.64A2.16,2.16,0,0,0,23,13v3.55h2a.49.49,0,0,1,.49.49.5.5,0,0,1-.49.5H23v2.43a6.28,6.28,0,0,1,1.51.24,2.61,2.61,0,0,1,1.73,1.39,3.76,3.76,0,0,1,.3.92l.09.41c0,.23.09.45.15.64a1.82,1.82,0,0,0,.18.44,1.07,1.07,0,0,0,.33.34,2,2,0,0,0,.8.26.46.46,0,0,1,.32.18.5.5,0,0,1-.39.8h-.06a3.09,3.09,0,0,1-1.05-.32,2,2,0,0,1-.7-.6,2.73,2.73,0,0,1-.27-.48,4.81,4.81,0,0,1-.2-.66c0-.14-.05-.28-.08-.41l-.09-.42a2.51,2.51,0,0,0-.35-.88,1.45,1.45,0,0,0-.37-.37,2.69,2.69,0,0,0-.78-.34A5.2,5.2,0,0,0,23,20.92V30a2.16,2.16,0,0,0,.63,1.54,2.19,2.19,0,0,0,1.54.64,2.15,2.15,0,0,0,1.54-.64A2.13,2.13,0,0,0,27.32,30a2,2,0,0,0-.24-.95,1.6,1.6,0,0,0-.71-.72,1.76,1.76,0,0,0-.78-.18.49.49,0,0,1,0-1,2.67,2.67,0,0,1,.95.16,2.49,2.49,0,0,1,.76.43,2.86,2.86,0,0,1,.86,1.3,3.08,3.08,0,0,1,.15.94,3.63,3.63,0,0,1-.08.73,2.38,2.38,0,0,0,.7.11,2.15,2.15,0,0,0,1.45-.55A2.17,2.17,0,0,0,31,27.89a2.06,2.06,0,0,0-.41-.68.49.49,0,0,1,.37-.82.52.52,0,0,1,.37.16l0,0h.16a2.17,2.17,0,0,0,1.85-3.32Z"/><path d="M19.8,10.78a2.17,2.17,0,0,0-1.54.64,2.22,2.22,0,0,0-.62,1.25,3,3,0,0,1,.71.47l0,0,0,0,.07.08.28.29a7.3,7.3,0,0,0,.88.77,2.87,2.87,0,0,0,.62.37.73.73,0,0,0,.25.07.49.49,0,0,1,.33.19.47.47,0,0,1,.11.36.5.5,0,0,1-.49.44h-.06a1.88,1.88,0,0,1-.52-.15,3.25,3.25,0,0,1-.49-.25,6.4,6.4,0,0,1-.86-.66,11,11,0,0,1-.87-.87,2.2,2.2,0,0,0-1.43-.53,2.19,2.19,0,0,0-2.18,2.18,2.09,2.09,0,0,0,.27,1h0a3.89,3.89,0,0,1,.49,0,.49.49,0,0,1-.08,1h-.07a1.87,1.87,0,0,0-.34,0h-.08a2.19,2.19,0,0,0-2.1,2.18v.08a2.2,2.2,0,0,0,.71,1.52,4,4,0,0,1,.6,0,3.17,3.17,0,0,1,2,.7l.05,0,0,0,.07.08.32.29a4,4,0,0,0,1.08.66,2.36,2.36,0,0,0,.91.19.5.5,0,0,1,0,1A3.48,3.48,0,0,1,16.63,24a4.53,4.53,0,0,1-1-.54,5.6,5.6,0,0,1-.86-.75,2.12,2.12,0,0,0-1.33-.45,2.16,2.16,0,0,0-1.86,1,2.18,2.18,0,0,0-.32,1.14A2.13,2.13,0,0,0,11.92,26a2.15,2.15,0,0,0,1.54.64h.15l0,0a.51.51,0,0,1,.37-.16.52.52,0,0,1,.33.12.54.54,0,0,1,.16.34.52.52,0,0,1-.12.36,2.27,2.27,0,0,0-.42.68,2.19,2.19,0,0,0-.13.77A2.18,2.18,0,0,0,16,30.83a2.45,2.45,0,0,0,.71-.11,3,3,0,0,1-.08-.73,3.07,3.07,0,0,1,.24-1.18,2.67,2.67,0,0,1,.77-1.06.47.47,0,0,1,.32-.12.53.53,0,0,1,.38.18.5.5,0,0,1-.07.7,1.77,1.77,0,0,0-.49.69,2,2,0,0,0-.17.79A2.18,2.18,0,0,0,22,30V26H20.13a.5.5,0,0,1,0-1H22V22A1.53,1.53,0,0,0,20.83,22a3.89,3.89,0,0,1-1.24.21,2.79,2.79,0,0,1-2-.76,2.48,2.48,0,0,1-.75-1.77,2.51,2.51,0,0,1,.6-1.61.48.48,0,0,1,.38-.18.47.47,0,0,1,.32.12.49.49,0,0,1,.06.69,1.5,1.5,0,0,0-.37,1,1.48,1.48,0,0,0,.45,1.06,1.78,1.78,0,0,0,1.27.48,2.84,2.84,0,0,0,.93-.16,2.38,2.38,0,0,1,.79-.13A2.52,2.52,0,0,1,22,21V13a2.19,2.19,0,0,0-2.18-2.18Z"/></symbol><symbol id="tile4" data-name="tile4" viewBox="0 0 44.95 44.95"><circle class="cls-7" cx="22.47" cy="22.47" r="22.47"/><path d="M28.08,11a4,4,0,0,1,3,0,4,4,0,0,1,2.14,2.14,4,4,0,0,1,0,3,4,4,0,0,1-.86,1.28l-.57.57-5.58-5.58.57-.57A4,4,0,0,1,28.08,11Z"/><path d="M24.66,14,13.24,25.44a1,1,0,0,0-.29.49l-1.5,5.52a1.1,1.1,0,0,0,1.36,1.36l5.52-1.5a1.11,1.11,0,0,0,.49-.29L30.24,19.6Z"/></symbol><symbol id="tile3" data-name="tile3" viewBox="0 0 44.95 44.95"><circle class="cls-6" cx="22.47" cy="22.47" r="22.47"/><path d="M25.89,13.94a2.56,2.56,0,1,0-2.56-2.56A2.56,2.56,0,0,0,25.89,13.94ZM17.44,25.75l-.79,1.84H13.09a1.71,1.71,0,1,0,0,3.42h4.13a2.56,2.56,0,0,0,2.35-1.55l.47-1.1L19.47,28a5.05,5.05,0,0,1-2-2.27Zm14.42-5H29.51l-1.39-2.84a5.12,5.12,0,0,0-3.29-2.72L21,14.08a5.11,5.11,0,0,0-4.32.92l-2.11,1.62a1.71,1.71,0,0,0,2.07,2.71L18.8,17.7a1.67,1.67,0,0,1,1.35-.32l.78.23-2,4.66a3.41,3.41,0,0,0,1.4,4.28l4.53,2.68-1.46,4.68a1.7,1.7,0,0,0,1.11,2.14,1.88,1.88,0,0,0,.52.08,1.71,1.71,0,0,0,1.62-1.2l1.69-5.39a2.56,2.56,0,0,0-1.15-2.9l-3.27-1.93,1.67-4.18,1.08,2.21A2.57,2.57,0,0,0,29,24.18h2.88a1.71,1.71,0,1,0,0-3.41Z"/></symbol><symbol id="tile5" data-name="tile5" viewBox="0 0 44.95 44.95"><circle class="cls-8" cx="22.47" cy="22.47" r="22.47"/><path d="M28.08,11.71a4,4,0,0,1,3,0,4,4,0,0,1,1.28.85,4.06,4.06,0,0,1,.86,1.28,4,4,0,0,1,0,3,4.06,4.06,0,0,1-.86,1.28l-.57.57-5.58-5.58.57-.58A4.09,4.09,0,0,1,28.08,11.71Z"/><path d="M24.66,14.7,13.24,26.12a1.1,1.1,0,0,0-.29.5l-1.5,5.52a1.09,1.09,0,0,0,.28,1.07,1.13,1.13,0,0,0,1.08.29L18.33,32a1.09,1.09,0,0,0,.49-.28L30.24,20.28Z"/></symbol><symbol id="tile2" data-name="tile2" viewBox="0 0 44.95 44.95"><circle class="cls-5" cx="22.47" cy="22.47" r="22.47"/><circle cx="22.38" cy="11.63" r="3.76"/><path d="M33.48,28.14c-1.81-4.26-8.24-10.83-8.37-10.91a3.54,3.54,0,0,0-2.55-1.06h-.18a3.56,3.56,0,0,0-2.55,1.06c-.12.08-6.55,6.65-8.37,10.91a2.19,2.19,0,0,0,.67,2.6,3.09,3.09,0,0,0,0,1.83,2.32,2.32,0,0,0,2.24,1.72H30.56a2.32,2.32,0,0,0,2.24-1.72,3.17,3.17,0,0,0,0-1.83A2.19,2.19,0,0,0,33.48,28.14ZM16.4,27.47A26.5,26.5,0,0,1,19,24c0,1.14,0,4,.09,4.27C18.9,28.17,17.1,27.71,16.4,27.47Zm9.45.75c.06-.26.09-3.13.09-4.27a26.5,26.5,0,0,1,2.61,3.52C27.85,27.71,26,28.17,25.85,28.22Z"/></symbol><symbol id="tile1" data-name="tile1" viewBox="0 0 44.95 44.95"><circle class="cls-3" cx="22.47" cy="22.47" r="22.47"/><path d="M30.73,15.25,26.6,20.41l4.13,5.16H16.28v6.19a1,1,0,1,1-2.07,0V13.18a1,1,0,0,1,2.07,0v2.07Z"/></symbol><symbol id="tile10" data-name="tile10" viewBox="0 0 44.95 44.95"><circle class="cls-4" cx="22.47" cy="22.47" r="22.47"/><path d="M29.08,20c4.18-.36,5-2.33,3.81-4.17-2.21-3.3-7.09-4.61-12-3.11-6.19,1.88-10.28,7.6-9.14,12.78s7.08,7.84,13.27,6a14.23,14.23,0,0,0,6.62-4.26c.66-.77.89-3.15-2.18-3C26.18,24.29,25.73,20.28,29.08,20ZM28,15.5a1.61,1.61,0,0,1,2.29,0,1.63,1.63,0,1,1-2.29,0ZM14.33,20.81a1.4,1.4,0,1,1,.89,1.77A1.39,1.39,0,0,1,14.33,20.81ZM17,27.25a1.33,1.33,0,0,1-1.93-1.82A1.33,1.33,0,1,1,17,27.25Zm2.67-8.81A1.47,1.47,0,1,1,18,16.05h0a1.47,1.47,0,0,1,1.72,2.39Zm2.56-2.8A1.54,1.54,0,1,1,24,17,1.54,1.54,0,0,1,22.24,15.64ZM27,27.23a2,2,0,0,1-3.93,0,2,2,0,0,1,3.93,0Z"/></symbol><symbol id="tile6" data-name="tile6" viewBox="0 0 44.95 44.95"><circle class="cls-9" cx="22.47" cy="22.47" r="22.47"/><path d="M37.46,21.71a.92.92,0,0,0-1.3-.08L33.43,24l-7.69,6.82a2.68,2.68,0,0,1-1.74.65,2.65,2.65,0,0,1-.56-.05l-4.4-1-5.31-1.17L10,28.48l-.53-.11A1.9,1.9,0,0,1,9,28.14a1.77,1.77,0,0,1-.5-.59,1.59,1.59,0,0,1-.18-.74,1.67,1.67,0,0,1,.08-.49,1.8,1.8,0,0,1,.24-.48,1.53,1.53,0,0,1,.58-.49,1.59,1.59,0,0,1,.74-.18h.14L14,26l8.9,1.93a3.53,3.53,0,0,0,3.1-.81l5.48-4.82L37,17.37a1.77,1.77,0,0,0-.8-3.07l-.7-.15-5.08-1.1L24,11.66a3.54,3.54,0,0,0-3.1.81L12.32,20,9.74,22.29l-2.25,2a3.43,3.43,0,0,0-.24.33.83.83,0,0,0-.11.15,3.51,3.51,0,0,0-.52,1,3.43,3.43,0,0,0-.16,1,3.5,3.5,0,0,0,.67,2.06,3.65,3.65,0,0,0,.78.79,3.48,3.48,0,0,0,1,.51H9l3.92.86,3.71.81,6.45,1.41a4.33,4.33,0,0,0,.95.11,4.47,4.47,0,0,0,3-1.12l.22-.19,7.66-6.78L37.39,23A.93.93,0,0,0,37.46,21.71Z"/></symbol><symbol id="plate" data-name="plate" viewBox="0 0 27.34 29.8"><circle class="cls-1" cx="14.22" cy="16.68" r="13.12"/><circle cx="13.12" cy="13.12" r="13.12"/></symbol></defs><title>lego-habit-example</title><g id="Layer_2" data-name="Layer 2"><g id="Layer_1-2" data-name="Layer 1"><path d="M14.44,173.46C41.92,101.92-2.06,47.75,83,16c40.71-15.2,96.86,5.79,140.46,4.38,47-1.52,92.51-15.19,139.18-18.48,90.28-6.37,156.58-1.51,176.7,93,14.77,69.38,61.15,156.23,53,227.4C575.2,471.47,339.08,413.68,230,431.91c-59.61,10-180,30.63-217.55-29.89-25.15-40.58-5.64-183.39,2-228.56"/><use width="44.95" height="44.95" transform="translate(319.79 171.18)" xlink:href="#tile0"/><use width="44.95" height="44.95" transform="translate(380.58 171.18)" xlink:href="#tile0"/><use width="44.95" height="44.95" transform="translate(137.42 171.18)" xlink:href="#tile4"/><use width="44.95" height="44.95" transform="translate(76.63 171.18)" xlink:href="#tile3"/><use width="44.95" height="44.95" transform="translate(198.21 171.18)" xlink:href="#tile5"/><use width="44.95" height="44.95" transform="translate(259 171.18)" xlink:href="#tile0"/><use width="44.95" height="44.95" transform="translate(319.79 287.58)" xlink:href="#tile3"/><use width="44.95" height="44.95" transform="translate(380.58 287.58)" xlink:href="#tile5"/><use width="44.95" height="44.95" transform="translate(137.42 287.58)" xlink:href="#tile4"/><use width="44.95" height="44.95" transform="translate(76.63 287.58)" xlink:href="#tile2"/><use width="44.95" height="44.95" transform="translate(198.21 287.58)" xlink:href="#tile3"/><use width="44.95" height="44.95" transform="translate(259 287.58)" xlink:href="#tile0"/><use width="44.95" height="44.95" transform="translate(198.21 345.78)" xlink:href="#tile4"/><use width="44.95" height="44.95" transform="translate(259 345.78)" xlink:href="#tile0"/><use width="44.95" height="44.95" transform="translate(319.79 112.99)" xlink:href="#tile1"/><use width="44.95" height="44.95" transform="translate(380.58 112.99)" xlink:href="#tile0"/><use width="44.95" height="44.95" transform="translate(137.42 112.99)" xlink:href="#tile3"/><use width="44.95" height="44.95" transform="translate(198.21 112.99)" xlink:href="#tile2"/><use width="44.95" height="44.95" transform="translate(259 112.99)" xlink:href="#tile0"/><use width="44.95" height="44.95" transform="translate(441.37 112.99)" xlink:href="#tile1"/><use width="44.95" height="44.95" transform="translate(319.79 54.79)" xlink:href="#tile0"/><use width="44.95" height="44.95" transform="translate(380.58 54.79)" xlink:href="#tile0"/><use width="44.95" height="44.95" transform="translate(137.42 54.79)" xlink:href="#tile2"/><use width="44.95" height="44.95" transform="translate(76.63 54.79)" xlink:href="#tile10"/><use width="44.95" height="44.95" transform="translate(198.21 54.79)" xlink:href="#tile0"/><use width="44.95" height="44.95" transform="translate(259 54.79)" xlink:href="#tile0"/><use width="44.95" height="44.95" transform="translate(441.37 54.79)" xlink:href="#tile3"/><use width="44.95" height="44.95" transform="translate(319.79 229.38)" xlink:href="#tile0"/><use width="44.95" height="44.95" transform="translate(380.58 229.38)" xlink:href="#tile6"/><use width="44.95" height="44.95" transform="translate(137.42 229.38)" xlink:href="#tile10"/><use width="44.95" height="44.95" transform="translate(76.63 229.38)" xlink:href="#tile2"/><use width="44.95" height="44.95" transform="translate(198.21 229.38)" xlink:href="#tile5"/><use width="44.95" height="44.95" transform="translate(259 229.38)" xlink:href="#tile6"/><use width="44.95" height="44.95" transform="translate(441.37 229.38)" xlink:href="#tile3"/><use width="27.35" height="29.8" transform="translate(85.34 120.56)" xlink:href="#plate"/><use width="27.35" height="29.8" transform="translate(450.3 174.43)" xlink:href="#plate"/><use width="27.35" height="29.8" transform="translate(450.3 292.21)" xlink:href="#plate"/><use width="27.35" height="29.8" transform="translate(450.3 351.84)" xlink:href="#plate"/><use width="27.35" height="29.8" transform="translate(389.38 351.84)" xlink:href="#plate"/><use width="27.35" height="29.8" transform="translate(328.1 351.84)" xlink:href="#plate"/><use width="27.35" height="29.8" transform="translate(144.18 353.27)" xlink:href="#plate"/><use width="27.35" height="29.8" transform="translate(82.7 351.84)" xlink:href="#plate"/><use width="27.35" height="29.8" transform="translate(505.79 235.9)" xlink:href="#plate"/><use width="27.35" height="29.8" transform="translate(505.79 292.21)" xlink:href="#plate"/><use width="27.35" height="29.8" transform="translate(26.92 235.9)" xlink:href="#plate"/><use width="27.35" height="29.8" transform="translate(26.92 292.21)" xlink:href="#plate"/></g></g></svg>