<svg xmlns="http://www.w3.org/2000/svg" xmlns:xlink="http://www.w3.org/1999/xlink" viewBox="0 0 593.29 443.51"><defs><style>.cls-1{fill:#ff1d25;}.cls-2{fill:#333;}.cls-3,.cls-7{fill:#04a237;}.cls-4{fill:#00355b;}.cls-5{font-size:26px;fill:#fff;font-family:MyriadPro-BoldCond, Myriad Pro;}.cls-5,.cls-7{font-weight:700;}.cls-6{fill:#1a1a1a;}.cls-7{font-size:20px;font-family:MyriadPro-BoldCondIt, Myriad Pro;font-style:italic;}.cls-8{letter-spacing:-0.01em;}.cls-9{letter-spacing:-0.01em;}.cls-10{letter-spacing:0em;}</style><symbol id="plate" data-name="plate" viewBox="0 0 27.34 29.8"><circle class="cls-2" cx="14.22" cy="16.68" r="13.12"/><circle cx="13.12" cy="13.12" r="13.12"/></symbol><symbol id="no" data-name="no" viewBox="0 0 44.95 44.95"><circle class="cls-1" cx="22.47" cy="22.47" r="22.47"/><path d="M22.47,11.79A10.68,10.68,0,1,0,33.15,22.47,10.69,10.69,0,0,0,22.47,11.79Zm6,8.2a1.2,1.2,0,1,1-1.2-1.2h0A1.2,1.2,0,0,1,28.48,20ZM18.1,21.19A1.2,1.2,0,1,1,19.3,20a1.2,1.2,0,0,1-1.2,1.2h0Zm9.34,5a.65.65,0,0,1-.13.93.67.67,0,0,1-.93-.13,4.68,4.68,0,0,0-7.55.08.66.66,0,0,1-.93.16.67.67,0,0,1-.16-.93,6,6,0,0,1,9.7-.11Z"/></symbol><symbol id="yes" data-name="yes" viewBox="0 0 44.95 44.95"><circle class="cls-3" cx="22.47" cy="22.47" r="22.47"/><path d="M22.55,12.21A10.68,10.68,0,1,0,33.23,22.89,10.68,10.68,0,0,0,22.55,12.21ZM26,19.44a1.38,1.38,0,1,1-1.37,1.38A1.38,1.38,0,0,1,26,19.44Zm-6.88,0a1.38,1.38,0,1,1-1.38,1.38A1.37,1.37,0,0,1,19.11,19.44Zm8.38,7.33a6.42,6.42,0,0,1-9.88,0,.69.69,0,0,1,1.06-.88,5,5,0,0,0,7.76,0,.69.69,0,0,1,1.06.88Z"/></symbol></defs><title>wall-calendar</title><g id="Layer_2" data-name="Layer 2"><g id="Layer_1-2" data-name="Layer 1"><path d="M14.44,173.46C41.92,101.92-2.06,47.75,83,16c40.71-15.2,96.86,5.79,140.46,4.38,47-1.52,92.51-15.19,139.18-18.48,90.28-6.37,156.58-1.51,176.7,93,14.77,69.38,61.15,156.23,53,227.4C575.2,471.47,339.08,413.68,230,431.91c-59.61,10-180,30.63-217.55-29.89-25.15-40.58-5.64-183.39,2-228.56"/><use width="27.35" height="29.8" transform="translate(450.3 351.84)" xlink:href="#plate"/><use width="27.35" height="29.8" transform="translate(389.03 351.84)" xlink:href="#plate"/><use width="27.35" height="29.8" transform="translate(327.77 351.84)" xlink:href="#plate"/><use width="27.35" height="29.8" transform="translate(143.97 353.27)" xlink:href="#plate"/><use width="27.35" height="29.8" transform="translate(205.23 353.27)" xlink:href="#plate"/><use width="27.35" height="29.8" transform="translate(266.5 353.27)" xlink:href="#plate"/><use width="27.35" height="29.8" transform="translate(82.7 351.84)" xlink:href="#plate"/><use width="27.35" height="29.8" transform="translate(450.3 133.88)" xlink:href="#plate"/><use width="27.35" height="29.8" transform="translate(389.03 133.88)" xlink:href="#plate"/><use width="27.35" height="29.8" transform="translate(327.77 133.88)" xlink:href="#plate"/><use width="27.35" height="29.8" transform="translate(143.97 135.31)" xlink:href="#plate"/><use width="27.35" height="29.8" transform="translate(205.23 135.31)" xlink:href="#plate"/><use width="27.35" height="29.8" transform="translate(266.5 135.31)" xlink:href="#plate"/><use width="27.35" height="29.8" transform="translate(82.7 133.88)" xlink:href="#plate"/><use width="27.35" height="29.8" transform="translate(450.3 188.37)" xlink:href="#plate"/><use width="27.35" height="29.8" transform="translate(389.03 188.37)" xlink:href="#plate"/><use width="27.35" height="29.8" transform="translate(327.77 188.37)" xlink:href="#plate"/><use width="27.35" height="29.8" transform="translate(143.97 189.8)" xlink:href="#plate"/><use width="27.35" height="29.8" transform="translate(205.23 189.8)" xlink:href="#plate"/><use width="27.35" height="29.8" transform="translate(266.5 189.8)" xlink:href="#plate"/><use width="27.35" height="29.8" transform="translate(82.7 188.37)" xlink:href="#plate"/><use width="27.35" height="29.8" transform="translate(450.3 242.86)" xlink:href="#plate"/><use width="27.35" height="29.8" transform="translate(389.03 242.86)" xlink:href="#plate"/><use width="27.35" height="29.8" transform="translate(327.77 242.86)" xlink:href="#plate"/><use width="27.35" height="29.8" transform="translate(143.97 244.29)" xlink:href="#plate"/><use width="27.35" height="29.8" transform="translate(205.23 244.29)" xlink:href="#plate"/><use width="27.35" height="29.8" transform="translate(266.5 244.29)" xlink:href="#plate"/><use width="27.35" height="29.8" transform="translate(82.7 242.86)" xlink:href="#plate"/><use width="27.35" height="29.8" transform="translate(450.3 297.35)" xlink:href="#plate"/><use width="27.35" height="29.8" transform="translate(389.03 297.35)" xlink:href="#plate"/><use width="27.35" height="29.8" transform="translate(327.77 297.35)" xlink:href="#plate"/><use width="27.35" height="29.8" transform="translate(143.97 298.78)" xlink:href="#plate"/><use width="27.35" height="29.8" transform="translate(205.23 298.78)" xlink:href="#plate"/><use width="27.35" height="29.8" transform="translate(266.5 298.78)" xlink:href="#plate"/><use width="27.35" height="29.8" transform="translate(82.7 297.35)" xlink:href="#plate"/><circle class="cls-4" cx="99.56" cy="81.71" r="22.47"/><text class="cls-5" transform="translate(94.83 89.76)">S</text><circle class="cls-4" cx="402.78" cy="81.71" r="22.47"/><text class="cls-5" transform="translate(397.05 89.76)">F</text><circle class="cls-4" cx="342.14" cy="81.71" r="22.47"/><text class="cls-5" transform="translate(336.86 89.76)">T</text><circle class="cls-4" cx="281.49" cy="81.71" r="22.47"/><text class="cls-5" transform="translate(271.98 89.76)">W</text><circle class="cls-4" cx="220.85" cy="81.71" r="22.47"/><text class="cls-5" transform="translate(214.12 89.76)">T</text><circle class="cls-4" cx="160.2" cy="81.71" r="22.47"/><text class="cls-5" transform="translate(152.28 89.76)">M</text><circle class="cls-4" cx="463.42" cy="81.71" r="22.47"/><text class="cls-5" transform="translate(458.7 89.76)">S</text><circle class="cls-6" cx="95.82" cy="149.67" r="22.47"/><circle class="cls-6" cx="157.09" cy="149.67" r="22.47"/><circle class="cls-6" cx="340.89" cy="369.95" r="22.47"/><circle class="cls-6" cx="402.16" cy="369.95" r="22.47"/><circle class="cls-6" cx="463.42" cy="369.95" r="22.47"/><use width="44.95" height="44.95" transform="translate(198.37 127.2)" xlink:href="#no"/><use width="44.95" height="44.95" transform="translate(259.02 127.2)" xlink:href="#yes"/><use width="44.95" height="44.95" transform="translate(319.66 127.2)" xlink:href="#yes"/><use width="44.95" height="44.95" transform="translate(380.31 127.2)" xlink:href="#yes"/><use width="44.95" height="44.95" transform="translate(440.95 127.2)" xlink:href="#no"/><use width="44.95" height="44.95" transform="translate(198.37 182.7)" xlink:href="#yes"/><use width="44.95" height="44.95" transform="translate(77.09 182.7)" xlink:href="#no"/><use width="44.95" height="44.95" transform="translate(137.73 182.7)" xlink:href="#yes"/><use width="44.95" height="44.95" transform="translate(259.02 182.7)" xlink:href="#yes"/><use width="44.95" height="44.95" transform="translate(319.66 182.7)" xlink:href="#no"/><use width="44.95" height="44.95" transform="translate(380.31 182.7)" xlink:href="#yes"/><use width="44.95" height="44.95" transform="translate(440.95 182.7)" xlink:href="#yes"/><use width="44.95" height="44.95" transform="translate(77.09 239.1)" xlink:href="#yes"/><use width="44.95" height="44.95" transform="translate(137.73 239.1)" xlink:href="#no"/><use width="44.95" height="44.95" transform="translate(198.37 239.1)" xlink:href="#yes"/><use width="44.95" height="44.95" transform="translate(259.02 239.1)" xlink:href="#yes"/><path class="cls-3" d="M489.13,233.22h-2a1,1,0,0,0,0,2h2v-2Zm-8,0h-2a1,1,0,0,0,0,2h2a1,1,0,0,0,0-2Zm-8,0h-2a1,1,0,0,0,0,2h2a1,1,0,0,0,0-2Zm-8,0h-2a1,1,0,0,0,0,2h2a1,1,0,0,0,0-2Zm-8,0h-2a1,1,0,0,0,0,2h2a1,1,0,0,0,0-2Zm-8,0h-2a1,1,0,0,0,0,2h2a1,1,0,0,0,0-2Zm-8,0h-2a1,1,0,0,0,0,2h2a1,1,0,0,0,0-2Zm-8,0h-2a1,1,0,0,0,0,2h2a1,1,0,0,0,0-2Zm-8,0h-2a1,1,0,0,0,0,2h2a1,1,0,0,0,0-2Zm-8,0h-2a1,1,0,0,0,0,2h2a1,1,0,0,0,0-2Zm-8,0h-2a1,1,0,0,0,0,2h2a1,1,0,0,0,0-2Zm-8,0h-2a1,1,0,0,0,0,2h2a1,1,0,0,0,0-2Zm-8,0h-2a1,1,0,0,0,0,2h2a1,1,0,0,0,0-2Zm-8,0h-2a1,1,0,0,0,0,2h2a1,1,0,0,0,0-2Zm-8,0h-2a1,1,0,0,0,0,2h2a1,1,0,0,0,0-2Zm-8,0h-2a1,1,0,0,0,0,2h2a1,1,0,0,0,0-2Zm-8,0h-2a1,1,0,0,0,0,2h2a1,1,0,0,0,0-2Zm-8,0h-2a1,1,0,0,0,0,2h2a1,1,0,0,0,0-2Zm-8,0h-2a1,1,0,0,0,0,2h2a1,1,0,0,0,0-2Zm-8,0h-2a1,1,0,0,0,0,2h2a1,1,0,0,0,0-2Zm-8,0h-2a1,1,0,0,0,0,2h2a1,1,0,0,0,0-2Zm-8,0h-2a1,1,0,0,0,0,2h2a1,1,0,0,0,0-2Zm-8,0h-2a1,1,0,0,0,0,2h2a1,1,0,0,0,0-2Zm-8,0h-2a1,1,0,0,0,0,2h2a1,1,0,0,0,0-2Zm-8,0h-2a1,1,0,0,0,0,2h2a1,1,0,0,0,0-2Zm-8,0h-2a1,1,0,0,0,0,2h2a1,1,0,0,0,0-2Zm-8,0h-2a1,1,0,0,0,0,2h2a1,1,0,0,0,0-2Zm-8,0h-2a1,1,0,0,0,0,2h2a1,1,0,0,0,0-2Zm-8,0h-2a1,1,0,0,0,0,2h2a1,1,0,0,0,0-2Zm-8,0h-2a1,1,0,0,0,0,2h2a1,1,0,0,0,0-2Zm-8,0h-2a1,1,0,0,0,0,2h2a1,1,0,0,0,0-2Zm-8,0h-2a1,1,0,0,0,0,2h2a1,1,0,0,0,0-2Zm-8,0h-2a1,1,0,0,0,0,2h2a1,1,0,0,0,0-2Zm-8,0h-2a1,1,0,0,0,0,2h2a1,1,0,0,0,0-2Zm-8,0h-2a1,1,0,0,0,0,2h2a1,1,0,0,0,0-2Zm-8,0h-2a1,1,0,0,0,0,2h2a1,1,0,0,0,0-2Zm-8,0h-2a1,1,0,0,0,0,2h2a1,1,0,0,0,0-2Zm-8,0h-2a1,1,0,0,0,0,2h2a1,1,0,0,0,0-2Zm-2.79,3.22a1,1,0,0,0-1,1v2a1,1,0,0,0,2,0v-2a1,1,0,0,0-1-1Zm0,8a1,1,0,0,0-1,1v2a1,1,0,0,0,2,0v-2a1,1,0,0,0-1-1Zm0,8a1,1,0,0,0-1,1v2a1,1,0,0,0,2,0v-2a1,1,0,0,0-1-1Zm0,8a1,1,0,0,0-1,1v2a1,1,0,0,0,2,0v-2a1,1,0,0,0-1-1Zm0,8a1,1,0,0,0-1,1v2a1,1,0,0,0,2,0v-2a1,1,0,0,0-1-1Zm0,8a1,1,0,0,0-1,1v2a1,1,0,0,0,2,0v-2a1,1,0,0,0-1-1Zm0,8a1,1,0,0,0-1,1v2a1,1,0,0,0,2,0v-2a1,1,0,0,0-1-1Zm-3,7h-2a1,1,0,0,0,0,2h2a1,1,0,0,0,0-2Zm-8,0h-2a1,1,0,0,0,0,2h2a1,1,0,0,0,0-2Zm-8,0h-2a1,1,0,0,0,0,2h2a1,1,0,0,0,0-2Zm-8,0h-2a1,1,0,0,0,0,2h2a1,1,0,0,0,0-2Zm-8,0h-2a1,1,0,0,0,0,2h2a1,1,0,0,0,0-2Zm-8,0h-2a1,1,0,0,0,0,2h2a1,1,0,0,0,0-2Zm-8,0h-2a1,1,0,0,0,0,2h2a1,1,0,0,0,0-2Zm-8,0h-2a1,1,0,0,0,0,2h2a1,1,0,0,0,0-2Zm-8,0h-2a1,1,0,0,0,0,2h2a1,1,0,0,0,0-2Zm-8,0h-2a1,1,0,0,0,0,2h2a1,1,0,0,0,0-2Zm-8,0h-2a1,1,0,0,0,0,2h2a1,1,0,0,0,0-2Zm-8,0h-2a1,1,0,0,0,0,2h2a1,1,0,0,0,0-2Zm-8,0h-2a1,1,0,0,0,0,2h2a1,1,0,0,0,0-2Zm-8,0h-2a1,1,0,0,0,0,2h2a1,1,0,0,0,0-2Zm-8,0h-2a1,1,0,0,0,0,2h2a1,1,0,0,0,0-2Zm-5,1a1,1,0,0,0-1,1v2a1,1,0,0,0,2,0v-2a1,1,0,0,0-1-1Zm0,8a1,1,0,0,0-1,1v2a1,1,0,0,0,2,0v-2a1,1,0,0,0-1-1Zm0,8a1,1,0,0,0-1,1v2a1,1,0,0,0,2,0v-2a1,1,0,0,0-1-1Zm0,8a1,1,0,0,0-1,1v2a1,1,0,0,0,2,0v-2a1,1,0,0,0-1-1Zm0,8a1,1,0,0,0-1,1v2a1,1,0,0,0,2,0v-2a1,1,0,0,0-1-1Zm0,8a1,1,0,0,0-1,1v2a1,1,0,0,0,2,0v-2a1,1,0,0,0-1-1Zm0,8a1,1,0,0,0-1,1v2a1,1,0,0,0,2,0v-2a1,1,0,0,0-1-1Zm0,8a1,1,0,0,0-1,1v2a1,1,0,0,0,2,0v-2a1,1,0,0,0-1-1Zm0,8a1,1,0,0,0-1,1v2a1,1,0,0,0,2,0v-2a1,1,0,0,0-1-1Zm0,8a1,1,0,0,0-1,1v2a1,1,0,0,0,2,0v-2a1,1,0,0,0-1-1Zm0,8a1,1,0,0,0-1,1v2a1,1,0,0,0,2,0v-2a1,1,0,0,0-1-1Zm0,8a1,1,0,0,0-1,1v2a1,1,0,0,0,2,0v-2a1,1,0,0,0-1-1Zm0,8a1,1,0,0,0-1,1v2a1,1,0,0,0,.63.93h.74a1,1,0,0,0,.63-.93v-2a1,1,0,0,0-1-1Zm6.07,1.93h-2a1,1,0,1,0,0,2h2a1,1,0,0,0,0-2Zm8,0h-2a1,1,0,1,0,0,2h2a1,1,0,0,0,0-2Zm8,0h-2a1,1,0,1,0,0,2h2a1,1,0,0,0,0-2Zm8,0h-2a1,1,0,1,0,0,2h2a1,1,0,0,0,0-2Zm8,0h-2a1,1,0,1,0,0,2h2a1,1,0,0,0,0-2Zm8,0h-2a1,1,0,1,0,0,2h2a1,1,0,0,0,0-2Zm8,0h-2a1,1,0,1,0,0,2h2a1,1,0,0,0,0-2Zm8,0h-2a1,1,0,1,0,0,2h2a1,1,0,0,0,0-2Zm8,0h-2a1,1,0,1,0,0,2h2a1,1,0,0,0,0-2Zm8,0h-2a1,1,0,1,0,0,2h2a1,1,0,0,0,0-2Zm8,0h-2a1,1,0,1,0,0,2h2a1,1,0,0,0,0-2Zm8,0h-2a1,1,0,1,0,0,2h2a1,1,0,0,0,0-2Zm8,0h-2a1,1,0,1,0,0,2h2a1,1,0,0,0,0-2Zm8,0h-2a1,1,0,1,0,0,2h2a1,1,0,0,0,0-2Zm8,0h-2a1,1,0,1,0,0,2h2a1,1,0,0,0,0-2Zm8,0h-2a1,1,0,1,0,0,2h2a1,1,0,0,0,0-2Zm8,0h-2a1,1,0,1,0,0,2h2a1,1,0,0,0,0-2Zm8,0h-2a1,1,0,1,0,0,2h2a1,1,0,0,0,0-2Zm8,0h-2a1,1,0,1,0,0,2h2a1,1,0,0,0,0-2Zm8,0h-2a1,1,0,1,0,0,2h2a1,1,0,0,0,0-2Zm8,0h-2a1,1,0,1,0,0,2h2a1,1,0,0,0,0-2Zm8,0h-2a1,1,0,1,0,0,2h2a1,1,0,0,0,0-2Zm8,0h-2a1,1,0,1,0,0,2h2a1,1,0,0,0,0-2Zm8,0h-2a1,1,0,0,0,0,2h2a1,1,0,0,0,0-2Zm8,0h-2a1,1,0,0,0,0,2h2a1,1,0,0,0,0-2Zm8,0h-2a1,1,0,0,0,0,2h2a1,1,0,0,0,0-2Zm8,0h-2a1,1,0,0,0,0,2h2a1,1,0,0,0,0-2Zm8,0h-2a1,1,0,0,0,0,2h2a1,1,0,0,0,0-2Zm8,0h-2a1,1,0,0,0,0,2h2a1,1,0,0,0,0-2Zm8,0h-2a1,1,0,0,0,0,2h2a1,1,0,0,0,0-2Zm1.62-4.38a1,1,0,0,0-1,1v2a1,1,0,0,0,2,0v-2a1,1,0,0,0-1-1Zm0-8a1,1,0,0,0-1,1v2a1,1,0,0,0,2,0v-2a1,1,0,0,0-1-1Zm0-8a1,1,0,0,0-1,1v2a1,1,0,0,0,2,0v-2a1,1,0,0,0-1-1Zm0-8a1,1,0,0,0-1,1v2a1,1,0,0,0,2,0v-2a1,1,0,0,0-1-1Zm0-8a1,1,0,0,0-1,1v2a1,1,0,0,0,2,0v-2a1,1,0,0,0-1-1Zm0-8a1,1,0,0,0-1,1v2a1,1,0,0,0,2,0v-2a1,1,0,0,0-1-1Zm0-8a1,1,0,0,0-1,1v2a1,1,0,0,0,2,0v-2a1,1,0,0,0-1-1Zm8.56-1.44h-2a1,1,0,0,0,0,2h2a1,1,0,0,0,0-2Zm8,0h-2a1,1,0,0,0,0,2h2a1,1,0,0,0,0-2Zm8,0h-2a1,1,0,0,0,0,2h2a1,1,0,0,0,0-2Zm8,0h-2a1,1,0,0,0,0,2h2a1,1,0,0,0,0-2Zm8,0h-2a1,1,0,0,0,0,2h2a1,1,0,0,0,0-2Zm8,0h-2a1,1,0,0,0,0,2h2a1,1,0,0,0,0-2Zm8,0h-2a1,1,0,0,0,0,2h2a1,1,0,0,0,0-2Zm8,0h-2a1,1,0,0,0,0,2h2a1,1,0,0,0,0-2Zm8,0h-2a1,1,0,0,0,0,2h2a1,1,0,0,0,0-2Zm8,0h-2a1,1,0,0,0,0,2h2a1,1,0,0,0,0-2Zm8,0h-2a1,1,0,0,0,0,2h2a1,1,0,0,0,0-2Zm8,0h-2a1,1,0,0,0,0,2h2a1,1,0,0,0,0-2Zm8,0h-2a1,1,0,0,0,0,2h2a1,1,0,0,0,0-2Zm8,0h-2a1,1,0,0,0,0,2h2a1,1,0,0,0,0-2Zm8,0h-2a1,1,0,0,0,0,2h2a1,1,0,0,0,0-2Zm8,0h-2a1,1,0,0,0,0,2h2a1,1,0,0,0,0-2Zm8,0h-2a1,1,0,0,0,0,2h2a1,1,0,0,0,0-2Zm8,0h-2a1,1,0,0,0,0,2h2a1,1,0,0,0,0-2Zm8,0h-2a1,1,0,0,0,0,2h2a1,1,0,0,0,0-2Zm8,0h-2a1,1,0,0,0,0,2h2a1,1,0,0,0,0-2Zm8,0h-2a1,1,0,0,0,0,2h2a1,1,0,0,0,0-2Zm8,0h-2a1,1,0,0,0,0,2h2a1,1,0,0,0,0-2Zm1.48-4.52a1,1,0,0,0-1,1v2a1,1,0,1,0,2,0v-2a1,1,0,0,0-1-1Zm0-8a1,1,0,0,0-1,1v2a1,1,0,1,0,2,0v-2a1,1,0,0,0-1-1Zm0-8a1,1,0,0,0-1,1v2a1,1,0,1,0,2,0v-2a1,1,0,0,0-1-1Zm0-8a1,1,0,0,0-1,1v2a1,1,0,1,0,2,0v-2a1,1,0,0,0-1-1Zm0-8a1,1,0,0,0-1,1v2a1,1,0,1,0,2,0v-2a1,1,0,0,0-1-1Zm0-8a1,1,0,0,0-1,1v2a1,1,0,1,0,2,0v-2a1,1,0,0,0-1-1Zm0-8a1,1,0,0,0-1,1v2a1,1,0,1,0,2,0v-2a1,1,0,0,0-1-1Zm0-8a1,1,0,0,0-1,1v2a1,1,0,1,0,2,0v-2a1,1,0,0,0-1-1Zm0-8a1,1,0,0,0-1,1v2a1,1,0,1,0,2,0v-2a1,1,0,0,0-1-1Zm0-8a1,1,0,0,0-1,1v2a1,1,0,1,0,2,0v-2a1,1,0,0,0-1-1Zm0-8a1,1,0,0,0-1,1v2a1,1,0,1,0,2,0v-2a1,1,0,0,0-1-1Zm0-8a1,1,0,0,0-1,1v2a1,1,0,1,0,2,0v-2a1,1,0,0,0-1-1Zm0-8a1,1,0,0,0-1,1v2a1,1,0,1,0,2,0v-2a1,1,0,0,0-1-1Z"/><text class="cls-7" transform="translate(69.4 411.26)">Do<tspan class="cls-8" x="17.96" y="0">n’</tspan><tspan x="29.98" y="0">t b</tspan><tspan class="cls-9" x="47.16" y="0">r</tspan><tspan class="cls-10" x="52.9" y="0">eak the chain</tspan></text></g></g></svg>