<svg id="圖層_1" data-name="圖層 1" xmlns="http://www.w3.org/2000/svg" viewBox="0 0 218.54 218.54"><title>fire</title><rect width="218.54" height="218.54" style="fill:#ffd459"/><path d="M148,141.19c7.54-31.23,4-51.31-21.17-72.74,0,0,4.84,12.63.47,23.4,0,0,1-29.49-47.45-51.23,0,0,15.09,17.48,7.57,44.24C83.59,98.32,74.85,104.59,70.49,119c-3.2,10.57-1,27.15,6.75,39.64,0,0,20.19-6,31.38-34.23,8.48,22.5,31.77,33.36,31.77,33.36,1.57-1.89,6.53-12.28,7.56-16.56" style="fill:#f57f32"/><path d="M138.58,160.93c-15.3-8.94-25-20.35-29.93-36-4.35,16.63-14.35,28.77-29.65,37l-2.2-4c21.07-10.36,29.5-29.68,29.5-48.24V91.85h4.43v18.3c0,17.39,9.85,36.28,30.42,46.48ZM93.35,107.48C92,114.59,89,124.62,85.31,131l-4.09-2.34a69.89,69.89,0,0,0,7.86-22.24Zm41.38.08a94.44,94.44,0,0,1-9.28,23l-4.1-2.68a67.51,67.51,0,0,0,9-21.74Z" style="fill:#231f20"/><path d="M99.38,199.1v-6.43h-1v-1h1v-.4a3,3,0,0,1,3.25-3.25,3.74,3.74,0,0,1,1.9.49l-.39,1a2.85,2.85,0,0,0-1.57-.43c-1.43,0-1.85,1-1.85,2.19v.37h4.33v7.47h-1.34v-6.43h-3v6.43Z" style="fill:#231f20"/><path d="M107.85,194c0-.88,0-1.64-.06-2.33H109l0,1.47h.06a2.24,2.24,0,0,1,2.07-1.64,1.48,1.48,0,0,1,.39,0v1.28a2.05,2.05,0,0,0-.46,0,1.9,1.9,0,0,0-1.82,1.74,3.79,3.79,0,0,0-.06.63v4h-1.34Z" style="fill:#231f20"/><path d="M114,195.61a2.39,2.39,0,0,0,2.56,2.59,4.91,4.91,0,0,0,2.07-.39l.23,1a6,6,0,0,1-2.48.46,3.47,3.47,0,0,1-3.67-3.76c0-2.25,1.33-4,3.5-4,2.44,0,3.09,2.14,3.09,3.52a5.07,5.07,0,0,1,0,.63Zm4-1a1.93,1.93,0,0,0-1.88-2.21,2.25,2.25,0,0,0-2.08,2.21Z" style="fill:#231f20"/></svg>