<svg id="圖層_1" data-name="圖層 1" xmlns="http://www.w3.org/2000/svg" viewBox="0 0 218.54 218.54"><title>person</title><rect width="218.54" height="218.54" style="fill:#abc3c9"/><path d="M104.87,67.88V85.5c0,30.32-12.87,52-36.57,66.62l3.2,4.69c22.1-13.56,33.27-33.87,36.26-48.6l.29-1.45.3,1.48c3,14.73,14.09,35,36.2,48.57l3.2-4.69c-23.7-14.63-36.83-36.3-36.83-66.62V67.9a7.57,7.57,0,0,1-2.89.62,8.74,8.74,0,0,1-3.15-.64" style="fill:#231f20"/><path d="M145.45,157.54a6.58,6.58,0,0,0,3.06,2.35.12.12,0,0,0,.14,0l1.36-1.94a.13.13,0,0,0,0-.16l-.62-.49a6.3,6.3,0,0,0,2.53-2.12,22.37,22.37,0,0,0,1.8-2.66c.48-.84.67-1.25.57-1.54a.63.63,0,0,0-.38-.36c-.25-.11-.62.11-1.18.45-.26.16-.56.33-.89.5a11.91,11.91,0,0,1-2.88,1Z" style="fill:#e23f73"/><path d="M67.46,152.6a6.38,6.38,0,0,0-3.18,2,.11.11,0,0,0,0,.14l1.29,1.91a.1.1,0,0,0,.15,0l.66-.39a6.23,6.23,0,0,0,1,3,21.38,21.38,0,0,0,1.79,2.55c.6.73.9,1,1.2,1.05a.63.63,0,0,0,.45-.22c.19-.19.11-.6,0-1.22,0-.29-.11-.62-.15-1a11.49,11.49,0,0,1,.06-3Z" style="fill:#e23f73"/><path d="M110.3,56.47a1,1,0,1,0,1,1,1,1,0,0,0-1-1m6,3.71-1.47.65A6.77,6.77,0,1,1,108,53.64c2.53,0,4.35,1.36,5.91,3.45Z" style="fill:#e23f73"/><path d="M86.43,194.07c0-1,0-1.73-.06-2.44h1.22l.06,1.28h0a2.93,2.93,0,0,1,2.65-1.45c1.8,0,3.16,1.53,3.16,3.79,0,2.68-1.63,4-3.39,4a2.62,2.62,0,0,1-2.3-1.17h0v4.06H86.43Zm1.34,2a3,3,0,0,0,.06.56,2.09,2.09,0,0,0,2,1.59c1.43,0,2.27-1.17,2.27-2.88,0-1.5-.79-2.78-2.22-2.78a2.17,2.17,0,0,0-2.05,1.68,2.22,2.22,0,0,0-.09.56Z" style="fill:#231f20"/><path d="M96.5,195.61a2.39,2.39,0,0,0,2.56,2.59,4.91,4.91,0,0,0,2.07-.39l.23,1a6,6,0,0,1-2.48.46,3.47,3.47,0,0,1-3.67-3.76c0-2.25,1.33-4,3.5-4,2.44,0,3.09,2.14,3.09,3.52a5.07,5.07,0,0,1,0,.63Zm4-1a1.93,1.93,0,0,0-1.88-2.21,2.25,2.25,0,0,0-2.08,2.21Z" style="fill:#231f20"/><path d="M104,194c0-.88,0-1.64-.06-2.33h1.19l0,1.47h.06a2.24,2.24,0,0,1,2.07-1.64,1.48,1.48,0,0,1,.39,0v1.28a2.05,2.05,0,0,0-.46,0,1.9,1.9,0,0,0-1.82,1.74,3.79,3.79,0,0,0-.06.63v4H104Z" style="fill:#231f20"/><path d="M109.41,197.71a3.55,3.55,0,0,0,1.79.54c1,0,1.45-.49,1.45-1.11s-.39-1-1.39-1.37c-1.34-.48-2-1.22-2-2.11a2.3,2.3,0,0,1,2.58-2.19,3.72,3.72,0,0,1,1.84.46l-.34,1a2.91,2.91,0,0,0-1.53-.43c-.8,0-1.25.46-1.25,1s.45.9,1.42,1.27c1.3.49,2,1.14,2,2.25,0,1.31-1,2.24-2.79,2.24a4.26,4.26,0,0,1-2.1-.51Z" style="fill:#231f20"/><path d="M123,195.3a3.65,3.65,0,0,1-3.72,4,3.55,3.55,0,0,1-3.58-3.84,3.65,3.65,0,0,1,3.7-4A3.54,3.54,0,0,1,123,195.3Zm-5.92.08c0,1.64.94,2.87,2.27,2.87s2.27-1.22,2.27-2.9c0-1.27-.63-2.87-2.24-2.87S117.08,194,117.08,195.38Z" style="fill:#231f20"/><path d="M125.25,193.65c0-.77,0-1.4-.06-2h1.2l.08,1.23h0a2.74,2.74,0,0,1,2.47-1.4c1,0,2.64.62,2.64,3.18v4.46h-1.36v-4.3c0-1.2-.45-2.21-1.73-2.21a1.93,1.93,0,0,0-1.82,1.39,2,2,0,0,0-.09.63v4.49h-1.36Z" style="fill:#231f20"/></svg>