<svg id="圖層_1" data-name="圖層 1" xmlns="http://www.w3.org/2000/svg" viewBox="0 0 218.54 218.53"><title>woman</title><rect width="218.54" height="218.53" style="fill:#e8e2d5"/><path d="M95,155.4c1.56,2,7.21,6.91,16.38,5.9,6.9-.77,13-7.6,13-7.6L110,147.23a66.52,66.52,0,0,0-6.14,4.38C102,153.3,95,155.4,95,155.4" style="fill:#ee312d;fill-rule:evenodd"/><path d="M109,41.1l.3,0,.3,0c40.89,1.27,29.58,29.94,26.67,30.65,17,1.4,27.26,21.47,25.71,38-2.47,26.36-23.06,29.68-24,29.5-.37-.06,2.44-8.23,2.44-16.14q0-2.06-.09-4.26C139.84,107,132.41,99,123.59,99c-7.11,0-12.48,2.24-14.32,3.78v0C107.44,101.19,102.05,99,95,99,86.13,99,78.7,107,78.23,118.9q-.07,2.2-.08,4.26c0,7.92,2.8,16.08,2.43,16.14-.94.17-21.53-3.14-24-29.5C55,93.22,65.26,73.15,82.3,71.75,79.38,71,68.07,42.37,109,41.1" style="fill:#231f20"/><path d="M119.15,127.38h13.67v-2.86H109.09a41,41,0,0,0-.15-9.26l-.05-.33-2.93-.37.15.63a27,27,0,0,1,.24,9.34H88.23v2.86h17.51c-.09.31-.19.62-.29.94a37,37,0,0,1-7,12.53l-.33.35.37.3a53.39,53.39,0,0,0,8.22,5.51,25.68,25.68,0,0,1-10.6,5.87c-1.07.31-2.2.6-2.21.6l-.75.18,1.94,2,.18.15.22,0a20.27,20.27,0,0,0,6.16-2,28.27,28.27,0,0,0,7.79-5.36,90.91,90.91,0,0,0,14.31,5.6l.25.08,2.07-2-.72-.21a90.91,90.91,0,0,1-13.91-5.65c2.88-3.6,5-8.2,6.63-14.21.52-1.89.87-3.53,1.08-4.64m-17,13.34a41.58,41.58,0,0,0,5.88-11.29c.23-.67.4-1.36.56-2.06h7.6c-.2,1-.51,2.36-.93,3.88a35.63,35.63,0,0,1-6.53,13.58,53.77,53.77,0,0,1-6.59-4.12" style="fill:#231f20"/><path d="M133.84,67c-4.4-4.54-7.69-.47-2.34,2.88-1.83,1.06-2,3.22.26,4-4.29,4.09-.13,7,2.69,2.33,1.5,1.66,3.49,1.52,4-.71,4.43,4.56,7.71.51,2.33-2.88,2.07-1,1.79-3-.15-4.08,4-3.73.27-7.19-2.84-2.14-1.25-2-3.33-1.44-4,.58" style="fill:#ee312d"/><path d="M136.83,69.3a1,1,0,0,1,.28,1.13,1,1,0,0,1,.59.21,1,1,0,0,1-.68,1.74,1,1,0,0,1-.18.88,1,1,0,0,1-1.38.15.93.93,0,0,1-.33-.52,1,1,0,0,1-1.21-1.5.73.73,0,0,1,.15-.14l0,0a1,1,0,1,1,1.23-1.53v0a1.12,1.12,0,0,1,.16-.29,1,1,0,0,1,1.38-.15" style="fill:#231f20"/><path d="M79.76,66.59c-3.24-5.42-7.37-2.21-2.93,2.28-2,.61-2.66,2.68-.66,4-5.11,3-1.74,6.79,2.08,2.89,1.09,2,3.06,2.28,4.09.24,3.28,5.44,7.4,2.25,2.93-2.27,2.24-.49,2.42-2.48.79-4,4.73-2.72,1.9-6.94-2.28-2.73-.75-2.27-2.91-2.17-4-.36" style="fill:#ee312d"/><path d="M82.17,69.5a1,1,0,0,1,0,1.17,1.06,1.06,0,0,1,.53.34,1,1,0,0,1-.17,1.38,1,1,0,0,1-.89.16,1,1,0,0,1-.38.82,1,1,0,0,1-1.37-.17,1,1,0,0,1-.2-.59,1,1,0,0,1-1-.35,1,1,0,0,1,.18-1.38l.17-.11h0a1,1,0,1,1,1.56-1.2h0a.76.76,0,0,1,.21-.24,1,1,0,0,1,1.38.18" style="fill:#231f20"/><path d="M85.32,191.63l1,3.79c.22.83.42,1.6.56,2.38h0c.17-.76.42-1.56.66-2.36l1.22-3.81h1.14l1.16,3.73c.28.9.49,1.68.66,2.44h0a22.3,22.3,0,0,1,.57-2.42l1.06-3.75h1.34l-2.41,7.47H91.14L90,195.53a24.88,24.88,0,0,1-.66-2.45h0a22.26,22.26,0,0,1-.68,2.47l-1.2,3.55H86.18l-2.25-7.47Z" style="fill:#231f20"/><path d="M103.28,195.3a3.65,3.65,0,0,1-3.72,4A3.55,3.55,0,0,1,96,195.42a3.65,3.65,0,0,1,3.7-4A3.54,3.54,0,0,1,103.28,195.3Zm-5.92.08c0,1.64.94,2.87,2.27,2.87s2.27-1.22,2.27-2.9c0-1.27-.63-2.87-2.24-2.87S97.35,194,97.35,195.38Z" style="fill:#231f20"/><path d="M105.53,193.65c0-.77,0-1.4-.06-2h1.19l.06,1.2h0a2.57,2.57,0,0,1,2.34-1.37,2.21,2.21,0,0,1,2.11,1.5h0a3.08,3.08,0,0,1,.83-1,2.55,2.55,0,0,1,1.65-.52c1,0,2.45.65,2.45,3.24v4.4h-1.33v-4.23c0-1.43-.52-2.3-1.62-2.3a1.76,1.76,0,0,0-1.6,1.23,2.24,2.24,0,0,0-.11.68v4.61H110.2v-4.47c0-1.19-.52-2.05-1.56-2.05a2,2,0,0,0-1.79,2v4.5h-1.33Z" style="fill:#231f20"/><path d="M123.07,199.1l-.11-.94h0a2.78,2.78,0,0,1-2.28,1.11,2.13,2.13,0,0,1-2.28-2.14c0-1.8,1.6-2.79,4.49-2.78v-.15a1.54,1.54,0,0,0-1.7-1.73,3.72,3.72,0,0,0-1.94.56l-.31-.89a4.63,4.63,0,0,1,2.45-.66c2.28,0,2.84,1.56,2.84,3.05v2.79a10.6,10.6,0,0,0,.12,1.79Zm-.2-3.81c-1.48,0-3.16.23-3.16,1.68a1.2,1.2,0,0,0,1.28,1.3,1.86,1.86,0,0,0,1.8-1.25,1.4,1.4,0,0,0,.08-.43Z" style="fill:#231f20"/><path d="M126.91,193.65c0-.77,0-1.4-.06-2H128l.08,1.23h0a2.74,2.74,0,0,1,2.47-1.4c1,0,2.64.62,2.64,3.18v4.46H131.9v-4.3c0-1.2-.45-2.21-1.73-2.21a1.93,1.93,0,0,0-1.82,1.39,2,2,0,0,0-.09.63v4.49h-1.36Z" style="fill:#231f20"/></svg>