<svg xmlns="http://www.w3.org/2000/svg" viewBox="0 0 621.02 260.13"><defs><style>.cls-1{fill:#f2f2f2;stroke-width:2px;}.cls-1,.cls-10,.cls-9{stroke:#000;stroke-miterlimit:10;}.cls-2,.cls-8{font-size:20px;font-family:MyriadPro-BoldCond, Myriad Pro;font-weight:700;}.cls-3{letter-spacing:0.01em;}.cls-4{letter-spacing:0em;}.cls-5{letter-spacing:0.02em;}.cls-6{letter-spacing:-0.01em;}.cls-7{letter-spacing:0.01em;}.cls-8{fill:#fff;}.cls-10,.cls-9{fill:none;}.cls-9{stroke-width:4px;}.cls-10{stroke-linecap:round;stroke-dasharray:3 3;}.cls-11{letter-spacing:-0.01em;}</style></defs><title>compilation</title><g id="Layer_2" data-name="Layer 2"><g id="schemas"><rect class="cls-1" x="1" y="31.07" width="160" height="160"/><path d="M19.75,67.51A2.15,2.15,0,0,1,21,65.78v-.07a1.41,1.41,0,0,1-.8-1.28A1.9,1.9,0,0,1,21.16,63v-.07a2.48,2.48,0,0,1-1-2,2.86,2.86,0,0,1,3.06-2.78,3.08,3.08,0,0,1,1.15.19h3.22v1.07h-2a2.38,2.38,0,0,1,.66,1.57,2.73,2.73,0,0,1-3,2.68A3.38,3.38,0,0,1,22,63.33a1.06,1.06,0,0,0-.61.89c0,.61.59.9,1.61.9H24.7c2,0,3,.51,3,1.82,0,1.46-1.68,2.73-4.32,2.73C21.07,69.67,19.75,68.88,19.75,67.51Zm6.61-.36c0-.73-.59-.94-1.77-.94H23.07a4.29,4.29,0,0,1-1.19-.13c-.73.4-1,.85-1,1.3,0,.81.88,1.33,2.55,1.33S26.36,68,26.36,67.15Zm-1.31-6.26a1.79,1.79,0,1,0-1.79,1.85A1.76,1.76,0,0,0,25.05,60.89Z"/><path d="M32.14,63.47V55.76H29.39V54.68h4.08v8.89A1.4,1.4,0,0,0,35,65.17a3.52,3.52,0,0,0,1.46-.35l.34,1a4.8,4.8,0,0,1-2.08.46C33.05,66.27,32.14,65.31,32.14,63.47Z"/><path d="M38.76,62.21a3.85,3.85,0,1,1,3.84,4.06A3.81,3.81,0,0,1,38.76,62.21Zm6.32,0c0-1.8-1-3-2.48-3s-2.48,1.2-2.48,3,1,3,2.48,3S45.08,64,45.08,62.21Z"/><path d="M50.12,65.22h0l-.12.86H48.89V54.68h1.33v3.11l-.07,1.5h.05a3.84,3.84,0,0,1,2.61-1.18c2.1,0,3.23,1.55,3.23,4,0,2.66-1.66,4.21-3.5,4.21A3.87,3.87,0,0,1,50.12,65.22Zm4.56-3.14c0-1.71-.64-2.85-2.19-2.85a3.28,3.28,0,0,0-2.27,1.15v3.88a3.26,3.26,0,0,0,2.1.89C53.66,65.15,54.68,64,54.68,62.08Z"/><path d="M58.28,64.06c0-1.74,1.63-2.59,5.65-2.91a1.84,1.84,0,0,0-2.06-1.95,5.39,5.39,0,0,0-2.72.93l-.53-.9a6.83,6.83,0,0,1,3.47-1.12,2.89,2.89,0,0,1,3.17,3.2v4.77h-1.1L64,65h0a5.19,5.19,0,0,1-3.06,1.25C59.48,66.27,58.28,65.46,58.28,64.06Zm5.65,0V62c-3.33.26-4.34.91-4.34,1.94,0,.88.8,1.23,1.7,1.23A4.26,4.26,0,0,0,63.93,64.05Z"/><path d="M70.54,63.47V55.76H67.78V54.68h4.09v8.89a1.4,1.4,0,0,0,1.53,1.6,3.52,3.52,0,0,0,1.46-.35l.34,1a4.81,4.81,0,0,1-2.09.46C71.45,66.27,70.54,65.31,70.54,63.47Z"/><path d="M86.76,67.19h7.68v1.13H86.76Z"/><path d="M96.54,65.06l.6-.88a5.58,5.58,0,0,0,3.38,1c1.31,0,2-.54,2-1.2s-.3-1-2.41-1.44-3-1.1-3-2.27,1.1-2.21,3.23-2.21a5.85,5.85,0,0,1,3.14,1l-.64.85a4.57,4.57,0,0,0-2.61-.82c-1.31,0-1.79.53-1.79,1.12s.67,1,2.27,1.3c2.57.56,3.2,1.2,3.2,2.4s-1.23,2.32-3.46,2.32A6.85,6.85,0,0,1,96.54,65.06Z"/><path d="M108.3,63.06V59.37h-2.21v-1l2.25-.08.18-2.5h1.11v2.5h3.81v1.07h-3.81v3.7c0,1.39.46,2.11,2,2.11a5.09,5.09,0,0,0,1.86-.35l.29,1a7,7,0,0,1-2.43.46C109,66.27,108.3,65,108.3,63.06Z"/><path d="M115.88,64.06c0-1.74,1.63-2.59,5.65-2.91a1.84,1.84,0,0,0-2.06-1.95,5.43,5.43,0,0,0-2.73.93l-.52-.9a6.83,6.83,0,0,1,3.47-1.12,2.89,2.89,0,0,1,3.17,3.2v4.77h-1.11L121.64,65h0a5.14,5.14,0,0,1-3,1.25C117.08,66.27,115.88,65.46,115.88,64.06Zm5.65,0V62c-3.33.26-4.34.91-4.34,1.94,0,.88.8,1.23,1.7,1.23A4.28,4.28,0,0,0,121.53,64.05Z"/><path d="M126.52,58.3h1.11l.12,1.84h0a4.1,4.1,0,0,1,3.47-2,3.28,3.28,0,0,1,1.54.32l-.31,1.14a3.8,3.8,0,0,0-1.44-.26c-1.17,0-2.27.59-3.2,2.22v4.55h-1.33Z"/><path d="M137.1,63.06V59.37h-2.21v-1l2.25-.08.18-2.5h1.11v2.5h3.8v1.07h-3.8v3.7c0,1.39.46,2.11,2,2.11a5.09,5.09,0,0,0,1.86-.35l.29,1a7,7,0,0,1-2.43.46C137.83,66.27,137.1,65,137.1,63.06Z"/><path d="M19.56,105.58h7.68v1.14H19.56Z"/><path d="M29.34,103.46l.61-.88a5.52,5.52,0,0,0,3.37,1c1.32,0,2-.54,2-1.2s-.31-1-2.42-1.44-3-1.1-3-2.27,1.1-2.21,3.23-2.21a5.82,5.82,0,0,1,3.14,1l-.64.85a4.57,4.57,0,0,0-2.61-.82c-1.31,0-1.79.53-1.79,1.12s.67,1,2.27,1.3c2.58.56,3.2,1.2,3.2,2.4s-1.23,2.32-3.46,2.32A6.85,6.85,0,0,1,29.34,103.46Z"/><path d="M41.1,101.46V97.77H38.89v-1l2.26-.08.17-2.5h1.11v2.5h3.81v1.07H42.43v3.7c0,1.39.46,2.11,2,2.11a5,5,0,0,0,1.85-.35l.29,1a6.92,6.92,0,0,1-2.43.46C41.83,104.67,41.1,103.38,41.1,101.46Z"/><path d="M48.68,102.46c0-1.74,1.63-2.59,5.65-2.91a1.84,1.84,0,0,0-2.06-2,5.39,5.39,0,0,0-2.72.93l-.53-.9a6.83,6.83,0,0,1,3.47-1.12,2.89,2.89,0,0,1,3.17,3.2v4.77h-1.1l-.12-1.06h0a5.19,5.19,0,0,1-3.06,1.25C49.88,104.67,48.68,103.86,48.68,102.46Zm5.65,0v-2c-3.33.26-4.34.91-4.34,1.94,0,.88.8,1.23,1.7,1.23A4.26,4.26,0,0,0,54.33,102.45Z"/><path d="M59.32,96.7h1.11l.12,1.84h0a4.1,4.1,0,0,1,3.47-2,3.28,3.28,0,0,1,1.54.32L65.29,98a3.8,3.8,0,0,0-1.44-.26c-1.17,0-2.27.59-3.2,2.22v4.55H59.32Z"/><path d="M69.9,101.46V97.77H67.69v-1L70,96.7l.17-2.5h1.11v2.5H75v1.07H71.23v3.7c0,1.39.46,2.11,2,2.11a5.05,5.05,0,0,0,1.86-.35l.29,1a6.92,6.92,0,0,1-2.43.46C70.63,104.67,69.9,103.38,69.9,101.46Z"/><path d="M79.71,97.58A1.3,1.3,0,1,1,81,98.94,1.29,1.29,0,0,1,79.71,97.58Zm0,5.73A1.3,1.3,0,1,1,81,104.67,1.29,1.29,0,0,1,79.71,103.31Z"/><path d="M40.94,126.26a2.88,2.88,0,0,0,2-2.8L42.67,122l.89,1.27a1.1,1.1,0,0,1-.89.37,1.15,1.15,0,0,1-1.25-1.2,1.19,1.19,0,0,1,1.28-1.22c.94,0,1.44.78,1.44,2a3.94,3.94,0,0,1-2.82,3.84Zm.37-9.48a1.3,1.3,0,1,1,1.29,1.36A1.29,1.29,0,0,1,41.31,116.78Z"/><path d="M58.15,125.11a2.15,2.15,0,0,1,1.28-1.73v-.07a1.41,1.41,0,0,1-.8-1.28,1.9,1.9,0,0,1,.93-1.45v-.07a2.48,2.48,0,0,1-1-2,2.86,2.86,0,0,1,3.06-2.78,3.12,3.12,0,0,1,1.15.19H66V117H64a2.38,2.38,0,0,1,.66,1.57,2.73,2.73,0,0,1-3,2.68,3.38,3.38,0,0,1-1.31-.29,1.06,1.06,0,0,0-.61.89c0,.61.59.9,1.61.9H63.1c2,0,3,.51,3,1.82s-1.68,2.73-4.32,2.73C59.47,127.27,58.15,126.48,58.15,125.11Zm6.61-.36c0-.73-.59-.94-1.77-.94H61.47a4.29,4.29,0,0,1-1.19-.13c-.73.4-1,.85-1,1.3,0,.81.88,1.33,2.54,1.33C63.64,126.31,64.76,125.55,64.76,124.75Zm-1.31-6.26a1.79,1.79,0,1,0-1.79,1.85A1.76,1.76,0,0,0,63.45,118.49Z"/><path d="M67.69,119.77a3.91,3.91,0,0,1,4-4.06,3.35,3.35,0,0,1,3.55,3.65,5.82,5.82,0,0,1-.06.8H68.57v-1h5.79l-.33.37c0-1.84-.92-2.75-2.34-2.75a2.74,2.74,0,0,0-2.69,3,2.83,2.83,0,0,0,3,3,4.22,4.22,0,0,0,2.37-.74l.48.86a5.27,5.27,0,0,1-3,.93A3.94,3.94,0,0,1,67.69,119.77Z"/><path d="M79.5,120.66V117H77.29v-1l2.26-.08.17-2.5h1.11v2.5h3.81V117H80.83v3.7c0,1.39.46,2.11,2,2.11a5,5,0,0,0,1.85-.35l.29,1a6.92,6.92,0,0,1-2.43.46C80.23,123.87,79.5,122.58,79.5,120.66Z"/><path d="M87.29,115.9h1.09l.11,1h.05a4.16,4.16,0,0,1,2.69-1.18c2.09,0,3.21,1.55,3.21,4,0,2.64-1.66,4.19-3.53,4.19a3.68,3.68,0,0,1-2.32-1h0l.07,1.48V127H87.29Zm5.79,3.78c0-1.71-.64-2.85-2.19-2.85A3.28,3.28,0,0,0,88.62,118v3.88a3.25,3.25,0,0,0,2.06.89C92.06,122.75,93.08,121.6,93.08,119.68Z"/><path d="M100.44,117h-3.6V115.9h4.93v7.78h-1.33Zm-.53-3.73a1.06,1.06,0,1,1,1.06,1A1,1,0,0,1,99.91,113.24Z"/><path d="M106,119.81c0-2.53,1.68-4.1,3.52-4.1a3.36,3.36,0,0,1,2.34,1h0l-.06-1.42v-3h1.32v11.4H112l-.12-1h0a3.76,3.76,0,0,1-2.55,1.21C107.3,123.87,106,122.4,106,119.81Zm5.83,1.79v-3.87a2.89,2.89,0,0,0-2-.9c-1.34,0-2.43,1.18-2.43,3s.86,3,2.29,3A2.93,2.93,0,0,0,111.79,121.6Z"/><path d="M38.73,135.1h1.06l.11,1h0a1.94,1.94,0,0,1,1.78-1.22c.76,0,1.25.45,1.47,1.34.45-.83.93-1.34,1.82-1.34,1.09,0,1.73.85,1.73,2.4v5.57H45.42v-5.47c0-.9-.26-1.36-.83-1.36s-.83.4-1.25,1.2v5.63H42.12v-5.47c0-.9-.22-1.36-.8-1.36s-.89.4-1.28,1.2v5.63H38.73Z"/><path d="M48.36,139a3.85,3.85,0,1,1,3.84,4.06A3.81,3.81,0,0,1,48.36,139Zm6.32,0c0-1.8-1-3-2.48-3s-2.48,1.2-2.48,3,1,3,2.48,3S54.68,140.78,54.68,139Z"/><path d="M57.8,135.1h1.36L61,139.5q.46,1.19.87,2.31h.06c.27-.75.53-1.52.85-2.31l1.79-4.4H65.8l-3.23,7.78H61.08Z"/><path d="M78.52,135.1h1.11l.12,1.84h0a4.1,4.1,0,0,1,3.47-2,3.28,3.28,0,0,1,1.54.32l-.31,1.14a3.8,3.8,0,0,0-1.44-.26c-1.17,0-2.27.59-3.2,2.22v4.55H78.52Z"/><path d="M87.08,140.86c0-1.74,1.63-2.59,5.65-2.91A1.84,1.84,0,0,0,90.67,136a5.39,5.39,0,0,0-2.72.93l-.53-.9a6.83,6.83,0,0,1,3.47-1.12,2.89,2.89,0,0,1,3.17,3.2v4.77H93l-.12-1.06h0a5.19,5.19,0,0,1-3.06,1.25C88.28,143.07,87.08,142.26,87.08,140.86Zm5.65,0v-2c-3.33.26-4.34.91-4.34,1.94,0,.88.8,1.23,1.7,1.23A4.26,4.26,0,0,0,92.73,140.85Z"/><path d="M99.37,138.85l-2.72-3.75h1.46l1.23,1.7c.27.43.59.89.91,1.31h.06c.29-.42.61-.9.88-1.33l1.16-1.68h1.41L101,139l3,3.92h-1.47l-1.35-1.79c-.33-.43-.69-1-1-1.41h-.07c-.32.46-.64.93-1,1.42l-1.28,1.78H96.42Z"/><path d="M108.14,145.46a2.86,2.86,0,0,0,2-2.8l-.28-1.48.89,1.27a1.1,1.1,0,0,1-.89.37,1.15,1.15,0,0,1-1.25-1.2,1.19,1.19,0,0,1,1.28-1.22c.94,0,1.44.78,1.44,2a3.94,3.94,0,0,1-2.82,3.84Z"/><path d="M125.11,141.63l.67-.86a4.15,4.15,0,0,0,2.93,1.2c1.4,0,2.44-.72,2.44-1.86s-1-2-3.7-2v-1c2.42,0,3.34-.83,3.34-1.9s-.84-1.61-2.08-1.61a3.86,3.86,0,0,0-2.51,1l-.7-.83a4.91,4.91,0,0,1,3.26-1.28c1.92,0,3.38.94,3.38,2.59,0,1.23-.91,2-2.18,2.43v.07a2.81,2.81,0,0,1,2.53,2.59c0,1.81-1.66,2.91-3.7,2.91A5,5,0,0,1,125.11,141.63Z"/><path d="M135.06,142l.74-.83a3,3,0,0,0,2,.8c1.65,0,3.11-1.17,3.11-4.58,0-2.51-1-3.86-2.66-3.86a2.11,2.11,0,0,0-2.16,2.23,2,2,0,0,0,2.18,2.16,3.56,3.56,0,0,0,2.65-1.44l.05,1a4.23,4.23,0,0,1-3,1.39,2.89,2.89,0,0,1-3.17-3.15,3.29,3.29,0,0,1,3.4-3.28c2.22,0,3.92,1.63,3.92,4.91,0,4.1-2.07,5.68-4.28,5.68A4.13,4.13,0,0,1,135.06,142Z"/><path d="M38.94,161.06l.61-.88a5.52,5.52,0,0,0,3.37,1c1.32,0,2-.54,2-1.2s-.31-1-2.42-1.44-3-1.1-3-2.27,1.1-2.21,3.23-2.21a5.82,5.82,0,0,1,3.14,1l-.64.85a4.57,4.57,0,0,0-2.61-.82c-1.31,0-1.79.53-1.79,1.12s.67,1,2.27,1.3c2.58.56,3.2,1.2,3.2,2.4s-1.23,2.32-3.46,2.32A6.85,6.85,0,0,1,38.94,161.06Z"/><path d="M48.47,165.27l.28-1.06a2.57,2.57,0,0,0,.7.11,2.26,2.26,0,0,0,2.13-1.65l.22-.57-3.61-7.8h1.34l1.89,4.29c.3.69.64,1.51,1,2.26h.06c.27-.74.58-1.55.84-2.26L55,154.3h1.28l-3.44,8.42c-.58,1.54-1.53,2.71-3.3,2.71A3.53,3.53,0,0,1,48.47,165.27Z"/><path d="M58.14,161.06l.61-.88a5.52,5.52,0,0,0,3.37,1c1.32,0,2-.54,2-1.2s-.31-1-2.42-1.44-3-1.1-3-2.27,1.1-2.21,3.23-2.21a5.82,5.82,0,0,1,3.14,1l-.64.85a4.57,4.57,0,0,0-2.61-.82c-1.31,0-1.79.53-1.79,1.12s.67,1,2.27,1.3c2.58.56,3.2,1.2,3.2,2.4s-1.23,2.32-3.46,2.32A6.85,6.85,0,0,1,58.14,161.06Z"/><path d="M67.88,158.21a4,4,0,0,1,4.34-4.1,3.93,3.93,0,0,1,2.83,1.14l-.65.84a3.24,3.24,0,0,0-2.13-.88,2.86,2.86,0,0,0-3,3,2.83,2.83,0,0,0,3,3,3.7,3.7,0,0,0,2.41-1l.59.87a4.68,4.68,0,0,1-3.09,1.21A3.93,3.93,0,0,1,67.88,158.21Z"/><path d="M77.48,160.06c0-1.74,1.63-2.59,5.65-2.91a1.84,1.84,0,0,0-2.06-2,5.39,5.39,0,0,0-2.72.93l-.53-.9a6.83,6.83,0,0,1,3.47-1.12,2.89,2.89,0,0,1,3.17,3.2v4.77h-1.1L83.24,161h0a5.14,5.14,0,0,1-3,1.25C78.68,162.27,77.48,161.46,77.48,160.06Zm5.65,0v-2c-3.33.26-4.34.91-4.34,1.94,0,.88.8,1.23,1.7,1.23A4.28,4.28,0,0,0,83.13,160.05Z"/><path d="M89.74,159.47v-7.71H87v-1.08h4.09v8.89a1.4,1.4,0,0,0,1.53,1.6,3.52,3.52,0,0,0,1.46-.35l.34,1a4.8,4.8,0,0,1-2.08.46C90.65,162.27,89.74,161.31,89.74,159.47Z"/><path d="M99.34,159.47v-7.71H96.58v-1.08h4.09v8.89a1.4,1.4,0,0,0,1.53,1.6,3.52,3.52,0,0,0,1.46-.35l.34,1a4.81,4.81,0,0,1-2.09.46C100.25,162.27,99.34,161.31,99.34,159.47Z"/><text class="cls-2" transform="translate(35.29 16.74)"><tspan class="cls-3">A</tspan><tspan x="9.32" y="0">ssemb</tspan><tspan class="cls-4" x="53.2" y="0">l</tspan><tspan x="57.76" y="0">y file</tspan></text><rect class="cls-1" x="230.51" y="31.07" width="160" height="160"/><path d="M263.65,60.94c0-3.42,1.39-5.26,3.66-5.26S271,57.52,271,60.94s-1.39,5.33-3.67,5.33S263.65,64.34,263.65,60.94Zm6.1,0c0-2.93-1-4.19-2.44-4.19s-2.43,1.26-2.43,4.19,1,4.26,2.43,4.26S269.75,63.87,269.75,60.94Zm-3.43-.11a1,1,0,1,1,1,1.07A1,1,0,0,1,266.32,60.83Z"/><path d="M273.25,60.94c0-3.42,1.39-5.26,3.66-5.26s3.67,1.84,3.67,5.26-1.39,5.33-3.67,5.33S273.25,64.34,273.25,60.94Zm6.1,0c0-2.93-1-4.19-2.44-4.19s-2.43,1.26-2.43,4.19,1,4.26,2.43,4.26S279.35,63.87,279.35,60.94Zm-3.43-.11a1,1,0,1,1,1,1.07A1,1,0,0,1,275.92,60.83Z"/><path d="M283.27,65h2.94v-7.5h-2.29v-.86a7.48,7.48,0,0,0,2.63-.75h1V65h2.66v1.1h-6.93Z"/><path d="M292.45,60.94c0-3.42,1.39-5.26,3.66-5.26s3.67,1.84,3.67,5.26-1.39,5.33-3.67,5.33S292.45,64.34,292.45,60.94Zm6.1,0c0-2.93-1-4.19-2.44-4.19s-2.43,1.26-2.43,4.19,1,4.26,2.43,4.26S298.55,63.87,298.55,60.94Zm-3.43-.11a1,1,0,1,1,1,1.07A1,1,0,0,1,295.12,60.83Z"/><path d="M302.46,65h3v-7.5h-2.29v-.86a7.48,7.48,0,0,0,2.63-.75h1V65h2.66v1.1h-6.94Z"/><path d="M311.65,60.94c0-3.42,1.39-5.26,3.66-5.26S319,57.52,319,60.94s-1.39,5.33-3.67,5.33S311.65,64.34,311.65,60.94Zm6.1,0c0-2.93-1-4.19-2.44-4.19s-2.43,1.26-2.43,4.19,1,4.26,2.43,4.26S317.75,63.87,317.75,60.94Zm-3.43-.11a1,1,0,1,1,1,1.07A1,1,0,0,1,314.32,60.83Z"/><path d="M321.66,65h2.95v-7.5h-2.29v-.86a7.48,7.48,0,0,0,2.63-.75h1V65h2.66v1.1h-6.94Z"/><path d="M331.26,65h2.95v-7.5h-2.29v-.86a7.48,7.48,0,0,0,2.63-.75h1V65h2.65v1.1h-6.93Z"/><path d="M340.45,60.94c0-3.42,1.39-5.26,3.66-5.26s3.67,1.84,3.67,5.26-1.39,5.33-3.67,5.33S340.45,64.34,340.45,60.94Zm6.1,0c0-2.93-1-4.19-2.44-4.19s-2.43,1.26-2.43,4.19,1,4.26,2.43,4.26S346.55,63.87,346.55,60.94Zm-3.43-.11a1,1,0,1,1,1,1.07A1,1,0,0,1,343.12,60.83Z"/><path d="M350.05,60.94c0-3.42,1.39-5.26,3.66-5.26s3.67,1.84,3.67,5.26-1.39,5.33-3.67,5.33S350.05,64.34,350.05,60.94Zm6.1,0c0-2.93-1-4.19-2.44-4.19s-2.43,1.26-2.43,4.19,1,4.26,2.43,4.26S356.15,63.87,356.15,60.94Zm-3.43-.11a1,1,0,1,1,1,1.07A1,1,0,0,1,352.72,60.83Z"/><path d="M264.07,84.18H267V76.69h-2.29v-.87a7.48,7.48,0,0,0,2.63-.75h1v9.11H271v1.1h-6.93Z"/><path d="M273.25,80.14c0-3.42,1.39-5.26,3.66-5.26s3.67,1.84,3.67,5.26-1.39,5.33-3.67,5.33S273.25,83.54,273.25,80.14Zm6.1,0c0-2.93-1-4.19-2.44-4.19s-2.43,1.26-2.43,4.19,1,4.26,2.43,4.26S279.35,83.07,279.35,80.14ZM275.92,80a1,1,0,1,1,1,1.07A1,1,0,0,1,275.92,80Z"/><path d="M283.27,84.18h2.94V76.69h-2.29v-.87a7.48,7.48,0,0,0,2.63-.75h1v9.11h2.66v1.1h-6.93Z"/><path d="M292.45,80.14c0-3.42,1.39-5.26,3.66-5.26s3.67,1.84,3.67,5.26-1.39,5.33-3.67,5.33S292.45,83.54,292.45,80.14Zm6.1,0c0-2.93-1-4.19-2.44-4.19s-2.43,1.26-2.43,4.19,1,4.26,2.43,4.26S298.55,83.07,298.55,80.14ZM295.12,80a1,1,0,1,1,1,1.07A1,1,0,0,1,295.12,80Z"/><path d="M302.05,80.14c0-3.42,1.39-5.26,3.66-5.26s3.67,1.84,3.67,5.26-1.39,5.33-3.67,5.33S302.05,83.54,302.05,80.14Zm6.1,0c0-2.93-1-4.19-2.44-4.19s-2.43,1.26-2.43,4.19,1,4.26,2.43,4.26S308.15,83.07,308.15,80.14ZM304.72,80a1,1,0,1,1,1,1.07A1,1,0,0,1,304.72,80Z"/><path d="M312.07,84.18H315V76.69h-2.29v-.87a7.48,7.48,0,0,0,2.63-.75h1v9.11H319v1.1h-6.93Z"/><path d="M321.25,80.14c0-3.42,1.39-5.26,3.66-5.26s3.67,1.84,3.67,5.26-1.39,5.33-3.67,5.33S321.25,83.54,321.25,80.14Zm6.1,0c0-2.93-1-4.19-2.44-4.19s-2.43,1.26-2.43,4.19,1,4.26,2.43,4.26S327.35,83.07,327.35,80.14ZM323.92,80a1,1,0,1,1,1,1.07A1,1,0,0,1,323.92,80Z"/><path d="M330.85,80.14c0-3.42,1.39-5.26,3.66-5.26s3.67,1.84,3.67,5.26-1.39,5.33-3.67,5.33S330.85,83.54,330.85,80.14Zm6.1,0c0-2.93-1-4.19-2.44-4.19s-2.43,1.26-2.43,4.19,1,4.26,2.43,4.26S337,83.07,337,80.14ZM333.52,80a1,1,0,1,1,1,1.07A1,1,0,0,1,333.52,80Z"/><path d="M340.86,84.18h2.95V76.69h-2.29v-.87a7.48,7.48,0,0,0,2.63-.75h1v9.11h2.66v1.1h-6.94Z"/><path d="M350.05,80.14c0-3.42,1.39-5.26,3.66-5.26s3.67,1.84,3.67,5.26-1.39,5.33-3.67,5.33S350.05,83.54,350.05,80.14Zm6.1,0c0-2.93-1-4.19-2.44-4.19s-2.43,1.26-2.43,4.19,1,4.26,2.43,4.26S356.15,83.07,356.15,80.14ZM352.72,80a1,1,0,1,1,1,1.07A1,1,0,0,1,352.72,80Z"/><path d="M263.65,99.34c0-3.42,1.39-5.26,3.66-5.26S271,95.92,271,99.34s-1.39,5.33-3.67,5.33S263.65,102.74,263.65,99.34Zm6.1,0c0-2.93-1-4.19-2.44-4.19s-2.43,1.26-2.43,4.19,1,4.26,2.43,4.26S269.75,102.27,269.75,99.34Zm-3.43-.11a1,1,0,1,1,1,1.07A1,1,0,0,1,266.32,99.23Z"/><path d="M273.67,103.38h2.94v-7.5h-2.29V95a7.48,7.48,0,0,0,2.63-.75h1v9.11h2.66v1.1h-6.93Z"/><path d="M282.85,99.34c0-3.42,1.39-5.26,3.66-5.26s3.67,1.84,3.67,5.26-1.39,5.33-3.67,5.33S282.85,102.74,282.85,99.34Zm6.1,0c0-2.93-1-4.19-2.44-4.19s-2.43,1.26-2.43,4.19,1,4.26,2.43,4.26S289,102.27,289,99.34Zm-3.43-.11a1,1,0,1,1,1,1.07A1,1,0,0,1,285.52,99.23Z"/><path d="M292.86,103.38h2.95v-7.5h-2.29V95a7.48,7.48,0,0,0,2.63-.75h1v9.11h2.66v1.1h-6.94Z"/><path d="M302.05,99.34c0-3.42,1.39-5.26,3.66-5.26s3.67,1.84,3.67,5.26-1.39,5.33-3.67,5.33S302.05,102.74,302.05,99.34Zm6.1,0c0-2.93-1-4.19-2.44-4.19s-2.43,1.26-2.43,4.19,1,4.26,2.43,4.26S308.15,102.27,308.15,99.34Zm-3.43-.11a1,1,0,1,1,1,1.07A1,1,0,0,1,304.72,99.23Z"/><path d="M312.07,103.38H315v-7.5h-2.29V95a7.48,7.48,0,0,0,2.63-.75h1v9.11H319v1.1h-6.93Z"/><path d="M321.25,99.34c0-3.42,1.39-5.26,3.66-5.26s3.67,1.84,3.67,5.26-1.39,5.33-3.67,5.33S321.25,102.74,321.25,99.34Zm6.1,0c0-2.93-1-4.19-2.44-4.19s-2.43,1.26-2.43,4.19,1,4.26,2.43,4.26S327.35,102.27,327.35,99.34Zm-3.43-.11a1,1,0,1,1,1,1.07A1,1,0,0,1,323.92,99.23Z"/><path d="M330.85,99.34c0-3.42,1.39-5.26,3.66-5.26s3.67,1.84,3.67,5.26-1.39,5.33-3.67,5.33S330.85,102.74,330.85,99.34Zm6.1,0c0-2.93-1-4.19-2.44-4.19s-2.43,1.26-2.43,4.19,1,4.26,2.43,4.26S337,102.27,337,99.34Zm-3.43-.11a1,1,0,1,1,1,1.07A1,1,0,0,1,333.52,99.23Z"/><path d="M340.86,103.38h2.95v-7.5h-2.29V95a7.48,7.48,0,0,0,2.63-.75h1v9.11h2.66v1.1h-6.94Z"/><path d="M350.05,99.34c0-3.42,1.39-5.26,3.66-5.26s3.67,1.84,3.67,5.26-1.39,5.33-3.67,5.33S350.05,102.74,350.05,99.34Zm6.1,0c0-2.93-1-4.19-2.44-4.19s-2.43,1.26-2.43,4.19,1,4.26,2.43,4.26S356.15,102.27,356.15,99.34Zm-3.43-.11a1,1,0,1,1,1,1.07A1,1,0,0,1,352.72,99.23Z"/><path d="M263.65,118.54c0-3.42,1.39-5.26,3.66-5.26s3.67,1.84,3.67,5.26-1.39,5.33-3.67,5.33S263.65,121.94,263.65,118.54Zm6.1,0c0-2.93-1-4.19-2.44-4.19s-2.43,1.26-2.43,4.19,1,4.26,2.43,4.26S269.75,121.47,269.75,118.54Zm-3.43-.11a1,1,0,1,1,1,1.07A1,1,0,0,1,266.32,118.43Z"/><path d="M273.67,122.58h2.94v-7.5h-2.29v-.86a7.48,7.48,0,0,0,2.63-.75h1v9.11h2.66v1.1h-6.93Z"/><path d="M282.85,118.54c0-3.42,1.39-5.26,3.66-5.26s3.67,1.84,3.67,5.26-1.39,5.33-3.67,5.33S282.85,121.94,282.85,118.54Zm6.1,0c0-2.93-1-4.19-2.44-4.19s-2.43,1.26-2.43,4.19,1,4.26,2.43,4.26S289,121.47,289,118.54Zm-3.43-.11a1,1,0,1,1,1,1.07A1,1,0,0,1,285.52,118.43Z"/><path d="M292.86,122.58h2.95v-7.5h-2.29v-.86a7.48,7.48,0,0,0,2.63-.75h1v9.11h2.66v1.1h-6.94Z"/><path d="M302.05,118.54c0-3.42,1.39-5.26,3.66-5.26s3.67,1.84,3.67,5.26-1.39,5.33-3.67,5.33S302.05,121.94,302.05,118.54Zm6.1,0c0-2.93-1-4.19-2.44-4.19s-2.43,1.26-2.43,4.19,1,4.26,2.43,4.26S308.15,121.47,308.15,118.54Zm-3.43-.11a1,1,0,1,1,1,1.07A1,1,0,0,1,304.72,118.43Z"/><path d="M311.65,118.54c0-3.42,1.39-5.26,3.66-5.26s3.67,1.84,3.67,5.26-1.39,5.33-3.67,5.33S311.65,121.94,311.65,118.54Zm6.1,0c0-2.93-1-4.19-2.44-4.19s-2.43,1.26-2.43,4.19,1,4.26,2.43,4.26S317.75,121.47,317.75,118.54Zm-3.43-.11a1,1,0,1,1,1,1.07A1,1,0,0,1,314.32,118.43Z"/><path d="M321.66,122.58h2.95v-7.5h-2.29v-.86a7.48,7.48,0,0,0,2.63-.75h1v9.11h2.66v1.1h-6.94Z"/><path d="M330.85,118.54c0-3.42,1.39-5.26,3.66-5.26s3.67,1.84,3.67,5.26-1.39,5.33-3.67,5.33S330.85,121.94,330.85,118.54Zm6.1,0c0-2.93-1-4.19-2.44-4.19s-2.43,1.26-2.43,4.19,1,4.26,2.43,4.26S337,121.47,337,118.54Zm-3.43-.11a1,1,0,1,1,1,1.07A1,1,0,0,1,333.52,118.43Z"/><path d="M340.45,118.54c0-3.42,1.39-5.26,3.66-5.26s3.67,1.84,3.67,5.26-1.39,5.33-3.67,5.33S340.45,121.94,340.45,118.54Zm6.1,0c0-2.93-1-4.19-2.44-4.19s-2.43,1.26-2.43,4.19,1,4.26,2.43,4.26S346.55,121.47,346.55,118.54Zm-3.43-.11a1,1,0,1,1,1,1.07A1,1,0,0,1,343.12,118.43Z"/><path d="M350.46,122.58h3v-7.5h-2.29v-.86a7.48,7.48,0,0,0,2.63-.75h1v9.11h2.66v1.1h-6.94Z"/><path d="M263.65,137.74c0-3.42,1.39-5.26,3.66-5.26s3.67,1.84,3.67,5.26-1.39,5.33-3.67,5.33S263.65,141.14,263.65,137.74Zm6.1,0c0-2.93-1-4.19-2.44-4.19s-2.43,1.26-2.43,4.19,1,4.26,2.43,4.26S269.75,140.67,269.75,137.74Zm-3.43-.11a1,1,0,1,1,1,1.07A1,1,0,0,1,266.32,137.63Z"/><path d="M273.67,141.78h2.94v-7.5h-2.29v-.86a7.48,7.48,0,0,0,2.63-.75h1v9.11h2.66v1.1h-6.93Z"/><path d="M282.85,137.74c0-3.42,1.39-5.26,3.66-5.26s3.67,1.84,3.67,5.26-1.39,5.33-3.67,5.33S282.85,141.14,282.85,137.74Zm6.1,0c0-2.93-1-4.19-2.44-4.19s-2.43,1.26-2.43,4.19,1,4.26,2.43,4.26S289,140.67,289,137.74Zm-3.43-.11a1,1,0,1,1,1,1.07A1,1,0,0,1,285.52,137.63Z"/><path d="M292.86,141.78h2.95v-7.5h-2.29v-.86a7.48,7.48,0,0,0,2.63-.75h1v9.11h2.66v1.1h-6.94Z"/><path d="M302.05,137.74c0-3.42,1.39-5.26,3.66-5.26s3.67,1.84,3.67,5.26-1.39,5.33-3.67,5.33S302.05,141.14,302.05,137.74Zm6.1,0c0-2.93-1-4.19-2.44-4.19s-2.43,1.26-2.43,4.19,1,4.26,2.43,4.26S308.15,140.67,308.15,137.74Zm-3.43-.11a1,1,0,1,1,1,1.07A1,1,0,0,1,304.72,137.63Z"/><path d="M312.07,141.78H315v-7.5h-2.29v-.86a7.48,7.48,0,0,0,2.63-.75h1v9.11H319v1.1h-6.93Z"/><path d="M321.25,137.74c0-3.42,1.39-5.26,3.66-5.26s3.67,1.84,3.67,5.26-1.39,5.33-3.67,5.33S321.25,141.14,321.25,137.74Zm6.1,0c0-2.93-1-4.19-2.44-4.19s-2.43,1.26-2.43,4.19,1,4.26,2.43,4.26S327.35,140.67,327.35,137.74Zm-3.43-.11a1,1,0,1,1,1,1.07A1,1,0,0,1,323.92,137.63Z"/><path d="M331.26,141.78h2.95v-7.5h-2.29v-.86a7.48,7.48,0,0,0,2.63-.75h1v9.11h2.65v1.1h-6.93Z"/><path d="M340.45,137.74c0-3.42,1.39-5.26,3.66-5.26s3.67,1.84,3.67,5.26-1.39,5.33-3.67,5.33S340.45,141.14,340.45,137.74Zm6.1,0c0-2.93-1-4.19-2.44-4.19s-2.43,1.26-2.43,4.19,1,4.26,2.43,4.26S346.55,140.67,346.55,137.74Zm-3.43-.11a1,1,0,1,1,1,1.07A1,1,0,0,1,343.12,137.63Z"/><path d="M350.46,141.78h3v-7.5h-2.29v-.86a7.48,7.48,0,0,0,2.63-.75h1v9.11h2.66v1.1h-6.94Z"/><path d="M266,160.91a1.3,1.3,0,1,1,1.29,1.36A1.29,1.29,0,0,1,266,160.91Z"/><path d="M275.62,160.91a1.3,1.3,0,1,1,1.29,1.36A1.29,1.29,0,0,1,275.62,160.91Z"/><path d="M285.22,160.91a1.3,1.3,0,1,1,1.29,1.36A1.29,1.29,0,0,1,285.22,160.91Z"/><text class="cls-2" transform="translate(275.35 16.74)">Obje<tspan class="cls-5" x="31.42" y="0">c</tspan><tspan x="38.26" y="0">t file</tspan></text><rect class="cls-1" x="460.02" y="31.48" width="160" height="160"/><path d="M493.58,65.38h2.94V57.89h-2.29V57a7.48,7.48,0,0,0,2.63-.75h1v9.11h2.66v1.1h-6.93Z"/><path d="M502.76,61.35c0-3.43,1.39-5.27,3.67-5.27s3.66,1.84,3.66,5.27-1.39,5.33-3.66,5.33S502.76,64.74,502.76,61.35Zm6.1,0c0-2.93-1-4.2-2.43-4.2S504,58.42,504,61.35s1,4.25,2.44,4.25S508.86,64.28,508.86,61.35Zm-3.43-.12a1,1,0,1,1,1,1.08A1,1,0,0,1,505.43,61.23Z"/><path d="M512.36,61.35c0-3.43,1.39-5.27,3.67-5.27s3.66,1.84,3.66,5.27-1.39,5.33-3.66,5.33S512.36,64.74,512.36,61.35Zm6.1,0c0-2.93-1-4.2-2.43-4.2s-2.44,1.27-2.44,4.2,1,4.25,2.44,4.25S518.46,64.28,518.46,61.35ZM515,61.23a1,1,0,1,1,1,1.08A1,1,0,0,1,515,61.23Z"/><path d="M522,61.35c0-3.43,1.39-5.27,3.67-5.27s3.66,1.84,3.66,5.27-1.39,5.33-3.66,5.33S522,64.74,522,61.35Zm6.1,0c0-2.93-1-4.2-2.43-4.2s-2.44,1.27-2.44,4.2,1,4.25,2.44,4.25S528.06,64.28,528.06,61.35Zm-3.43-.12a1,1,0,1,1,1,1.08A1,1,0,0,1,524.63,61.23Z"/><path d="M532,65.38h2.94V57.89h-2.29V57a7.48,7.48,0,0,0,2.63-.75h1v9.11h2.66v1.1H532Z"/><path d="M541.16,61.35c0-3.43,1.39-5.27,3.67-5.27s3.66,1.84,3.66,5.27-1.39,5.33-3.66,5.33S541.16,64.74,541.16,61.35Zm6.1,0c0-2.93-1-4.2-2.43-4.2s-2.44,1.27-2.44,4.2,1,4.25,2.44,4.25S547.26,64.28,547.26,61.35Zm-3.43-.12a1,1,0,1,1,1,1.08A1,1,0,0,1,543.83,61.23Z"/><path d="M550.76,61.35c0-3.43,1.39-5.27,3.67-5.27s3.66,1.84,3.66,5.27-1.39,5.33-3.66,5.33S550.76,64.74,550.76,61.35Zm6.1,0c0-2.93-1-4.2-2.43-4.2S552,58.42,552,61.35s1,4.25,2.44,4.25S556.86,64.28,556.86,61.35Zm-3.43-.12a1,1,0,1,1,1,1.08A1,1,0,0,1,553.43,61.23Z"/><path d="M560.36,61.35c0-3.43,1.39-5.27,3.67-5.27s3.66,1.84,3.66,5.27-1.39,5.33-3.66,5.33S560.36,64.74,560.36,61.35Zm6.1,0c0-2.93-1-4.2-2.43-4.2s-2.44,1.27-2.44,4.2,1,4.25,2.44,4.25S566.46,64.28,566.46,61.35ZM563,61.23a1,1,0,1,1,1,1.08A1,1,0,0,1,563,61.23Z"/><path d="M570.38,65.38h2.94V57.89H571V57a7.48,7.48,0,0,0,2.63-.75h1v9.11h2.66v1.1h-6.93Z"/><path d="M579.56,61.35c0-3.43,1.39-5.27,3.67-5.27s3.66,1.84,3.66,5.27-1.39,5.33-3.66,5.33S579.56,64.74,579.56,61.35Zm6.1,0c0-2.93-1-4.2-2.43-4.2s-2.44,1.27-2.44,4.2,1,4.25,2.44,4.25S585.66,64.28,585.66,61.35Zm-3.43-.12a1,1,0,1,1,1,1.08A1,1,0,0,1,582.23,61.23Z"/><path d="M493.58,84.58h2.94V77.09h-2.29v-.87a7.48,7.48,0,0,0,2.63-.75h1v9.11h2.66v1.1h-6.93Z"/><path d="M502.76,80.55c0-3.43,1.39-5.27,3.67-5.27s3.66,1.84,3.66,5.27-1.39,5.33-3.66,5.33S502.76,83.94,502.76,80.55Zm6.1,0c0-2.93-1-4.2-2.43-4.2S504,77.62,504,80.55s1,4.25,2.44,4.25S508.86,83.48,508.86,80.55Zm-3.43-.12a1,1,0,1,1,1,1.08A1,1,0,0,1,505.43,80.43Z"/><path d="M512.36,80.55c0-3.43,1.39-5.27,3.67-5.27s3.66,1.84,3.66,5.27-1.39,5.33-3.66,5.33S512.36,83.94,512.36,80.55Zm6.1,0c0-2.93-1-4.2-2.43-4.2s-2.44,1.27-2.44,4.2,1,4.25,2.44,4.25S518.46,83.48,518.46,80.55ZM515,80.43a1,1,0,1,1,1,1.08A1,1,0,0,1,515,80.43Z"/><path d="M522,80.55c0-3.43,1.39-5.27,3.67-5.27s3.66,1.84,3.66,5.27-1.39,5.33-3.66,5.33S522,83.94,522,80.55Zm6.1,0c0-2.93-1-4.2-2.43-4.2s-2.44,1.27-2.44,4.2,1,4.25,2.44,4.25S528.06,83.48,528.06,80.55Zm-3.43-.12a1,1,0,1,1,1,1.08A1,1,0,0,1,524.63,80.43Z"/><path d="M531.56,80.55c0-3.43,1.39-5.27,3.67-5.27s3.66,1.84,3.66,5.27-1.39,5.33-3.66,5.33S531.56,83.94,531.56,80.55Zm6.1,0c0-2.93-1-4.2-2.43-4.2s-2.44,1.27-2.44,4.2,1,4.25,2.44,4.25S537.66,83.48,537.66,80.55Zm-3.43-.12a1,1,0,1,1,1,1.08A1,1,0,0,1,534.23,80.43Z"/><path d="M541.16,80.55c0-3.43,1.39-5.27,3.67-5.27s3.66,1.84,3.66,5.27-1.39,5.33-3.66,5.33S541.16,83.94,541.16,80.55Zm6.1,0c0-2.93-1-4.2-2.43-4.2s-2.44,1.27-2.44,4.2,1,4.25,2.44,4.25S547.26,83.48,547.26,80.55Zm-3.43-.12a1,1,0,1,1,1,1.08A1,1,0,0,1,543.83,80.43Z"/><path d="M551.18,84.58h2.94V77.09h-2.29v-.87a7.48,7.48,0,0,0,2.63-.75h1v9.11h2.66v1.1h-6.93Z"/><path d="M560.36,80.55c0-3.43,1.39-5.27,3.67-5.27s3.66,1.84,3.66,5.27-1.39,5.33-3.66,5.33S560.36,83.94,560.36,80.55Zm6.1,0c0-2.93-1-4.2-2.43-4.2s-2.44,1.27-2.44,4.2,1,4.25,2.44,4.25S566.46,83.48,566.46,80.55ZM563,80.43a1,1,0,1,1,1,1.08A1,1,0,0,1,563,80.43Z"/><path d="M570.38,84.58h2.94V77.09H571v-.87a7.48,7.48,0,0,0,2.63-.75h1v9.11h2.66v1.1h-6.93Z"/><path d="M579.56,80.55c0-3.43,1.39-5.27,3.67-5.27s3.66,1.84,3.66,5.27-1.39,5.33-3.66,5.33S579.56,83.94,579.56,80.55Zm6.1,0c0-2.93-1-4.2-2.43-4.2s-2.44,1.27-2.44,4.2,1,4.25,2.44,4.25S585.66,83.48,585.66,80.55Zm-3.43-.12a1,1,0,1,1,1,1.08A1,1,0,0,1,582.23,80.43Z"/><path d="M493.16,99.75c0-3.43,1.39-5.27,3.67-5.27s3.66,1.84,3.66,5.27-1.39,5.33-3.66,5.33S493.16,103.14,493.16,99.75Zm6.1,0c0-2.93-1-4.2-2.43-4.2s-2.44,1.27-2.44,4.2,1,4.25,2.44,4.25S499.26,102.68,499.26,99.75Zm-3.43-.12a1,1,0,1,1,1,1.08A1,1,0,0,1,495.83,99.63Z"/><path d="M502.76,99.75c0-3.43,1.39-5.27,3.67-5.27s3.66,1.84,3.66,5.27-1.39,5.33-3.66,5.33S502.76,103.14,502.76,99.75Zm6.1,0c0-2.93-1-4.2-2.43-4.2S504,96.82,504,99.75s1,4.25,2.44,4.25S508.86,102.68,508.86,99.75Zm-3.43-.12a1,1,0,1,1,1,1.08A1,1,0,0,1,505.43,99.63Z"/><path d="M512.78,103.78h2.94V96.29h-2.29v-.87a7.48,7.48,0,0,0,2.63-.75h1v9.11h2.66v1.1h-6.93Z"/><path d="M522,99.75c0-3.43,1.39-5.27,3.67-5.27s3.66,1.84,3.66,5.27-1.39,5.33-3.66,5.33S522,103.14,522,99.75Zm6.1,0c0-2.93-1-4.2-2.43-4.2s-2.44,1.27-2.44,4.2,1,4.25,2.44,4.25S528.06,102.68,528.06,99.75Zm-3.43-.12a1,1,0,1,1,1,1.08A1,1,0,0,1,524.63,99.63Z"/><path d="M532,103.78h2.94V96.29h-2.29v-.87a7.48,7.48,0,0,0,2.63-.75h1v9.11h2.66v1.1H532Z"/><path d="M541.16,99.75c0-3.43,1.39-5.27,3.67-5.27s3.66,1.84,3.66,5.27-1.39,5.33-3.66,5.33S541.16,103.14,541.16,99.75Zm6.1,0c0-2.93-1-4.2-2.43-4.2s-2.44,1.27-2.44,4.2,1,4.25,2.44,4.25S547.26,102.68,547.26,99.75Zm-3.43-.12a1,1,0,1,1,1,1.08A1,1,0,0,1,543.83,99.63Z"/><path d="M550.76,99.75c0-3.43,1.39-5.27,3.67-5.27s3.66,1.84,3.66,5.27-1.39,5.33-3.66,5.33S550.76,103.14,550.76,99.75Zm6.1,0c0-2.93-1-4.2-2.43-4.2S552,96.82,552,99.75s1,4.25,2.44,4.25S556.86,102.68,556.86,99.75Zm-3.43-.12a1,1,0,1,1,1,1.08A1,1,0,0,1,553.43,99.63Z"/><path d="M560.78,103.78h2.94V96.29h-2.29v-.87a7.48,7.48,0,0,0,2.63-.75h1v9.11h2.66v1.1h-6.93Z"/><path d="M570,99.75c0-3.43,1.39-5.27,3.67-5.27s3.66,1.84,3.66,5.27-1.39,5.33-3.66,5.33S570,103.14,570,99.75Zm6.1,0c0-2.93-1-4.2-2.43-4.2s-2.44,1.27-2.44,4.2,1,4.25,2.44,4.25S576.06,102.68,576.06,99.75Zm-3.43-.12a1,1,0,1,1,1,1.08A1,1,0,0,1,572.63,99.63Z"/><path d="M580,103.78h2.94V96.29h-2.29v-.87a7.48,7.48,0,0,0,2.63-.75h1v9.11h2.66v1.1H580Z"/><path d="M493.16,119c0-3.43,1.39-5.27,3.67-5.27s3.66,1.84,3.66,5.27-1.39,5.33-3.66,5.33S493.16,122.34,493.16,119Zm6.1,0c0-2.93-1-4.2-2.43-4.2s-2.44,1.27-2.44,4.2,1,4.25,2.44,4.25S499.26,121.88,499.26,119Zm-3.43-.12a1,1,0,1,1,1,1.08A1,1,0,0,1,495.83,118.83Z"/><path d="M502.76,119c0-3.43,1.39-5.27,3.67-5.27s3.66,1.84,3.66,5.27-1.39,5.33-3.66,5.33S502.76,122.34,502.76,119Zm6.1,0c0-2.93-1-4.2-2.43-4.2S504,116,504,119s1,4.25,2.44,4.25S508.86,121.88,508.86,119Zm-3.43-.12a1,1,0,1,1,1,1.08A1,1,0,0,1,505.43,118.83Z"/><path d="M512.36,119c0-3.43,1.39-5.27,3.67-5.27s3.66,1.84,3.66,5.27-1.39,5.33-3.66,5.33S512.36,122.34,512.36,119Zm6.1,0c0-2.93-1-4.2-2.43-4.2s-2.44,1.27-2.44,4.2,1,4.25,2.44,4.25S518.46,121.88,518.46,119Zm-3.43-.12a1,1,0,1,1,1,1.08A1,1,0,0,1,515,118.83Z"/><path d="M522.38,123h2.94v-7.49H523v-.87a7.48,7.48,0,0,0,2.63-.75h1V123h2.66v1.1h-6.93Z"/><path d="M532,123h2.94v-7.49h-2.29v-.87a7.48,7.48,0,0,0,2.63-.75h1V123h2.66v1.1H532Z"/><path d="M541.58,123h2.94v-7.49h-2.29v-.87a7.48,7.48,0,0,0,2.63-.75h1V123h2.66v1.1h-6.93Z"/><path d="M550.76,119c0-3.43,1.39-5.27,3.67-5.27s3.66,1.84,3.66,5.27-1.39,5.33-3.66,5.33S550.76,122.34,550.76,119Zm6.1,0c0-2.93-1-4.2-2.43-4.2S552,116,552,119s1,4.25,2.44,4.25S556.86,121.88,556.86,119Zm-3.43-.12a1,1,0,1,1,1,1.08A1,1,0,0,1,553.43,118.83Z"/><path d="M560.36,119c0-3.43,1.39-5.27,3.67-5.27s3.66,1.84,3.66,5.27-1.39,5.33-3.66,5.33S560.36,122.34,560.36,119Zm6.1,0c0-2.93-1-4.2-2.43-4.2s-2.44,1.27-2.44,4.2,1,4.25,2.44,4.25S566.46,121.88,566.46,119Zm-3.43-.12a1,1,0,1,1,1,1.08A1,1,0,0,1,563,118.83Z"/><path d="M570.38,123h2.94v-7.49H571v-.87a7.48,7.48,0,0,0,2.63-.75h1V123h2.66v1.1h-6.93Z"/><path d="M580,123h2.94v-7.49h-2.29v-.87a7.48,7.48,0,0,0,2.63-.75h1V123h2.66v1.1H580Z"/><path d="M493.16,138.15c0-3.43,1.39-5.27,3.67-5.27s3.66,1.84,3.66,5.27-1.39,5.33-3.66,5.33S493.16,141.54,493.16,138.15Zm6.1,0c0-2.93-1-4.2-2.43-4.2s-2.44,1.27-2.44,4.2,1,4.25,2.44,4.25S499.26,141.08,499.26,138.15Zm-3.43-.12a1,1,0,1,1,1,1.08A1,1,0,0,1,495.83,138Z"/><path d="M502.76,138.15c0-3.43,1.39-5.27,3.67-5.27s3.66,1.84,3.66,5.27-1.39,5.33-3.66,5.33S502.76,141.54,502.76,138.15Zm6.1,0c0-2.93-1-4.2-2.43-4.2s-2.44,1.27-2.44,4.2,1,4.25,2.44,4.25S508.86,141.08,508.86,138.15Zm-3.43-.12a1,1,0,1,1,1,1.08A1,1,0,0,1,505.43,138Z"/><path d="M512.78,142.18h2.94v-7.49h-2.29v-.87a7.48,7.48,0,0,0,2.63-.75h1v9.11h2.66v1.1h-6.93Z"/><path d="M522,138.15c0-3.43,1.39-5.27,3.67-5.27s3.66,1.84,3.66,5.27-1.39,5.33-3.66,5.33S522,141.54,522,138.15Zm6.1,0c0-2.93-1-4.2-2.43-4.2s-2.44,1.27-2.44,4.2,1,4.25,2.44,4.25S528.06,141.08,528.06,138.15Zm-3.43-.12a1,1,0,1,1,1,1.08A1,1,0,0,1,524.63,138Z"/><path d="M532,142.18h2.94v-7.49h-2.29v-.87a7.48,7.48,0,0,0,2.63-.75h1v9.11h2.66v1.1H532Z"/><path d="M541.16,138.15c0-3.43,1.39-5.27,3.67-5.27s3.66,1.84,3.66,5.27-1.39,5.33-3.66,5.33S541.16,141.54,541.16,138.15Zm6.1,0c0-2.93-1-4.2-2.43-4.2s-2.44,1.27-2.44,4.2,1,4.25,2.44,4.25S547.26,141.08,547.26,138.15Zm-3.43-.12a1,1,0,1,1,1,1.08A1,1,0,0,1,543.83,138Z"/><path d="M551.18,142.18h2.94v-7.49h-2.29v-.87a7.48,7.48,0,0,0,2.63-.75h1v9.11h2.66v1.1h-6.93Z"/><path d="M560.36,138.15c0-3.43,1.39-5.27,3.67-5.27s3.66,1.84,3.66,5.27-1.39,5.33-3.66,5.33S560.36,141.54,560.36,138.15Zm6.1,0c0-2.93-1-4.2-2.43-4.2s-2.44,1.27-2.44,4.2,1,4.25,2.44,4.25S566.46,141.08,566.46,138.15ZM563,138a1,1,0,1,1,1,1.08A1,1,0,0,1,563,138Z"/><path d="M570,138.15c0-3.43,1.39-5.27,3.67-5.27s3.66,1.84,3.66,5.27-1.39,5.33-3.66,5.33S570,141.54,570,138.15Zm6.1,0c0-2.93-1-4.2-2.43-4.2s-2.44,1.27-2.44,4.2,1,4.25,2.44,4.25S576.06,141.08,576.06,138.15Zm-3.43-.12a1,1,0,1,1,1,1.08A1,1,0,0,1,572.63,138Z"/><path d="M579.56,138.15c0-3.43,1.39-5.27,3.67-5.27s3.66,1.84,3.66,5.27-1.39,5.33-3.66,5.33S579.56,141.54,579.56,138.15Zm6.1,0c0-2.93-1-4.2-2.43-4.2s-2.44,1.27-2.44,4.2,1,4.25,2.44,4.25S585.66,141.08,585.66,138.15Zm-3.43-.12a1,1,0,1,1,1,1.08A1,1,0,0,1,582.23,138Z"/><path d="M495.53,161.32a1.3,1.3,0,1,1,2.59,0,1.3,1.3,0,1,1-2.59,0Z"/><path d="M505.13,161.32a1.3,1.3,0,1,1,2.59,0,1.3,1.3,0,1,1-2.59,0Z"/><path d="M514.73,161.32a1.3,1.3,0,1,1,2.59,0,1.3,1.3,0,1,1-2.59,0Z"/><text class="cls-2" transform="translate(489.09 16.74)">E<tspan class="cls-6" x="7.88" y="0">x</tspan><tspan x="15.5" y="0">e</tspan><tspan class="cls-7" x="23.88" y="0">c</tspan><tspan x="30.52" y="0">utable file</tspan></text><rect x="146.31" y="209.96" width="99" height="29.03" rx="10"/><text class="cls-8" transform="matrix(1, 0.01, -0.01, 1, 159.8, 230.33)"><tspan class="cls-3">A</tspan><tspan x="9.32" y="0">ssembler</tspan></text><line class="cls-9" x1="160.64" y1="111.48" x2="218.57" y2="111.48"/><path d="M230.64,111.48c-5.68,2.1-12.73,5.7-17.09,9.51l3.44-9.51L213.55,102C217.91,105.78,225,109.37,230.64,111.48Z"/><line class="cls-9" x1="390.64" y1="111.48" x2="448.57" y2="111.48"/><path d="M460.64,111.48c-5.68,2.1-12.73,5.7-17.09,9.51l3.44-9.51L443.55,102C447.91,105.78,455,109.37,460.64,111.48Z"/><line class="cls-10" x1="195.64" y1="115.48" x2="195.64" y2="208.48"/><rect x="376.31" y="209.96" width="99" height="29.03" rx="10"/><text class="cls-8" transform="matrix(1, 0.01, -0.01, 1, 402.8, 230.33)">Lin<tspan class="cls-11" x="21.22" y="0">k</tspan><tspan x="29.26" y="0">er</tspan></text><line class="cls-10" x1="425.64" y1="115.48" x2="425.64" y2="208.48"/><path d="M173.26,251.16h1.23l.12,1.48h.07A4.52,4.52,0,0,1,178,251c2.07,0,3,1.22,3,3.53v5.43h-1.49v-5.24c0-1.65-.58-2.43-2-2.43-1,0-1.75.52-2.75,1.57v6.1h-1.5Z"/><path d="M183.83,257.64c0-2,1.83-2.91,6.35-3.27a2.08,2.08,0,0,0-2.32-2.2,6.14,6.14,0,0,0-3.06,1l-.6-1a7.68,7.68,0,0,1,3.91-1.26,3.25,3.25,0,0,1,3.57,3.6v5.36h-1.25l-.12-1.19h-.06a5.84,5.84,0,0,1-3.43,1.41C185.18,260.13,183.83,259.21,183.83,257.64Zm6.35,0v-2.27c-3.74.29-4.88,1-4.88,2.18,0,1,.9,1.38,1.91,1.38A4.81,4.81,0,0,0,190.18,257.63Z"/><path d="M194.46,258.76l.69-1A6.26,6.26,0,0,0,199,259c1.47,0,2.19-.61,2.19-1.35s-.34-1.14-2.71-1.62-3.43-1.24-3.43-2.56,1.25-2.48,3.64-2.48a6.6,6.6,0,0,1,3.53,1.11l-.72,1a5.15,5.15,0,0,0-2.93-.92c-1.48,0-2,.59-2,1.26s.76,1.08,2.56,1.46c2.89.63,3.6,1.35,3.6,2.7s-1.39,2.61-3.89,2.61A7.72,7.72,0,0,1,194.46,258.76Z"/><path d="M205,251.16h1.19l.12,1.15h0a2.16,2.16,0,0,1,2-1.36c.86,0,1.4.5,1.66,1.51.5-.94,1-1.51,2.05-1.51,1.22,0,1.94,1,1.94,2.7v6.26h-1.47v-6.16c0-1-.29-1.53-.94-1.53s-.94.45-1.4,1.36v6.33h-1.37v-6.16c0-1-.25-1.53-.9-1.53s-1,.45-1.44,1.36v6.33H205Z"/><path d="M418.25,257V248.3h-3.09v-1.21h4.59v10a1.58,1.58,0,0,0,1.73,1.8,3.93,3.93,0,0,0,1.63-.4l.38,1.12a5.32,5.32,0,0,1-2.34.52C419.28,260.13,418.25,259.05,418.25,257Z"/><path d="M425.7,255.56c0-2.85,1.89-4.61,4-4.61a3.74,3.74,0,0,1,2.63,1.11h0l-.07-1.6v-3.37h1.49v12.82h-1.22l-.13-1.15h0a4.21,4.21,0,0,1-2.87,1.37C427.22,260.13,425.7,258.47,425.7,255.56Zm6.56,2v-4.36a3.28,3.28,0,0,0-2.29-1c-1.51,0-2.74,1.33-2.74,3.33s1,3.33,2.58,3.33A3.31,3.31,0,0,0,432.26,257.57Z"/></g></g></svg>