<svg xmlns="http://www.w3.org/2000/svg" viewBox="0 0 713 611.03"><defs><style>.cls-1{fill:#999;}.cls-2{fill:#333;}.cls-3{fill:#f2f2f2;}.cls-4{fill:#ccc;}.cls-5{font-size:22px;}.cls-26,.cls-28,.cls-5{font-family:MyriadPro-BoldCond, Myriad Pro;font-weight:700;}.cls-6{letter-spacing:0.02em;}.cls-7{letter-spacing:-0.01em;}.cls-8{letter-spacing:0em;}.cls-16,.cls-18,.cls-19,.cls-20,.cls-9{font-size:16px;font-family:MyriadPro-CondIt, Myriad Pro;font-weight:400;font-style:italic;}.cls-10{letter-spacing:0.02em;}.cls-11{letter-spacing:-0.01em;}.cls-12{letter-spacing:0.02em;}.cls-13{letter-spacing:-0.01em;}.cls-14{letter-spacing:0em;}.cls-15{letter-spacing:0em;}.cls-16{letter-spacing:0em;}.cls-17{letter-spacing:0em;}.cls-18{letter-spacing:-0.04em;}.cls-19{letter-spacing:-0.02em;}.cls-20{letter-spacing:0em;}.cls-21,.cls-22,.cls-23,.cls-24{fill:none;stroke:#000;stroke-miterlimit:10;stroke-width:2px;}.cls-22{stroke-dasharray:6.03 6.03;}.cls-23{stroke-dasharray:6.09 6.09;}.cls-24{stroke-dasharray:5.87 5.87;}.cls-25,.cls-26,.cls-28{fill:#fff;}.cls-26,.cls-28{font-size:20px;}.cls-26{letter-spacing:-0.01em;}.cls-27{letter-spacing:0em;}.cls-29{letter-spacing:0em;}</style></defs><title>system-call-steps</title><g id="Layer_2" data-name="Layer 2"><g id="schemas"><rect class="cls-1" x="308.06" y="374.57" width="373" height="153"/><path class="cls-2" d="M680.06,375.57v151h-371v-151h371m2-2h-375v155h375v-155Z"/><path d="M332.45,411.77a3.91,3.91,0,0,1,4-4.06,3.34,3.34,0,0,1,3.55,3.65,5.82,5.82,0,0,1-.06.8h-6.58v-1h5.79l-.33.37c0-1.84-.91-2.75-2.34-2.75a2.74,2.74,0,0,0-2.69,3,2.82,2.82,0,0,0,3,3,4.21,4.21,0,0,0,2.37-.73l.48.86a5.35,5.35,0,0,1-3,.93A3.94,3.94,0,0,1,332.45,411.77Z"/><path d="M342.45,407.9h1.09l.11,1.31h.06a4,4,0,0,1,2.93-1.5c1.84,0,2.69,1.09,2.69,3.13v4.84H348V411c0-1.47-.51-2.16-1.77-2.16a3.31,3.31,0,0,0-2.45,1.39v5.43h-1.33Z"/><path d="M353.86,412.65V409h-2.21v-1l2.26-.08.17-2.5h1.11v2.5H359V409h-3.81v3.7c0,1.39.46,2.11,2,2.11a5.05,5.05,0,0,0,1.86-.35l.29,1a6.92,6.92,0,0,1-2.43.46C354.59,415.87,353.86,414.57,353.86,412.65Z"/><path d="M362.48,407.9h1.11l.12,1.84h0a4.1,4.1,0,0,1,3.47-2,3.28,3.28,0,0,1,1.54.32l-.31,1.13a4,4,0,0,0-1.44-.25c-1.17,0-2.27.59-3.2,2.22v4.55h-1.33Z"/><path d="M370.83,418.86l.27-1.05a2.7,2.7,0,0,0,.71.11,2.26,2.26,0,0,0,2.13-1.65l.22-.58-3.62-7.79h1.35l1.89,4.29c.3.69.64,1.5,1,2.26h.06c.27-.74.58-1.56.83-2.26l1.68-4.29h1.29l-3.45,8.42c-.57,1.54-1.52,2.7-3.29,2.7A3.18,3.18,0,0,1,370.83,418.86Z"/><path d="M380.32,416.78H388v1.14h-7.68Z"/><path d="M390,414.32l.8-.93a4.44,4.44,0,0,0,3.08,1.3c1.44,0,2.27-.69,2.27-1.65,0-1.12-.82-1.44-1.87-1.89l-1.52-.67a3,3,0,0,1-2.26-2.71c0-1.6,1.44-2.78,3.44-2.78a4.57,4.57,0,0,1,3.23,1.29l-.7.87a3.69,3.69,0,0,0-2.58-1c-1.21,0-2,.58-2,1.52s1,1.38,1.87,1.73l1.47.66c1.3.51,2.33,1.24,2.33,2.8s-1.41,3-3.72,3A5.36,5.36,0,0,1,390,414.32Z"/><path d="M402.69,411.93l-3.52-6.75h1.42l1.57,3.1c.4.82.77,1.62,1.2,2.45h.07c.41-.83.83-1.63,1.23-2.45l1.52-3.1h1.38L404,411.93v3.75h-1.34Z"/><path d="M409.23,414.32l.8-.93a4.44,4.44,0,0,0,3.07,1.3c1.45,0,2.28-.69,2.28-1.65,0-1.12-.82-1.44-1.87-1.89l-1.53-.67a3,3,0,0,1-2.25-2.71c0-1.6,1.44-2.78,3.44-2.78a4.57,4.57,0,0,1,3.23,1.29l-.7.87a3.69,3.69,0,0,0-2.58-1c-1.22,0-2,.58-2,1.52s1,1.38,1.87,1.73l1.47.66c1.3.51,2.32,1.24,2.32,2.8s-1.4,3-3.71,3A5.36,5.36,0,0,1,409.23,414.32Z"/><path d="M418.8,410.43c0-3.38,2-5.44,4.7-5.44a3.93,3.93,0,0,1,2.89,1.28l-.77.84a2.84,2.84,0,0,0-2.12-.94c-2,0-3.31,1.62-3.31,4.23s1.31,4.29,3.31,4.29a3,3,0,0,0,2.36-1.16l.77.82a4.07,4.07,0,0,1-3.25,1.52C420.78,415.87,418.8,413.85,418.8,410.43Z"/><path d="M431.39,405.18h1.54l3.54,10.5H435l-1.81-5.86c-.37-1.17-.72-2.32-1-3.54h-.07c-.33,1.22-.67,2.37-1,3.54l-1.84,5.86h-1.38Zm-1.66,6.22h4.82v1.09h-4.82Z"/><path d="M439.1,405.18h1.33v9.36h5.19v1.14H439.1Z"/><path d="M448.7,405.18H450v9.36h5.19v1.14H448.7Z"/><path d="M457.12,416.78h7.68v1.14h-7.68Z"/><path d="M467,411c0-4.1,2.05-5.69,4.27-5.69a4.07,4.07,0,0,1,2.85,1.09l-.73.83a3.05,3.05,0,0,0-2-.81c-1.66,0-3.1,1.17-3.1,4.58,0,2.51,1,3.87,2.66,3.87a2.12,2.12,0,0,0,2.14-2.24,1.94,1.94,0,0,0-2.16-2.16,3.57,3.57,0,0,0-2.67,1.44l0-1a4.31,4.31,0,0,1,3-1.39,2.9,2.9,0,0,1,3.19,3.15,3.3,3.3,0,0,1-3.41,3.28C468.67,415.87,467,414.24,467,411Z"/><path d="M481.25,408.65c0-.56.05-1.25.08-1.81h-.08c-.34.5-.71,1-1,1.49l-2.75,3.46h6.62v1.07H476V412l5.09-6.51h1.43v10.21h-1.25Z"/><path d="M354.07,433.71a1.3,1.3,0,1,1,1.29,1.36A1.29,1.29,0,0,1,354.07,433.71Z"/><path d="M363.67,433.71a1.3,1.3,0,1,1,1.29,1.36A1.29,1.29,0,0,1,363.67,433.71Z"/><path d="M373.27,433.71a1.3,1.3,0,1,1,1.29,1.36A1.29,1.29,0,0,1,373.27,433.71Z"/><path d="M351.84,450.2a4,4,0,0,1,4.34-4.09,4,4,0,0,1,2.83,1.13l-.66.85a3.22,3.22,0,0,0-2.12-.88,3,3,0,1,0,0,6,3.75,3.75,0,0,0,2.41-1l.59.86a4.65,4.65,0,0,1-3.09,1.22A3.93,3.93,0,0,1,351.84,450.2Z"/><path d="M361.44,452.06c0-1.74,1.63-2.59,5.65-2.91A1.84,1.84,0,0,0,365,447.2a5.48,5.48,0,0,0-2.72.92l-.53-.89a6.83,6.83,0,0,1,3.47-1.12,2.89,2.89,0,0,1,3.17,3.2v4.77h-1.11L367.2,453h-.05a5.2,5.2,0,0,1-3,1.25C362.64,454.27,361.44,453.45,361.44,452.06Zm5.65,0v-2c-3.33.25-4.34.91-4.34,1.94,0,.88.8,1.23,1.7,1.23A4.28,4.28,0,0,0,367.09,452.05Z"/><path d="M373.7,451.47v-7.72h-2.76v-1.07H375v8.88a1.4,1.4,0,0,0,1.53,1.61,3.55,3.55,0,0,0,1.46-.36l.34,1a4.85,4.85,0,0,1-2.09.46C374.61,454.27,373.7,453.31,373.7,451.47Z"/><path d="M383.3,451.47v-7.72h-2.76v-1.07h4.09v8.88a1.4,1.4,0,0,0,1.53,1.61,3.55,3.55,0,0,0,1.46-.36l.34,1a4.85,4.85,0,0,1-2.09.46C384.21,454.27,383.3,453.31,383.3,451.47Z"/><path d="M399.7,453.05l.6-.88a5.58,5.58,0,0,0,3.38,1.06c1.31,0,1.95-.54,1.95-1.2s-.3-1-2.41-1.44-3-1.11-3-2.27,1.1-2.21,3.23-2.21a5.85,5.85,0,0,1,3.14,1l-.64.85a4.57,4.57,0,0,0-2.61-.82c-1.32,0-1.8.53-1.8,1.12s.68,1,2.28,1.3c2.57.56,3.2,1.2,3.2,2.4s-1.23,2.32-3.46,2.32A6.78,6.78,0,0,1,399.7,453.05Z"/><path d="M409.23,457.26l.27-1.05a2.7,2.7,0,0,0,.71.11,2.26,2.26,0,0,0,2.13-1.65l.22-.58-3.62-7.79h1.35l1.89,4.29c.3.69.64,1.5,1,2.26h.06c.27-.74.58-1.56.83-2.26l1.68-4.29H417l-3.44,8.42c-.57,1.53-1.52,2.7-3.29,2.7A3.18,3.18,0,0,1,409.23,457.26Z"/><path d="M418.9,453.05l.6-.88a5.58,5.58,0,0,0,3.38,1.06c1.31,0,1.95-.54,1.95-1.2s-.3-1-2.41-1.44-3-1.11-3-2.27,1.1-2.21,3.23-2.21a5.85,5.85,0,0,1,3.14,1l-.64.85a4.57,4.57,0,0,0-2.61-.82c-1.32,0-1.8.53-1.8,1.12s.68,1,2.28,1.3c2.57.56,3.2,1.2,3.2,2.4s-1.23,2.32-3.46,2.32A6.78,6.78,0,0,1,418.9,453.05Z"/><path d="M428.32,455.18H436v1.14h-7.68Z"/><path d="M438.24,450.2a4,4,0,0,1,4.34-4.09,4,4,0,0,1,2.83,1.13l-.66.85a3.22,3.22,0,0,0-2.12-.88,3,3,0,1,0,0,6,3.72,3.72,0,0,0,2.4-1l.6.86a4.65,4.65,0,0,1-3.09,1.22A3.92,3.92,0,0,1,438.24,450.2Z"/><path d="M447.84,452.06c0-1.74,1.63-2.59,5.65-2.91a1.85,1.85,0,0,0-2.07-1.95,5.52,5.52,0,0,0-2.72.92l-.52-.89a6.83,6.83,0,0,1,3.47-1.12,2.89,2.89,0,0,1,3.17,3.2v4.77h-1.11L453.6,453h-.05a5.23,5.23,0,0,1-3.05,1.25C449,454.27,447.84,453.45,447.84,452.06Zm5.65,0v-2c-3.33.25-4.34.91-4.34,1.94,0,.88.8,1.23,1.7,1.23A4.28,4.28,0,0,0,453.49,452.05Z"/><path d="M460.1,451.47v-7.72h-2.76v-1.07h4.08v8.88a1.41,1.41,0,0,0,1.54,1.61,3.55,3.55,0,0,0,1.46-.36l.33,1a4.77,4.77,0,0,1-2.08.46C461,454.27,460.1,453.31,460.1,451.47Z"/><path d="M469.7,451.47v-7.72h-2.76v-1.07H471v8.88a1.41,1.41,0,0,0,1.54,1.61,3.55,3.55,0,0,0,1.46-.36l.33,1a4.77,4.77,0,0,1-2.08.46C470.61,454.27,469.7,453.31,469.7,451.47Z"/><path d="M476.32,455.18H484v1.14h-7.68Z"/><path d="M488.26,451.05v-3.68h-2.21v-1l2.25-.08.18-2.5h1.1v2.5h3.81v1.07h-3.81v3.7c0,1.39.47,2.11,2,2.11a5.09,5.09,0,0,0,1.86-.35l.29,1a7,7,0,0,1-2.44.46C489,454.27,488.26,453,488.26,451.05Z"/><path d="M495.84,452.06c0-1.74,1.63-2.59,5.65-2.91a1.85,1.85,0,0,0-2.07-1.95,5.52,5.52,0,0,0-2.72.92l-.53-.89a6.86,6.86,0,0,1,3.48-1.12,2.89,2.89,0,0,1,3.17,3.2v4.77h-1.11L501.6,453h-.05a5.25,5.25,0,0,1-3.05,1.25C497,454.27,495.84,453.45,495.84,452.06Zm5.65,0v-2c-3.33.25-4.34.91-4.34,1.94,0,.88.8,1.23,1.7,1.23A4.28,4.28,0,0,0,501.49,452.05Z"/><path d="M506.88,453.21h-.05l-.13.87h-1.05v-11.4H507v3.11l-.06,1.5h0a3.82,3.82,0,0,1,2.61-1.18c2.09,0,3.23,1.55,3.23,3.95,0,2.66-1.66,4.21-3.5,4.21A3.83,3.83,0,0,1,506.88,453.21Zm4.56-3.13c0-1.72-.64-2.85-2.19-2.85a3.32,3.32,0,0,0-2.28,1.15v3.87a3.27,3.27,0,0,0,2.1.9C510.42,453.15,511.44,452,511.44,450.08Z"/><path d="M517.7,451.47v-7.72h-2.76v-1.07H519v8.88a1.41,1.41,0,0,0,1.54,1.61,3.55,3.55,0,0,0,1.46-.36l.33,1a4.77,4.77,0,0,1-2.08.46C518.61,454.27,517.7,453.31,517.7,451.47Z"/><path d="M524.45,450.17a3.9,3.9,0,0,1,4-4.06,3.34,3.34,0,0,1,3.55,3.65,4.49,4.49,0,0,1-.07.8h-6.57v-1h5.79l-.34.37c0-1.84-.91-2.75-2.33-2.75a2.74,2.74,0,0,0-2.69,3,2.82,2.82,0,0,0,3,3,4.23,4.23,0,0,0,2.37-.73l.48.86a5.35,5.35,0,0,1-3,.93A3.93,3.93,0,0,1,524.45,450.17Z"/><path d="M536.56,442.75H541v.75h-3.38v12.26H541v.75h-4.43Z"/><path d="M543.52,455.18h7.68v1.14h-7.68Z"/><path d="M553.12,455.18h7.68v1.14h-7.68Z"/><path d="M563.07,443.58h1.47l3.36,6.59,1,2.18h0c0-1-.17-2.23-.17-3.33v-5.44h1.28v10.5h-1.47l-3.37-6.6-1-2.17h0c.05,1.07.18,2.19.18,3.28v5.49h-1.28Z"/><path d="M572.94,443.58h3.28c2.13,0,3.68.77,3.68,3s-1.55,3.1-3.68,3.1H574.3v4.44h-1.36Zm3.09,5c1.63,0,2.53-.68,2.53-2s-.9-1.87-2.53-1.87H574.3v3.89Zm1,0,3.2,5.51h-1.52l-2.74-4.8Z"/><path d="M581.92,455.18h7.68v1.14h-7.68Z"/><path d="M591.71,455.5a2.17,2.17,0,0,1,1.28-1.73v-.06a1.39,1.39,0,0,1-.8-1.28,1.9,1.9,0,0,1,.93-1.46v-.06a2.48,2.48,0,0,1-1-2,2.85,2.85,0,0,1,3.05-2.78,3.17,3.17,0,0,1,1.16.19h3.21v1.07h-2a2.37,2.37,0,0,1,.65,1.57,2.73,2.73,0,0,1-3,2.67,3.36,3.36,0,0,1-1.31-.28,1.06,1.06,0,0,0-.61.89c0,.61.6.9,1.62.9h1.75c2,0,3,.51,3,1.82s-1.68,2.72-4.33,2.72C593,457.66,591.71,456.88,591.71,455.5Zm6.61-.35c0-.74-.59-.94-1.78-.94H595a4.58,4.58,0,0,1-1.18-.13c-.74.4-1,.85-1,1.29,0,.82.88,1.33,2.54,1.33C597.2,456.7,598.32,456,598.32,455.15ZM597,448.89a1.8,1.8,0,1,0-1.8,1.84A1.75,1.75,0,0,0,597,448.89Z"/><path d="M601.24,450.17a3.91,3.91,0,0,1,4-4.06,3.34,3.34,0,0,1,3.56,3.65,4.49,4.49,0,0,1-.07.8h-6.57v-1h5.79l-.34.37c0-1.84-.91-2.75-2.33-2.75a2.74,2.74,0,0,0-2.69,3,2.82,2.82,0,0,0,3,3,4.23,4.23,0,0,0,2.37-.73l.48.86a5.35,5.35,0,0,1-3,.93A3.94,3.94,0,0,1,601.24,450.17Z"/><path d="M613.05,451.05v-3.68h-2.21v-1l2.26-.08.18-2.5h1.1v2.5h3.81v1.07h-3.81v3.7c0,1.39.47,2.11,2,2.11a5.09,5.09,0,0,0,1.86-.35l.29,1a7,7,0,0,1-2.44.46C613.79,454.27,613.05,453,613.05,451.05Z"/><path d="M620.84,446.3h1.09l.11,1h.05a4.13,4.13,0,0,1,2.69-1.18c2.1,0,3.22,1.55,3.22,4,0,2.64-1.67,4.19-3.54,4.19a3.71,3.71,0,0,1-2.32-1h0l.06,1.47v2.63h-1.33Zm5.8,3.78c0-1.72-.64-2.85-2.19-2.85a3.32,3.32,0,0,0-2.28,1.15v3.87a3.24,3.24,0,0,0,2.07.9C625.61,453.15,626.64,452,626.64,450.08Z"/><path d="M634,447.37h-3.6V446.3h4.93v7.78H634Zm-.53-3.73a1.06,1.06,0,1,1,1.06,1A1,1,0,0,1,633.47,443.64Z"/><path d="M639.52,450.2c0-2.52,1.68-4.09,3.52-4.09a3.32,3.32,0,0,1,2.33,1h0l-.07-1.43v-3h1.33v11.4h-1.09l-.11-1h-.05a3.73,3.73,0,0,1-2.54,1.22C640.86,454.27,639.52,452.8,639.52,450.2Zm5.82,1.8v-3.88a2.89,2.89,0,0,0-2-.89c-1.35,0-2.43,1.18-2.43,3s.86,3,2.29,3A2.93,2.93,0,0,0,645.34,452Z"/><path d="M649.72,455.76h3.38V443.5h-3.38v-.75h4.44v13.76h-4.44Z"/><path d="M354.07,472.11a1.3,1.3,0,1,1,1.29,1.36A1.29,1.29,0,0,1,354.07,472.11Z"/><path d="M363.67,472.11a1.3,1.3,0,1,1,1.29,1.36A1.29,1.29,0,0,1,363.67,472.11Z"/><path d="M373.27,472.11a1.3,1.3,0,1,1,1.29,1.36A1.29,1.29,0,0,1,373.27,472.11Z"/><path d="M351.7,491.45l.6-.88a5.58,5.58,0,0,0,3.38,1.06c1.31,0,1.95-.54,1.95-1.2s-.3-1-2.41-1.44-3-1.11-3-2.27,1.1-2.21,3.23-2.21a5.85,5.85,0,0,1,3.14,1l-.64.85a4.57,4.57,0,0,0-2.61-.82c-1.31,0-1.79.53-1.79,1.12s.67,1,2.27,1.3c2.57.56,3.2,1.2,3.2,2.4s-1.23,2.32-3.46,2.32A6.78,6.78,0,0,1,351.7,491.45Z"/><path d="M361.23,495.66l.27-1.05a2.7,2.7,0,0,0,.71.11,2.26,2.26,0,0,0,2.13-1.65l.22-.58-3.62-7.79h1.35l1.89,4.29c.3.69.64,1.5,1,2.26h.06c.27-.74.58-1.56.83-2.26l1.69-4.29H369l-3.45,8.42c-.57,1.53-1.52,2.7-3.29,2.7A3.18,3.18,0,0,1,361.23,495.66Z"/><path d="M370.9,491.45l.6-.88a5.58,5.58,0,0,0,3.38,1.06c1.31,0,1.95-.54,1.95-1.2s-.3-1-2.41-1.44-3-1.11-3-2.27,1.1-2.21,3.23-2.21a5.85,5.85,0,0,1,3.14,1l-.64.85a4.57,4.57,0,0,0-2.61-.82c-1.31,0-1.79.53-1.79,1.12s.67,1,2.27,1.3c2.57.56,3.2,1.2,3.2,2.4s-1.23,2.32-3.46,2.32A6.78,6.78,0,0,1,370.9,491.45Z"/><path d="M381.68,484.7h1.1l.13,1.84h0a4.1,4.1,0,0,1,3.48-2,3.33,3.33,0,0,1,1.54.32l-.31,1.13a4,4,0,0,0-1.44-.25c-1.17,0-2.27.59-3.2,2.22v4.55h-1.33Z"/><path d="M390.05,488.57a3.91,3.91,0,0,1,4-4.06,3.34,3.34,0,0,1,3.55,3.65,5.82,5.82,0,0,1-.06.8h-6.58v-1h5.79l-.33.37c0-1.84-.92-2.75-2.34-2.75a2.74,2.74,0,0,0-2.69,3,2.82,2.82,0,0,0,3,3,4.21,4.21,0,0,0,2.37-.73l.48.86a5.35,5.35,0,0,1-3,.93A3.93,3.93,0,0,1,390.05,488.57Z"/><path d="M401.86,489.45v-3.68h-2.21v-1l2.25-.08.18-2.5h1.11v2.5H407v1.07h-3.81v3.7c0,1.39.46,2.11,2,2.11a5.09,5.09,0,0,0,1.86-.35l.29,1a7,7,0,0,1-2.43.46C402.59,492.67,401.86,491.37,401.86,489.45Z"/><path d="M415,492.93l.06-1.44h0a3.65,3.65,0,0,1-2.5,1.18c-2,0-3.36-1.47-3.36-4.07s1.68-4.09,3.52-4.09a3.33,3.33,0,0,1,2.4,1.05h0l.13-.86h1v11.06H415Zm0-2.53v-3.88a2.91,2.91,0,0,0-2-.89c-1.34,0-2.43,1.18-2.43,3s.86,3,2.29,3A2.93,2.93,0,0,0,415,490.4Z"/><rect class="cls-3" x="35.62" y="75.66" width="215.38" height="134.95"/><path class="cls-2" d="M250,76.66v133H36.62v-133H250m2-2H34.62v137H252v-137Z"/><path d="M53.5,103.55h6.6v.93H53.5Zm.32-3.28h6.6v.93h-6.6Zm1.84-2.93h.85l-1.26,10.41h-.87Zm3,0h.85l-1.27,10.41h-.86Z"/><path d="M66.75,101h-3.6V100h4.93v7.78H66.75Zm-.53-3.73a1.06,1.06,0,1,1,1.06,1A1,1,0,0,1,66.22,97.31Z"/><path d="M72.8,100h1.09l.11,1.31h.06A4,4,0,0,1,77,99.78c1.84,0,2.69,1.08,2.69,3.13v4.84H78.35v-4.66c0-1.47-.51-2.16-1.77-2.16a3.31,3.31,0,0,0-2.45,1.39v5.43H72.8Z"/><path d="M82.19,103.87a4,4,0,0,1,4.34-4.09,4,4,0,0,1,2.83,1.13l-.66.85a3.22,3.22,0,0,0-2.12-.88,2.86,2.86,0,0,0-3,3,2.82,2.82,0,0,0,3,3,3.71,3.71,0,0,0,2.4-1l.6.86a4.65,4.65,0,0,1-3.09,1.22A3.93,3.93,0,0,1,82.19,103.87Z"/><path d="M94.45,105.14V97.42H91.69V96.35h4.09v8.88a1.4,1.4,0,0,0,1.53,1.6,3.52,3.52,0,0,0,1.46-.35l.33,1a4.77,4.77,0,0,1-2.08.46C95.36,107.94,94.45,107,94.45,105.14Z"/><path d="M101.34,104.8V100h1.33v4.66c0,1.45.51,2.16,1.79,2.16a3.08,3.08,0,0,0,2.42-1.43V100h1.33v7.78H107.1l-.11-1.36h-.06a3.81,3.81,0,0,1-2.9,1.55C102.19,107.94,101.34,106.85,101.34,104.8Z"/><path d="M110.67,103.87c0-2.53,1.68-4.09,3.52-4.09a3.32,3.32,0,0,1,2.34,1h0l-.06-1.43v-3h1.32v11.4h-1.08l-.12-1h0a3.73,3.73,0,0,1-2.55,1.22C112,107.94,110.67,106.47,110.67,103.87Zm5.83,1.8v-3.88a2.91,2.91,0,0,0-2-.89c-1.34,0-2.43,1.18-2.43,3s.86,3,2.29,3A3,3,0,0,0,116.5,105.67Z"/><path d="M120.4,103.84a3.91,3.91,0,0,1,4-4.06,3.34,3.34,0,0,1,3.55,3.65,5.82,5.82,0,0,1-.06.8h-6.58v-1h5.79l-.33.37c0-1.84-.92-2.75-2.34-2.75a2.74,2.74,0,0,0-2.69,3,2.82,2.82,0,0,0,3,3,4.29,4.29,0,0,0,2.37-.73l.48.86a5.35,5.35,0,0,1-3,.93A3.94,3.94,0,0,1,120.4,103.84Z"/><path d="M140.43,103v-1l6-4v1.28l-4.8,3.23v.06l4.8,3.24V107Z"/><path d="M149.34,104.8V100h1.33v4.66c0,1.45.51,2.16,1.79,2.16a3.1,3.1,0,0,0,2.42-1.43V100h1.33v7.78H155.1l-.11-1.36h-.06a3.81,3.81,0,0,1-2.9,1.55C150.19,107.94,149.34,106.85,149.34,104.8Z"/><path d="M159.2,100h1.09l.11,1.31h.06a4,4,0,0,1,2.93-1.5c1.84,0,2.69,1.08,2.69,3.13v4.84h-1.33v-4.66c0-1.47-.51-2.16-1.78-2.16a3.31,3.31,0,0,0-2.44,1.39v5.43H159.2Z"/><path d="M172.35,101h-3.6V100h4.93v7.78h-1.33Zm-.53-3.73a1.06,1.06,0,0,1,2.11,0,1.06,1.06,0,0,1-2.11,0Z"/><path d="M178,106.72l.61-.88A5.56,5.56,0,0,0,182,106.9c1.31,0,1.95-.55,1.95-1.2s-.3-1-2.41-1.44-3-1.11-3-2.28,1.11-2.2,3.24-2.2a5.85,5.85,0,0,1,3.14,1l-.65.85a4.54,4.54,0,0,0-2.6-.82c-1.32,0-1.8.53-1.8,1.12s.68,1,2.28,1.3c2.57.56,3.2,1.2,3.2,2.4s-1.24,2.32-3.46,2.32A6.84,6.84,0,0,1,178,106.72Z"/><path d="M189.81,104.72V101H187.6v-1l2.25-.08.18-2.5h1.1V100h3.81V101h-3.81v3.7c0,1.39.47,2.11,2,2.11a5.09,5.09,0,0,0,1.86-.35l.29,1a7,7,0,0,1-2.44.46C190.54,107.94,189.81,106.64,189.81,104.72Z"/><path d="M197.07,103.87c0-2.53,1.68-4.09,3.52-4.09a3.32,3.32,0,0,1,2.34,1h0l-.07-1.43v-3h1.33v11.4h-1.09l-.11-1H203a3.71,3.71,0,0,1-2.54,1.22C198.41,107.94,197.07,106.47,197.07,103.87Zm5.82,1.8v-3.88a2.89,2.89,0,0,0-2-.89c-1.34,0-2.43,1.18-2.43,3s.86,3,2.29,3A2.93,2.93,0,0,0,202.89,105.67Z"/><path d="M209.21,106.58a1.3,1.3,0,1,1,1.3,1.36A1.3,1.3,0,0,1,209.21,106.58Z"/><path d="M216.8,96.35h1.32v3.11L218,101.3h.05a3.9,3.9,0,0,1,2.9-1.52c1.84,0,2.69,1.08,2.69,3.13v4.84h-1.33v-4.66c0-1.47-.51-2.16-1.78-2.16a3.34,3.34,0,0,0-2.45,1.39v5.43H216.8Z"/><path d="M226.62,105.7l4.8-3.24v-.06l-4.8-3.23V97.89l6,4v1l-6,4Z"/><path d="M55.62,145a1.3,1.3,0,1,1,1.29,1.36A1.29,1.29,0,0,1,55.62,145Z"/><path d="M65.21,145a1.3,1.3,0,1,1,1.3,1.36A1.3,1.3,0,0,1,65.21,145Z"/><path d="M74.81,145a1.3,1.3,0,1,1,1.3,1.36A1.3,1.3,0,0,1,74.81,145Z"/><path d="M53.6,157.57h1.09l.11,1h.05a4.11,4.11,0,0,1,2.69-1.18c2.09,0,3.21,1.55,3.21,4,0,2.64-1.66,4.19-3.53,4.19a3.68,3.68,0,0,1-2.32-1h0l.07,1.47v2.63H53.6Zm5.79,3.78c0-1.72-.64-2.85-2.19-2.85a3.28,3.28,0,0,0-2.27,1.15v3.87a3.22,3.22,0,0,0,2.06.9C58.37,164.42,59.39,163.27,59.39,161.35Z"/><path d="M66.75,158.64h-3.6v-1.07h4.93v7.78H66.75Zm-.53-3.73a1.06,1.06,0,1,1,1.06,1A1,1,0,0,1,66.22,154.91Z"/><path d="M72.27,161.47c0-2.53,1.68-4.09,3.52-4.09a3.32,3.32,0,0,1,2.34,1h0l-.06-1.43v-3h1.32v11.4H78.34l-.12-1h0a3.73,3.73,0,0,1-2.55,1.22C73.61,165.54,72.27,164.07,72.27,161.47Zm5.83,1.8v-3.88a2.91,2.91,0,0,0-2-.89c-1.34,0-2.43,1.18-2.43,3s.86,3,2.29,3A3,3,0,0,0,78.1,163.27Z"/><path d="M91.87,157.86h6.88v1H91.87Zm0,3.42h6.88v1H91.87Z"/><path d="M110.86,166.77a2.17,2.17,0,0,1,1.28-1.73V165a1.42,1.42,0,0,1-.8-1.28,1.9,1.9,0,0,1,.93-1.46v-.06a2.48,2.48,0,0,1-1-2,2.85,2.85,0,0,1,3.06-2.78,3.15,3.15,0,0,1,1.15.19h3.22v1.07h-2a2.38,2.38,0,0,1,.66,1.57,2.73,2.73,0,0,1-3,2.67,3.29,3.29,0,0,1-1.32-.29,1.07,1.07,0,0,0-.6.9c0,.61.59.9,1.61.9h1.75c2,0,3,.51,3,1.82s-1.68,2.72-4.32,2.72C112.17,168.93,110.86,168.15,110.86,166.77Zm6.61-.35c0-.74-.59-.94-1.77-.94h-1.53a4.68,4.68,0,0,1-1.18-.13c-.74.4-1,.85-1,1.29,0,.82.88,1.33,2.54,1.33S117.47,167.22,117.47,166.42Zm-1.31-6.26a1.8,1.8,0,1,0-1.79,1.84A1.75,1.75,0,0,0,116.16,160.16Z"/><path d="M120.4,161.44a3.91,3.91,0,0,1,4-4.06,3.34,3.34,0,0,1,3.55,3.65,5.82,5.82,0,0,1-.06.8h-6.58v-1h5.79l-.33.37c0-1.84-.92-2.75-2.34-2.75a2.74,2.74,0,0,0-2.69,3,2.82,2.82,0,0,0,3,3,4.29,4.29,0,0,0,2.37-.73l.48.86a5.35,5.35,0,0,1-3,.93A3.94,3.94,0,0,1,120.4,161.44Z"/><path d="M132.21,162.32v-3.68H130v-1l2.25-.08.18-2.5h1.1v2.5h3.81v1.07h-3.81v3.7c0,1.39.47,2.11,2,2.11a5.09,5.09,0,0,0,1.86-.35l.29,1a7,7,0,0,1-2.43.46C132.94,165.54,132.21,164.24,132.21,162.32Z"/><path d="M140,157.57h1.09l.11,1h.05a4.1,4.1,0,0,1,2.68-1.18c2.1,0,3.22,1.55,3.22,4,0,2.64-1.66,4.19-3.54,4.19a3.71,3.71,0,0,1-2.32-1h0l.07,1.47v2.63H140Zm5.79,3.78c0-1.72-.64-2.85-2.19-2.85a3.28,3.28,0,0,0-2.27,1.15v3.87a3.22,3.22,0,0,0,2.06.9C144.77,164.42,145.79,163.27,145.79,161.35Z"/><path d="M153.15,158.64h-3.6v-1.07h4.93v7.78h-1.33Zm-.53-3.73a1.06,1.06,0,0,1,2.11,0,1.06,1.06,0,0,1-2.11,0Z"/><path d="M158.67,161.47c0-2.53,1.68-4.09,3.52-4.09a3.32,3.32,0,0,1,2.34,1h0l-.06-1.43v-3h1.32v11.4h-1.08l-.12-1h0a3.73,3.73,0,0,1-2.55,1.22C160,165.54,158.67,164.07,158.67,161.47Zm5.83,1.8v-3.88a2.93,2.93,0,0,0-2-.89c-1.34,0-2.43,1.18-2.43,3s.86,3,2.29,3A3,3,0,0,0,164.5,163.27Z"/><path d="M170.64,160.9a8.93,8.93,0,0,1,3.58-7.27l.74.67a8.5,8.5,0,0,0,0,13.19l-.74.67A8.89,8.89,0,0,1,170.64,160.9Z"/><path d="M178.86,167.49a8.5,8.5,0,0,0,0-13.19l.74-.67a9.16,9.16,0,0,1,0,14.53Z"/><path d="M55.62,183.38a1.3,1.3,0,1,1,1.29,1.36A1.29,1.29,0,0,1,55.62,183.38Z"/><path d="M65.21,183.38a1.3,1.3,0,1,1,1.3,1.36A1.3,1.3,0,0,1,65.21,183.38Z"/><path d="M74.81,183.38a1.3,1.3,0,1,1,1.3,1.36A1.3,1.3,0,0,1,74.81,183.38Z"/><rect class="cls-4" x="308.06" y="75.66" width="264.38" height="196.48"/><path class="cls-2" d="M571.44,76.66V271.14H309.06V76.66H571.44m2-2H307.06V273.14H573.44V74.66Z"/><path d="M335.8,111.13a2.18,2.18,0,0,1,1.28-1.73v-.06a1.41,1.41,0,0,1-.8-1.28,1.9,1.9,0,0,1,.93-1.46v-.06a2.48,2.48,0,0,1-1-2,2.86,2.86,0,0,1,3.06-2.78,3.08,3.08,0,0,1,1.15.19h3.22V103h-2a2.38,2.38,0,0,1,.66,1.57,2.72,2.72,0,0,1-3,2.67A3.36,3.36,0,0,1,338,107a1.05,1.05,0,0,0-.61.89c0,.61.59.9,1.61.9h1.75c2,0,3,.51,3,1.82,0,1.46-1.68,2.72-4.32,2.72C337.12,113.29,335.8,112.51,335.8,111.13Zm6.61-.35c0-.74-.59-.94-1.77-.94h-1.52a4.29,4.29,0,0,1-1.19-.13c-.73.4-1,.85-1,1.3,0,.81.88,1.32,2.54,1.32S342.41,111.58,342.41,110.78Zm-1.31-6.26a1.79,1.79,0,1,0-1.79,1.84A1.75,1.75,0,0,0,341.1,104.52Z"/><path d="M345.34,105.8a3.91,3.91,0,0,1,4-4.06,3.34,3.34,0,0,1,3.55,3.65,5.82,5.82,0,0,1-.06.8h-6.58v-1H352l-.33.37c0-1.84-.91-2.75-2.34-2.75a2.74,2.74,0,0,0-2.69,3,2.82,2.82,0,0,0,3,3,4.21,4.21,0,0,0,2.37-.73l.48.86a5.35,5.35,0,0,1-3,.93A3.94,3.94,0,0,1,345.34,105.8Z"/><path d="M357.15,106.68V103h-2.21v-1l2.26-.08.17-2.5h1.11v2.5h3.81V103h-3.81v3.7c0,1.39.46,2.11,2,2.11a5,5,0,0,0,1.85-.35l.29,1a6.92,6.92,0,0,1-2.43.46C357.88,109.9,357.15,108.6,357.15,106.68Z"/><path d="M364.94,101.93H366l.11,1h.05a4.11,4.11,0,0,1,2.69-1.18c2.09,0,3.21,1.55,3.21,4,0,2.64-1.66,4.19-3.53,4.19a3.68,3.68,0,0,1-2.32-1h0l.07,1.48V113h-1.33Zm5.79,3.78c0-1.72-.64-2.85-2.19-2.85a3.28,3.28,0,0,0-2.27,1.15v3.87a3.22,3.22,0,0,0,2.06.9C369.71,108.78,370.73,107.63,370.73,105.71Z"/><path d="M378.09,103h-3.6v-1.07h4.93v7.78h-1.33Zm-.53-3.73a1.06,1.06,0,1,1,1.06,1A1,1,0,0,1,377.56,99.27Z"/><path d="M383.61,105.84c0-2.53,1.68-4.1,3.52-4.1a3.36,3.36,0,0,1,2.34,1h0l-.06-1.42v-3h1.33v11.4h-1.09l-.12-1h0A3.73,3.73,0,0,1,387,109.9C385,109.9,383.61,108.43,383.61,105.84Zm5.83,1.79v-3.88a2.91,2.91,0,0,0-2-.89c-1.34,0-2.43,1.18-2.43,3s.86,3,2.29,3A2.93,2.93,0,0,0,389.44,107.63Z"/><path d="M395.58,105.26A8.93,8.93,0,0,1,399.16,98l.74.67a8.5,8.5,0,0,0,0,13.19l-.74.68A8.93,8.93,0,0,1,395.58,105.26Z"/><path d="M403.8,111.85a8.5,8.5,0,0,0,0-13.19l.74-.67a9.17,9.17,0,0,1,0,14.54Z"/><path d="M338.73,129.21c0-1.17.16-2,.16-3.09,0-.62-.43-1.23-2.32-1.24V124c1.89,0,2.32-.62,2.32-1.25,0-1-.16-2-.16-3.08,0-1.65,1-2.13,3-2.13h1v.75h-.84c-1.63,0-2,.42-2,1.46s.09,1.9.09,2.89a1.5,1.5,0,0,1-1.45,1.75v.06a1.5,1.5,0,0,1,1.45,1.75c0,1.08-.09,1.92-.09,2.89s.35,1.46,2,1.46h.84v.75h-1C339.69,131.34,338.73,130.86,338.73,129.21Z"/><path d="M357.36,146.94a1.3,1.3,0,1,1,1.29,1.36A1.29,1.29,0,0,1,357.36,146.94Z"/><path d="M367,146.94a1.3,1.3,0,1,1,1.29,1.36A1.29,1.29,0,0,1,367,146.94Z"/><path d="M376.56,146.94a1.3,1.3,0,1,1,1.29,1.36A1.29,1.29,0,0,1,376.56,146.94Z"/><path d="M354.78,159.53h1.06l.11,1h0a1.93,1.93,0,0,1,1.78-1.21c.76,0,1.24.45,1.47,1.34.45-.83.93-1.34,1.82-1.34,1.09,0,1.73.85,1.73,2.4v5.57h-1.31v-5.47c0-.9-.26-1.37-.83-1.37s-.83.4-1.25,1.2v5.64h-1.22v-5.47c0-.9-.22-1.37-.8-1.37s-.89.4-1.28,1.2v5.64h-1.31Z"/><path d="M364.41,163.44a3.85,3.85,0,1,1,3.84,4.06A3.81,3.81,0,0,1,364.41,163.44Zm6.32,0c0-1.8-1-3-2.48-3s-2.48,1.2-2.48,3,1,3,2.48,3S370.73,165.21,370.73,163.44Z"/><path d="M373.85,159.53h1.36l1.79,4.4c.31.79.6,1.55.87,2.31h.06c.27-.76.53-1.52.85-2.31l1.79-4.4h1.28l-3.23,7.78h-1.49Z"/><path d="M394.57,159.53h1.11l.12,1.84h0a4.1,4.1,0,0,1,3.47-2,3.28,3.28,0,0,1,1.54.32l-.31,1.13a4,4,0,0,0-1.44-.25c-1.17,0-2.27.59-3.2,2.22v4.55h-1.33Z"/><path d="M403.13,165.29c0-1.74,1.63-2.59,5.65-2.91a1.84,1.84,0,0,0-2.06-1.95,5.48,5.48,0,0,0-2.72.92l-.53-.89a6.83,6.83,0,0,1,3.47-1.12,2.89,2.89,0,0,1,3.17,3.2v4.77H409l-.11-1.06h-.05a5.2,5.2,0,0,1-3,1.25C404.33,167.5,403.13,166.69,403.13,165.29Zm5.65,0v-2c-3.33.26-4.34.91-4.34,1.94s.8,1.23,1.7,1.23A4.28,4.28,0,0,0,408.78,165.28Z"/><path d="M415.42,163.28l-2.72-3.75h1.45l1.24,1.7c.27.43.59.89.91,1.31h.06c.29-.42.61-.9.88-1.33l1.16-1.68h1.41l-2.76,3.86,3,3.92h-1.47l-1.35-1.79c-.33-.44-.69-1-1-1.41h-.07c-.32.46-.64.93-1,1.42l-1.28,1.78h-1.41Z"/><path d="M424.19,169.89a2.86,2.86,0,0,0,2-2.8l-.28-1.48.89,1.27a1.1,1.1,0,0,1-.89.37,1.15,1.15,0,0,1-1.25-1.21,1.19,1.19,0,0,1,1.28-1.21c.94,0,1.44.78,1.44,2a3.94,3.94,0,0,1-2.82,3.84Z"/><path d="M441.21,168.41h7.68v1.14h-7.68Z"/><path d="M450.81,168.41h7.68v1.14h-7.68Z"/><path d="M460.76,156.81h1.47l3.37,6.59,1,2.18h0c-.05-1-.18-2.22-.18-3.33v-5.44h1.28v10.5h-1.47l-3.36-6.6-1-2.17h0c0,1.07.17,2.19.17,3.28v5.49h-1.28Z"/><path d="M470.63,156.81h3.28c2.13,0,3.69.77,3.69,3s-1.56,3.11-3.69,3.11H472v4.43h-1.36Zm3.09,5c1.64,0,2.53-.68,2.53-2s-.89-1.87-2.53-1.87H472v3.89Zm1,0,3.2,5.51h-1.52l-2.74-4.8Z"/><path d="M479.61,168.41h7.68v1.14h-7.68Z"/><path d="M489.4,168.73a2.18,2.18,0,0,1,1.28-1.73v-.06a1.41,1.41,0,0,1-.8-1.28,1.9,1.9,0,0,1,.93-1.46v-.06a2.48,2.48,0,0,1-1-2,2.86,2.86,0,0,1,3.06-2.78,3.15,3.15,0,0,1,1.15.19h3.22v1.07h-2a2.38,2.38,0,0,1,.66,1.57,2.72,2.72,0,0,1-3,2.67,3.45,3.45,0,0,1-1.32-.28,1.06,1.06,0,0,0-.6.89c0,.61.59.9,1.61.9h1.75c2,0,3,.51,3,1.82,0,1.46-1.68,2.72-4.32,2.72C490.71,170.89,489.4,170.11,489.4,168.73Zm6.61-.35c0-.73-.59-.94-1.78-.94h-1.52a4.26,4.26,0,0,1-1.18-.13c-.74.4-1,.85-1,1.3,0,.81.88,1.32,2.54,1.32C494.89,169.93,496,169.18,496,168.38Zm-1.31-6.26a1.8,1.8,0,1,0-1.79,1.84A1.75,1.75,0,0,0,494.7,162.12Z"/><path d="M498.94,163.4a3.91,3.91,0,0,1,4-4.06,3.34,3.34,0,0,1,3.55,3.65,5.82,5.82,0,0,1-.06.8h-6.58v-1h5.79l-.34.37c0-1.84-.91-2.75-2.33-2.75a2.74,2.74,0,0,0-2.69,3,2.82,2.82,0,0,0,3,3,4.21,4.21,0,0,0,2.37-.73l.48.86a5.27,5.27,0,0,1-3,.93A3.93,3.93,0,0,1,498.94,163.4Z"/><path d="M510.75,164.28V160.6h-2.21v-1l2.25-.08L511,157h1.1v2.5h3.81v1.07h-3.81v3.7c0,1.39.47,2.11,2,2.11a5.09,5.09,0,0,0,1.86-.35l.29,1a7,7,0,0,1-2.44.46C511.48,167.5,510.75,166.2,510.75,164.28Z"/><path d="M518.54,159.53h1.09l.11,1h0a4.1,4.1,0,0,1,2.68-1.18c2.1,0,3.22,1.55,3.22,4,0,2.64-1.66,4.19-3.54,4.19a3.71,3.71,0,0,1-2.32-1h0l.07,1.48v2.62h-1.33Zm5.79,3.78c0-1.72-.64-2.85-2.19-2.85a3.28,3.28,0,0,0-2.27,1.15v3.87a3.22,3.22,0,0,0,2.06.9C523.31,166.38,524.33,165.23,524.33,163.31Z"/><path d="M531.69,160.6h-3.6v-1.07H533v7.78h-1.33Zm-.53-3.73a1.06,1.06,0,0,1,2.11,0,1.06,1.06,0,0,1-2.11,0Z"/><path d="M537.21,163.44c0-2.53,1.68-4.1,3.52-4.1a3.36,3.36,0,0,1,2.34,1h0l-.07-1.42v-3h1.33v11.4h-1.09l-.11-1h0a3.71,3.71,0,0,1-2.54,1.22C538.55,167.5,537.21,166,537.21,163.44Zm5.82,1.79v-3.88a2.89,2.89,0,0,0-2-.89c-1.34,0-2.43,1.18-2.43,3s.86,3,2.29,3A2.9,2.9,0,0,0,543,165.23Z"/><path d="M355,185.48l.61-.88a5.53,5.53,0,0,0,3.37,1.06c1.32,0,2-.54,2-1.2s-.31-1-2.42-1.44-3-1.1-3-2.27,1.1-2.21,3.23-2.21a5.82,5.82,0,0,1,3.14,1l-.64.85a4.57,4.57,0,0,0-2.61-.82c-1.31,0-1.79.53-1.79,1.12s.67,1,2.27,1.3c2.58.56,3.2,1.2,3.2,2.4s-1.23,2.32-3.46,2.32A6.78,6.78,0,0,1,355,185.48Z"/><path d="M364.52,189.69l.28-1.05a2.57,2.57,0,0,0,.7.11,2.26,2.26,0,0,0,2.13-1.65l.22-.58-3.62-7.79h1.35l1.89,4.29c.3.69.64,1.5,1,2.26h.06c.27-.74.58-1.56.84-2.26l1.68-4.29h1.28l-3.45,8.42c-.57,1.54-1.52,2.7-3.29,2.7A3.23,3.23,0,0,1,364.52,189.69Z"/><path d="M374.19,185.48l.6-.88a5.58,5.58,0,0,0,3.38,1.06c1.31,0,2-.54,2-1.2s-.31-1-2.42-1.44-3-1.1-3-2.27,1.1-2.21,3.23-2.21a5.85,5.85,0,0,1,3.14,1l-.64.85a4.57,4.57,0,0,0-2.61-.82c-1.31,0-1.79.53-1.79,1.12s.67,1,2.27,1.3c2.58.56,3.2,1.2,3.2,2.4s-1.23,2.32-3.46,2.32A6.78,6.78,0,0,1,374.19,185.48Z"/><path d="M383.93,182.64a4,4,0,0,1,4.34-4.1,4,4,0,0,1,2.83,1.13l-.66.85a3.22,3.22,0,0,0-2.12-.88,2.86,2.86,0,0,0-3,3,2.83,2.83,0,0,0,3,3,3.77,3.77,0,0,0,2.41-1l.59.86a4.65,4.65,0,0,1-3.09,1.22A3.93,3.93,0,0,1,383.93,182.64Z"/><path d="M393.53,184.49c0-1.74,1.63-2.59,5.65-2.91a1.84,1.84,0,0,0-2.06-2,5.48,5.48,0,0,0-2.72.92l-.53-.89a6.83,6.83,0,0,1,3.47-1.12,2.89,2.89,0,0,1,3.17,3.2v4.77H399.4l-.11-1.06h-.05a5.2,5.2,0,0,1-3.05,1.25C394.73,186.7,393.53,185.88,393.53,184.49Zm5.65,0v-2c-3.33.26-4.34.91-4.34,1.94,0,.88.8,1.23,1.7,1.23A4.28,4.28,0,0,0,399.18,184.48Z"/><path d="M405.79,183.9v-7.72H403v-1.07h4.09V184a1.4,1.4,0,0,0,1.53,1.6,3.55,3.55,0,0,0,1.46-.36l.34,1a4.81,4.81,0,0,1-2.09.46C406.7,186.7,405.79,185.74,405.79,183.9Z"/><path d="M415.39,183.9v-7.72h-2.76v-1.07h4.09V184a1.4,1.4,0,0,0,1.53,1.6,3.55,3.55,0,0,0,1.46-.36l.34,1a4.85,4.85,0,0,1-2.09.46C416.3,186.7,415.39,185.74,415.39,183.9Z"/><path d="M357.36,204.54a1.3,1.3,0,1,1,1.29,1.36A1.29,1.29,0,0,1,357.36,204.54Z"/><path d="M367,204.54a1.3,1.3,0,1,1,1.29,1.36A1.29,1.29,0,0,1,367,204.54Z"/><path d="M376.56,204.54a1.3,1.3,0,1,1,1.29,1.36A1.29,1.29,0,0,1,376.56,204.54Z"/><path d="M356.17,217.13h1.11l.12,1.84h0a4.1,4.1,0,0,1,3.47-2,3.28,3.28,0,0,1,1.54.32l-.31,1.13a4,4,0,0,0-1.44-.25c-1.17,0-2.27.59-3.2,2.22v4.55h-1.33Z"/><path d="M364.54,221a3.91,3.91,0,0,1,4-4.06,3.34,3.34,0,0,1,3.55,3.65,5.82,5.82,0,0,1-.06.8h-6.58v-1h5.79l-.33.37c0-1.84-.91-2.75-2.34-2.75a2.74,2.74,0,0,0-2.69,3,2.82,2.82,0,0,0,3,3,4.21,4.21,0,0,0,2.37-.73l.48.86a5.27,5.27,0,0,1-3,.93A3.94,3.94,0,0,1,364.54,221Z"/><path d="M376.35,221.88V218.2h-2.21v-1l2.26-.08.17-2.5h1.11v2.5h3.81v1.07h-3.81v3.7c0,1.39.46,2.11,2,2.11a5,5,0,0,0,1.85-.35l.29,1a6.92,6.92,0,0,1-2.43.46C377.08,225.1,376.35,223.8,376.35,221.88Z"/><path d="M383.88,222v-4.83h1.33v4.66c0,1.45.51,2.16,1.79,2.16a3.08,3.08,0,0,0,2.42-1.43v-5.39h1.33v7.78h-1.11l-.11-1.36h-.06a3.81,3.81,0,0,1-2.9,1.55C384.73,225.1,383.88,224,383.88,222Z"/><path d="M394.57,217.13h1.11l.12,1.84h0a4.1,4.1,0,0,1,3.47-2,3.28,3.28,0,0,1,1.54.32l-.31,1.13a4,4,0,0,0-1.44-.25c-1.17,0-2.27.59-3.2,2.22v4.55h-1.33Z"/><path d="M403.34,217.13h1.09l.11,1.31h.06a4,4,0,0,1,2.93-1.5c1.84,0,2.69,1.09,2.69,3.14v4.83h-1.33v-4.66c0-1.47-.51-2.16-1.77-2.16a3.31,3.31,0,0,0-2.45,1.39v5.43h-1.33Z"/><path d="M414.59,227.49a2.86,2.86,0,0,0,2-2.8l-.28-1.48.89,1.27a1.1,1.1,0,0,1-.89.37,1.15,1.15,0,0,1-1.25-1.21,1.19,1.19,0,0,1,1.28-1.21c.94,0,1.44.78,1.44,2a3.94,3.94,0,0,1-2.82,3.84ZM415,218a1.3,1.3,0,1,1,1.29,1.36A1.29,1.29,0,0,1,415,218Z"/><path d="M336.24,245.79h.81c1.63,0,2-.42,2-1.46s-.09-1.81-.09-2.89.33-1.56,1.44-1.75v-.06c-1.11-.19-1.44-.71-1.44-1.75s.09-2,.09-2.89-.37-1.46-2-1.46h-.81v-.75h1c2,0,3,.48,3,2.13,0,1.1-.15,2.08-.15,3.08,0,.63.44,1.24,2.32,1.25v.84c-1.88,0-2.32.62-2.32,1.24,0,1.08.15,1.92.15,3.09,0,1.65-.93,2.13-3,2.13h-1Z"/><rect class="cls-1" x="41.01" y="374.57" width="244" height="115"/><path class="cls-2" d="M284,375.57v113H42v-113H284m2-2H40v117H286v-117Z"/><path d="M58.55,405.25l.6-.88a5.58,5.58,0,0,0,3.38,1.06c1.31,0,2-.54,2-1.2s-.3-1-2.41-1.44-3-1.11-3-2.27,1.1-2.21,3.23-2.21a5.85,5.85,0,0,1,3.14,1l-.64.85a4.57,4.57,0,0,0-2.61-.82c-1.32,0-1.8.53-1.8,1.12s.68,1,2.28,1.3c2.57.56,3.2,1.2,3.2,2.4s-1.23,2.32-3.46,2.32A6.78,6.78,0,0,1,58.55,405.25Z"/><path d="M68.08,409.46l.27-1a2.7,2.7,0,0,0,.71.11,2.26,2.26,0,0,0,2.13-1.65l.22-.58-3.62-7.79h1.35L71,402.79c.3.69.64,1.5,1,2.26h.06c.27-.74.58-1.56.83-2.26l1.68-4.29h1.28l-3.44,8.42c-.57,1.53-1.52,2.7-3.29,2.7A3.18,3.18,0,0,1,68.08,409.46Z"/><path d="M77.75,405.25l.6-.88a5.58,5.58,0,0,0,3.38,1.06c1.31,0,2-.54,2-1.2s-.3-1-2.41-1.44-3-1.11-3-2.27,1.1-2.21,3.23-2.21a5.85,5.85,0,0,1,3.14,1l-.64.85a4.57,4.57,0,0,0-2.61-.82c-1.32,0-1.8.53-1.8,1.12s.68,1,2.28,1.3c2.57.56,3.2,1.2,3.2,2.4s-1.23,2.32-3.46,2.32A6.78,6.78,0,0,1,77.75,405.25Z"/><path d="M87.17,407.38h7.68v1.14H87.17Z"/><path d="M97,407.7A2.17,2.17,0,0,1,98.24,406v-.06a1.41,1.41,0,0,1-.8-1.28,1.9,1.9,0,0,1,.93-1.46v-.06a2.48,2.48,0,0,1-1-2,2.86,2.86,0,0,1,3.06-2.78,3.12,3.12,0,0,1,1.15.19h3.22v1.07h-2a2.38,2.38,0,0,1,.66,1.57,2.73,2.73,0,0,1-3,2.67,3.29,3.29,0,0,1-1.32-.29,1.07,1.07,0,0,0-.6.9c0,.61.59.9,1.61.9h1.75c2,0,3,.51,3,1.82,0,1.46-1.68,2.72-4.32,2.72C98.27,409.86,97,409.08,97,407.7Zm6.61-.35c0-.74-.59-.94-1.77-.94h-1.53a4.68,4.68,0,0,1-1.18-.13c-.74.4-1,.85-1,1.29,0,.82.88,1.33,2.54,1.33C102.45,408.9,103.57,408.15,103.57,407.35Zm-1.31-6.26a1.8,1.8,0,1,0-1.79,1.84A1.75,1.75,0,0,0,102.26,401.09Z"/><path d="M106.5,402.37a3.91,3.91,0,0,1,4-4.06A3.34,3.34,0,0,1,114,402a5.82,5.82,0,0,1-.06.8h-6.58v-1h5.79l-.33.37c0-1.84-.92-2.75-2.34-2.75a2.74,2.74,0,0,0-2.69,3,2.82,2.82,0,0,0,3,3,4.21,4.21,0,0,0,2.37-.73l.48.86a5.35,5.35,0,0,1-3,.93A3.93,3.93,0,0,1,106.5,402.37Z"/><path d="M118.31,403.25v-3.68H116.1v-1l2.25-.08.18-2.5h1.1v2.5h3.81v1.07h-3.81v3.7c0,1.39.47,2.11,2,2.11a5.09,5.09,0,0,0,1.86-.35l.29,1a7,7,0,0,1-2.43.46C119,406.47,118.31,405.17,118.31,403.25Z"/><path d="M126.1,398.5h1.09l.11,1h0a4.11,4.11,0,0,1,2.69-1.18c2.09,0,3.21,1.55,3.21,4,0,2.64-1.66,4.19-3.54,4.19a3.71,3.71,0,0,1-2.32-1h0l.07,1.47v2.63H126.1Zm5.79,3.78c0-1.72-.64-2.85-2.19-2.85a3.28,3.28,0,0,0-2.27,1.15v3.87a3.22,3.22,0,0,0,2.06.9C130.87,405.35,131.89,404.2,131.89,402.28Z"/><path d="M139.25,399.57h-3.6V398.5h4.93v7.78h-1.33Zm-.53-3.73a1.06,1.06,0,0,1,2.11,0,1.06,1.06,0,0,1-2.11,0Z"/><path d="M144.77,402.4c0-2.52,1.68-4.09,3.52-4.09a3.32,3.32,0,0,1,2.34,1h0l-.07-1.43v-3h1.33v11.4h-1.09l-.11-1h-.05a3.71,3.71,0,0,1-2.54,1.22C146.11,406.47,144.77,405,144.77,402.4Zm5.82,1.8v-3.88a2.89,2.89,0,0,0-2-.89c-1.34,0-2.43,1.18-2.43,3s.86,3,2.29,3A2.9,2.9,0,0,0,150.59,404.2Z"/><path d="M156.74,401.83a8.93,8.93,0,0,1,3.58-7.27l.74.67a8.5,8.5,0,0,0,0,13.19l-.74.68A8.93,8.93,0,0,1,156.74,401.83Z"/><path d="M165,408.42a8.5,8.5,0,0,0,0-13.19l.74-.67a9.17,9.17,0,0,1,0,14.54Z"/><path d="M61.49,425.78c0-1.17.16-2,.16-3.09,0-.62-.43-1.23-2.32-1.25v-.83c1.89,0,2.32-.62,2.32-1.25,0-1-.16-2-.16-3.09,0-1.64,1-2.12,3-2.12h1v.75h-.83c-1.63,0-2,.41-2,1.45s.09,1.91.09,2.9A1.5,1.5,0,0,1,61.27,421v.06a1.5,1.5,0,0,1,1.45,1.75c0,1.08-.09,1.92-.09,2.89s.35,1.46,2,1.46h.83v.75h-1C62.45,427.91,61.49,427.43,61.49,425.78Z"/><path d="M78.93,436.9H80l.13,1.84h0a4.1,4.1,0,0,1,3.48-2,3.33,3.33,0,0,1,1.54.32l-.31,1.13a4,4,0,0,0-1.44-.25c-1.17,0-2.27.59-3.2,2.22v4.55H78.93Z"/><path d="M87.3,440.77a3.91,3.91,0,0,1,4-4.06,3.34,3.34,0,0,1,3.55,3.65,5.82,5.82,0,0,1-.06.8H88.18v-1H94l-.33.37c0-1.84-.92-2.75-2.34-2.75a2.74,2.74,0,0,0-2.69,3,2.82,2.82,0,0,0,3,3,4.21,4.21,0,0,0,2.37-.73l.48.86a5.35,5.35,0,0,1-3,.93A3.93,3.93,0,0,1,87.3,440.77Z"/><path d="M99.11,441.65V438H96.9v-1l2.25-.08.18-2.5h1.11v2.5h3.8V438h-3.8v3.7c0,1.39.46,2.11,2,2.11a5.09,5.09,0,0,0,1.86-.35l.29,1a7,7,0,0,1-2.43.46C99.84,444.87,99.11,443.57,99.11,441.65Z"/><path d="M106.64,441.73V436.9H108v4.66c0,1.45.51,2.16,1.79,2.16a3.1,3.1,0,0,0,2.42-1.43V436.9h1.33v7.78H112.4l-.11-1.36h-.06a3.81,3.81,0,0,1-2.9,1.55C107.49,444.87,106.64,443.78,106.64,441.73Z"/><path d="M117.33,436.9h1.1l.13,1.84h0a4.1,4.1,0,0,1,3.48-2,3.26,3.26,0,0,1,1.53.32l-.3,1.13a4,4,0,0,0-1.44-.25c-1.17,0-2.27.59-3.2,2.22v4.55h-1.33Z"/><path d="M126.1,436.9h1.09l.11,1.31h.06a4,4,0,0,1,2.93-1.5c1.84,0,2.69,1.08,2.69,3.13v4.84h-1.33V440c0-1.47-.51-2.16-1.77-2.16a3.31,3.31,0,0,0-2.45,1.39v5.43H126.1Z"/><path d="M145.09,440.8a4,4,0,0,1,4.34-4.09,4,4,0,0,1,2.83,1.13l-.66.85a3.22,3.22,0,0,0-2.13-.88,3,3,0,1,0,0,6,3.72,3.72,0,0,0,2.4-1l.6.86a4.65,4.65,0,0,1-3.09,1.22A3.92,3.92,0,0,1,145.09,440.8Z"/><path d="M154.64,441.73V436.9H156v4.66c0,1.45.51,2.16,1.79,2.16a3.1,3.1,0,0,0,2.42-1.43V436.9h1.33v7.78H160.4l-.11-1.36h-.06a3.81,3.81,0,0,1-2.9,1.55C155.49,444.87,154.64,443.78,154.64,441.73Z"/><path d="M165.33,436.9h1.1l.13,1.84h0a4.1,4.1,0,0,1,3.48-2,3.26,3.26,0,0,1,1.53.32l-.3,1.13a4,4,0,0,0-1.44-.25c-1.17,0-2.27.59-3.2,2.22v4.55h-1.33Z"/><path d="M174.93,436.9H176l.13,1.84h0a4.1,4.1,0,0,1,3.48-2,3.26,3.26,0,0,1,1.53.32l-.3,1.13a4,4,0,0,0-1.44-.25c-1.17,0-2.27.59-3.2,2.22v4.55h-1.33Z"/><path d="M183.3,440.77a3.9,3.9,0,0,1,4-4.06,3.34,3.34,0,0,1,3.55,3.65,4.49,4.49,0,0,1-.07.8h-6.57v-1H190l-.34.37c0-1.84-.91-2.75-2.33-2.75a2.74,2.74,0,0,0-2.69,3,2.82,2.82,0,0,0,3,3,4.23,4.23,0,0,0,2.37-.73l.48.86a5.35,5.35,0,0,1-3,.93A3.93,3.93,0,0,1,183.3,440.77Z"/><path d="M193.3,436.9h1.08l.12,1.31h.06a4,4,0,0,1,2.93-1.5c1.84,0,2.69,1.08,2.69,3.13v4.84h-1.33V440c0-1.47-.51-2.16-1.78-2.16a3.34,3.34,0,0,0-2.45,1.39v5.43H193.3Z"/><path d="M204.71,441.65V438H202.5v-1l2.25-.08.18-2.5H206v2.5h3.81V438H206v3.7c0,1.39.47,2.11,2,2.11a5.09,5.09,0,0,0,1.86-.35l.29,1a7,7,0,0,1-2.44.46C205.44,444.87,204.71,443.57,204.71,441.65Z"/><path d="M212.37,438.9h6.88v1h-6.88Z"/><path d="M222.32,442.63l4.8-3.23v-.07l-4.8-3.23v-1.28l6,4v1l-6,4Z"/><path d="M231.7,436.9h1.08l.12,1h0a4.13,4.13,0,0,1,2.69-1.18c2.1,0,3.22,1.55,3.22,4,0,2.64-1.66,4.19-3.54,4.19a3.71,3.71,0,0,1-2.32-1h0l.06,1.47V448H231.7Zm5.79,3.78c0-1.72-.64-2.85-2.19-2.85A3.32,3.32,0,0,0,233,439v3.87a3.24,3.24,0,0,0,2.07.9C236.47,443.75,237.49,442.6,237.49,440.68Z"/><path d="M244.85,438h-3.6V436.9h4.93v7.78h-1.33Zm-.53-3.73a1.06,1.06,0,0,1,2.11,0,1.06,1.06,0,0,1-2.11,0Z"/><path d="M250.37,440.8c0-2.53,1.68-4.09,3.52-4.09a3.32,3.32,0,0,1,2.34,1h0l-.07-1.43v-3h1.33v11.4h-1.09l-.11-1h-.05a3.71,3.71,0,0,1-2.54,1.22C251.71,444.87,250.37,443.4,250.37,440.8Zm5.82,1.8v-3.88a2.89,2.89,0,0,0-2-.89c-1.34,0-2.43,1.18-2.43,3s.86,3,2.29,3A2.92,2.92,0,0,0,256.19,442.6Z"/><path d="M262.14,447.25a2.86,2.86,0,0,0,2-2.8l-.29-1.47.9,1.27a1.16,1.16,0,0,1-.9.36,1.15,1.15,0,0,1-1.25-1.2,1.19,1.19,0,0,1,1.28-1.21c1,0,1.44.78,1.44,2.05a3.94,3.94,0,0,1-2.81,3.84Zm.37-9.47a1.3,1.3,0,1,1,2.59,0,1.3,1.3,0,1,1-2.59,0Z"/><path d="M59,465.56h.82c1.63,0,2-.42,2-1.46s-.09-1.81-.09-2.89.33-1.56,1.44-1.75v-.06a1.49,1.49,0,0,1-1.44-1.75c0-1,.09-2,.09-2.9s-.37-1.45-2-1.45H59v-.75h1c2,0,3,.48,3,2.12,0,1.11-.15,2.08-.15,3.09,0,.63.43,1.24,2.32,1.25v.83c-1.89,0-2.32.63-2.32,1.25,0,1.08.15,1.92.15,3.09,0,1.65-.93,2.13-3,2.13H59Z"/><text class="cls-5" transform="translate(34.78 71.37)">Appli<tspan class="cls-6" x="39.6" y="0">c</tspan><tspan class="cls-7" x="47.04" y="0">a</tspan><tspan x="56.1" y="0">tion P</tspan><tspan class="cls-8" x="100.96" y="0">r</tspan><tspan x="107.34" y="0">ogram </tspan><tspan class="cls-9" x="160.86" y="0">C</tspan></text><text class="cls-5" transform="translate(306.78 71.37)">Libra<tspan class="cls-10" x="38.85" y="0">r</tspan><tspan x="45.8" y="0">y </tspan><tspan class="cls-11" x="57.9" y="0">F</tspan><tspan x="66.35" y="0">un</tspan><tspan class="cls-12" x="86.37" y="0">c</tspan><tspan x="93.89" y="0">tion </tspan><tspan class="cls-9" x="128.7" y="0">glib</tspan></text><text class="cls-5" transform="translate(39.78 369.37)"><tspan class="cls-13">S</tspan><tspan class="cls-14" x="8.54" y="0">y</tspan><tspan x="17.05" y="0">s</tspan><tspan class="cls-13" x="24.18" y="0">t</tspan><tspan x="30.89" y="0">em </tspan><tspan class="cls-15" x="58.56" y="0">C</tspan><tspan x="67.34" y="0">all </tspan><tspan class="cls-16" x="90.02" y="0">getpid</tspan></text><text class="cls-5" transform="translate(306.78 369.37)"><tspan class="cls-17">K</tspan><tspan x="10.03" y="0">ernel </tspan><tspan class="cls-18" x="53.46" y="0">T</tspan><tspan class="cls-19" x="58.26" y="0">r</tspan><tspan class="cls-9" x="61.89" y="0">ap </tspan><tspan class="cls-20" x="76.47" y="0">H</tspan><tspan class="cls-9" x="83.65" y="0">andler</tspan></text><polyline class="cls-21" points="712 303.51 712 306.51 709 306.51"/><line class="cls-22" x1="702.97" y1="306.51" x2="7.01" y2="306.51"/><polyline class="cls-21" points="4 306.51 1 306.51 1 303.51"/><line class="cls-23" x1="1" y1="297.43" x2="1" y2="20.56"/><polyline class="cls-21" points="1 17.52 1 14.52 4 14.52"/><line class="cls-22" x1="10.03" y1="14.51" x2="705.99" y2="14.51"/><polyline class="cls-21" points="709 14.52 712 14.52 712 17.52"/><line class="cls-23" x1="712" y1="23.6" x2="712" y2="300.47"/><polyline class="cls-21" points="712 593.51 712 596.51 709 596.51"/><line class="cls-22" x1="702.97" y1="596.51" x2="7.01" y2="596.51"/><polyline class="cls-21" points="4 596.51 1 596.51 1 593.51"/><line class="cls-24" x1="1" y1="587.65" x2="1" y2="332.45"/><polyline class="cls-21" points="1 329.51 1 326.51 4 326.51"/><line class="cls-22" x1="10.03" y1="326.51" x2="705.99" y2="326.51"/><polyline class="cls-21" points="709 326.51 712 326.51 712 329.51"/><line class="cls-24" x1="712" y1="335.38" x2="712" y2="590.58"/><path d="M182.63,226.84a1.05,1.05,0,1,1,2.1,0,1.05,1.05,0,1,1-2.1,0Z"/><path d="M193.13,218.56h1l-4.26,11.31h-1Z"/><path d="M196.14,221.47H197l.09.83h0a1.59,1.59,0,0,1,1.44-1c.63,0,1,.37,1.2,1.1.36-.68.75-1.1,1.48-1.1.89,0,1.41.69,1.41,1.95v4.53h-1.07v-4.45c0-.73-.21-1.1-.68-1.1s-.67.32-1,1v4.58h-1v-4.45c0-.73-.18-1.1-.65-1.1s-.73.32-1,1v4.58h-1.06Z"/><path d="M204.05,230.37l.22-.85a2.13,2.13,0,0,0,.58.09,1.82,1.82,0,0,0,1.72-1.34l.19-.47-2.94-6.33h1.09l1.53,3.48c.25.56.52,1.23.78,1.84h.06L208,225l1.37-3.48h1l-2.8,6.84a2.81,2.81,0,0,1-2.68,2.19A2.58,2.58,0,0,1,204.05,230.37Z"/><path d="M212.19,221.47h.88l.1.81h0a3.38,3.38,0,0,1,2.19-1c1.7,0,2.61,1.26,2.61,3.23,0,2.14-1.35,3.4-2.87,3.4a3,3,0,0,1-1.89-.82h0l.05,1.2v2.13h-1.08Zm4.71,3.07c0-1.39-.52-2.32-1.78-2.32a2.7,2.7,0,0,0-1.85.94v3.15A2.63,2.63,0,0,0,215,227C216.06,227,216.9,226.1,216.9,224.54Z"/><path d="M222.88,222.34H220v-.87h4v6.32h-1.08Zm-.43-3a.86.86,0,0,1,1.71,0,.86.86,0,0,1-1.71,0Z"/><path d="M227.36,224.64a3,3,0,0,1,2.86-3.33,2.7,2.7,0,0,1,1.9.81h0l-.06-1.16v-2.43h1.08v9.26h-.88l-.09-.83h0a3.05,3.05,0,0,1-2.07,1C228.45,227.94,227.36,226.75,227.36,224.64Zm4.73,1.46V223a2.35,2.35,0,0,0-1.65-.73,2.16,2.16,0,0,0-2,2.41c0,1.51.7,2.4,1.86,2.4A2.38,2.38,0,0,0,232.09,226.1Z"/><path d="M237.23,226.84a1.05,1.05,0,1,1,2.1,0,1.05,1.05,0,1,1-2.1,0Z"/><path d="M243.22,224.64a3.28,3.28,0,0,1,3.52-3.33,3.19,3.19,0,0,1,2.3.93l-.53.69a2.56,2.56,0,0,0-1.73-.72,2.32,2.32,0,0,0-2.45,2.43,2.29,2.29,0,0,0,2.43,2.41,3,3,0,0,0,2-.8l.48.71a3.78,3.78,0,0,1-2.51,1A3.19,3.19,0,0,1,243.22,224.64Z"/><path d="M325.7,288l.5-.72a4.5,4.5,0,0,0,2.74.86c1.07,0,1.59-.44,1.59-1s-.25-.82-2-1.17-2.47-.89-2.47-1.84.9-1.8,2.63-1.8a4.74,4.74,0,0,1,2.55.81l-.52.69a3.75,3.75,0,0,0-2.12-.66c-1.07,0-1.46.42-1.46.91s.55.78,1.85,1.05c2.09.45,2.6,1,2.6,1.95s-1,1.88-2.81,1.88A5.6,5.6,0,0,1,325.7,288Z"/><path d="M333.45,291.37l.22-.85a2.13,2.13,0,0,0,.58.09,1.82,1.82,0,0,0,1.72-1.34l.19-.47-2.94-6.33h1.09l1.53,3.48c.25.56.52,1.23.78,1.84h.06l.67-1.84,1.37-3.48h1l-2.8,6.84a2.81,2.81,0,0,1-2.68,2.19A2.63,2.63,0,0,1,333.45,291.37Z"/><path d="M341.3,288l.5-.72a4.5,4.5,0,0,0,2.74.86c1.07,0,1.59-.44,1.59-1s-.25-.82-2-1.17-2.47-.89-2.47-1.84.9-1.8,2.63-1.8a4.76,4.76,0,0,1,2.55.81l-.52.69a3.75,3.75,0,0,0-2.12-.66c-1.07,0-1.46.42-1.46.91s.55.78,1.85,1.05c2.09.45,2.6,1,2.6,1.95s-1,1.88-2.81,1.88A5.6,5.6,0,0,1,341.3,288Z"/><path d="M349,285.64a3,3,0,0,1,2.86-3.33,2.7,2.7,0,0,1,1.9.81h0l-.06-1.16v-2.43h1.08v9.26h-.88l-.09-.83h0a3.05,3.05,0,0,1-2.07,1C350.05,288.94,349,287.75,349,285.64Zm4.73,1.46V284a2.35,2.35,0,0,0-1.65-.73,2.16,2.16,0,0,0-2,2.41c0,1.51.7,2.4,1.86,2.4A2.38,2.38,0,0,0,353.69,287.1Z"/><path d="M356.87,285.62a3.18,3.18,0,0,1,3.22-3.31,2.73,2.73,0,0,1,2.89,3,3.9,3.9,0,0,1-.06.65h-5.34v-.83h4.71l-.28.29c0-1.49-.74-2.23-1.89-2.23a2.23,2.23,0,0,0-2.19,2.46,2.3,2.3,0,0,0,2.47,2.47,3.5,3.5,0,0,0,1.93-.6l.39.7a4.32,4.32,0,0,1-2.45.75A3.19,3.19,0,0,1,356.87,285.62Z"/><path d="M365,282.47h.88l.1.81h0a3.38,3.38,0,0,1,2.19-1c1.7,0,2.61,1.26,2.61,3.23,0,2.14-1.35,3.4-2.87,3.4a3,3,0,0,1-1.89-.82h0l.05,1.2v2.13H365Zm4.71,3.07c0-1.39-.52-2.32-1.78-2.32a2.7,2.7,0,0,0-1.85.94v3.15a2.63,2.63,0,0,0,1.68.72C368.86,288,369.7,287.1,369.7,285.54Z"/><path d="M372.5,288l.5-.72a4.5,4.5,0,0,0,2.74.86c1.07,0,1.59-.44,1.59-1s-.25-.82-2-1.17-2.47-.89-2.47-1.84.9-1.8,2.63-1.8a4.76,4.76,0,0,1,2.55.81l-.52.69a3.75,3.75,0,0,0-2.12-.66c-1.07,0-1.46.42-1.46.91s.55.78,1.85,1.05c2.09.45,2.6,1,2.6,1.95s-1,1.88-2.81,1.88A5.6,5.6,0,0,1,372.5,288Z"/><path d="M384.93,279.56h1l-4.26,11.31h-1Z"/><path d="M388.18,286.4v-3.93h1.08v3.78c0,1.19.42,1.76,1.46,1.76a2.51,2.51,0,0,0,2-1.16v-4.38h1.08v6.32h-.9l-.09-1.11h0a3.08,3.08,0,0,1-2.35,1.26C388.87,288.94,388.18,288.06,388.18,286.4Z"/><path d="M396.19,282.47h.88l.09,1.07h.06a3.27,3.27,0,0,1,2.38-1.23c1.49,0,2.18.89,2.18,2.55v3.93H400.7V285c0-1.19-.42-1.75-1.44-1.75-.76,0-1.26.38-2,1.13v4.41h-1.08Z"/><path d="M406.88,283.34H404v-.87h4v6.32h-1.08Zm-.43-3a.86.86,0,0,1,1.71,0,.86.86,0,0,1-1.71,0Z"/><path d="M413.8,285.51l-2.21-3h1.19l1,1.38a12.6,12.6,0,0,0,.74,1.06h.05c.24-.33.5-.72.72-1.08l.93-1.36h1.15l-2.24,3.13,2.42,3.19h-1.2l-1.09-1.46c-.27-.35-.56-.78-.83-1.14h-.05c-.26.37-.52.75-.78,1.15l-1,1.45h-1.15Z"/><path d="M423.93,279.56h1l-4.26,11.31h-1Z"/><path d="M427.1,288l.5-.72a4.5,4.5,0,0,0,2.74.86c1.07,0,1.59-.44,1.59-1s-.25-.82-2-1.17-2.47-.89-2.47-1.84.9-1.8,2.63-1.8a4.76,4.76,0,0,1,2.55.81l-.52.69a3.78,3.78,0,0,0-2.12-.66c-1.07,0-1.46.42-1.46.91s.55.78,1.85,1.05c2.09.45,2.6,1,2.6,1.95s-1,1.88-2.81,1.88A5.6,5.6,0,0,1,427.1,288Z"/><path d="M434.85,291.37l.22-.85a2.12,2.12,0,0,0,.57.09,1.82,1.82,0,0,0,1.73-1.34l.19-.47-2.94-6.33h1.09l1.53,3.48c.25.56.52,1.23.78,1.84h.06l.67-1.84,1.37-3.48h1l-2.8,6.84a2.81,2.81,0,0,1-2.68,2.19A2.58,2.58,0,0,1,434.85,291.37Z"/><path d="M442.7,288l.5-.72a4.48,4.48,0,0,0,2.74.86c1.07,0,1.59-.44,1.59-1s-.25-.82-2-1.17-2.47-.89-2.47-1.84.9-1.8,2.63-1.8a4.76,4.76,0,0,1,2.55.81l-.52.69a3.78,3.78,0,0,0-2.12-.66c-1.07,0-1.46.42-1.46.91s.55.78,1.85,1.05c2.09.45,2.6,1,2.6,1.95s-1,1.88-2.81,1.88A5.58,5.58,0,0,1,442.7,288Z"/><path d="M450.23,282.47h1.1l1.46,3.57c.25.64.48,1.27.7,1.88h.06c.22-.61.42-1.24.68-1.88l1.46-3.57h1l-2.63,6.32h-1.2Z"/><path d="M462.93,279.56h1l-4.26,11.31h-1Z"/><path d="M468.38,286.67V280.4h-2.24v-.87h3.32v7.22a1.14,1.14,0,0,0,1.25,1.3,2.79,2.79,0,0,0,1.18-.29l.27.81a3.91,3.91,0,0,1-1.69.37C469.12,288.94,468.38,288.16,468.38,286.67Z"/><path d="M477.07,283.34h-2.92v-.87h4v6.32h-1.08Zm-.42-3a.86.86,0,0,1,1.71,0,.86.86,0,0,1-1.71,0Z"/><path d="M482,282.47h.88l.09,1.07H483a3.27,3.27,0,0,1,2.37-1.23c1.5,0,2.19.89,2.19,2.55v3.93H486.5V285c0-1.19-.42-1.75-1.44-1.75-.76,0-1.26.38-2,1.13v4.41H482Z"/><path d="M489.58,286.4v-3.93h1.08v3.78c0,1.19.42,1.76,1.46,1.76a2.51,2.51,0,0,0,2-1.16v-4.38h1.08v6.32h-.9l-.09-1.11h-.05a3.09,3.09,0,0,1-2.36,1.26C490.27,288.94,489.58,288.06,489.58,286.4Z"/><path d="M499.6,285.51l-2.21-3h1.19l1,1.38a12.6,12.6,0,0,0,.74,1.06h.05c.23-.33.49-.72.71-1.08l.94-1.36h1.15l-2.24,3.13,2.42,3.19h-1.2l-1.09-1.46c-.27-.35-.56-.78-.83-1.14h-.06c-.25.37-.51.75-.77,1.15l-1,1.45h-1.14Z"/><path d="M509.73,279.56h1l-4.26,11.31h-1Z"/><path d="M512.92,289.94a1.75,1.75,0,0,1,1-1.4v-.05a1.14,1.14,0,0,1-.65-1,1.53,1.53,0,0,1,.75-1.18v-.06a2,2,0,0,1-.78-1.63,2.32,2.32,0,0,1,2.48-2.27,2.64,2.64,0,0,1,.94.16h2.61v.87h-1.64a1.9,1.9,0,0,1,.54,1.27,2.22,2.22,0,0,1-2.45,2.18,2.66,2.66,0,0,1-1.06-.24.87.87,0,0,0-.5.73c0,.49.48.73,1.32.73h1.41c1.63,0,2.41.41,2.41,1.48s-1.37,2.21-3.51,2.21C514,291.7,512.92,291.06,512.92,289.94Zm5.36-.28c0-.6-.48-.77-1.44-.77h-1.23a3.57,3.57,0,0,1-1-.1c-.59.32-.8.69-.8,1,0,.66.71,1.08,2.07,1.08S518.28,290.31,518.28,289.66Zm-1.06-5.08a1.46,1.46,0,1,0-1.46,1.49A1.43,1.43,0,0,0,517.22,284.58Z"/><path d="M520.66,285.62a3.18,3.18,0,0,1,3.23-3.31,2.72,2.72,0,0,1,2.88,3,4,4,0,0,1,0,.65h-5.34v-.83h4.7l-.27.29c0-1.49-.74-2.23-1.9-2.23a2.22,2.22,0,0,0-2.18,2.46,2.29,2.29,0,0,0,2.47,2.47,3.47,3.47,0,0,0,1.92-.6l.39.7a4.28,4.28,0,0,1-2.44.75A3.2,3.2,0,0,1,520.66,285.62Z"/><path d="M530.26,286.33v-3h-1.8v-.81l1.84-.06.14-2h.9v2h3.09v.87h-3.09v3c0,1.13.37,1.72,1.59,1.72a4.1,4.1,0,0,0,1.51-.29l.24.8a5.77,5.77,0,0,1-2,.37C530.85,288.94,530.26,287.89,530.26,286.33Z"/><path d="M536.59,282.47h.88l.09.81h0a3.38,3.38,0,0,1,2.19-1c1.7,0,2.61,1.26,2.61,3.23,0,2.14-1.35,3.4-2.87,3.4a3,3,0,0,1-1.89-.82h0l.06,1.2v2.13h-1.08Zm4.7,3.07c0-1.39-.52-2.32-1.78-2.32a2.66,2.66,0,0,0-1.84.94v3.15a2.61,2.61,0,0,0,1.67.72C540.46,288,541.29,287.1,541.29,285.54Z"/><path d="M547.27,283.34h-2.92v-.87h4v6.32h-1.08Zm-.43-3a.86.86,0,0,1,1.72,0,.86.86,0,0,1-1.72,0Z"/><path d="M551.76,285.64a3,3,0,0,1,2.86-3.33,2.72,2.72,0,0,1,1.9.81h0l0-1.16v-2.43h1.08v9.26h-.88l-.1-.83h0a3.05,3.05,0,0,1-2.07,1C552.85,288.94,551.76,287.75,551.76,285.64Zm4.73,1.46V284a2.35,2.35,0,0,0-1.65-.73,2.16,2.16,0,0,0-2,2.41c0,1.51.71,2.4,1.86,2.4A2.39,2.39,0,0,0,556.49,287.1Z"/><path d="M561.63,287.84a1.05,1.05,0,1,1,1,1.1A1,1,0,0,1,561.63,287.84Z"/><path d="M567.62,285.64a3.28,3.28,0,0,1,3.52-3.33,3.19,3.19,0,0,1,2.3.93l-.53.69a2.58,2.58,0,0,0-1.73-.72,2.32,2.32,0,0,0-2.46,2.43,2.3,2.3,0,0,0,2.43,2.41,3,3,0,0,0,2-.8l.49.71a3.8,3.8,0,0,1-2.51,1A3.19,3.19,0,0,1,567.62,285.64Z"/><path d="M66.82,503.15c0-1.42,1.33-2.11,4.59-2.37a1.5,1.5,0,0,0-1.68-1.58,4.48,4.48,0,0,0-2.21.75l-.43-.73a5.61,5.61,0,0,1,2.83-.91,2.35,2.35,0,0,1,2.57,2.6v3.88h-.9l-.09-.86h0a4.22,4.22,0,0,1-2.48,1A1.92,1.92,0,0,1,66.82,503.15Zm4.59,0V501.5c-2.7.21-3.52.74-3.52,1.57s.65,1,1.38,1A3.48,3.48,0,0,0,71.41,503.14Z"/><path d="M75.47,498.47h.89l.11,1.49h0a3.35,3.35,0,0,1,2.82-1.65,2.72,2.72,0,0,1,1.25.26l-.24.93a3.07,3.07,0,0,0-1.17-.21,3,3,0,0,0-2.6,1.81v3.69H75.47Z"/><path d="M82.42,501.64a3.28,3.28,0,0,1,3.52-3.33,3.22,3.22,0,0,1,2.31.93l-.54.69a2.56,2.56,0,0,0-1.73-.72,2.32,2.32,0,0,0-2.45,2.43A2.29,2.29,0,0,0,86,504.05a3,3,0,0,0,2-.8l.48.71a3.76,3.76,0,0,1-2.51,1A3.19,3.19,0,0,1,82.42,501.64Z"/><path d="M90.39,495.53h1.08v2.52l-.07,1.5h0a3.19,3.19,0,0,1,2.36-1.24c1.49,0,2.18.89,2.18,2.55v3.93H94.9V501c0-1.19-.41-1.75-1.44-1.75-.76,0-1.26.38-2,1.13v4.41H90.39Z"/><path d="M102.53,495.56h1l-4.26,11.31h-1Z"/><path d="M108,501.51l-2.21-3H107l1,1.38a12.6,12.6,0,0,0,.74,1.06h0c.24-.33.5-.72.72-1.08l.93-1.36h1.15l-2.24,3.13,2.42,3.19h-1.2l-1.09-1.46c-.27-.35-.56-.78-.83-1.14h0c-.26.37-.52.75-.78,1.15l-1,1.45h-1.15Z"/><path d="M113.46,502.67a2.53,2.53,0,0,1,1.79-2.21v0a2.33,2.33,0,0,1-1.26-1.94c0-1.27,1.07-2.13,2.56-2.13s2.57.92,2.57,2.21a2.59,2.59,0,0,1-1.26,2v.06c.91.45,1.62,1,1.62,2.15s-1.07,2.21-3,2.21S113.46,504,113.46,502.67Zm5,0c0-1.14-1.16-1.44-2.6-1.92-.81.43-1.42,1-1.42,1.79s.82,1.58,2.09,1.58S118.46,503.55,118.46,502.69Zm-.28-4.09a1.47,1.47,0,0,0-1.66-1.46,1.38,1.38,0,0,0-1.55,1.33c0,1,1,1.4,2.19,1.79A2.1,2.1,0,0,0,118.18,498.6Z"/><path d="M121.38,501c0-3.33,1.67-4.61,3.47-4.61a3.29,3.29,0,0,1,2.32.88l-.6.68a2.43,2.43,0,0,0-1.65-.67c-1.35,0-2.52.95-2.52,3.72,0,2,.78,3.15,2.15,3.15a1.73,1.73,0,0,0,1.75-1.82,1.58,1.58,0,0,0-1.76-1.76,2.92,2.92,0,0,0-2.17,1.17l0-.84a3.51,3.51,0,0,1,2.41-1.13,2.36,2.36,0,0,1,2.58,2.56,2.67,2.67,0,0,1-2.77,2.66C122.75,504.94,121.38,503.62,121.38,501Z"/><path d="M133.73,495.56h1l-4.26,11.31h-1Z"/><path d="M137.35,495.53h1.07v6.25h.06l3.39-3.31h1.23l-4.68,4.6v1.72h-1.07Zm2.43,5.9.65-.7,3,4.06h-1.19Z"/><path d="M144.67,501.62a3.18,3.18,0,0,1,3.22-3.31,2.72,2.72,0,0,1,2.88,3,4,4,0,0,1-.05.65h-5.34v-.83h4.71l-.28.29c0-1.49-.74-2.23-1.89-2.23a2.23,2.23,0,0,0-2.19,2.46,2.3,2.3,0,0,0,2.47,2.47,3.5,3.5,0,0,0,1.93-.6l.39.7a4.34,4.34,0,0,1-2.45.75A3.19,3.19,0,0,1,144.67,501.62Z"/><path d="M153.47,498.47h.89l.11,1.49h0a3.35,3.35,0,0,1,2.82-1.65,2.72,2.72,0,0,1,1.25.26l-.25.93a3,3,0,0,0-1.17-.21,3,3,0,0,0-2.6,1.81v3.69h-1.07Z"/><path d="M160.59,498.47h.88l.09,1.07h.06a3.27,3.27,0,0,1,2.38-1.23c1.49,0,2.18.89,2.18,2.55v3.93H165.1V501c0-1.19-.42-1.75-1.44-1.75-.76,0-1.26.38-2,1.13v4.41h-1.08Z"/><path d="M168.06,501.62a3.18,3.18,0,0,1,3.23-3.31,2.72,2.72,0,0,1,2.88,3,4,4,0,0,1,0,.65h-5.34v-.83h4.71l-.28.29c0-1.49-.74-2.23-1.9-2.23a2.22,2.22,0,0,0-2.18,2.46,2.3,2.3,0,0,0,2.47,2.47,3.47,3.47,0,0,0,1.92-.6l.39.7a4.28,4.28,0,0,1-2.44.75A3.2,3.2,0,0,1,168.06,501.62Z"/><path d="M178.18,502.67V496.4h-2.24v-.87h3.32v7.22a1.14,1.14,0,0,0,1.25,1.3,2.79,2.79,0,0,0,1.18-.29l.27.81a3.91,3.91,0,0,1-1.69.37C178.92,504.94,178.18,504.16,178.18,502.67Z"/><path d="M188.33,495.56h1L185,506.87h-1Z"/><path d="M191.79,498.47h.88l.09.81h0a3.38,3.38,0,0,1,2.19-1c1.7,0,2.61,1.26,2.61,3.23,0,2.14-1.35,3.4-2.87,3.4a3,3,0,0,1-1.89-.82h0l.05,1.2v2.13h-1.08Zm4.71,3.07c0-1.39-.52-2.32-1.79-2.32a2.7,2.7,0,0,0-1.84.94v3.15a2.63,2.63,0,0,0,1.68.72C195.66,504,196.5,503.1,196.5,501.54Z"/><path d="M200.27,498.47h.89l.11,1.49h0a3.35,3.35,0,0,1,2.82-1.65,2.72,2.72,0,0,1,1.25.26l-.25.93a3,3,0,0,0-1.17-.21,3,3,0,0,0-2.6,1.81v3.69h-1.07Z"/><path d="M207,501.64a3.12,3.12,0,1,1,3.12,3.3A3.1,3.1,0,0,1,207,501.64Zm5.13,0c0-1.45-.8-2.43-2-2.43s-2,1-2,2.43.81,2.41,2,2.41S212.09,503.08,212.09,501.64Z"/><path d="M215,501.64a3.28,3.28,0,0,1,3.52-3.33,3.19,3.19,0,0,1,2.3.93l-.53.69a2.58,2.58,0,0,0-1.73-.72,2.33,2.33,0,0,0-2.46,2.43,2.3,2.3,0,0,0,2.44,2.41,3,3,0,0,0,1.95-.8l.48.71a3.8,3.8,0,0,1-2.51,1A3.19,3.19,0,0,1,215,501.64Z"/><path d="M222.66,501.62a3.18,3.18,0,0,1,3.23-3.31,2.72,2.72,0,0,1,2.88,3,4,4,0,0,1-.05.65h-5.34v-.83h4.7l-.27.29c0-1.49-.74-2.23-1.9-2.23a2.22,2.22,0,0,0-2.18,2.46,2.3,2.3,0,0,0,2.47,2.47,3.47,3.47,0,0,0,1.92-.6l.39.7a4.28,4.28,0,0,1-2.44.75A3.2,3.2,0,0,1,222.66,501.62Z"/><path d="M230.5,504l.5-.72a4.48,4.48,0,0,0,2.74.86c1.07,0,1.59-.44,1.59-1s-.25-.82-2-1.17-2.47-.89-2.47-1.84.9-1.8,2.63-1.8a4.76,4.76,0,0,1,2.55.81l-.52.69a3.78,3.78,0,0,0-2.12-.66c-1.07,0-1.46.42-1.46.91s.55.78,1.85,1.05c2.09.45,2.6,1,2.6,1.95s-1,1.88-2.81,1.88A5.58,5.58,0,0,1,230.5,504Z"/><path d="M238.3,504l.5-.72a4.48,4.48,0,0,0,2.74.86c1.06,0,1.59-.44,1.59-1s-.25-.82-2-1.17-2.47-.89-2.47-1.84.9-1.8,2.63-1.8a4.76,4.76,0,0,1,2.55.81l-.52.69a3.78,3.78,0,0,0-2.12-.66c-1.07,0-1.46.42-1.46.91s.55.78,1.85,1.05c2.09.45,2.6,1,2.6,1.95s-1,1.88-2.81,1.88A5.58,5.58,0,0,1,238.3,504Z"/><path d="M246,505.68h6.24v.93H246Z"/><path d="M254,501c0-3.33,1.66-4.61,3.47-4.61a3.29,3.29,0,0,1,2.32.88l-.6.68a2.43,2.43,0,0,0-1.65-.67c-1.36,0-2.53.95-2.53,3.72,0,2,.78,3.15,2.16,3.15a1.72,1.72,0,0,0,1.74-1.82,1.58,1.58,0,0,0-1.75-1.76,2.92,2.92,0,0,0-2.17,1.17l0-.84a3.51,3.51,0,0,1,2.4-1.13,2.36,2.36,0,0,1,2.59,2.56,2.68,2.68,0,0,1-2.77,2.66C255.35,504.94,254,503.62,254,501Z"/><path d="M265.56,499.08c0-.45,0-1,.07-1.47h-.07c-.27.4-.57.81-.84,1.21l-2.24,2.81h5.38v.87h-6.57v-.72l4.13-5.29h1.16v8.3h-1Z"/><path d="M271.43,503.84a1.05,1.05,0,1,1,1.05,1.1A1,1,0,0,1,271.43,503.84Z"/><path d="M277.42,501.64a3.28,3.28,0,0,1,3.52-3.33,3.19,3.19,0,0,1,2.3.93l-.53.69a2.58,2.58,0,0,0-1.73-.72,2.32,2.32,0,0,0-2.46,2.43,2.3,2.3,0,0,0,2.43,2.41,3,3,0,0,0,1.95-.8l.49.71a3.8,3.8,0,0,1-2.51,1A3.19,3.19,0,0,1,277.42,501.64Z"/><path d="M487.82,542.15c0-1.42,1.33-2.11,4.59-2.37a1.5,1.5,0,0,0-1.68-1.58,4.48,4.48,0,0,0-2.21.75l-.43-.73a5.61,5.61,0,0,1,2.83-.91,2.35,2.35,0,0,1,2.57,2.6v3.88h-.9l-.09-.86h0a4.22,4.22,0,0,1-2.48,1A1.92,1.92,0,0,1,487.82,542.15Zm4.59,0V540.5c-2.7.21-3.52.74-3.52,1.57s.65,1,1.38,1A3.48,3.48,0,0,0,492.41,542.14Z"/><path d="M496.47,537.47h.89l.11,1.49h0a3.35,3.35,0,0,1,2.82-1.65,2.72,2.72,0,0,1,1.25.26l-.24.93a3.07,3.07,0,0,0-1.17-.21,3,3,0,0,0-2.6,1.81v3.69h-1.08Z"/><path d="M503.42,540.64a3.28,3.28,0,0,1,3.52-3.33,3.22,3.22,0,0,1,2.31.93l-.54.69a2.56,2.56,0,0,0-1.73-.72,2.32,2.32,0,0,0-2.45,2.43,2.29,2.29,0,0,0,2.43,2.41,3,3,0,0,0,2-.8l.48.71a3.76,3.76,0,0,1-2.51,1A3.19,3.19,0,0,1,503.42,540.64Z"/><path d="M511.39,534.53h1.08v2.52l-.07,1.5h0a3.19,3.19,0,0,1,2.36-1.24c1.49,0,2.18.89,2.18,2.55v3.93H515.9V540c0-1.19-.41-1.75-1.44-1.75-.76,0-1.26.38-2,1.13v4.41h-1.08Z"/><path d="M523.53,534.56h1l-4.26,11.31h-1Z"/><path d="M529,540.51l-2.21-3H528l1,1.38a12.6,12.6,0,0,0,.74,1.06h0c.24-.33.5-.72.72-1.08l.93-1.36h1.15l-2.24,3.13,2.42,3.19h-1.2l-1.09-1.46c-.27-.35-.56-.78-.83-1.14h0c-.26.37-.52.75-.78,1.15l-1,1.45h-1.15Z"/><path d="M534.46,541.67a2.53,2.53,0,0,1,1.79-2.21v-.05a2.33,2.33,0,0,1-1.26-1.94c0-1.27,1.07-2.13,2.56-2.13s2.57.92,2.57,2.21a2.59,2.59,0,0,1-1.26,2v.06c.91.45,1.62,1,1.62,2.15s-1.07,2.21-3,2.21S534.46,543,534.46,541.67Zm5,0c0-1.14-1.16-1.44-2.6-1.92-.81.43-1.42,1-1.42,1.79s.82,1.58,2.09,1.58S539.46,542.55,539.46,541.69Zm-.28-4.09a1.47,1.47,0,0,0-1.66-1.46,1.38,1.38,0,0,0-1.55,1.33c0,1,.95,1.4,2.19,1.79A2.1,2.1,0,0,0,539.18,537.6Z"/><path d="M542.38,540c0-3.33,1.67-4.61,3.47-4.61a3.29,3.29,0,0,1,2.32.88l-.6.68a2.43,2.43,0,0,0-1.65-.67c-1.35,0-2.52.95-2.52,3.72,0,2,.78,3.15,2.15,3.15a1.73,1.73,0,0,0,1.75-1.82,1.58,1.58,0,0,0-1.76-1.76,2.92,2.92,0,0,0-2.17,1.17l0-.84a3.51,3.51,0,0,1,2.41-1.13,2.36,2.36,0,0,1,2.58,2.56,2.67,2.67,0,0,1-2.77,2.66C543.75,543.94,542.38,542.62,542.38,540Z"/><path d="M554.73,534.56h1l-4.26,11.31h-1Z"/><path d="M557.86,540.62a3.18,3.18,0,0,1,3.23-3.31,2.72,2.72,0,0,1,2.88,3,4,4,0,0,1-.05.65h-5.34v-.83h4.71l-.28.29c0-1.49-.74-2.23-1.9-2.23a2.22,2.22,0,0,0-2.18,2.46,2.3,2.3,0,0,0,2.47,2.47,3.47,3.47,0,0,0,1.92-.6l.39.7a4.28,4.28,0,0,1-2.44.75A3.2,3.2,0,0,1,557.86,540.62Z"/><path d="M566,537.47h.88l.09,1.07H567a3.27,3.27,0,0,1,2.38-1.23c1.49,0,2.18.89,2.18,2.55v3.93H570.5V540c0-1.19-.42-1.75-1.44-1.75-.76,0-1.26.38-2,1.13v4.41H566Z"/><path d="M575.26,541.33v-3h-1.8v-.81l1.84-.06.14-2h.9v2h3.09v.87h-3.09v3c0,1.13.37,1.72,1.6,1.72a4.09,4.09,0,0,0,1.5-.29l.24.8a5.68,5.68,0,0,1-2,.37C575.86,543.94,575.26,542.89,575.26,541.33Z"/><path d="M582.27,537.47h.89l.11,1.49h0a3.35,3.35,0,0,1,2.82-1.65,2.72,2.72,0,0,1,1.25.26l-.25.93a3,3,0,0,0-1.17-.21,3,3,0,0,0-2.6,1.81v3.69h-1.07Z"/><path d="M589.05,546.37l.22-.85a2.12,2.12,0,0,0,.57.09,1.82,1.82,0,0,0,1.73-1.34l.19-.47-2.94-6.33h1.09l1.53,3.48c.25.56.52,1.23.78,1.84h.06L593,541l1.37-3.48h1l-2.8,6.84a2.81,2.81,0,0,1-2.68,2.19A2.58,2.58,0,0,1,589.05,546.37Z"/><path d="M601.53,534.56h1l-4.26,11.31h-1Z"/><path d="M604.66,540.62a3.18,3.18,0,0,1,3.23-3.31,2.72,2.72,0,0,1,2.88,3,4,4,0,0,1,0,.65h-5.34v-.83h4.7l-.27.29c0-1.49-.74-2.23-1.9-2.23a2.22,2.22,0,0,0-2.18,2.46,2.3,2.3,0,0,0,2.47,2.47,3.47,3.47,0,0,0,1.92-.6l.39.7a4.28,4.28,0,0,1-2.44.75A3.2,3.2,0,0,1,604.66,540.62Z"/><path d="M612.79,537.47h.88l.09,1.07h.06a3.27,3.27,0,0,1,2.38-1.23c1.49,0,2.18.89,2.18,2.55v3.93H617.3V540c0-1.19-.42-1.75-1.44-1.75-.76,0-1.26.38-2,1.13v4.41h-1.08Z"/><path d="M622.06,541.33v-3h-1.8v-.81l1.84-.06.14-2h.9v2h3.09v.87h-3.09v3c0,1.13.37,1.72,1.6,1.72a4.09,4.09,0,0,0,1.5-.29l.24.8a5.73,5.73,0,0,1-2,.37C622.66,543.94,622.06,542.89,622.06,541.33Z"/><path d="M629.06,537.47h.9l.11,1.49h0a3.34,3.34,0,0,1,2.82-1.65,2.72,2.72,0,0,1,1.25.26l-.25.93a3,3,0,0,0-1.17-.21,3,3,0,0,0-2.6,1.81v3.69h-1.08Z"/><path d="M635.85,546.37l.22-.85a2.12,2.12,0,0,0,.57.09,1.82,1.82,0,0,0,1.73-1.34l.18-.47-2.93-6.33h1.09l1.53,3.48c.25.56.52,1.23.78,1.84h.05c.23-.6.47-1.26.68-1.84l1.37-3.48h1l-2.8,6.84a2.81,2.81,0,0,1-2.68,2.19A2.58,2.58,0,0,1,635.85,546.37Z"/><path d="M643.56,544.68h6.24v.93h-6.24Z"/><path d="M651.58,540c0-3.33,1.66-4.61,3.47-4.61a3.29,3.29,0,0,1,2.32.88l-.6.68a2.43,2.43,0,0,0-1.65-.67c-1.36,0-2.53.95-2.53,3.72,0,2,.78,3.15,2.16,3.15a1.72,1.72,0,0,0,1.74-1.82,1.58,1.58,0,0,0-1.75-1.76,2.92,2.92,0,0,0-2.17,1.17l0-.84a3.51,3.51,0,0,1,2.4-1.13,2.36,2.36,0,0,1,2.59,2.56,2.68,2.68,0,0,1-2.77,2.66C653,543.94,651.58,542.62,651.58,540Z"/><path d="M663.16,538.08c0-.45,0-1,.07-1.47h-.07c-.27.4-.57.81-.84,1.21l-2.24,2.81h5.38v.87h-6.57v-.72l4.13-5.29h1.16v8.3h-1Z"/><path d="M669,542.84a1.05,1.05,0,1,1,1.05,1.1A1,1,0,0,1,669,542.84Z"/><path d="M674.85,542.68l.65-.75A3.57,3.57,0,0,0,678,543c1.17,0,1.84-.56,1.84-1.34s-.66-1.17-1.52-1.53l-1.23-.55a2.42,2.42,0,0,1-1.84-2.19c0-1.3,1.17-2.27,2.8-2.27a3.69,3.69,0,0,1,2.62,1.06l-.57.7a3,3,0,0,0-2.09-.79c-1,0-1.65.46-1.65,1.23s.79,1.12,1.52,1.4l1.2.54c1,.41,1.88,1,1.88,2.27s-1.14,2.43-3,2.43A4.33,4.33,0,0,1,674.85,542.68Z"/><line class="cls-21" x1="204" y1="160.51" x2="319.51" y2="108.01"/><path d="M325,105.51a30.25,30.25,0,0,0-5.81,7.87l-.41-5-3.53-3.62A30.12,30.12,0,0,0,325,105.51Z"/><polyline class="cls-21" points="434 183.51 591 183.51 591 411.51 501.04 411.51"/><path d="M495,411.51a30.31,30.31,0,0,0,8.55-4.75l-1.72,4.75,1.72,4.76A30.59,30.59,0,0,0,495,411.51Z"/><line class="cls-21" x1="344" y1="449.51" x2="196.75" y2="402.36"/><path d="M191,400.51a29.92,29.92,0,0,0,9.59-1.92l-3.09,4,.19,5A30.32,30.32,0,0,0,191,400.51Z"/><line class="cls-21" x1="272" y1="443.51" x2="336.24" y2="463.71"/><path d="M342,465.51a30.39,30.39,0,0,0-9.58,2l3.07-4-.22-5.05A30.1,30.1,0,0,0,342,465.51Z"/><polyline class="cls-21" points="430 490.51 695 490.51 695 206.51 402.04 206.51"/><path d="M396,206.51a30.31,30.31,0,0,0,8.55-4.75l-1.72,4.75,1.72,4.76A30.59,30.59,0,0,0,396,206.51Z"/><line class="cls-21" x1="342" y1="217.51" x2="98.98" y2="184.33"/><path d="M93,183.51a30.18,30.18,0,0,0,9.11-3.55l-2.35,4.48,1.07,4.94A30.42,30.42,0,0,0,93,183.51Z"/><circle cx="272" cy="109.51" r="12"/><path class="cls-25" d="M268.46,111.62h2.74v-5.87H269v-1.47a7.17,7.17,0,0,0,2.88-.92h1.73v8.26h2.31v1.9h-7.41Z"/><circle cx="608" cy="279.51" r="12"/><path class="cls-25" d="M604.13,282.17C607,279.73,609,278,609,276.54c0-1-.61-1.52-1.68-1.52a3.06,3.06,0,0,0-2,1L604,274.77a4.72,4.72,0,0,1,3.63-1.61c2.14,0,3.6,1.29,3.6,3.24,0,1.72-1.76,3.54-3.73,5.26.58-.06,1.32-.12,1.84-.12h2.41v2h-7.63Z"/><circle cx="252" cy="399.51" r="12"/><path class="cls-25" d="M247.87,402.27l1.09-1.48a3.86,3.86,0,0,0,2.48,1c1.1,0,1.9-.43,1.9-1.21s-.69-1.44-3.06-1.44v-1.67c2,0,2.73-.55,2.73-1.36s-.58-1.11-1.5-1.11a3.36,3.36,0,0,0-2.16.88l-1.19-1.43a5.38,5.38,0,0,1,3.45-1.31c2.22,0,3.76,1,3.76,2.79,0,1.05-.73,1.8-2,2.26v.07a2.65,2.65,0,0,1,2.28,2.48c0,1.88-1.88,2.95-4,2.95A5,5,0,0,1,247.87,402.27Z"/><circle cx="325" cy="478.51" r="12"/><path class="cls-25" d="M325.65,476.59c0-.65.06-1.58.09-2.23h-.07c-.33.57-.75,1.15-1.11,1.73L323,478.3h6.09v1.8h-8.38v-1.63l4.25-6.11h2.85v10.16h-2.2Z"/><circle cx="644" cy="506.51" r="12"/><path class="cls-25" d="M639.93,509.29l1.07-1.5a3.63,3.63,0,0,0,2.39,1c1.16,0,2-.55,2-1.59s-.79-1.57-1.85-1.57a3,3,0,0,0-1.72.52l-1-.68.28-5.13h6.23v2h-4.19l-.17,1.9a3.72,3.72,0,0,1,1.33-.23c1.87,0,3.5,1,3.5,3.15s-1.9,3.55-4,3.55A5.31,5.31,0,0,1,639.93,509.29Z"/><circle cx="279" cy="190.51" r="12"/><path class="cls-25" d="M275.17,189.67c0-3.79,2.13-5.51,4.37-5.51a4.68,4.68,0,0,1,3.25,1.23l-1.25,1.41a2.79,2.79,0,0,0-1.79-.73c-1.3,0-2.43.9-2.43,3.6,0,2.53.94,3.28,1.91,3.28a1.49,1.49,0,0,0,1.55-1.64,1.34,1.34,0,0,0-1.5-1.48,2.5,2.5,0,0,0-1.95,1.09l-.11-1.54a3.92,3.92,0,0,1,2.56-1.22,2.9,2.9,0,0,1,3.15,3.15,3.43,3.43,0,0,1-3.65,3.4C277.19,194.71,275.17,193.24,275.17,189.67Z"/><rect x="563.71" width="113.33" height="29.03" rx="10"/><text class="cls-26" transform="translate(584.15 20.38) rotate(0.29)">U<tspan class="cls-27" x="9.8" y="0">ser Mode</tspan></text><rect x="563.71" y="582" width="113.33" height="29.03" rx="10"/><text class="cls-28" transform="translate(576.15 602.38) rotate(0.29)"><tspan class="cls-29">K</tspan><tspan x="9.12" y="0">ernel Mode</tspan></text></g></g></svg>