<svg xmlns="http://www.w3.org/2000/svg" viewBox="0 0 518.46 532.87"><defs><style>.cls-1{fill:#f2f2f2;}.cls-2{fill:#333;}.cls-3{fill:#999;}.cls-4{fill:gray;}.cls-5{fill:#ccc;}.cls-6{font-size:32.54px;}.cls-10,.cls-12,.cls-14,.cls-16,.cls-6,.cls-8{font-family:MyriadPro-BoldCond, Myriad Pro;font-weight:700;}.cls-7{font-size:21.7px;}.cls-11,.cls-13,.cls-15,.cls-17,.cls-7,.cls-9{font-family:MyriadPro-CondIt, Myriad Pro;font-style:italic;}.cls-8{font-size:31.23px;}.cls-9{font-size:20.82px;}.cls-10{font-size:30.89px;}.cls-11{font-size:20.59px;}.cls-12{font-size:30.51px;}.cls-13{font-size:20.34px;}.cls-14{font-size:30.4px;}.cls-15{font-size:20.27px;}.cls-16{font-size:30.49px;}.cls-17{font-size:20.32px;}</style></defs><title>system-calls</title><g id="Layer_2" data-name="Layer 2"><g id="schemas"><path class="cls-1" d="M255.89,527.64A249,249,0,0,1,79.82,102.57,249,249,0,0,1,432,454.71,247.37,247.37,0,0,1,255.89,527.64Z"/><path class="cls-2" d="M255.89,30.64a248.07,248.07,0,0,1,96.53,476.51,248.07,248.07,0,0,1-193.06-457,246.44,246.44,0,0,1,96.53-19.48m0-2c-138.07,0-250,111.92-250,250s111.93,250,250,250,250-111.93,250-250-111.93-250-250-250Z"/><path class="cls-3" d="M255.89,429.64c-83.26,0-151-67.74-151-151s67.74-151,151-151,151,67.73,151,151S339.15,429.64,255.89,429.64Zm0-202.67a51.67,51.67,0,1,0,51.67,51.67A51.73,51.73,0,0,0,255.89,227Z"/><path class="cls-2" d="M255.89,128.64a150,150,0,1,1-106.07,43.93,149,149,0,0,1,106.07-43.93m0,202.66a52.67,52.67,0,1,0-52.67-52.66,52.72,52.72,0,0,0,52.67,52.66m0-204.66a152,152,0,1,0,152,152,152,152,0,0,0-152-152Zm0,202.66a50.67,50.67,0,1,1,50.67-50.66,50.67,50.67,0,0,1-50.67,50.66Z"/><path class="cls-4" d="M255.89,379A100.34,100.34,0,1,1,356.22,278.64,100.45,100.45,0,0,1,255.89,379Zm0-152a51.67,51.67,0,1,0,51.67,51.67A51.73,51.73,0,0,0,255.89,227Z"/><path class="cls-2" d="M255.89,179.3a99.34,99.34,0,1,1-99.33,99.34,99.45,99.45,0,0,1,99.33-99.34m0,152a52.67,52.67,0,1,0-52.67-52.66,52.72,52.72,0,0,0,52.67,52.66m0-154A101.34,101.34,0,1,0,357.22,278.64,101.34,101.34,0,0,0,255.89,177.3Zm0,152a50.67,50.67,0,1,1,50.67-50.66,50.67,50.67,0,0,1-50.67,50.66Z"/><path class="cls-5" d="M56.9,277.64a199,199,0,0,1,198-197.5v47.5c-82.47.54-149.46,67.53-150,150Z"/><path class="cls-2" d="M253.89,81.15v45.5c-82.22,1.07-148.92,67.76-150,150h-46a197.81,197.81,0,0,1,196-195.49m2-2c-110.29,0-199.72,89.27-200,199.5h50a150,150,0,0,1,150-150V79.14Z"/><path class="cls-5" d="M255.89,429.63c82.8-.54,150-68.07,150-151s-67.2-150.46-150-151v-48c109.5.27,198.5,89.43,198.5,199s-89,198.72-198.5,199Z"/><path class="cls-2" d="M256.89,80.64a198,198,0,0,1,0,396v-46c82.89-1.08,150-68.84,150-152s-67.11-150.91-150-152v-46m-1.5-2h-.5v50a150,150,0,0,1,0,300v50h.5c110.46,0,200-89.55,200-200s-89.54-200-200-200Z"/><circle class="cls-2" cx="255.89" cy="278.64" r="50.49"/><path class="cls-2" d="M255.89,228.64a50,50,0,1,1-50,50,50,50,0,0,1,50-50m0-1a51,51,0,1,0,51,51,51,51,0,0,0-51-51Z"/><text class="cls-6" transform="translate(202.05 289.35) rotate(-92.42)">H</text><text class="cls-6" transform="translate(201.43 273.9) rotate(-77.82)">a</text><text class="cls-6" transform="translate(204.21 261.5) rotate(-66.67)">r</text><text class="cls-6" transform="matrix(0.57, -0.82, 0.82, 0.57, 207.2, 253.63)">d</text><text class="cls-6" transform="translate(214.28 242.41) rotate(-38.42)">w</text><text class="cls-6" transform="translate(228.74 231.18) rotate(-22.63)">a</text><text class="cls-6" transform="translate(240.5 226.39) rotate(-11.36)">r</text><text class="cls-6" transform="translate(248.73 224.43) rotate(-0.3)">e</text><text class="cls-6" transform="translate(261.52 224.63) rotate(8.71)"> </text><text class="cls-7" transform="translate(266.13 225.26) rotate(14.51)">x</text><text class="cls-7" transform="translate(272.22 226.74) rotate(21.83)">8</text><text class="cls-7" transform="translate(279.31 229.53) rotate(29.87)">6</text><text class="cls-7" transform="translate(286.04 233.49) rotate(35.9)">,</text><text class="cls-7" transform="matrix(0.77, 0.64, -0.64, 0.77, 289.13, 235.73)"> </text><text class="cls-7" transform="matrix(0.71, 0.71, -0.71, 0.71, 291.29, 237.32)">a</text><text class="cls-7" transform="translate(296.66 242.76) rotate(51.58)">r</text><text class="cls-7" transform="matrix(0.5, 0.87, -0.87, 0.5, 299.78, 246.14)">m</text><text class="cls-7" transform="translate(305.6 256.52) rotate(70.38)">6</text><text class="cls-7" transform="matrix(0.2, 0.98, -0.98, 0.2, 308.21, 263.69)">4</text><text class="cls-7" transform="translate(309.69 271.37) rotate(84.54)">,</text><text class="cls-7" transform="matrix(0.03, 1, -1, 0.03, 310.05, 275.15)"> </text><text class="cls-7" transform="matrix(-0.03, 1, -1, -0.03, 310.17, 278)">.</text><text class="cls-7" transform="translate(310.08 281.77) rotate(95.54)">.</text><text class="cls-7" transform="translate(309.73 285.54) rotate(99.52)">.</text><text class="cls-8" transform="matrix(0.42, -0.91, 0.91, 0.42, 158.24, 241.79)">K</text><text class="cls-8" transform="translate(163.89 229.44) rotate(-58.23)">e</text><text class="cls-8" transform="translate(170.57 218.78) rotate(-52.37)">r</text><text class="cls-8" transform="matrix(0.69, -0.72, 0.72, 0.69, 175.7, 211.85)">n</text><text class="cls-8" transform="translate(185.17 201.96) rotate(-39.09)">e</text><text class="cls-8" transform="translate(195.04 194.1) rotate(-33.84)">l</text><text class="cls-8" transform="translate(200.64 190.37) rotate(-30.72)"> </text><text class="cls-9" transform="translate(204.66 187.95) rotate(-27.67)">L</text><text class="cls-9" transform="translate(210.4 184.97) rotate(-24.93)">i</text><text class="cls-9" transform="matrix(0.93, -0.37, 0.37, 0.93, 213.48, 183.46)">n</text><text class="cls-9" transform="translate(220.58 180.6) rotate(-17.6)">u</text><text class="cls-9" transform="translate(228.01 178.26) rotate(-13.7)">x</text><text class="cls-9" transform="translate(234.24 176.76) rotate(-10.89)">,</text><text class="cls-9" transform="matrix(0.99, -0.16, 0.16, 0.99, 238, 176.05)"> </text><text class="cls-9" transform="matrix(0.99, -0.1, 0.1, 0.99, 240.73, 175.53)">B</text><text class="cls-9" transform="translate(248.81 174.7) rotate(-1.87)">S</text><text class="cls-9" transform="translate(255.52 174.43) rotate(2.36)">D</text><text class="cls-9" transform="matrix(1, 0.09, -0.09, 1, 263.53, 174.8)">,</text><text class="cls-9" transform="translate(267.34 175.15) rotate(7.36)"> </text><text class="cls-9" transform="matrix(0.99, 0.16, -0.16, 0.99, 270.2, 175.51)">.</text><text class="cls-9" transform="translate(273.94 176.09) rotate(11.01)">.</text><text class="cls-9" transform="translate(277.66 176.81) rotate(13.09)">.</text><text class="cls-10" transform="translate(139.29 177.1) rotate(-46.67)">S</text><text class="cls-10" transform="translate(147.25 168.64) rotate(-42.36)">y</text><text class="cls-10" transform="translate(155.82 160.85) rotate(-38.44)">s</text><text class="cls-10" transform="matrix(0.82, -0.57, 0.57, 0.82, 163.42, 154.81)">t</text><text class="cls-10" transform="translate(170.81 149.56) rotate(-30.96)">e</text><text class="cls-10" transform="translate(181.34 142.97) rotate(-24.9)">m</text><text class="cls-10" transform="translate(200.13 134.58) rotate(-20.28)"> </text><text class="cls-10" transform="translate(204.43 132.88) rotate(-17.23)">C</text><text class="cls-10" transform="translate(215.82 129.32) rotate(-12.66)">a</text><text class="cls-10" transform="translate(228.25 126.61) rotate(-9.07)">l</text><text class="cls-10" transform="matrix(0.99, -0.11, 0.11, 0.99, 234.89, 125.55)">l</text><text class="cls-10" transform="matrix(1, -0.06, 0.06, 1, 241.49, 124.74)">s</text><text class="cls-10" transform="translate(251.27 124.2) rotate(-0.81)"> </text><text class="cls-10" transform="translate(256 124.13) rotate(0.96)"> </text><text class="cls-11" transform="translate(260.71 124.17) rotate(3.22)">o</text><text class="cls-11" transform="translate(268.06 124.58) rotate(6.03)">p</text><text class="cls-11" transform="matrix(0.99, 0.15, -0.15, 0.99, 275.73, 125.39)">e</text><text class="cls-11" transform="matrix(0.98, 0.2, -0.2, 0.98, 282.38, 126.4)">n</text><text class="cls-11" transform="translate(290.11 128) rotate(13.6)">,</text><text class="cls-11" transform="matrix(0.97, 0.26, -0.26, 0.97, 293.82, 128.9)"> </text><text class="cls-11" transform="matrix(0.96, 0.29, -0.29, 0.96, 296.6, 129.6)">e</text><text class="cls-11" transform="matrix(0.95, 0.32, -0.32, 0.95, 303.01, 131.55)">p</text><text class="cls-11" transform="translate(310.34 134.05) rotate(22)">o</text><text class="cls-11" transform="translate(317.2 136.86) rotate(24.01)">l</text><text class="cls-11" transform="matrix(0.9, 0.43, -0.43, 0.9, 320.45, 138.3)">l</text><text class="cls-11" transform="translate(323.13 139.56) rotate(26.46)">,</text><text class="cls-11" transform="translate(326.55 141.27) rotate(27.71)"> </text><text class="cls-11" transform="translate(329.09 142.57) rotate(29.5)">e</text><text class="cls-11" transform="matrix(0.85, 0.53, -0.53, 0.85, 334.96, 145.89)">x</text><text class="cls-11" transform="matrix(0.83, 0.56, -0.56, 0.83, 340.4, 149.3)">i</text><text class="cls-11" transform="translate(343.35 151.27) rotate(35.36)">t</text><text class="cls-11" transform="matrix(0.8, 0.6, -0.6, 0.8, 347.08, 153.92)">,</text><text class="cls-11" transform="translate(350.15 156.22) rotate(38.15)"> </text><text class="cls-11" transform="matrix(0.77, 0.63, -0.63, 0.77, 352.44, 158.02)">.</text><text class="cls-11" transform="translate(355.38 160.43) rotate(40.83)">.</text><text class="cls-11" transform="translate(358.26 162.91) rotate(42.25)">.</text><text class="cls-12" transform="translate(33.5 155.22) rotate(-59.35)">A</text><text class="cls-12" transform="matrix(0.55, -0.83, 0.83, 0.55, 40.5, 143.41)">p</text><text class="cls-12" transform="matrix(0.6, -0.8, 0.8, 0.6, 47.9, 132.3)">p</text><text class="cls-12" transform="translate(55.98 121.56) rotate(-51.06)">l</text><text class="cls-12" transform="matrix(0.65, -0.76, 0.76, 0.65, 60.21, 116.32)">i</text><text class="cls-12" transform="matrix(0.67, -0.74, 0.74, 0.67, 64.48, 111.26)">c</text><text class="cls-12" transform="matrix(0.71, -0.71, 0.71, 0.71, 71.24, 103.79)">a</text><text class="cls-12" transform="matrix(0.73, -0.68, 0.68, 0.73, 79.97, 95.04)">t</text><text class="cls-12" transform="translate(86.83 88.73) rotate(-40.96)">i</text><text class="cls-12" transform="matrix(0.78, -0.63, 0.63, 0.78, 91.79, 84.34)">o</text><text class="cls-12" transform="translate(101.81 76.27) rotate(-35.77)">n</text><text class="cls-12" transform="translate(112.98 68.28) rotate(-33.13)">s</text><text class="cls-13" transform="translate(121.18 62.97) rotate(-31.7)"> </text><text class="cls-13" transform="translate(123.62 61.44) rotate(-30.49)">P</text><text class="cls-13" transform="matrix(0.88, -0.48, 0.48, 0.88, 130.49, 57.4)">y</text><text class="cls-13" transform="translate(136.49 54.11) rotate(-27.47)">t</text><text class="cls-13" transform="translate(140.7 51.9) rotate(-26.04)">h</text><text class="cls-13" transform="translate(147.73 48.47) rotate(-24.32)">o</text><text class="cls-13" transform="translate(154.42 45.44) rotate(-22.6)">n</text><text class="cls-13" transform="translate(161.7 42.44) rotate(-21.27)">,</text><text class="cls-13" transform="matrix(0.94, -0.35, 0.35, 0.94, 165.24, 41.06)"> </text><text class="cls-13" transform="matrix(0.94, -0.33, 0.33, 0.94, 167.93, 40.02)">G</text><text class="cls-13" transform="translate(176.08 37.19) rotate(-17.39)">o</text><text class="cls-13" transform="translate(182.37 35.23) rotate(-16.31)">,</text><text class="cls-13" transform="translate(186.01 34.16) rotate(-15.55)"> </text><text class="cls-13" transform="translate(188.81 33.37) rotate(-14.64)">J</text><text class="cls-13" transform="translate(193.76 32.06) rotate(-13.2)">a</text><text class="cls-13" transform="translate(201.06 30.35) rotate(-11.61)">v</text><text class="cls-13" transform="translate(207.42 29.04) rotate(-10.05)">a</text><text class="cls-13" transform="translate(214.92 27.73) rotate(-8.78)">,</text><text class="cls-13" transform="translate(218.68 27.15) rotate(-8.03)"> </text><text class="cls-13" transform="translate(221.59 26.73) rotate(-7.28)">.</text><text class="cls-13" transform="matrix(0.99, -0.11, 0.11, 0.99, 225.37, 26.25)">.</text><text class="cls-13" transform="matrix(0.99, -0.11, 0.11, 0.99, 229.19, 25.84)">.</text><text class="cls-14" transform="translate(92.37 159.68) rotate(-51.99)">S</text><text class="cls-14" transform="matrix(0.66, -0.75, 0.75, 0.66, 99.65, 150.31)">h</text><text class="cls-14" transform="translate(108.7 140.15) rotate(-44.71)">e</text><text class="cls-14" transform="matrix(0.74, -0.67, 0.67, 0.74, 117.63, 131.39)">l</text><text class="cls-14" transform="translate(122.58 126.93) rotate(-40.16)">l</text><text class="cls-14" transform="matrix(0.79, -0.61, 0.61, 0.79, 127.65, 122.6)">s</text><text class="cls-14" transform="translate(135.3 116.71) rotate(-35.85)"> </text><text class="cls-15" transform="translate(139.08 113.94) rotate(-34.12)">b</text><text class="cls-15" transform="translate(145.38 109.67) rotate(-31.99)">a</text><text class="cls-15" transform="matrix(0.87, -0.5, 0.5, 0.87, 151.89, 105.63)">s</text><text class="cls-15" transform="translate(156.68 102.83) rotate(-28.23)">h</text><text class="cls-15" transform="translate(163.59 99.15) rotate(-26.59)">,</text><text class="cls-15" transform="translate(166.98 97.45) rotate(-25.64)"> </text><text class="cls-15" transform="translate(169.57 96.19) rotate(-24.4)">z</text><text class="cls-15" transform="translate(174.91 93.77) rotate(-22.78)">s</text><text class="cls-15" transform="translate(180.01 91.6) rotate(-20.89)">h</text><text class="cls-15" transform="translate(187.34 88.83) rotate(-19.25)">,</text><text class="cls-15" transform="translate(190.89 87.6) rotate(-18.3)"> </text><text class="cls-15" transform="translate(193.66 86.68) rotate(-17.35)">.</text><text class="cls-15" transform="translate(197.26 85.55) rotate(-16.27)">.</text><text class="cls-15" transform="translate(200.88 84.49) rotate(-15.2)">.</text><text class="cls-16" transform="translate(271.86 76.9) rotate(6.09)">L</text><text class="cls-16" transform="translate(283.16 78.15) rotate(8.63)">i</text><text class="cls-16" transform="translate(289.63 79.04) rotate(11.45)">b</text><text class="cls-16" transform="translate(302.73 81.75) rotate(14.59)">r</text><text class="cls-16" transform="translate(311.15 83.89) rotate(17.61)">a</text><text class="cls-16" transform="translate(323.12 87.73) rotate(20.63)">r</text><text class="cls-16" transform="translate(331.88 91) rotate(23.69)">y</text><text class="cls-16" transform="matrix(0.9, 0.44, -0.44, 0.9, 342.59, 95.77)"> </text><text class="cls-16" transform="translate(346.8 97.74) rotate(28.3)">F</text><text class="cls-16" transform="translate(356.85 103.1) rotate(31.73)">u</text><text class="cls-16" transform="translate(368.3 110.17) rotate(35.48)">n</text><text class="cls-16" transform="translate(379.41 118.14) rotate(38.73)">c</text><text class="cls-16" transform="translate(387.32 124.51) rotate(41.54)">t</text><text class="cls-16" transform="matrix(0.72, 0.69, -0.69, 0.72, 394.27, 130.69)">i</text><text class="cls-16" transform="translate(399.05 135.16) rotate(46.54)">o</text><text class="cls-16" transform="matrix(0.64, 0.77, -0.77, 0.64, 407.87, 144.44)">n</text><text class="cls-16" transform="translate(416.55 154.97) rotate(53.59)">s</text><text class="cls-16" transform="matrix(0.56, 0.83, -0.83, 0.56, 422.29, 162.81)"> </text><text class="cls-17" transform="translate(424.94 166.64) rotate(57.37)">g</text><text class="cls-17" transform="matrix(0.52, 0.86, -0.86, 0.52, 429.02, 173.06)">l</text><text class="cls-17" transform="translate(430.85 176.11) rotate(59.95)">i</text><text class="cls-17" transform="translate(432.64 179.13) rotate(61.53)">b</text><text class="cls-17" transform="translate(436.29 185.9) rotate(63.42)">c</text><text class="cls-17" transform="translate(438.77 190.88) rotate(64.71)">,</text><text class="cls-17" transform="translate(440.39 194.31) rotate(65.66)"> </text><text class="cls-17" transform="translate(441.63 196.84) rotate(67.72)">m</text><text class="cls-17" transform="translate(446 207.61) rotate(70.42)">u</text><text class="cls-17" transform="translate(448.6 214.96) rotate(72.29)">s</text><text class="cls-17" transform="translate(450.3 220.32) rotate(73.57)">l</text><text class="cls-17" transform="matrix(0.27, 0.96, -0.96, 0.27, 451.13, 223.13)">,</text><text class="cls-17" transform="matrix(0.25, 0.97, -0.97, 0.25, 452.15, 226.79)"> </text><text class="cls-17" transform="translate(452.89 229.6) rotate(76.31)">.</text><text class="cls-17" transform="translate(453.78 233.26) rotate(77.36)">.</text><text class="cls-17" transform="matrix(0.2, 0.98, -0.98, 0.2, 454.61, 236.98)">.</text><path d="M255.89,134.64a144,144,0,1,1-101.82,42.17,143,143,0,0,1,101.82-42.17m0-8a152,152,0,1,0,152,152,152,152,0,0,0-152-152Z"/></g></g></svg>